<?xml version="1.0" standalone="no"?>
 <!DOCTYPE svg PUBLIC "-//W3C//DTD SVG 1.1//EN" 
 "http://www.w3.org/Graphics/SVG/1.1/DTD/svg11.dtd"> 
<svg
  xmlns:svg="http://www.w3.org/2000/svg"
  xmlns="http://www.w3.org/2000/svg"
  xmlns:xlink="http://www.w3.org/1999/xlink"
  version="1.1"
  width="11.684000cm" height="9.398000cm" viewBox="0 0 116840000 93980000">
<title>SVG Picture created as half-swept-Edge_Cuts.svg date 2023/03/08 20:58:33 </title>
  <desc>Picture generated by PCBNEW </desc>
<g style="fill:#000000; fill-opacity:1.000000;stroke:#000000; stroke-opacity:1.000000;
stroke-linecap:round; stroke-linejoin:round;"
 transform="translate(0 0) scale(1 1)">
</g>
<g style="fill:#000000; fill-opacity:0.0; 
stroke:#000000; stroke-width:0.000000; stroke-opacity:1; 
stroke-linecap:round; stroke-linejoin:round;">
</g>
<g style="fill:#C2C200; fill-opacity:0.0; 
stroke:#C2C200; stroke-width:0.000000; stroke-opacity:1; 
stroke-linecap:round; stroke-linejoin:round;">
</g>
<g style="fill:#C2C200; fill-opacity:0.0; 
stroke:#C2C200; stroke-width:50000.000000; stroke-opacity:1; 
stroke-linecap:round; stroke-linejoin:round;">
<path d="M112395000.000000 30122000.000000 A750000.000000 750000.000000 0.0 0 0 111645000.000000 29372000.000000" />
<path d="M3450055 21736702
L3490254 71005024
" />
<path d="M97487492.484656 90593823.403048 A86583833.000000 86583833.000000 0.0 0 0 74169133.943621 80321946.205912" />
<path d="M91982001.590345 27443998.979338 A2001223.000000 2001223.000000 0.0 0 0 94017001.997880 29374916.878802" />
<path d="M97487505.411272 90593791.750289 A2236865.000000 2236865.000000 0.0 0 0 100146888.792153 89772600.857858" />
<path d="M74169134.024610 80321945.887480 A323956757.000000 323956757.000000 0.0 0 0 5528000.000563 72841118.684486" />
<path d="M3490252.485075 71005024.112137 A1983409.000000 1983409.000000 0.0 0 0 5527999.994408 72841118.814469" />
<path d="M112395000 30122000
L112395000 47244000
" />
<path d="M91982001 27443999
L91982045 11897419
" />
<path d="M94017002 29374917
L111645000 29372000
" />
<path d="M112395000 47244000
L112407000 54610000
" />
<path d="M112407000 54610000
L112395000 60747850
" />
<path d="M100146889 89772601
L108889800 74218800
" />
<path d="M57179699.999379 3103144.998758 A1629900.000000 1629900.000000 0.0 0 0 55549800.000000 1473200.000000" />
<path d="M22508745 9546055
L36760000 9546055
" />
<path d="M20878800 18476812
L20878800 11176000
" />
<path d="M40019890.000000 1473205.000000 A1629945.000000 1629945.000000 0.0 0 0 38389945.000008 3103145.000000" />
<path d="M111937800 64262000
L109205061 67191250
" />
<path d="M5080000 20106757
L19260000 20106757
" />
<path d="M109042200 72974200
L109042200 67564000
" />
<path d="M5080000.000000 20106755.000000 A1629945.000000 1629945.000000 0.0 0 0 3450055.000001 21736702.000000" />
<path d="M19260000.000000 20106745.000000 A1629945.000000 1629945.000000 0.0 0 0 20889944.999956 18476812.000000" />
<path d="M90352100 10287000
L76691290 10287000
" />
<path d="M75061309.999624 6363034.999248 A1629910.000000 1629910.000000 0.0 0 0 73431400.000000 4733090.000000" />
<path d="M58809690 4733090
L73431400 4733090
" />
<path d="M38389945 7916110
L38389945 3103145
" />
<path d="M109205060.660176 67191249.632990 A508000.000000 508000.000000 0.0 0 0 109042200.000000 67564000.000000" />
<path d="M75061345 6363035
L75061345 8657055
" />
<path d="M36760000.000000 9546045.000000 A1629945.000000 1629945.000000 0.0 0 0 38389944.999969 7916110.000000" />
<path d="M108891321.747262 74213717.366625 A4097775.000000 4097775.000000 0.0 0 0 109042199.670796 72974200.010481" />
<path d="M75061400.000621 8657055.001518 A1629900.000000 1629900.000000 0.0 0 0 76691290.000000 10286999.999969" />
<path d="M40019890 1473200
L55549800 1473200
" />
<path d="M112395000 60747850
L112395000 62992000
" />
<path d="M111937808.324692 64262007.522191 A1778398.000000 1778398.000000 0.0 0 0 112394999.793945 62992000.009011" />
<path d="M22508744.998758 9546100.000621 A1629900.000000 1629900.000000 0.0 0 0 20878800.000000 11176000.000000" />
<path d="M57179710.000621 3103145.000966 A1629990.000000 1629990.000000 0.0 0 0 58809690.000000 4733089.999969" />
<path d="M91982025.999889 11897418.999779 A1629926.000000 1629926.000000 0.0 0 0 90352100.000000 10267474.000000" />
<g >
</g>
<g >
</g>
<g >
</g>
<g >
</g>
<g >
</g>
<g >
</g>
<g >
</g>
<g >
</g>
<g >
</g>
<g >
</g>
<g >
</g>
<g >
</g>
<g >
</g>
<g >
</g>
<g >
</g>
<g >
</g>
<g >
</g>
<g >
</g>
<g >
</g>
<g >
</g>
<g >
</g>
<g >
</g>
<g >
</g>
<g >
</g>
<g >
</g>
<g >
</g>
<g >
</g>
</g> 
</svg>
