%TF.GenerationSoftware,KiCad,Pcbnew,(6.0.4-0)*%
%TF.CreationDate,2022-12-22T20:07:12-07:00*%
%TF.ProjectId,half-swept,68616c66-2d73-4776-9570-742e6b696361,rev?*%
%TF.SameCoordinates,Original*%
%TF.FileFunction,Legend,Top*%
%TF.FilePolarity,Positive*%
%FSLAX46Y46*%
G04 Gerber Fmt 4.6, Leading zero omitted, Abs format (unit mm)*
G04 Created by KiCad (PCBNEW (6.0.4-0)) date 2022-12-22 20:07:12*
%MOMM*%
%LPD*%
G01*
G04 APERTURE LIST*
%ADD10C,0.150000*%
%ADD11C,0.120000*%
%ADD12C,0.002000*%
%ADD13C,0.300000*%
%ADD14C,0.125000*%
%ADD15C,1.397000*%
%ADD16C,2.000000*%
%ADD17C,1.524000*%
G04 APERTURE END LIST*
D10*
X45466767Y-80234142D02*
X45314982Y-80305571D01*
X45029267Y-80305571D01*
X44895339Y-80234142D01*
X44832839Y-80162714D01*
X44779267Y-80019857D01*
X44832839Y-79591285D01*
X44922125Y-79448428D01*
X45002482Y-79377000D01*
X45154267Y-79305571D01*
X45439982Y-79305571D01*
X45573910Y-79377000D01*
X47457839Y-80305571D02*
X47323910Y-80234142D01*
X47261410Y-80162714D01*
X47207839Y-80019857D01*
X47261410Y-79591285D01*
X47350696Y-79448428D01*
X47431053Y-79377000D01*
X47582839Y-79305571D01*
X47797125Y-79305571D01*
X47931053Y-79377000D01*
X47993553Y-79448428D01*
X48047125Y-79591285D01*
X47993553Y-80019857D01*
X47904267Y-80162714D01*
X47823910Y-80234142D01*
X47672125Y-80305571D01*
X47457839Y-80305571D01*
X48725696Y-79305571D02*
X48600696Y-80305571D01*
X48814982Y-79734142D02*
X49172125Y-80305571D01*
X49297125Y-79305571D02*
X48654267Y-79877000D01*
X49725696Y-79305571D02*
X50439982Y-79305571D01*
X50082839Y-79305571D02*
X49957839Y-80305571D01*
X51154267Y-79877000D02*
X50743553Y-80305571D01*
X51386410Y-80305571D02*
X51511410Y-79305571D01*
X51082839Y-79305571D01*
X50931053Y-79377000D01*
X50841767Y-79519857D01*
X50823910Y-79662714D01*
X50877482Y-79805571D01*
X51011410Y-79877000D01*
X51439982Y-79877000D01*
X53011410Y-78734142D02*
X52931053Y-78805571D01*
X52779267Y-78877000D01*
X52493553Y-78877000D01*
X52341767Y-78948428D01*
X52261410Y-79019857D01*
X52172125Y-79162714D01*
X52064982Y-80019857D01*
X52118553Y-80162714D01*
X52181053Y-80234142D01*
X52314982Y-80305571D01*
X52529267Y-80305571D01*
X52681053Y-80234142D01*
X52761410Y-80162714D01*
X52850696Y-80019857D01*
X52904267Y-79591285D01*
X52850696Y-79448428D01*
X52788196Y-79377000D01*
X52654267Y-79305571D01*
X52368553Y-79305571D01*
X52216767Y-79377000D01*
X52136410Y-79448428D01*
X53582839Y-79305571D02*
X53395339Y-80805571D01*
X53573910Y-79377000D02*
X53725696Y-79305571D01*
X54011410Y-79305571D01*
X54145339Y-79377000D01*
X54207839Y-79448428D01*
X54261410Y-79591285D01*
X54207839Y-80019857D01*
X54118553Y-80162714D01*
X54038196Y-80234142D01*
X53886410Y-80305571D01*
X53600696Y-80305571D01*
X53466767Y-80234142D01*
X55154267Y-79877000D02*
X54743553Y-80305571D01*
X55386410Y-80305571D02*
X55511410Y-79305571D01*
X55082839Y-79305571D01*
X54931053Y-79377000D01*
X54841767Y-79519857D01*
X54823910Y-79662714D01*
X54877482Y-79805571D01*
X55011410Y-79877000D01*
X55439982Y-79877000D01*
X45306053Y-82220571D02*
X45511410Y-82292000D01*
X45564982Y-82434857D01*
X45556053Y-82506285D01*
X45466767Y-82649142D01*
X45314982Y-82720571D01*
X44886410Y-82720571D01*
X45011410Y-81720571D01*
X45368553Y-81720571D01*
X45502482Y-81792000D01*
X45556053Y-81934857D01*
X45547125Y-82006285D01*
X45457839Y-82149142D01*
X45306053Y-82220571D01*
X44948910Y-82220571D01*
X47439982Y-81720571D02*
X47314982Y-82720571D01*
X47529267Y-82149142D02*
X47886410Y-82720571D01*
X48011410Y-81720571D02*
X47368553Y-82292000D01*
X48743553Y-82720571D02*
X48609625Y-82649142D01*
X48547125Y-82577714D01*
X48493553Y-82434857D01*
X48547125Y-82006285D01*
X48636410Y-81863428D01*
X48716767Y-81792000D01*
X48868553Y-81720571D01*
X49082839Y-81720571D01*
X49216767Y-81792000D01*
X49279267Y-81863428D01*
X49332839Y-82006285D01*
X49279267Y-82434857D01*
X49189982Y-82577714D01*
X49109625Y-82649142D01*
X48957839Y-82720571D01*
X48743553Y-82720571D01*
X50538196Y-82649142D02*
X50386410Y-82720571D01*
X50100696Y-82720571D01*
X49966767Y-82649142D01*
X49904267Y-82577714D01*
X49850696Y-82434857D01*
X49904267Y-82006285D01*
X49993553Y-81863428D01*
X50073910Y-81792000D01*
X50225696Y-81720571D01*
X50511410Y-81720571D01*
X50645339Y-81792000D01*
X51172125Y-82720571D02*
X51297125Y-81720571D01*
X51627482Y-82506285D01*
X52154267Y-81720571D01*
X52029267Y-82720571D01*
X52957839Y-82720571D02*
X52823910Y-82649142D01*
X52761410Y-82577714D01*
X52707839Y-82434857D01*
X52761410Y-82006285D01*
X52850696Y-81863428D01*
X52931053Y-81792000D01*
X53082839Y-81720571D01*
X53297125Y-81720571D01*
X53431053Y-81792000D01*
X53493553Y-81863428D01*
X53547125Y-82006285D01*
X53493553Y-82434857D01*
X53404267Y-82577714D01*
X53323910Y-82649142D01*
X53172125Y-82720571D01*
X52957839Y-82720571D01*
X54752482Y-82649142D02*
X54600696Y-82720571D01*
X54314982Y-82720571D01*
X54181053Y-82649142D01*
X54118553Y-82577714D01*
X54064982Y-82434857D01*
X54118553Y-82006285D01*
X54207839Y-81863428D01*
X54288196Y-81792000D01*
X54439982Y-81720571D01*
X54725696Y-81720571D01*
X54859625Y-81792000D01*
X55466767Y-82649142D02*
X55457839Y-82720571D01*
X55368553Y-82863428D01*
X55288196Y-82934857D01*
X41591767Y-84635571D02*
X41797124Y-84707000D01*
X41850696Y-84849857D01*
X41841767Y-84921285D01*
X41752482Y-85064142D01*
X41600696Y-85135571D01*
X41172124Y-85135571D01*
X41297124Y-84135571D01*
X41654267Y-84135571D01*
X41788196Y-84207000D01*
X41841767Y-84349857D01*
X41832839Y-84421285D01*
X41743553Y-84564142D01*
X41591767Y-84635571D01*
X41234624Y-84635571D01*
X42672124Y-85135571D02*
X42538196Y-85064142D01*
X42475696Y-84992714D01*
X42422124Y-84849857D01*
X42475696Y-84421285D01*
X42564982Y-84278428D01*
X42645339Y-84207000D01*
X42797124Y-84135571D01*
X43011410Y-84135571D01*
X43145339Y-84207000D01*
X43207839Y-84278428D01*
X43261410Y-84421285D01*
X43207839Y-84849857D01*
X43118553Y-84992714D01*
X43038196Y-85064142D01*
X42886410Y-85135571D01*
X42672124Y-85135571D01*
X45082839Y-84135571D02*
X44957839Y-85135571D01*
X45797124Y-84135571D01*
X45672124Y-85135571D01*
X46386410Y-85135571D02*
X46511410Y-84135571D01*
X46841767Y-84921285D01*
X47368553Y-84135571D01*
X47243553Y-85135571D01*
X48297124Y-84707000D02*
X47886410Y-85135571D01*
X48529267Y-85135571D02*
X48654267Y-84135571D01*
X48225696Y-84135571D01*
X48073910Y-84207000D01*
X47984624Y-84349857D01*
X47966767Y-84492714D01*
X48020339Y-84635571D01*
X48154267Y-84707000D01*
X48582839Y-84707000D01*
X50386410Y-85135571D02*
X50511410Y-84135571D01*
X50841767Y-84921285D01*
X51368553Y-84135571D01*
X51243553Y-85135571D01*
X52082839Y-84135571D02*
X51957839Y-85135571D01*
X52797124Y-84135571D01*
X52672124Y-85135571D01*
X53511410Y-84135571D02*
X53323910Y-85635571D01*
X53502482Y-84207000D02*
X53654267Y-84135571D01*
X53939982Y-84135571D01*
X54073910Y-84207000D01*
X54136410Y-84278428D01*
X54189982Y-84421285D01*
X54136410Y-84849857D01*
X54047124Y-84992714D01*
X53966767Y-85064142D01*
X53814982Y-85135571D01*
X53529267Y-85135571D01*
X53395339Y-85064142D01*
X55386410Y-85135571D02*
X55484624Y-84349857D01*
X55431053Y-84207000D01*
X55297124Y-84135571D01*
X55011410Y-84135571D01*
X54859624Y-84207000D01*
X55395339Y-85064142D02*
X55243553Y-85135571D01*
X54886410Y-85135571D01*
X54752482Y-85064142D01*
X54698910Y-84921285D01*
X54716767Y-84778428D01*
X54806053Y-84635571D01*
X54957839Y-84564142D01*
X55314982Y-84564142D01*
X55466767Y-84492714D01*
D11*
X115062000Y-47752000D02*
X115062000Y-44831000D01*
X121666000Y-44831000D02*
X121666000Y-47752000D01*
D12*
G36*
X55757233Y-71420567D02*
G01*
X56103837Y-71420567D01*
X56103837Y-71653400D01*
X55757233Y-71653400D01*
X55757233Y-72002650D01*
X55524400Y-72002650D01*
X55524400Y-71653400D01*
X55175150Y-71653400D01*
X55175150Y-71420567D01*
X55524400Y-71420567D01*
X55524400Y-71071317D01*
X55757233Y-71071317D01*
X55757233Y-71420567D01*
G37*
X55757233Y-71420567D02*
X56103837Y-71420567D01*
X56103837Y-71653400D01*
X55757233Y-71653400D01*
X55757233Y-72002650D01*
X55524400Y-72002650D01*
X55524400Y-71653400D01*
X55175150Y-71653400D01*
X55175150Y-71420567D01*
X55524400Y-71420567D01*
X55524400Y-71071317D01*
X55757233Y-71071317D01*
X55757233Y-71420567D01*
D11*
X115062000Y-44831000D02*
X121666000Y-44831000D01*
D12*
G36*
X60147375Y-85737716D02*
G01*
X59761424Y-85430074D01*
X59395872Y-85090971D01*
X59056769Y-84725419D01*
X58749127Y-84339468D01*
X58473332Y-83935060D01*
X58229772Y-83514140D01*
X58018832Y-83078650D01*
X57840899Y-82630534D01*
X57807692Y-82525128D01*
X58847566Y-82525128D01*
X58909464Y-82670545D01*
X59007887Y-82885292D01*
X59139921Y-83149648D01*
X59217630Y-83294267D01*
X59302650Y-83443894D01*
X59394614Y-83596063D01*
X59493160Y-83748309D01*
X59597922Y-83898169D01*
X59708537Y-84043175D01*
X59824640Y-84180865D01*
X59945866Y-84308772D01*
X60071852Y-84424431D01*
X60136516Y-84476898D01*
X60202233Y-84525379D01*
X60477093Y-84726721D01*
X60744038Y-84904225D01*
X61003029Y-85058810D01*
X61254024Y-85191395D01*
X61496985Y-85302900D01*
X61731872Y-85394244D01*
X61958645Y-85466348D01*
X62177265Y-85520129D01*
X62387691Y-85556509D01*
X62589884Y-85576406D01*
X62783805Y-85580741D01*
X62969413Y-85570431D01*
X63146669Y-85546398D01*
X63315533Y-85509560D01*
X63475965Y-85460838D01*
X63627926Y-85401150D01*
X63771376Y-85331416D01*
X63906274Y-85252555D01*
X64032583Y-85165488D01*
X64150261Y-85071134D01*
X64259269Y-84970411D01*
X64359567Y-84864241D01*
X64451116Y-84753541D01*
X64533876Y-84639233D01*
X64607806Y-84522234D01*
X64672868Y-84403465D01*
X64729022Y-84283846D01*
X64776227Y-84164295D01*
X64814445Y-84045733D01*
X64843635Y-83929078D01*
X64863758Y-83815251D01*
X64874774Y-83705171D01*
X64900240Y-83238181D01*
X64935628Y-82525128D01*
X58847566Y-82525128D01*
X57807692Y-82525128D01*
X57696360Y-82171735D01*
X57610218Y-81808108D01*
X63559795Y-81808108D01*
X63739712Y-81808108D01*
X63739712Y-81294816D01*
X63906400Y-81294816D01*
X63951379Y-81300108D01*
X63954352Y-81301823D01*
X63957286Y-81303599D01*
X63960179Y-81305436D01*
X63963031Y-81307333D01*
X63965841Y-81309289D01*
X63968608Y-81311303D01*
X63971331Y-81313376D01*
X63974009Y-81315505D01*
X63976642Y-81317690D01*
X63979227Y-81319932D01*
X63981765Y-81322228D01*
X63984255Y-81324578D01*
X63986695Y-81326981D01*
X63989085Y-81329437D01*
X63991424Y-81331945D01*
X63993711Y-81334504D01*
X63996433Y-81337590D01*
X63999084Y-81340734D01*
X64001660Y-81343934D01*
X64004163Y-81347189D01*
X64006591Y-81350498D01*
X64008942Y-81353859D01*
X64011217Y-81357272D01*
X64013415Y-81360734D01*
X64015534Y-81364245D01*
X64017575Y-81367803D01*
X64019535Y-81371407D01*
X64021414Y-81375055D01*
X64023212Y-81378746D01*
X64024927Y-81382480D01*
X64026560Y-81386253D01*
X64028108Y-81390066D01*
X64104839Y-81577920D01*
X64123360Y-81611324D01*
X64125524Y-81615679D01*
X64127525Y-81620062D01*
X64129325Y-81624468D01*
X64130884Y-81628894D01*
X64132165Y-81633335D01*
X64133127Y-81637787D01*
X64133733Y-81642247D01*
X64133890Y-81644479D01*
X64133944Y-81646712D01*
X64138193Y-81654866D01*
X64142552Y-81662961D01*
X64147021Y-81670995D01*
X64151599Y-81678966D01*
X64156285Y-81686875D01*
X64161078Y-81694720D01*
X64165979Y-81702499D01*
X64170986Y-81710212D01*
X64174827Y-81715418D01*
X64178838Y-81720477D01*
X64183015Y-81725383D01*
X64187353Y-81730135D01*
X64191849Y-81734727D01*
X64196497Y-81739157D01*
X64201293Y-81743420D01*
X64206232Y-81747514D01*
X64211310Y-81751434D01*
X64216522Y-81755177D01*
X64221864Y-81758740D01*
X64227331Y-81762118D01*
X64232919Y-81765307D01*
X64238622Y-81768306D01*
X64244438Y-81771109D01*
X64250360Y-81773712D01*
X64257148Y-81776414D01*
X64263997Y-81778935D01*
X64270902Y-81781274D01*
X64277859Y-81783432D01*
X64284865Y-81785407D01*
X64291917Y-81787198D01*
X64299010Y-81788805D01*
X64306142Y-81790228D01*
X64313308Y-81791465D01*
X64320505Y-81792517D01*
X64327729Y-81793381D01*
X64334976Y-81794058D01*
X64342244Y-81794547D01*
X64349528Y-81794848D01*
X64356825Y-81794958D01*
X64364131Y-81794879D01*
X64454089Y-81794879D01*
X64454089Y-81625547D01*
X64356194Y-81625547D01*
X64354154Y-81625022D01*
X64352137Y-81624431D01*
X64350143Y-81623774D01*
X64348175Y-81623054D01*
X64346234Y-81622269D01*
X64344321Y-81621422D01*
X64342439Y-81620512D01*
X64340587Y-81619542D01*
X64338769Y-81618511D01*
X64336985Y-81617420D01*
X64335237Y-81616271D01*
X64333527Y-81615063D01*
X64331855Y-81613799D01*
X64330224Y-81612478D01*
X64328635Y-81611102D01*
X64327089Y-81609671D01*
X64305922Y-81583213D01*
X64303636Y-81578377D01*
X64301436Y-81573503D01*
X64299321Y-81568592D01*
X64297292Y-81563646D01*
X64295350Y-81558665D01*
X64293495Y-81553650D01*
X64291727Y-81548603D01*
X64290047Y-81543525D01*
X64208329Y-81350378D01*
X64584678Y-81350378D01*
X64584950Y-81383468D01*
X64585765Y-81416551D01*
X64587123Y-81449621D01*
X64589024Y-81482670D01*
X64589024Y-81517066D01*
X64588535Y-81520690D01*
X64588185Y-81524326D01*
X64587976Y-81527970D01*
X64587906Y-81531618D01*
X64587976Y-81535267D01*
X64588185Y-81538911D01*
X64588535Y-81542547D01*
X64589024Y-81546171D01*
X64610190Y-81596442D01*
X64616487Y-81607481D01*
X64623121Y-81618294D01*
X64630087Y-81628874D01*
X64637377Y-81639213D01*
X64644985Y-81649304D01*
X64652905Y-81659141D01*
X64661129Y-81668716D01*
X64669652Y-81678022D01*
X64678467Y-81687053D01*
X64687566Y-81695801D01*
X64696943Y-81704259D01*
X64706593Y-81712421D01*
X64716507Y-81720279D01*
X64726680Y-81727826D01*
X64737104Y-81735056D01*
X64747774Y-81741961D01*
X64760218Y-81749796D01*
X64772909Y-81757199D01*
X64785836Y-81764163D01*
X64798987Y-81770685D01*
X64812351Y-81776758D01*
X64825916Y-81782377D01*
X64839672Y-81787536D01*
X64853607Y-81792231D01*
X64869191Y-81796138D01*
X64884886Y-81799500D01*
X64900680Y-81802314D01*
X64916556Y-81804578D01*
X64932502Y-81806292D01*
X64948502Y-81807452D01*
X64964542Y-81808058D01*
X64980608Y-81808108D01*
X64996996Y-81807999D01*
X65013359Y-81807351D01*
X65029683Y-81806165D01*
X65045954Y-81804444D01*
X65062160Y-81802188D01*
X65078288Y-81799400D01*
X65094323Y-81796080D01*
X65110254Y-81792232D01*
X65123801Y-81787360D01*
X65137180Y-81782076D01*
X65150384Y-81776384D01*
X65163403Y-81770289D01*
X65176227Y-81763794D01*
X65188848Y-81756906D01*
X65201256Y-81749627D01*
X65213442Y-81741963D01*
X65223957Y-81735028D01*
X65234225Y-81727773D01*
X65244240Y-81720203D01*
X65253995Y-81712327D01*
X65263483Y-81704150D01*
X65272697Y-81695681D01*
X65281633Y-81686926D01*
X65290281Y-81677892D01*
X65298638Y-81668587D01*
X65306694Y-81659018D01*
X65314445Y-81649191D01*
X65321883Y-81639113D01*
X65329002Y-81628792D01*
X65335795Y-81618236D01*
X65342257Y-81607450D01*
X65348379Y-81596442D01*
X65352546Y-81589986D01*
X65356517Y-81583423D01*
X65360292Y-81576755D01*
X65363868Y-81569988D01*
X65367245Y-81563126D01*
X65370420Y-81556174D01*
X65373392Y-81549136D01*
X65376158Y-81542016D01*
X65378718Y-81534820D01*
X65381070Y-81527551D01*
X65383212Y-81520214D01*
X65385142Y-81512814D01*
X65386859Y-81505355D01*
X65388360Y-81497842D01*
X65389645Y-81490279D01*
X65390712Y-81482670D01*
X65390713Y-81487947D01*
X65394657Y-81453014D01*
X65398136Y-81418037D01*
X65401150Y-81383019D01*
X65403139Y-81355670D01*
X65587116Y-81355670D01*
X65587409Y-81388762D01*
X65588286Y-81421847D01*
X65589748Y-81454916D01*
X65591795Y-81487962D01*
X65591795Y-81522358D01*
X65592026Y-81525993D01*
X65592191Y-81529631D01*
X65592290Y-81533270D01*
X65592323Y-81536910D01*
X65592290Y-81540551D01*
X65592191Y-81544190D01*
X65592026Y-81547828D01*
X65591795Y-81551462D01*
X65631483Y-81609669D01*
X65637499Y-81620918D01*
X65643897Y-81631920D01*
X65650670Y-81642667D01*
X65657809Y-81653150D01*
X65665307Y-81663360D01*
X65673155Y-81673290D01*
X65681344Y-81682929D01*
X65689867Y-81692269D01*
X65698715Y-81701302D01*
X65707880Y-81710019D01*
X65717354Y-81718411D01*
X65727128Y-81726469D01*
X65737195Y-81734185D01*
X65747545Y-81741550D01*
X65758171Y-81748555D01*
X65769065Y-81755192D01*
X65781069Y-81763186D01*
X65793356Y-81770705D01*
X65805914Y-81777742D01*
X65818728Y-81784291D01*
X65831783Y-81790344D01*
X65845065Y-81795895D01*
X65858560Y-81800937D01*
X65872253Y-81805462D01*
X65887858Y-81809255D01*
X65903564Y-81812534D01*
X65919361Y-81815299D01*
X65935235Y-81817546D01*
X65951174Y-81819275D01*
X65967165Y-81820484D01*
X65983195Y-81821172D01*
X65999251Y-81821336D01*
X66018287Y-81821739D01*
X66037148Y-81821250D01*
X66055813Y-81819889D01*
X66074259Y-81817674D01*
X66092465Y-81814623D01*
X66110408Y-81810753D01*
X66128066Y-81806084D01*
X66130045Y-81805462D01*
X66525774Y-81805462D01*
X66705690Y-81805462D01*
X66705690Y-81069921D01*
X66951753Y-81636129D01*
X67099920Y-81636129D01*
X67345983Y-81069921D01*
X67345983Y-81800170D01*
X67533836Y-81800170D01*
X67533836Y-81347733D01*
X67778200Y-81347733D01*
X67778471Y-81380823D01*
X67779286Y-81413905D01*
X67780644Y-81446975D01*
X67782544Y-81480025D01*
X67782544Y-81514421D01*
X67782055Y-81518045D01*
X67781706Y-81521681D01*
X67781496Y-81525325D01*
X67781426Y-81528973D01*
X67781496Y-81532621D01*
X67781706Y-81536265D01*
X67782055Y-81539901D01*
X67782544Y-81543525D01*
X67803711Y-81593795D01*
X67810007Y-81604835D01*
X67816642Y-81615648D01*
X67823607Y-81626227D01*
X67830897Y-81636566D01*
X67838506Y-81646658D01*
X67846425Y-81656494D01*
X67854650Y-81666069D01*
X67863173Y-81675376D01*
X67871987Y-81684407D01*
X67881086Y-81693155D01*
X67890464Y-81701613D01*
X67900113Y-81709775D01*
X67910028Y-81717634D01*
X67920200Y-81725181D01*
X67930625Y-81732411D01*
X67941295Y-81739316D01*
X67953738Y-81747151D01*
X67966429Y-81754554D01*
X67979356Y-81761519D01*
X67992507Y-81768041D01*
X68005871Y-81774114D01*
X68019437Y-81779733D01*
X68033193Y-81784892D01*
X68047128Y-81789587D01*
X68062712Y-81793495D01*
X68078407Y-81796856D01*
X68094201Y-81799670D01*
X68110077Y-81801934D01*
X68126022Y-81803647D01*
X68142022Y-81804808D01*
X68158063Y-81805414D01*
X68174129Y-81805463D01*
X68190517Y-81805354D01*
X68206880Y-81804706D01*
X68223203Y-81803521D01*
X68239475Y-81801799D01*
X68255681Y-81799544D01*
X68271808Y-81796756D01*
X68287844Y-81793437D01*
X68303775Y-81789588D01*
X68317321Y-81784716D01*
X68330701Y-81779432D01*
X68343905Y-81773740D01*
X68356923Y-81767644D01*
X68369748Y-81761149D01*
X68382369Y-81754260D01*
X68394777Y-81746981D01*
X68406962Y-81739316D01*
X68417478Y-81732382D01*
X68427746Y-81725126D01*
X68437761Y-81717557D01*
X68447516Y-81709680D01*
X68457004Y-81701504D01*
X68466218Y-81693035D01*
X68475154Y-81684280D01*
X68483802Y-81675246D01*
X68492158Y-81665941D01*
X68500215Y-81656371D01*
X68507966Y-81646544D01*
X68515404Y-81636467D01*
X68522523Y-81626147D01*
X68529316Y-81615590D01*
X68535777Y-81604804D01*
X68541900Y-81593796D01*
X68546066Y-81587341D01*
X68550038Y-81580777D01*
X68553812Y-81574110D01*
X68557389Y-81567343D01*
X68560766Y-81560481D01*
X68563941Y-81553528D01*
X68566912Y-81546490D01*
X68569679Y-81539371D01*
X68572239Y-81532174D01*
X68574591Y-81524906D01*
X68576732Y-81517569D01*
X68578663Y-81510169D01*
X68580379Y-81502710D01*
X68581881Y-81495196D01*
X68583166Y-81487633D01*
X68584232Y-81480025D01*
X68585680Y-81446966D01*
X68586715Y-81413895D01*
X68587335Y-81380817D01*
X68587492Y-81355670D01*
X68775347Y-81355670D01*
X68775639Y-81388762D01*
X68776516Y-81421847D01*
X68777978Y-81454916D01*
X68780025Y-81487962D01*
X68780025Y-81522358D01*
X68780256Y-81525993D01*
X68780421Y-81529631D01*
X68780519Y-81533270D01*
X68780552Y-81536910D01*
X68780519Y-81540551D01*
X68780421Y-81544190D01*
X68780256Y-81547828D01*
X68780025Y-81551462D01*
X68803839Y-81601732D01*
X68809854Y-81612980D01*
X68816252Y-81623982D01*
X68823026Y-81634730D01*
X68830165Y-81645213D01*
X68837663Y-81655423D01*
X68845510Y-81665353D01*
X68853700Y-81674992D01*
X68862223Y-81684332D01*
X68871071Y-81693365D01*
X68880236Y-81702082D01*
X68889710Y-81710474D01*
X68899484Y-81718532D01*
X68909550Y-81726248D01*
X68919901Y-81733613D01*
X68930527Y-81740618D01*
X68941421Y-81747255D01*
X68953424Y-81755248D01*
X68965712Y-81762767D01*
X68978270Y-81769805D01*
X68991083Y-81776354D01*
X69004138Y-81782407D01*
X69017420Y-81787958D01*
X69030915Y-81793000D01*
X69044609Y-81797525D01*
X69060213Y-81801318D01*
X69075920Y-81804597D01*
X69091717Y-81807361D01*
X69107591Y-81809609D01*
X69123530Y-81811338D01*
X69139521Y-81812547D01*
X69155551Y-81813235D01*
X69171608Y-81813400D01*
X69190264Y-81813310D01*
X69208735Y-81812369D01*
X69227000Y-81810594D01*
X69245038Y-81808001D01*
X69262828Y-81804610D01*
X69280351Y-81800436D01*
X69297584Y-81795499D01*
X69314507Y-81789814D01*
X69331100Y-81783400D01*
X69347341Y-81776273D01*
X69363210Y-81768453D01*
X69378687Y-81759955D01*
X69393750Y-81750798D01*
X69408379Y-81740998D01*
X69422552Y-81730574D01*
X69436250Y-81719543D01*
X69449451Y-81707922D01*
X69462135Y-81695729D01*
X69474281Y-81682982D01*
X69485868Y-81669697D01*
X69496876Y-81655892D01*
X69507283Y-81641585D01*
X69517069Y-81626793D01*
X69526214Y-81611534D01*
X69534695Y-81595825D01*
X69542494Y-81579683D01*
X69549588Y-81563127D01*
X69555958Y-81546173D01*
X69561582Y-81528839D01*
X69566440Y-81511143D01*
X69570511Y-81493102D01*
X69573773Y-81474733D01*
X69385920Y-81474733D01*
X69379109Y-81492416D01*
X69371016Y-81509313D01*
X69361710Y-81525375D01*
X69351257Y-81540554D01*
X69339725Y-81554802D01*
X69327182Y-81568068D01*
X69313695Y-81580306D01*
X69299333Y-81591466D01*
X69284163Y-81601500D01*
X69268252Y-81610360D01*
X69251668Y-81617996D01*
X69234479Y-81624360D01*
X69216752Y-81629404D01*
X69198556Y-81633079D01*
X69179957Y-81635337D01*
X69161024Y-81636129D01*
X69154066Y-81636374D01*
X69147120Y-81636357D01*
X69140195Y-81636081D01*
X69133297Y-81635547D01*
X69126433Y-81634757D01*
X69119610Y-81633713D01*
X69112835Y-81632416D01*
X69106115Y-81630868D01*
X69099458Y-81629072D01*
X69092870Y-81627028D01*
X69086358Y-81624739D01*
X69079930Y-81622206D01*
X69073592Y-81619431D01*
X69067352Y-81616415D01*
X69061216Y-81613161D01*
X69055191Y-81609671D01*
X69049514Y-81607356D01*
X69043934Y-81604849D01*
X69038455Y-81602154D01*
X69033081Y-81599273D01*
X69027818Y-81596209D01*
X69022670Y-81592967D01*
X69017640Y-81589550D01*
X69012734Y-81585961D01*
X69007956Y-81582203D01*
X69003310Y-81578280D01*
X68998801Y-81574195D01*
X68994433Y-81569952D01*
X68990210Y-81565554D01*
X68986138Y-81561004D01*
X68982220Y-81556305D01*
X68978461Y-81551461D01*
X68974186Y-81545933D01*
X68970096Y-81540281D01*
X68966194Y-81534512D01*
X68962481Y-81528628D01*
X68958959Y-81522636D01*
X68955632Y-81516540D01*
X68952500Y-81510345D01*
X68949566Y-81504056D01*
X68946832Y-81497677D01*
X68944301Y-81491214D01*
X68941974Y-81484670D01*
X68939854Y-81478051D01*
X68937943Y-81471362D01*
X68936242Y-81464607D01*
X68934755Y-81457791D01*
X68933482Y-81450919D01*
X68932688Y-81439687D01*
X68932121Y-81428444D01*
X68931780Y-81417194D01*
X68931667Y-81405941D01*
X68931780Y-81394688D01*
X68932121Y-81383438D01*
X68932688Y-81372195D01*
X68933482Y-81360962D01*
X68933534Y-81346477D01*
X68933896Y-81330907D01*
X68934878Y-81314407D01*
X68935698Y-81305857D01*
X68936790Y-81297132D01*
X68938192Y-81288252D01*
X68939942Y-81279236D01*
X68942081Y-81270104D01*
X68944645Y-81260875D01*
X68947675Y-81251569D01*
X68951209Y-81242205D01*
X68955285Y-81232801D01*
X68959943Y-81223378D01*
X68957885Y-81193975D01*
X68956416Y-81164544D01*
X68955534Y-81135096D01*
X68955240Y-81105639D01*
X68955534Y-81076182D01*
X68956415Y-81046734D01*
X68957885Y-81017303D01*
X68959942Y-80987899D01*
X68961122Y-80981147D01*
X68962531Y-80974455D01*
X68964167Y-80967826D01*
X68966028Y-80961268D01*
X68968110Y-80954784D01*
X68970411Y-80948381D01*
X68972928Y-80942065D01*
X68975660Y-80935840D01*
X68978603Y-80929713D01*
X68981756Y-80923688D01*
X68985115Y-80917772D01*
X68988678Y-80911969D01*
X68992442Y-80906285D01*
X68996406Y-80900726D01*
X69000566Y-80895298D01*
X69004920Y-80890004D01*
X69008774Y-80885137D01*
X69012770Y-80880399D01*
X69016903Y-80875793D01*
X69021172Y-80871321D01*
X69025571Y-80866987D01*
X69030099Y-80862793D01*
X69034751Y-80858741D01*
X69039524Y-80854835D01*
X69044414Y-80851077D01*
X69049419Y-80847470D01*
X69054534Y-80844017D01*
X69059756Y-80840720D01*
X69065082Y-80837582D01*
X69070509Y-80834606D01*
X69076032Y-80831795D01*
X69081649Y-80829150D01*
X69087821Y-80826106D01*
X69094076Y-80823265D01*
X69100408Y-80820626D01*
X69106813Y-80818192D01*
X69113285Y-80815963D01*
X69119819Y-80813941D01*
X69126410Y-80812127D01*
X69133054Y-80810522D01*
X69139744Y-80809127D01*
X69146477Y-80807943D01*
X69153248Y-80806972D01*
X69160050Y-80806213D01*
X69166880Y-80805670D01*
X69173732Y-80805342D01*
X69180601Y-80805231D01*
X69187483Y-80805337D01*
X69197328Y-80805247D01*
X69207134Y-80805585D01*
X69216888Y-80806349D01*
X69226577Y-80807532D01*
X69236188Y-80809132D01*
X69245708Y-80811144D01*
X69255124Y-80813563D01*
X69264422Y-80816385D01*
X69273589Y-80819606D01*
X69282613Y-80823222D01*
X69291481Y-80827228D01*
X69300178Y-80831620D01*
X69308692Y-80836394D01*
X69317010Y-80841545D01*
X69325119Y-80847069D01*
X69333005Y-80852963D01*
X69340027Y-80859023D01*
X69346798Y-80865327D01*
X69353315Y-80871867D01*
X69359570Y-80878635D01*
X69365560Y-80885623D01*
X69371279Y-80892822D01*
X69376720Y-80900225D01*
X69381881Y-80907824D01*
X69386754Y-80915610D01*
X69391334Y-80923575D01*
X69395617Y-80931711D01*
X69399597Y-80940009D01*
X69403268Y-80948463D01*
X69406625Y-80957063D01*
X69409664Y-80965802D01*
X69412378Y-80974671D01*
X69600231Y-80974670D01*
X69597017Y-80956782D01*
X69593052Y-80939107D01*
X69588349Y-80921665D01*
X69582918Y-80904477D01*
X69576772Y-80887567D01*
X69569922Y-80870954D01*
X69562380Y-80854661D01*
X69554158Y-80838709D01*
X69545267Y-80823119D01*
X69535719Y-80807914D01*
X69525527Y-80793115D01*
X69514700Y-80778744D01*
X69503252Y-80764821D01*
X69491194Y-80751370D01*
X69478538Y-80738410D01*
X69465295Y-80725964D01*
X69450761Y-80713545D01*
X69435706Y-80701891D01*
X69420161Y-80691015D01*
X69404157Y-80680928D01*
X69387724Y-80671640D01*
X69370894Y-80663162D01*
X69353696Y-80655506D01*
X69336163Y-80648684D01*
X69318324Y-80642705D01*
X69300210Y-80637581D01*
X69281852Y-80633324D01*
X69263281Y-80629944D01*
X69244528Y-80627452D01*
X69225623Y-80625861D01*
X69206598Y-80625180D01*
X69187482Y-80625421D01*
X69172152Y-80625117D01*
X69156867Y-80625429D01*
X69141642Y-80626351D01*
X69126497Y-80627878D01*
X69111448Y-80630005D01*
X69096513Y-80632727D01*
X69081710Y-80636039D01*
X69067056Y-80639936D01*
X69052569Y-80644413D01*
X69038266Y-80649465D01*
X69024164Y-80655087D01*
X69010282Y-80661274D01*
X68996637Y-80668020D01*
X68983246Y-80675321D01*
X68970126Y-80683172D01*
X68957296Y-80691568D01*
X68946513Y-80698337D01*
X68935986Y-80705453D01*
X68925723Y-80712909D01*
X68915732Y-80720695D01*
X68906020Y-80728804D01*
X68896594Y-80737228D01*
X68887461Y-80745960D01*
X68878630Y-80754992D01*
X68870107Y-80764315D01*
X68861901Y-80773922D01*
X68854018Y-80783805D01*
X68846465Y-80793957D01*
X68839251Y-80804368D01*
X68832383Y-80815033D01*
X68825867Y-80825941D01*
X68819713Y-80837087D01*
X68815908Y-80843491D01*
X68812273Y-80849983D01*
X68808811Y-80856560D01*
X68805522Y-80863218D01*
X68802408Y-80869955D01*
X68799469Y-80876766D01*
X68796708Y-80883648D01*
X68794124Y-80890598D01*
X68791721Y-80897612D01*
X68789498Y-80904687D01*
X68787457Y-80911818D01*
X68785599Y-80919004D01*
X68783925Y-80926239D01*
X68782438Y-80933521D01*
X68781137Y-80940847D01*
X68780025Y-80948212D01*
X68779229Y-80961100D01*
X68778661Y-80973996D01*
X68778320Y-80986899D01*
X68778206Y-80999805D01*
X68778320Y-81012711D01*
X68778661Y-81025614D01*
X68779229Y-81038512D01*
X68780025Y-81051400D01*
X68780024Y-81223378D01*
X68777977Y-81256424D01*
X68776516Y-81289493D01*
X68775639Y-81322578D01*
X68775347Y-81355670D01*
X68587492Y-81355670D01*
X68587542Y-81347734D01*
X68587335Y-81314651D01*
X68586715Y-81281572D01*
X68585680Y-81248501D01*
X68584232Y-81215441D01*
X68583778Y-81122217D01*
X68583814Y-81081636D01*
X68584563Y-81045116D01*
X68585331Y-81028389D01*
X68586428Y-81012689D01*
X68587906Y-80998020D01*
X68589813Y-80984386D01*
X68592201Y-80971790D01*
X68595120Y-80960237D01*
X68598621Y-80949731D01*
X68602753Y-80940275D01*
X68601617Y-80932838D01*
X68600273Y-80925448D01*
X68598721Y-80918108D01*
X68596963Y-80910821D01*
X68595002Y-80903594D01*
X68592838Y-80896429D01*
X68590473Y-80889330D01*
X68587910Y-80882303D01*
X68585148Y-80875351D01*
X68582190Y-80868479D01*
X68579039Y-80861690D01*
X68575694Y-80854990D01*
X68572158Y-80848381D01*
X68568432Y-80841869D01*
X68564519Y-80835457D01*
X68560419Y-80829150D01*
X68554460Y-80818023D01*
X68548136Y-80807128D01*
X68541455Y-80796476D01*
X68534424Y-80786072D01*
X68527051Y-80775927D01*
X68519343Y-80766047D01*
X68511307Y-80756440D01*
X68502951Y-80747116D01*
X68494283Y-80738081D01*
X68485309Y-80729344D01*
X68476038Y-80720913D01*
X68466477Y-80712797D01*
X68456634Y-80705002D01*
X68446515Y-80697537D01*
X68436128Y-80690410D01*
X68425481Y-80683629D01*
X68398314Y-80668085D01*
X68370372Y-80654613D01*
X68341766Y-80643214D01*
X68312607Y-80633887D01*
X68283005Y-80626633D01*
X68253070Y-80621452D01*
X68222914Y-80618343D01*
X68192648Y-80617307D01*
X68162382Y-80618343D01*
X68132226Y-80621452D01*
X68102291Y-80626633D01*
X68072689Y-80633888D01*
X68043530Y-80643214D01*
X68014924Y-80654614D01*
X67986982Y-80668086D01*
X67959815Y-80683630D01*
X67949248Y-80690656D01*
X67938915Y-80697986D01*
X67928823Y-80705616D01*
X67918978Y-80713539D01*
X67909385Y-80721748D01*
X67900050Y-80730237D01*
X67890980Y-80739000D01*
X67882181Y-80748030D01*
X67873657Y-80757322D01*
X67865416Y-80766869D01*
X67857464Y-80776664D01*
X67849805Y-80786702D01*
X67842447Y-80796976D01*
X67835395Y-80807479D01*
X67828654Y-80818206D01*
X67822232Y-80829150D01*
X67815542Y-80842370D01*
X67809336Y-80855808D01*
X67803619Y-80869452D01*
X67798397Y-80883287D01*
X67793673Y-80897300D01*
X67789453Y-80911478D01*
X67785742Y-80925807D01*
X67782544Y-80940275D01*
X67782544Y-81215443D01*
X67780644Y-81248492D01*
X67779286Y-81281561D01*
X67778471Y-81314644D01*
X67778200Y-81347733D01*
X67533836Y-81347733D01*
X67533836Y-80622774D01*
X67364503Y-80622774D01*
X67033774Y-81390066D01*
X66695107Y-80628066D01*
X66525774Y-80628066D01*
X66525774Y-81805462D01*
X66130045Y-81805462D01*
X66145417Y-81800633D01*
X66162439Y-81794419D01*
X66179109Y-81787459D01*
X66195405Y-81779773D01*
X66211306Y-81771377D01*
X66226788Y-81762292D01*
X66241830Y-81752534D01*
X66256409Y-81742121D01*
X66270504Y-81731073D01*
X66284092Y-81719407D01*
X66297151Y-81707142D01*
X66309659Y-81694295D01*
X66321593Y-81680885D01*
X66332932Y-81666930D01*
X66343653Y-81652449D01*
X66353734Y-81637459D01*
X66363153Y-81621978D01*
X66371887Y-81606026D01*
X66379915Y-81589620D01*
X66387214Y-81572778D01*
X66393763Y-81555518D01*
X66399538Y-81537860D01*
X66404518Y-81519820D01*
X66408680Y-81501417D01*
X66412003Y-81482670D01*
X66224149Y-81482670D01*
X66217338Y-81500353D01*
X66209246Y-81517251D01*
X66199939Y-81533313D01*
X66189486Y-81548492D01*
X66177954Y-81562739D01*
X66165411Y-81576006D01*
X66151925Y-81588244D01*
X66137562Y-81599404D01*
X66122392Y-81609438D01*
X66106481Y-81618297D01*
X66089897Y-81625933D01*
X66072708Y-81632298D01*
X66054981Y-81637342D01*
X66036785Y-81641017D01*
X66018186Y-81643275D01*
X65999253Y-81644066D01*
X65992295Y-81644311D01*
X65985349Y-81644294D01*
X65978424Y-81644018D01*
X65971526Y-81643484D01*
X65964662Y-81642694D01*
X65957839Y-81641650D01*
X65951064Y-81640353D01*
X65944344Y-81638806D01*
X65937687Y-81637009D01*
X65931099Y-81634965D01*
X65924588Y-81632676D01*
X65918159Y-81630143D01*
X65911821Y-81627368D01*
X65905581Y-81624353D01*
X65899445Y-81621099D01*
X65893420Y-81617608D01*
X65887743Y-81615294D01*
X65882163Y-81612787D01*
X65876684Y-81610091D01*
X65871311Y-81607210D01*
X65866047Y-81604146D01*
X65860899Y-81600904D01*
X65855869Y-81597487D01*
X65850963Y-81593898D01*
X65846185Y-81590140D01*
X65841539Y-81586217D01*
X65837030Y-81582133D01*
X65832662Y-81577889D01*
X65828439Y-81573491D01*
X65824367Y-81568941D01*
X65820449Y-81564242D01*
X65816691Y-81559399D01*
X65812415Y-81553870D01*
X65808326Y-81548219D01*
X65804423Y-81542449D01*
X65800710Y-81536566D01*
X65797188Y-81530574D01*
X65793861Y-81524478D01*
X65790729Y-81518283D01*
X65787795Y-81511994D01*
X65785062Y-81505615D01*
X65782530Y-81499151D01*
X65780204Y-81492607D01*
X65778083Y-81485989D01*
X65776172Y-81479299D01*
X65774471Y-81472544D01*
X65772984Y-81465729D01*
X65771711Y-81458857D01*
X65770917Y-81447624D01*
X65770350Y-81436381D01*
X65770010Y-81425132D01*
X65769896Y-81413878D01*
X65770010Y-81402625D01*
X65770350Y-81391375D01*
X65770917Y-81380132D01*
X65771711Y-81368900D01*
X65771712Y-81223378D01*
X65769655Y-81193975D01*
X65768186Y-81164544D01*
X65767304Y-81135096D01*
X65767010Y-81105639D01*
X65767304Y-81076182D01*
X65768185Y-81046734D01*
X65769655Y-81017303D01*
X65771711Y-80987899D01*
X65772892Y-80981147D01*
X65774301Y-80974455D01*
X65775937Y-80967826D01*
X65777798Y-80961268D01*
X65779880Y-80954784D01*
X65782181Y-80948381D01*
X65784699Y-80942065D01*
X65787430Y-80935840D01*
X65790374Y-80929713D01*
X65793526Y-80923688D01*
X65796885Y-80917772D01*
X65800448Y-80911969D01*
X65804213Y-80906285D01*
X65808176Y-80900726D01*
X65812337Y-80895298D01*
X65816691Y-80890004D01*
X65820545Y-80885137D01*
X65824540Y-80880399D01*
X65828674Y-80875793D01*
X65832942Y-80871321D01*
X65837342Y-80866987D01*
X65841869Y-80862793D01*
X65846521Y-80858741D01*
X65851294Y-80854835D01*
X65856184Y-80851077D01*
X65861189Y-80847470D01*
X65866304Y-80844017D01*
X65871526Y-80840720D01*
X65876852Y-80837582D01*
X65882278Y-80834606D01*
X65887802Y-80831795D01*
X65893418Y-80829150D01*
X65899591Y-80826106D01*
X65905846Y-80823265D01*
X65912178Y-80820626D01*
X65918583Y-80818192D01*
X65925055Y-80815963D01*
X65931589Y-80813941D01*
X65938180Y-80812127D01*
X65944824Y-80810522D01*
X65951515Y-80809127D01*
X65958248Y-80807943D01*
X65965018Y-80806972D01*
X65971821Y-80806213D01*
X65978651Y-80805670D01*
X65985503Y-80805342D01*
X65992372Y-80805231D01*
X65999253Y-80805337D01*
X66009098Y-80805247D01*
X66018904Y-80805585D01*
X66028658Y-80806349D01*
X66038347Y-80807532D01*
X66047958Y-80809132D01*
X66057478Y-80811144D01*
X66066893Y-80813563D01*
X66076192Y-80816385D01*
X66085359Y-80819606D01*
X66094383Y-80823222D01*
X66103250Y-80827228D01*
X66111948Y-80831620D01*
X66120462Y-80836394D01*
X66128780Y-80841545D01*
X66136889Y-80847069D01*
X66144775Y-80852963D01*
X66151797Y-80859023D01*
X66158569Y-80865327D01*
X66165085Y-80871867D01*
X66171341Y-80878635D01*
X66177330Y-80885623D01*
X66183049Y-80892822D01*
X66188491Y-80900225D01*
X66193651Y-80907824D01*
X66198524Y-80915610D01*
X66203105Y-80923575D01*
X66207387Y-80931711D01*
X66211367Y-80940009D01*
X66215038Y-80948463D01*
X66218396Y-80957063D01*
X66221434Y-80965802D01*
X66224149Y-80974671D01*
X66412002Y-80974670D01*
X66408787Y-80956782D01*
X66404822Y-80939107D01*
X66400119Y-80921665D01*
X66394688Y-80904477D01*
X66388542Y-80887567D01*
X66381692Y-80870954D01*
X66374150Y-80854661D01*
X66365928Y-80838709D01*
X66357037Y-80823119D01*
X66347489Y-80807914D01*
X66337297Y-80793115D01*
X66326470Y-80778744D01*
X66315022Y-80764821D01*
X66302964Y-80751370D01*
X66290308Y-80738410D01*
X66277064Y-80725964D01*
X66262531Y-80713545D01*
X66247476Y-80701891D01*
X66231931Y-80691015D01*
X66215927Y-80680928D01*
X66199495Y-80671640D01*
X66182664Y-80663162D01*
X66165467Y-80655506D01*
X66147933Y-80648684D01*
X66130094Y-80642705D01*
X66111980Y-80637581D01*
X66093623Y-80633324D01*
X66075052Y-80629944D01*
X66056298Y-80627452D01*
X66037394Y-80625861D01*
X66018368Y-80625180D01*
X65999252Y-80625421D01*
X65983923Y-80625117D01*
X65968637Y-80625429D01*
X65953413Y-80626351D01*
X65938267Y-80627878D01*
X65923219Y-80630005D01*
X65908284Y-80632727D01*
X65893481Y-80636039D01*
X65878827Y-80639936D01*
X65864339Y-80644413D01*
X65850036Y-80649465D01*
X65835934Y-80655087D01*
X65822052Y-80661274D01*
X65808407Y-80668020D01*
X65795015Y-80675321D01*
X65781896Y-80683172D01*
X65769066Y-80691568D01*
X65758283Y-80698337D01*
X65747756Y-80705453D01*
X65737493Y-80712909D01*
X65727502Y-80720695D01*
X65717790Y-80728804D01*
X65708364Y-80737228D01*
X65699232Y-80745960D01*
X65690400Y-80754992D01*
X65681878Y-80764315D01*
X65673671Y-80773922D01*
X65665788Y-80783805D01*
X65658236Y-80793957D01*
X65651022Y-80804368D01*
X65644153Y-80815033D01*
X65637638Y-80825941D01*
X65631483Y-80837087D01*
X65627678Y-80843491D01*
X65624044Y-80849983D01*
X65620582Y-80856560D01*
X65617293Y-80863218D01*
X65614178Y-80869955D01*
X65611240Y-80876766D01*
X65608478Y-80883648D01*
X65605895Y-80890598D01*
X65603491Y-80897612D01*
X65601268Y-80904687D01*
X65599227Y-80911818D01*
X65597369Y-80919004D01*
X65595696Y-80926239D01*
X65594208Y-80933521D01*
X65592908Y-80940847D01*
X65591795Y-80948212D01*
X65591000Y-80961100D01*
X65590431Y-80973996D01*
X65590091Y-80986899D01*
X65589977Y-80999805D01*
X65590091Y-81012711D01*
X65590431Y-81025614D01*
X65591000Y-81038512D01*
X65591795Y-81051400D01*
X65591794Y-81223378D01*
X65589748Y-81256424D01*
X65588286Y-81289493D01*
X65587409Y-81322578D01*
X65587116Y-81355670D01*
X65403139Y-81355670D01*
X65403699Y-81347967D01*
X65405781Y-81312884D01*
X65407398Y-81277776D01*
X65408549Y-81242648D01*
X65409232Y-81207504D01*
X65409232Y-80942920D01*
X65408097Y-80935484D01*
X65406752Y-80928094D01*
X65405200Y-80920753D01*
X65403443Y-80913467D01*
X65401481Y-80906239D01*
X65399318Y-80899074D01*
X65396953Y-80891976D01*
X65394389Y-80884948D01*
X65391627Y-80877996D01*
X65388670Y-80871124D01*
X65385518Y-80864335D01*
X65382173Y-80857634D01*
X65378637Y-80851025D01*
X65374912Y-80844513D01*
X65370998Y-80838101D01*
X65366899Y-80831794D01*
X65360940Y-80820666D01*
X65354616Y-80809772D01*
X65347935Y-80799120D01*
X65340904Y-80788716D01*
X65333530Y-80778571D01*
X65325822Y-80768691D01*
X65317786Y-80759085D01*
X65309431Y-80749760D01*
X65300762Y-80740726D01*
X65291789Y-80731989D01*
X65282518Y-80723558D01*
X65272957Y-80715441D01*
X65263113Y-80707647D01*
X65252994Y-80700182D01*
X65242607Y-80693055D01*
X65231960Y-80686275D01*
X65204794Y-80670730D01*
X65176852Y-80657259D01*
X65148246Y-80645859D01*
X65119086Y-80636533D01*
X65089484Y-80629279D01*
X65059550Y-80624097D01*
X65029394Y-80620988D01*
X64999127Y-80619952D01*
X64968861Y-80620988D01*
X64938705Y-80624097D01*
X64908771Y-80629279D01*
X64879169Y-80636533D01*
X64850009Y-80645859D01*
X64821403Y-80657259D01*
X64793461Y-80670730D01*
X64766295Y-80686275D01*
X64755727Y-80693300D01*
X64745395Y-80700631D01*
X64735303Y-80708261D01*
X64725457Y-80716183D01*
X64715864Y-80724392D01*
X64706530Y-80732881D01*
X64697460Y-80741644D01*
X64688660Y-80750675D01*
X64680137Y-80759966D01*
X64671896Y-80769513D01*
X64663943Y-80779309D01*
X64656285Y-80789346D01*
X64648926Y-80799620D01*
X64641874Y-80810124D01*
X64635134Y-80820851D01*
X64628712Y-80831795D01*
X64622021Y-80845015D01*
X64615815Y-80858453D01*
X64610099Y-80872097D01*
X64604876Y-80885932D01*
X64600153Y-80899945D01*
X64595933Y-80914123D01*
X64592222Y-80928453D01*
X64589024Y-80942920D01*
X64589024Y-81218087D01*
X64587123Y-81251137D01*
X64585765Y-81284206D01*
X64584950Y-81317289D01*
X64584678Y-81350378D01*
X64208329Y-81350378D01*
X64202733Y-81337151D01*
X64197018Y-81324875D01*
X64190941Y-81312783D01*
X64184509Y-81300884D01*
X64177725Y-81289185D01*
X64170595Y-81277694D01*
X64163123Y-81266419D01*
X64155313Y-81255367D01*
X64147171Y-81244547D01*
X64142812Y-81239092D01*
X64138215Y-81233873D01*
X64133392Y-81228896D01*
X64128350Y-81224168D01*
X64123102Y-81219694D01*
X64117657Y-81215480D01*
X64112024Y-81211532D01*
X64106214Y-81207857D01*
X64100237Y-81204461D01*
X64094104Y-81201348D01*
X64087823Y-81198527D01*
X64081405Y-81196001D01*
X64074861Y-81193778D01*
X64068199Y-81191864D01*
X64061431Y-81190264D01*
X64054566Y-81188985D01*
X64059354Y-81186362D01*
X64064083Y-81183643D01*
X64068752Y-81180828D01*
X64073359Y-81177920D01*
X64077904Y-81174918D01*
X64082384Y-81171825D01*
X64086799Y-81168641D01*
X64091147Y-81165367D01*
X64095427Y-81162004D01*
X64099637Y-81158553D01*
X64103776Y-81155016D01*
X64107843Y-81151393D01*
X64111836Y-81147686D01*
X64115754Y-81143895D01*
X64119595Y-81140022D01*
X64123359Y-81136068D01*
X64127458Y-81131495D01*
X64131458Y-81126840D01*
X64135355Y-81122106D01*
X64139150Y-81117293D01*
X64142841Y-81112403D01*
X64146427Y-81107439D01*
X64149907Y-81102401D01*
X64153280Y-81097291D01*
X64156545Y-81092112D01*
X64159701Y-81086865D01*
X64162746Y-81081551D01*
X64165679Y-81076173D01*
X64168500Y-81070732D01*
X64171207Y-81065229D01*
X64173799Y-81059667D01*
X64176275Y-81054047D01*
X64250359Y-80871484D01*
X64268879Y-80829152D01*
X64269829Y-80827368D01*
X64270833Y-80825617D01*
X64271891Y-80823902D01*
X64273001Y-80822223D01*
X64274162Y-80820582D01*
X64275374Y-80818980D01*
X64276636Y-80817418D01*
X64277945Y-80815896D01*
X64279303Y-80814417D01*
X64280706Y-80812981D01*
X64282156Y-80811590D01*
X64283649Y-80810244D01*
X64285186Y-80808945D01*
X64286765Y-80807693D01*
X64288386Y-80806491D01*
X64290047Y-80805338D01*
X64291619Y-80804047D01*
X64293233Y-80802815D01*
X64294885Y-80801641D01*
X64296575Y-80800528D01*
X64298300Y-80799475D01*
X64300059Y-80798483D01*
X64301851Y-80797554D01*
X64303673Y-80796687D01*
X64305524Y-80795884D01*
X64307402Y-80795145D01*
X64309306Y-80794472D01*
X64311234Y-80793865D01*
X64313184Y-80793324D01*
X64315155Y-80792851D01*
X64317144Y-80792446D01*
X64319151Y-80792110D01*
X64403817Y-80792110D01*
X64403817Y-80622776D01*
X64332379Y-80622776D01*
X64319973Y-80622842D01*
X64307589Y-80623364D01*
X64295242Y-80624342D01*
X64282944Y-80625774D01*
X64270706Y-80627658D01*
X64258542Y-80629993D01*
X64246464Y-80632776D01*
X64234485Y-80636006D01*
X64229843Y-80637992D01*
X64225259Y-80640095D01*
X64220735Y-80642313D01*
X64216273Y-80644645D01*
X64211876Y-80647089D01*
X64207545Y-80649644D01*
X64203282Y-80652308D01*
X64199090Y-80655081D01*
X64194971Y-80657960D01*
X64190926Y-80660945D01*
X64186957Y-80664033D01*
X64183068Y-80667224D01*
X64179259Y-80670516D01*
X64175533Y-80673908D01*
X64171893Y-80677398D01*
X64168339Y-80680985D01*
X64161495Y-80688937D01*
X64154898Y-80697086D01*
X64148551Y-80705425D01*
X64142459Y-80713949D01*
X64136625Y-80722652D01*
X64131053Y-80731528D01*
X64125748Y-80740571D01*
X64120713Y-80749775D01*
X64115752Y-80759935D01*
X64110791Y-80770528D01*
X64100869Y-80792770D01*
X64090947Y-80816004D01*
X64081025Y-80839733D01*
X64028109Y-80972025D01*
X64024813Y-80979145D01*
X64021418Y-80986217D01*
X64017925Y-80993240D01*
X64014334Y-81000213D01*
X64010646Y-81007136D01*
X64006861Y-81014006D01*
X64002981Y-81020824D01*
X63999004Y-81027587D01*
X63997403Y-81031073D01*
X63995725Y-81034519D01*
X63993971Y-81037924D01*
X63992141Y-81041286D01*
X63990237Y-81044604D01*
X63988259Y-81047877D01*
X63986208Y-81051103D01*
X63984085Y-81054282D01*
X63981891Y-81057412D01*
X63979627Y-81060493D01*
X63977293Y-81063522D01*
X63974890Y-81066499D01*
X63972419Y-81069422D01*
X63969882Y-81072290D01*
X63967278Y-81075103D01*
X63964608Y-81077858D01*
X63962241Y-81080537D01*
X63959808Y-81083151D01*
X63957311Y-81085698D01*
X63954751Y-81088177D01*
X63952129Y-81090587D01*
X63949447Y-81092928D01*
X63946706Y-81095197D01*
X63943907Y-81097395D01*
X63941053Y-81099520D01*
X63938145Y-81101570D01*
X63935183Y-81103545D01*
X63932170Y-81105444D01*
X63929106Y-81107265D01*
X63925994Y-81109008D01*
X63922834Y-81110671D01*
X63919628Y-81112253D01*
X63915923Y-81114056D01*
X63912166Y-81115731D01*
X63908363Y-81117279D01*
X63904516Y-81118699D01*
X63900629Y-81119990D01*
X63896704Y-81121151D01*
X63892746Y-81122182D01*
X63888756Y-81123081D01*
X63884739Y-81123850D01*
X63880698Y-81124485D01*
X63876637Y-81124988D01*
X63872557Y-81125357D01*
X63868463Y-81125592D01*
X63864358Y-81125692D01*
X63860246Y-81125655D01*
X63856129Y-81125483D01*
X63739712Y-81125483D01*
X63739712Y-80628066D01*
X63559795Y-80628066D01*
X63559795Y-81808108D01*
X57610218Y-81808108D01*
X57609591Y-81805462D01*
X58657066Y-81805462D01*
X58818462Y-81805462D01*
X59331754Y-80950858D01*
X59331754Y-81805462D01*
X59509025Y-81805462D01*
X62583483Y-81805462D01*
X62779275Y-81792232D01*
X62779275Y-81331857D01*
X63043858Y-81331857D01*
X63062770Y-81331829D01*
X63081547Y-81330755D01*
X63100151Y-81328651D01*
X63118541Y-81325535D01*
X63136679Y-81321425D01*
X63154527Y-81316337D01*
X63172045Y-81310287D01*
X63189194Y-81303295D01*
X63205935Y-81295376D01*
X63222230Y-81286547D01*
X63238040Y-81276826D01*
X63253325Y-81266231D01*
X63268046Y-81254777D01*
X63282166Y-81242482D01*
X63295644Y-81229364D01*
X63308442Y-81215439D01*
X63319190Y-81202959D01*
X63329320Y-81190048D01*
X63338821Y-81176731D01*
X63347686Y-81163032D01*
X63355904Y-81148972D01*
X63363467Y-81134577D01*
X63370365Y-81119870D01*
X63376590Y-81104873D01*
X63382133Y-81089611D01*
X63386983Y-81074107D01*
X63391133Y-81058384D01*
X63394572Y-81042466D01*
X63397292Y-81026377D01*
X63399284Y-81010140D01*
X63400538Y-80993778D01*
X63401046Y-80977315D01*
X63401043Y-80966347D01*
X63400725Y-80955399D01*
X63400093Y-80944478D01*
X63399150Y-80933592D01*
X63397895Y-80922745D01*
X63396332Y-80911946D01*
X63394460Y-80901200D01*
X63392283Y-80890514D01*
X63389800Y-80879895D01*
X63387014Y-80869349D01*
X63383925Y-80858883D01*
X63380537Y-80848503D01*
X63376849Y-80838217D01*
X63372863Y-80828030D01*
X63368581Y-80817950D01*
X63364004Y-80807982D01*
X63360262Y-80799693D01*
X63356245Y-80791555D01*
X63351960Y-80783574D01*
X63347411Y-80775755D01*
X63342602Y-80768104D01*
X63337540Y-80760629D01*
X63332229Y-80753335D01*
X63326673Y-80746228D01*
X63320879Y-80739315D01*
X63314851Y-80732601D01*
X63308593Y-80726093D01*
X63302112Y-80719798D01*
X63295412Y-80713720D01*
X63288497Y-80707867D01*
X63281374Y-80702244D01*
X63274046Y-80696858D01*
X63266830Y-80691052D01*
X63259477Y-80685438D01*
X63251992Y-80680016D01*
X63244379Y-80674790D01*
X63236640Y-80669762D01*
X63228781Y-80664932D01*
X63220804Y-80660305D01*
X63212715Y-80655881D01*
X63204516Y-80651662D01*
X63196212Y-80647651D01*
X63187807Y-80643851D01*
X63179305Y-80640262D01*
X63170709Y-80636887D01*
X63162024Y-80633728D01*
X63153253Y-80630787D01*
X63144400Y-80628066D01*
X62583483Y-80628066D01*
X62583483Y-81805462D01*
X59509025Y-81805462D01*
X59509025Y-81800170D01*
X59757733Y-81800170D01*
X59937650Y-81800170D01*
X59937650Y-81271004D01*
X60403317Y-81271004D01*
X60403317Y-81800170D01*
X60583233Y-81800170D01*
X60583233Y-80792109D01*
X60707587Y-80792109D01*
X61030378Y-80797400D01*
X61030378Y-81800171D01*
X61210295Y-81800171D01*
X61210295Y-81800170D01*
X61657441Y-81800170D01*
X62408858Y-81800170D01*
X62408858Y-81630837D01*
X61837358Y-81630837D01*
X61837358Y-81284232D01*
X62318900Y-81284232D01*
X62318900Y-81125483D01*
X61837358Y-81125483D01*
X61837358Y-80797400D01*
X62408858Y-80797400D01*
X62408858Y-80628066D01*
X61657441Y-80628066D01*
X61657441Y-81800170D01*
X61210295Y-81800170D01*
X61210295Y-80792109D01*
X61525149Y-80792109D01*
X61525149Y-80622775D01*
X60707587Y-80622775D01*
X60707587Y-80792109D01*
X60583233Y-80792109D01*
X60583233Y-80622774D01*
X60403317Y-80622774D01*
X60403317Y-81125483D01*
X59937650Y-81125483D01*
X59937650Y-80628066D01*
X59757733Y-80628066D01*
X59757733Y-81800170D01*
X59509025Y-81800170D01*
X59509025Y-80628066D01*
X59344983Y-80628066D01*
X58836983Y-81480025D01*
X58836983Y-80628066D01*
X58657066Y-80628066D01*
X58657066Y-81805462D01*
X57609591Y-81805462D01*
X57585602Y-81704197D01*
X57509010Y-81229862D01*
X57466971Y-80750675D01*
X57459873Y-80268577D01*
X57470716Y-80083024D01*
X58064400Y-80083024D01*
X65054691Y-80083024D01*
X65229316Y-76000504D01*
X65229316Y-76000503D01*
X65224865Y-75959768D01*
X65218628Y-75919613D01*
X65210644Y-75880079D01*
X65200955Y-75841207D01*
X65189602Y-75803036D01*
X65176626Y-75765608D01*
X65162068Y-75728962D01*
X65145969Y-75693140D01*
X65128369Y-75658181D01*
X65109310Y-75624126D01*
X65088833Y-75591016D01*
X65066979Y-75558892D01*
X65043789Y-75527792D01*
X65019303Y-75497759D01*
X64993563Y-75468832D01*
X64966611Y-75441053D01*
X64938485Y-75414460D01*
X64909229Y-75389096D01*
X64878882Y-75365000D01*
X64847486Y-75342213D01*
X64815082Y-75320775D01*
X64781711Y-75300727D01*
X64747413Y-75282109D01*
X64712230Y-75264962D01*
X64676203Y-75249326D01*
X64639372Y-75235242D01*
X64601779Y-75222749D01*
X64563465Y-75211890D01*
X64524471Y-75202704D01*
X64484837Y-75195231D01*
X64444605Y-75189512D01*
X64403815Y-75185587D01*
X64399662Y-75184573D01*
X64395588Y-75183389D01*
X64391596Y-75182040D01*
X64387690Y-75180530D01*
X64383872Y-75178863D01*
X64380147Y-75177044D01*
X64376518Y-75175077D01*
X64372989Y-75172966D01*
X64369562Y-75170716D01*
X64366241Y-75168331D01*
X64359933Y-75163171D01*
X64354092Y-75157523D01*
X64348745Y-75151420D01*
X64343920Y-75144896D01*
X64339645Y-75137986D01*
X64335947Y-75130724D01*
X64334323Y-75126971D01*
X64332854Y-75123144D01*
X64331544Y-75119246D01*
X64330394Y-75115281D01*
X64329410Y-75111255D01*
X64328595Y-75107170D01*
X64327951Y-75103031D01*
X64327483Y-75098844D01*
X64327194Y-75094611D01*
X64327087Y-75090338D01*
X64327254Y-75086033D01*
X64327595Y-75081769D01*
X64328109Y-75077549D01*
X64328793Y-75073376D01*
X64329642Y-75069256D01*
X64330655Y-75065193D01*
X64331827Y-75061189D01*
X64333155Y-75057249D01*
X64334638Y-75053378D01*
X64336270Y-75049579D01*
X64338050Y-75045857D01*
X64339973Y-75042214D01*
X64342037Y-75038656D01*
X64344240Y-75035187D01*
X64346576Y-75031810D01*
X64349044Y-75028529D01*
X64351640Y-75025349D01*
X64354361Y-75022273D01*
X64357204Y-75019306D01*
X64360166Y-75016451D01*
X64363243Y-75013713D01*
X64366433Y-75011096D01*
X64369731Y-75008603D01*
X64373136Y-75006239D01*
X64376644Y-75004007D01*
X64380252Y-75001913D01*
X64383956Y-74999959D01*
X64387754Y-74998150D01*
X64391642Y-74996489D01*
X64395617Y-74994982D01*
X64399676Y-74993631D01*
X64403816Y-74992441D01*
X64443912Y-74988122D01*
X64483452Y-74982065D01*
X64522396Y-74974307D01*
X64560705Y-74964889D01*
X64598340Y-74953850D01*
X64635262Y-74941228D01*
X64671431Y-74927062D01*
X64706808Y-74911392D01*
X64741353Y-74894257D01*
X64775028Y-74875695D01*
X64807793Y-74855746D01*
X64839609Y-74834448D01*
X64870436Y-74811841D01*
X64900236Y-74787964D01*
X64928969Y-74762856D01*
X64956595Y-74736556D01*
X64983075Y-74709102D01*
X65008371Y-74680534D01*
X65032442Y-74650891D01*
X65055250Y-74620212D01*
X65076755Y-74588537D01*
X65096918Y-74555903D01*
X65115699Y-74522350D01*
X65133060Y-74487917D01*
X65148961Y-74452643D01*
X65163363Y-74416568D01*
X65176226Y-74379730D01*
X65187511Y-74342168D01*
X65197179Y-74303921D01*
X65205191Y-74265028D01*
X65211507Y-74225529D01*
X65216087Y-74185462D01*
X65216088Y-74185462D01*
X65217110Y-74181173D01*
X65218307Y-74176965D01*
X65219676Y-74172841D01*
X65221212Y-74168805D01*
X65222911Y-74164860D01*
X65224767Y-74161010D01*
X65226778Y-74157259D01*
X65228938Y-74153610D01*
X65231242Y-74150067D01*
X65233687Y-74146633D01*
X65238980Y-74140109D01*
X65244781Y-74134065D01*
X65251055Y-74128532D01*
X65257766Y-74123537D01*
X65264877Y-74119111D01*
X65272355Y-74115280D01*
X65276220Y-74113598D01*
X65280163Y-74112076D01*
X65284179Y-74110717D01*
X65288265Y-74109525D01*
X65292415Y-74108504D01*
X65296626Y-74107658D01*
X65300893Y-74106989D01*
X65305211Y-74106502D01*
X65309576Y-74106200D01*
X65313983Y-74106087D01*
X65318331Y-74106222D01*
X65322634Y-74106545D01*
X65326890Y-74107053D01*
X65331092Y-74107742D01*
X65335237Y-74108607D01*
X65339320Y-74109647D01*
X65343337Y-74110856D01*
X65347284Y-74112232D01*
X65351155Y-74113770D01*
X65354946Y-74115467D01*
X65358654Y-74117318D01*
X65362273Y-74119322D01*
X65365799Y-74121472D01*
X65369228Y-74123767D01*
X65372555Y-74126202D01*
X65375776Y-74128774D01*
X65378886Y-74131478D01*
X65381881Y-74134311D01*
X65384756Y-74137270D01*
X65387508Y-74140351D01*
X65390131Y-74143549D01*
X65392621Y-74146862D01*
X65394973Y-74150285D01*
X65397184Y-74153816D01*
X65399249Y-74157449D01*
X65401163Y-74161182D01*
X65402922Y-74165011D01*
X65404521Y-74168932D01*
X65405956Y-74172941D01*
X65407223Y-74177035D01*
X65408317Y-74181210D01*
X65409233Y-74185462D01*
X65411880Y-74217212D01*
X65416390Y-74256659D01*
X65422580Y-74295563D01*
X65430412Y-74333888D01*
X65439849Y-74371596D01*
X65450854Y-74408649D01*
X65463390Y-74445009D01*
X65477421Y-74480640D01*
X65492909Y-74515503D01*
X65509817Y-74549561D01*
X65528108Y-74582776D01*
X65547746Y-74615111D01*
X65568692Y-74646527D01*
X65590912Y-74676989D01*
X65614366Y-74706457D01*
X65639019Y-74734894D01*
X65664833Y-74762263D01*
X65691772Y-74788526D01*
X65719798Y-74813646D01*
X65748874Y-74837584D01*
X65778964Y-74860304D01*
X65810030Y-74881767D01*
X65842036Y-74901936D01*
X65874944Y-74920774D01*
X65908718Y-74938243D01*
X65943320Y-74954305D01*
X65978714Y-74968923D01*
X66014863Y-74982058D01*
X66051729Y-74993674D01*
X66089275Y-75003733D01*
X66127465Y-75012198D01*
X66166262Y-75019030D01*
X66205628Y-75024192D01*
X66210663Y-75024323D01*
X66215632Y-75024704D01*
X66220528Y-75025330D01*
X66225346Y-75026194D01*
X66230079Y-75027289D01*
X66234722Y-75028611D01*
X66239267Y-75030152D01*
X66243710Y-75031907D01*
X66248043Y-75033868D01*
X66252261Y-75036032D01*
X66256357Y-75038390D01*
X66260326Y-75040937D01*
X66264161Y-75043667D01*
X66267856Y-75046573D01*
X66271405Y-75049650D01*
X66274802Y-75052891D01*
X66278041Y-75056291D01*
X66281115Y-75059842D01*
X66284018Y-75063540D01*
X66286745Y-75067377D01*
X66289289Y-75071348D01*
X66291644Y-75075446D01*
X66293804Y-75079665D01*
X66295763Y-75084000D01*
X66297514Y-75088444D01*
X66299051Y-75092991D01*
X66300369Y-75097634D01*
X66301461Y-75102368D01*
X66302321Y-75107187D01*
X66302943Y-75112083D01*
X66303321Y-75117052D01*
X66303448Y-75122087D01*
X66303321Y-75127122D01*
X66302943Y-75132091D01*
X66302321Y-75136988D01*
X66301461Y-75141807D01*
X66300369Y-75146541D01*
X66299051Y-75151184D01*
X66297514Y-75155731D01*
X66295763Y-75160175D01*
X66293804Y-75164509D01*
X66291644Y-75168729D01*
X66289289Y-75172827D01*
X66286745Y-75176798D01*
X66284018Y-75180635D01*
X66281115Y-75184333D01*
X66278041Y-75187884D01*
X66274802Y-75191283D01*
X66271405Y-75194525D01*
X66267856Y-75197602D01*
X66264161Y-75200508D01*
X66260326Y-75203238D01*
X66256357Y-75205785D01*
X66252261Y-75208143D01*
X66248043Y-75210306D01*
X66243710Y-75212268D01*
X66239267Y-75214023D01*
X66234722Y-75215564D01*
X66230079Y-75216886D01*
X66225346Y-75217981D01*
X66220528Y-75218845D01*
X66215632Y-75219471D01*
X66210663Y-75219852D01*
X66205628Y-75219983D01*
X66073337Y-75219983D01*
X66023066Y-75233212D01*
X66023066Y-75233213D01*
X66000669Y-75241441D01*
X65978838Y-75250586D01*
X65957590Y-75260619D01*
X65936943Y-75271512D01*
X65916913Y-75283237D01*
X65897517Y-75295767D01*
X65878771Y-75309073D01*
X65860694Y-75323128D01*
X65826610Y-75353373D01*
X65795400Y-75386279D01*
X65767201Y-75421622D01*
X65742146Y-75459181D01*
X65720371Y-75498732D01*
X65702013Y-75540052D01*
X65687205Y-75582919D01*
X65676084Y-75627109D01*
X65671948Y-75649631D01*
X65668784Y-75672401D01*
X65666610Y-75695389D01*
X65665442Y-75718570D01*
X65665297Y-75741914D01*
X65666192Y-75765394D01*
X65668144Y-75788982D01*
X65671169Y-75812650D01*
X65671169Y-80088317D01*
X70081774Y-80088317D01*
X70063349Y-79849908D01*
X70035729Y-79613874D01*
X69999075Y-79380419D01*
X69953549Y-79149745D01*
X69899313Y-78922054D01*
X69836527Y-78697548D01*
X69765353Y-78476428D01*
X69685952Y-78258899D01*
X69598486Y-78045160D01*
X69503117Y-77835415D01*
X69400005Y-77629866D01*
X69289313Y-77428714D01*
X69171200Y-77232163D01*
X69045830Y-77040414D01*
X68913363Y-76853669D01*
X68773960Y-76672130D01*
X68627784Y-76496000D01*
X68474995Y-76325481D01*
X68315755Y-76160775D01*
X68150226Y-76002084D01*
X67978568Y-75849610D01*
X67800943Y-75703555D01*
X67617513Y-75564122D01*
X67428438Y-75431513D01*
X67233881Y-75305929D01*
X67034003Y-75187573D01*
X66828965Y-75076648D01*
X66618928Y-74973354D01*
X66404054Y-74877895D01*
X66184505Y-74790473D01*
X65960442Y-74711289D01*
X65732025Y-74640546D01*
X65710095Y-74616622D01*
X65689264Y-74591869D01*
X65669551Y-74566326D01*
X65650972Y-74540033D01*
X65633546Y-74513028D01*
X65617291Y-74485351D01*
X65602223Y-74457040D01*
X65588362Y-74428135D01*
X65575724Y-74398674D01*
X65564327Y-74368696D01*
X65554189Y-74338241D01*
X65545328Y-74307348D01*
X65537761Y-74276056D01*
X65531506Y-74244402D01*
X65526581Y-74212428D01*
X65523004Y-74180171D01*
X65523004Y-74166942D01*
X65520821Y-74157647D01*
X65518256Y-74148526D01*
X65515318Y-74139587D01*
X65512016Y-74130838D01*
X65508360Y-74122287D01*
X65504361Y-74113942D01*
X65500027Y-74105810D01*
X65495368Y-74097900D01*
X65490394Y-74090219D01*
X65485115Y-74082775D01*
X65479541Y-74075577D01*
X65473680Y-74068631D01*
X65461140Y-74055530D01*
X65447572Y-74043536D01*
X65433054Y-74032711D01*
X65417663Y-74023117D01*
X65409665Y-74018803D01*
X65401478Y-74014820D01*
X65393111Y-74011176D01*
X65384575Y-74007880D01*
X65375879Y-74004939D01*
X65367032Y-74002361D01*
X65358045Y-74000155D01*
X65348927Y-73998327D01*
X65339687Y-73996886D01*
X65330336Y-73995840D01*
X65320883Y-73995196D01*
X65311339Y-73994963D01*
X65301759Y-73995104D01*
X65292270Y-73995664D01*
X65282883Y-73996635D01*
X65273608Y-73998009D01*
X65264453Y-73999777D01*
X65255430Y-74001932D01*
X65246548Y-74004464D01*
X65237817Y-74007367D01*
X65229248Y-74010632D01*
X65220850Y-74014251D01*
X65212633Y-74018215D01*
X65204608Y-74022517D01*
X65196783Y-74027149D01*
X65189171Y-74032101D01*
X65181779Y-74037367D01*
X65174619Y-74042939D01*
X65167700Y-74048807D01*
X65161032Y-74054964D01*
X65154626Y-74061402D01*
X65148490Y-74068112D01*
X65142637Y-74075087D01*
X65137074Y-74082318D01*
X65131813Y-74089797D01*
X65126863Y-74097517D01*
X65122234Y-74105468D01*
X65117937Y-74113644D01*
X65113981Y-74122035D01*
X65110376Y-74130633D01*
X65107133Y-74139432D01*
X65104261Y-74148421D01*
X65101770Y-74157594D01*
X65099670Y-74166942D01*
X65099671Y-74180171D01*
X65097574Y-74199753D01*
X65094995Y-74219256D01*
X65091936Y-74238671D01*
X65088400Y-74257990D01*
X65084389Y-74277203D01*
X65079907Y-74296303D01*
X65074956Y-74315281D01*
X65069538Y-74334127D01*
X65063656Y-74352835D01*
X65057313Y-74371394D01*
X65050511Y-74389796D01*
X65043253Y-74408032D01*
X65035541Y-74426095D01*
X65027379Y-74443974D01*
X65018768Y-74461663D01*
X65009711Y-74479151D01*
X64893373Y-74461997D01*
X64776758Y-74447093D01*
X64659898Y-74434441D01*
X64542828Y-74424045D01*
X64425579Y-74415907D01*
X64308183Y-74410030D01*
X64190675Y-74406415D01*
X64073085Y-74405067D01*
X63775674Y-74412590D01*
X63481866Y-74434355D01*
X63192008Y-74470035D01*
X62906446Y-74519300D01*
X62625528Y-74581824D01*
X62349600Y-74657278D01*
X62079011Y-74745334D01*
X61814107Y-74845664D01*
X61555234Y-74957940D01*
X61302742Y-75081835D01*
X61056975Y-75217019D01*
X60818282Y-75363166D01*
X60587010Y-75519947D01*
X60363505Y-75687033D01*
X60148115Y-75864098D01*
X59941188Y-76050814D01*
X59743069Y-76246851D01*
X59554106Y-76451882D01*
X59374646Y-76665580D01*
X59205037Y-76887615D01*
X59045625Y-77117661D01*
X58896758Y-77355389D01*
X58758783Y-77600471D01*
X58632046Y-77852579D01*
X58516895Y-78111385D01*
X58413677Y-78376562D01*
X58322739Y-78647780D01*
X58244429Y-78924713D01*
X58179092Y-79207032D01*
X58127077Y-79494408D01*
X58088731Y-79786515D01*
X58064400Y-80083024D01*
X57470716Y-80083024D01*
X57488101Y-79785514D01*
X57552042Y-79303428D01*
X57652083Y-78824262D01*
X57788609Y-78349959D01*
X57962009Y-77882464D01*
X58169966Y-77429283D01*
X58408809Y-76997362D01*
X58676891Y-76587801D01*
X58972564Y-76201701D01*
X59294182Y-75840163D01*
X59640095Y-75504288D01*
X60008658Y-75195177D01*
X60398221Y-74913930D01*
X60807139Y-74661648D01*
X61233764Y-74439433D01*
X61676447Y-74248384D01*
X62133542Y-74089603D01*
X62603401Y-73964190D01*
X63084377Y-73873247D01*
X63574821Y-73817874D01*
X64073088Y-73799171D01*
X64401086Y-73807301D01*
X64726858Y-73831539D01*
X65049862Y-73871661D01*
X65369555Y-73927443D01*
X65685395Y-73998660D01*
X65996841Y-74085088D01*
X66303349Y-74186501D01*
X66604379Y-74302676D01*
X66899387Y-74433388D01*
X67187831Y-74578412D01*
X67469170Y-74737524D01*
X67742861Y-74910499D01*
X68008362Y-75097112D01*
X68265131Y-75297139D01*
X68512625Y-75510356D01*
X68750303Y-75736538D01*
X68976485Y-75974216D01*
X69189702Y-76221710D01*
X69389729Y-76478479D01*
X69576343Y-76743980D01*
X69749317Y-77017671D01*
X69908429Y-77299010D01*
X70053453Y-77587455D01*
X70184165Y-77882463D01*
X70300340Y-78183492D01*
X70401754Y-78490001D01*
X70488181Y-78801446D01*
X70559398Y-79117287D01*
X70615180Y-79436980D01*
X70655303Y-79759983D01*
X70679541Y-80085756D01*
X70687670Y-80413754D01*
X70682971Y-80663762D01*
X70668967Y-80912020D01*
X70645796Y-81158323D01*
X70613594Y-81402465D01*
X70572500Y-81644239D01*
X70522651Y-81883440D01*
X70464185Y-82119862D01*
X70397239Y-82353299D01*
X70321950Y-82583545D01*
X70238458Y-82810394D01*
X70146898Y-83033640D01*
X70047409Y-83253077D01*
X69940129Y-83468500D01*
X69825194Y-83679702D01*
X69702743Y-83886477D01*
X69572913Y-84088620D01*
X69435841Y-84285924D01*
X69291666Y-84478184D01*
X69140525Y-84665193D01*
X68982555Y-84846746D01*
X68817894Y-85022637D01*
X68646680Y-85192659D01*
X68469050Y-85356608D01*
X68285143Y-85514277D01*
X68095094Y-85665459D01*
X67899043Y-85809950D01*
X67697126Y-85947543D01*
X67489482Y-86078032D01*
X67276248Y-86201211D01*
X67057561Y-86316875D01*
X66833559Y-86424817D01*
X66604380Y-86524832D01*
X66136885Y-86698232D01*
X65662582Y-86834759D01*
X65183416Y-86934799D01*
X64701330Y-86998740D01*
X64218267Y-87026969D01*
X63736170Y-87019870D01*
X63256982Y-86977832D01*
X62782647Y-86901240D01*
X62315109Y-86790482D01*
X61856310Y-86645943D01*
X61408194Y-86468010D01*
X60972704Y-86257071D01*
X60920130Y-86226650D01*
X65665878Y-86226650D01*
X65671171Y-86226650D01*
X66015902Y-86119659D01*
X66351517Y-85993152D01*
X66677334Y-85847751D01*
X66992671Y-85684082D01*
X67296848Y-85502769D01*
X67589183Y-85304437D01*
X67868996Y-85089710D01*
X68135604Y-84859214D01*
X68388326Y-84613572D01*
X68626481Y-84353410D01*
X68849389Y-84079352D01*
X69056366Y-83792023D01*
X69246734Y-83492046D01*
X69419809Y-83180048D01*
X69574910Y-82856652D01*
X69711357Y-82522483D01*
X65665878Y-82522483D01*
X65665878Y-86226650D01*
X60920130Y-86226650D01*
X60551783Y-86013510D01*
X60147375Y-85737716D01*
G37*
X60147375Y-85737716D02*
X59761424Y-85430074D01*
X59395872Y-85090971D01*
X59056769Y-84725419D01*
X58749127Y-84339468D01*
X58473332Y-83935060D01*
X58229772Y-83514140D01*
X58018832Y-83078650D01*
X57840899Y-82630534D01*
X57807692Y-82525128D01*
X58847566Y-82525128D01*
X58909464Y-82670545D01*
X59007887Y-82885292D01*
X59139921Y-83149648D01*
X59217630Y-83294267D01*
X59302650Y-83443894D01*
X59394614Y-83596063D01*
X59493160Y-83748309D01*
X59597922Y-83898169D01*
X59708537Y-84043175D01*
X59824640Y-84180865D01*
X59945866Y-84308772D01*
X60071852Y-84424431D01*
X60136516Y-84476898D01*
X60202233Y-84525379D01*
X60477093Y-84726721D01*
X60744038Y-84904225D01*
X61003029Y-85058810D01*
X61254024Y-85191395D01*
X61496985Y-85302900D01*
X61731872Y-85394244D01*
X61958645Y-85466348D01*
X62177265Y-85520129D01*
X62387691Y-85556509D01*
X62589884Y-85576406D01*
X62783805Y-85580741D01*
X62969413Y-85570431D01*
X63146669Y-85546398D01*
X63315533Y-85509560D01*
X63475965Y-85460838D01*
X63627926Y-85401150D01*
X63771376Y-85331416D01*
X63906274Y-85252555D01*
X64032583Y-85165488D01*
X64150261Y-85071134D01*
X64259269Y-84970411D01*
X64359567Y-84864241D01*
X64451116Y-84753541D01*
X64533876Y-84639233D01*
X64607806Y-84522234D01*
X64672868Y-84403465D01*
X64729022Y-84283846D01*
X64776227Y-84164295D01*
X64814445Y-84045733D01*
X64843635Y-83929078D01*
X64863758Y-83815251D01*
X64874774Y-83705171D01*
X64900240Y-83238181D01*
X64935628Y-82525128D01*
X58847566Y-82525128D01*
X57807692Y-82525128D01*
X57696360Y-82171735D01*
X57610218Y-81808108D01*
X63559795Y-81808108D01*
X63739712Y-81808108D01*
X63739712Y-81294816D01*
X63906400Y-81294816D01*
X63951379Y-81300108D01*
X63954352Y-81301823D01*
X63957286Y-81303599D01*
X63960179Y-81305436D01*
X63963031Y-81307333D01*
X63965841Y-81309289D01*
X63968608Y-81311303D01*
X63971331Y-81313376D01*
X63974009Y-81315505D01*
X63976642Y-81317690D01*
X63979227Y-81319932D01*
X63981765Y-81322228D01*
X63984255Y-81324578D01*
X63986695Y-81326981D01*
X63989085Y-81329437D01*
X63991424Y-81331945D01*
X63993711Y-81334504D01*
X63996433Y-81337590D01*
X63999084Y-81340734D01*
X64001660Y-81343934D01*
X64004163Y-81347189D01*
X64006591Y-81350498D01*
X64008942Y-81353859D01*
X64011217Y-81357272D01*
X64013415Y-81360734D01*
X64015534Y-81364245D01*
X64017575Y-81367803D01*
X64019535Y-81371407D01*
X64021414Y-81375055D01*
X64023212Y-81378746D01*
X64024927Y-81382480D01*
X64026560Y-81386253D01*
X64028108Y-81390066D01*
X64104839Y-81577920D01*
X64123360Y-81611324D01*
X64125524Y-81615679D01*
X64127525Y-81620062D01*
X64129325Y-81624468D01*
X64130884Y-81628894D01*
X64132165Y-81633335D01*
X64133127Y-81637787D01*
X64133733Y-81642247D01*
X64133890Y-81644479D01*
X64133944Y-81646712D01*
X64138193Y-81654866D01*
X64142552Y-81662961D01*
X64147021Y-81670995D01*
X64151599Y-81678966D01*
X64156285Y-81686875D01*
X64161078Y-81694720D01*
X64165979Y-81702499D01*
X64170986Y-81710212D01*
X64174827Y-81715418D01*
X64178838Y-81720477D01*
X64183015Y-81725383D01*
X64187353Y-81730135D01*
X64191849Y-81734727D01*
X64196497Y-81739157D01*
X64201293Y-81743420D01*
X64206232Y-81747514D01*
X64211310Y-81751434D01*
X64216522Y-81755177D01*
X64221864Y-81758740D01*
X64227331Y-81762118D01*
X64232919Y-81765307D01*
X64238622Y-81768306D01*
X64244438Y-81771109D01*
X64250360Y-81773712D01*
X64257148Y-81776414D01*
X64263997Y-81778935D01*
X64270902Y-81781274D01*
X64277859Y-81783432D01*
X64284865Y-81785407D01*
X64291917Y-81787198D01*
X64299010Y-81788805D01*
X64306142Y-81790228D01*
X64313308Y-81791465D01*
X64320505Y-81792517D01*
X64327729Y-81793381D01*
X64334976Y-81794058D01*
X64342244Y-81794547D01*
X64349528Y-81794848D01*
X64356825Y-81794958D01*
X64364131Y-81794879D01*
X64454089Y-81794879D01*
X64454089Y-81625547D01*
X64356194Y-81625547D01*
X64354154Y-81625022D01*
X64352137Y-81624431D01*
X64350143Y-81623774D01*
X64348175Y-81623054D01*
X64346234Y-81622269D01*
X64344321Y-81621422D01*
X64342439Y-81620512D01*
X64340587Y-81619542D01*
X64338769Y-81618511D01*
X64336985Y-81617420D01*
X64335237Y-81616271D01*
X64333527Y-81615063D01*
X64331855Y-81613799D01*
X64330224Y-81612478D01*
X64328635Y-81611102D01*
X64327089Y-81609671D01*
X64305922Y-81583213D01*
X64303636Y-81578377D01*
X64301436Y-81573503D01*
X64299321Y-81568592D01*
X64297292Y-81563646D01*
X64295350Y-81558665D01*
X64293495Y-81553650D01*
X64291727Y-81548603D01*
X64290047Y-81543525D01*
X64208329Y-81350378D01*
X64584678Y-81350378D01*
X64584950Y-81383468D01*
X64585765Y-81416551D01*
X64587123Y-81449621D01*
X64589024Y-81482670D01*
X64589024Y-81517066D01*
X64588535Y-81520690D01*
X64588185Y-81524326D01*
X64587976Y-81527970D01*
X64587906Y-81531618D01*
X64587976Y-81535267D01*
X64588185Y-81538911D01*
X64588535Y-81542547D01*
X64589024Y-81546171D01*
X64610190Y-81596442D01*
X64616487Y-81607481D01*
X64623121Y-81618294D01*
X64630087Y-81628874D01*
X64637377Y-81639213D01*
X64644985Y-81649304D01*
X64652905Y-81659141D01*
X64661129Y-81668716D01*
X64669652Y-81678022D01*
X64678467Y-81687053D01*
X64687566Y-81695801D01*
X64696943Y-81704259D01*
X64706593Y-81712421D01*
X64716507Y-81720279D01*
X64726680Y-81727826D01*
X64737104Y-81735056D01*
X64747774Y-81741961D01*
X64760218Y-81749796D01*
X64772909Y-81757199D01*
X64785836Y-81764163D01*
X64798987Y-81770685D01*
X64812351Y-81776758D01*
X64825916Y-81782377D01*
X64839672Y-81787536D01*
X64853607Y-81792231D01*
X64869191Y-81796138D01*
X64884886Y-81799500D01*
X64900680Y-81802314D01*
X64916556Y-81804578D01*
X64932502Y-81806292D01*
X64948502Y-81807452D01*
X64964542Y-81808058D01*
X64980608Y-81808108D01*
X64996996Y-81807999D01*
X65013359Y-81807351D01*
X65029683Y-81806165D01*
X65045954Y-81804444D01*
X65062160Y-81802188D01*
X65078288Y-81799400D01*
X65094323Y-81796080D01*
X65110254Y-81792232D01*
X65123801Y-81787360D01*
X65137180Y-81782076D01*
X65150384Y-81776384D01*
X65163403Y-81770289D01*
X65176227Y-81763794D01*
X65188848Y-81756906D01*
X65201256Y-81749627D01*
X65213442Y-81741963D01*
X65223957Y-81735028D01*
X65234225Y-81727773D01*
X65244240Y-81720203D01*
X65253995Y-81712327D01*
X65263483Y-81704150D01*
X65272697Y-81695681D01*
X65281633Y-81686926D01*
X65290281Y-81677892D01*
X65298638Y-81668587D01*
X65306694Y-81659018D01*
X65314445Y-81649191D01*
X65321883Y-81639113D01*
X65329002Y-81628792D01*
X65335795Y-81618236D01*
X65342257Y-81607450D01*
X65348379Y-81596442D01*
X65352546Y-81589986D01*
X65356517Y-81583423D01*
X65360292Y-81576755D01*
X65363868Y-81569988D01*
X65367245Y-81563126D01*
X65370420Y-81556174D01*
X65373392Y-81549136D01*
X65376158Y-81542016D01*
X65378718Y-81534820D01*
X65381070Y-81527551D01*
X65383212Y-81520214D01*
X65385142Y-81512814D01*
X65386859Y-81505355D01*
X65388360Y-81497842D01*
X65389645Y-81490279D01*
X65390712Y-81482670D01*
X65390713Y-81487947D01*
X65394657Y-81453014D01*
X65398136Y-81418037D01*
X65401150Y-81383019D01*
X65403139Y-81355670D01*
X65587116Y-81355670D01*
X65587409Y-81388762D01*
X65588286Y-81421847D01*
X65589748Y-81454916D01*
X65591795Y-81487962D01*
X65591795Y-81522358D01*
X65592026Y-81525993D01*
X65592191Y-81529631D01*
X65592290Y-81533270D01*
X65592323Y-81536910D01*
X65592290Y-81540551D01*
X65592191Y-81544190D01*
X65592026Y-81547828D01*
X65591795Y-81551462D01*
X65631483Y-81609669D01*
X65637499Y-81620918D01*
X65643897Y-81631920D01*
X65650670Y-81642667D01*
X65657809Y-81653150D01*
X65665307Y-81663360D01*
X65673155Y-81673290D01*
X65681344Y-81682929D01*
X65689867Y-81692269D01*
X65698715Y-81701302D01*
X65707880Y-81710019D01*
X65717354Y-81718411D01*
X65727128Y-81726469D01*
X65737195Y-81734185D01*
X65747545Y-81741550D01*
X65758171Y-81748555D01*
X65769065Y-81755192D01*
X65781069Y-81763186D01*
X65793356Y-81770705D01*
X65805914Y-81777742D01*
X65818728Y-81784291D01*
X65831783Y-81790344D01*
X65845065Y-81795895D01*
X65858560Y-81800937D01*
X65872253Y-81805462D01*
X65887858Y-81809255D01*
X65903564Y-81812534D01*
X65919361Y-81815299D01*
X65935235Y-81817546D01*
X65951174Y-81819275D01*
X65967165Y-81820484D01*
X65983195Y-81821172D01*
X65999251Y-81821336D01*
X66018287Y-81821739D01*
X66037148Y-81821250D01*
X66055813Y-81819889D01*
X66074259Y-81817674D01*
X66092465Y-81814623D01*
X66110408Y-81810753D01*
X66128066Y-81806084D01*
X66130045Y-81805462D01*
X66525774Y-81805462D01*
X66705690Y-81805462D01*
X66705690Y-81069921D01*
X66951753Y-81636129D01*
X67099920Y-81636129D01*
X67345983Y-81069921D01*
X67345983Y-81800170D01*
X67533836Y-81800170D01*
X67533836Y-81347733D01*
X67778200Y-81347733D01*
X67778471Y-81380823D01*
X67779286Y-81413905D01*
X67780644Y-81446975D01*
X67782544Y-81480025D01*
X67782544Y-81514421D01*
X67782055Y-81518045D01*
X67781706Y-81521681D01*
X67781496Y-81525325D01*
X67781426Y-81528973D01*
X67781496Y-81532621D01*
X67781706Y-81536265D01*
X67782055Y-81539901D01*
X67782544Y-81543525D01*
X67803711Y-81593795D01*
X67810007Y-81604835D01*
X67816642Y-81615648D01*
X67823607Y-81626227D01*
X67830897Y-81636566D01*
X67838506Y-81646658D01*
X67846425Y-81656494D01*
X67854650Y-81666069D01*
X67863173Y-81675376D01*
X67871987Y-81684407D01*
X67881086Y-81693155D01*
X67890464Y-81701613D01*
X67900113Y-81709775D01*
X67910028Y-81717634D01*
X67920200Y-81725181D01*
X67930625Y-81732411D01*
X67941295Y-81739316D01*
X67953738Y-81747151D01*
X67966429Y-81754554D01*
X67979356Y-81761519D01*
X67992507Y-81768041D01*
X68005871Y-81774114D01*
X68019437Y-81779733D01*
X68033193Y-81784892D01*
X68047128Y-81789587D01*
X68062712Y-81793495D01*
X68078407Y-81796856D01*
X68094201Y-81799670D01*
X68110077Y-81801934D01*
X68126022Y-81803647D01*
X68142022Y-81804808D01*
X68158063Y-81805414D01*
X68174129Y-81805463D01*
X68190517Y-81805354D01*
X68206880Y-81804706D01*
X68223203Y-81803521D01*
X68239475Y-81801799D01*
X68255681Y-81799544D01*
X68271808Y-81796756D01*
X68287844Y-81793437D01*
X68303775Y-81789588D01*
X68317321Y-81784716D01*
X68330701Y-81779432D01*
X68343905Y-81773740D01*
X68356923Y-81767644D01*
X68369748Y-81761149D01*
X68382369Y-81754260D01*
X68394777Y-81746981D01*
X68406962Y-81739316D01*
X68417478Y-81732382D01*
X68427746Y-81725126D01*
X68437761Y-81717557D01*
X68447516Y-81709680D01*
X68457004Y-81701504D01*
X68466218Y-81693035D01*
X68475154Y-81684280D01*
X68483802Y-81675246D01*
X68492158Y-81665941D01*
X68500215Y-81656371D01*
X68507966Y-81646544D01*
X68515404Y-81636467D01*
X68522523Y-81626147D01*
X68529316Y-81615590D01*
X68535777Y-81604804D01*
X68541900Y-81593796D01*
X68546066Y-81587341D01*
X68550038Y-81580777D01*
X68553812Y-81574110D01*
X68557389Y-81567343D01*
X68560766Y-81560481D01*
X68563941Y-81553528D01*
X68566912Y-81546490D01*
X68569679Y-81539371D01*
X68572239Y-81532174D01*
X68574591Y-81524906D01*
X68576732Y-81517569D01*
X68578663Y-81510169D01*
X68580379Y-81502710D01*
X68581881Y-81495196D01*
X68583166Y-81487633D01*
X68584232Y-81480025D01*
X68585680Y-81446966D01*
X68586715Y-81413895D01*
X68587335Y-81380817D01*
X68587492Y-81355670D01*
X68775347Y-81355670D01*
X68775639Y-81388762D01*
X68776516Y-81421847D01*
X68777978Y-81454916D01*
X68780025Y-81487962D01*
X68780025Y-81522358D01*
X68780256Y-81525993D01*
X68780421Y-81529631D01*
X68780519Y-81533270D01*
X68780552Y-81536910D01*
X68780519Y-81540551D01*
X68780421Y-81544190D01*
X68780256Y-81547828D01*
X68780025Y-81551462D01*
X68803839Y-81601732D01*
X68809854Y-81612980D01*
X68816252Y-81623982D01*
X68823026Y-81634730D01*
X68830165Y-81645213D01*
X68837663Y-81655423D01*
X68845510Y-81665353D01*
X68853700Y-81674992D01*
X68862223Y-81684332D01*
X68871071Y-81693365D01*
X68880236Y-81702082D01*
X68889710Y-81710474D01*
X68899484Y-81718532D01*
X68909550Y-81726248D01*
X68919901Y-81733613D01*
X68930527Y-81740618D01*
X68941421Y-81747255D01*
X68953424Y-81755248D01*
X68965712Y-81762767D01*
X68978270Y-81769805D01*
X68991083Y-81776354D01*
X69004138Y-81782407D01*
X69017420Y-81787958D01*
X69030915Y-81793000D01*
X69044609Y-81797525D01*
X69060213Y-81801318D01*
X69075920Y-81804597D01*
X69091717Y-81807361D01*
X69107591Y-81809609D01*
X69123530Y-81811338D01*
X69139521Y-81812547D01*
X69155551Y-81813235D01*
X69171608Y-81813400D01*
X69190264Y-81813310D01*
X69208735Y-81812369D01*
X69227000Y-81810594D01*
X69245038Y-81808001D01*
X69262828Y-81804610D01*
X69280351Y-81800436D01*
X69297584Y-81795499D01*
X69314507Y-81789814D01*
X69331100Y-81783400D01*
X69347341Y-81776273D01*
X69363210Y-81768453D01*
X69378687Y-81759955D01*
X69393750Y-81750798D01*
X69408379Y-81740998D01*
X69422552Y-81730574D01*
X69436250Y-81719543D01*
X69449451Y-81707922D01*
X69462135Y-81695729D01*
X69474281Y-81682982D01*
X69485868Y-81669697D01*
X69496876Y-81655892D01*
X69507283Y-81641585D01*
X69517069Y-81626793D01*
X69526214Y-81611534D01*
X69534695Y-81595825D01*
X69542494Y-81579683D01*
X69549588Y-81563127D01*
X69555958Y-81546173D01*
X69561582Y-81528839D01*
X69566440Y-81511143D01*
X69570511Y-81493102D01*
X69573773Y-81474733D01*
X69385920Y-81474733D01*
X69379109Y-81492416D01*
X69371016Y-81509313D01*
X69361710Y-81525375D01*
X69351257Y-81540554D01*
X69339725Y-81554802D01*
X69327182Y-81568068D01*
X69313695Y-81580306D01*
X69299333Y-81591466D01*
X69284163Y-81601500D01*
X69268252Y-81610360D01*
X69251668Y-81617996D01*
X69234479Y-81624360D01*
X69216752Y-81629404D01*
X69198556Y-81633079D01*
X69179957Y-81635337D01*
X69161024Y-81636129D01*
X69154066Y-81636374D01*
X69147120Y-81636357D01*
X69140195Y-81636081D01*
X69133297Y-81635547D01*
X69126433Y-81634757D01*
X69119610Y-81633713D01*
X69112835Y-81632416D01*
X69106115Y-81630868D01*
X69099458Y-81629072D01*
X69092870Y-81627028D01*
X69086358Y-81624739D01*
X69079930Y-81622206D01*
X69073592Y-81619431D01*
X69067352Y-81616415D01*
X69061216Y-81613161D01*
X69055191Y-81609671D01*
X69049514Y-81607356D01*
X69043934Y-81604849D01*
X69038455Y-81602154D01*
X69033081Y-81599273D01*
X69027818Y-81596209D01*
X69022670Y-81592967D01*
X69017640Y-81589550D01*
X69012734Y-81585961D01*
X69007956Y-81582203D01*
X69003310Y-81578280D01*
X68998801Y-81574195D01*
X68994433Y-81569952D01*
X68990210Y-81565554D01*
X68986138Y-81561004D01*
X68982220Y-81556305D01*
X68978461Y-81551461D01*
X68974186Y-81545933D01*
X68970096Y-81540281D01*
X68966194Y-81534512D01*
X68962481Y-81528628D01*
X68958959Y-81522636D01*
X68955632Y-81516540D01*
X68952500Y-81510345D01*
X68949566Y-81504056D01*
X68946832Y-81497677D01*
X68944301Y-81491214D01*
X68941974Y-81484670D01*
X68939854Y-81478051D01*
X68937943Y-81471362D01*
X68936242Y-81464607D01*
X68934755Y-81457791D01*
X68933482Y-81450919D01*
X68932688Y-81439687D01*
X68932121Y-81428444D01*
X68931780Y-81417194D01*
X68931667Y-81405941D01*
X68931780Y-81394688D01*
X68932121Y-81383438D01*
X68932688Y-81372195D01*
X68933482Y-81360962D01*
X68933534Y-81346477D01*
X68933896Y-81330907D01*
X68934878Y-81314407D01*
X68935698Y-81305857D01*
X68936790Y-81297132D01*
X68938192Y-81288252D01*
X68939942Y-81279236D01*
X68942081Y-81270104D01*
X68944645Y-81260875D01*
X68947675Y-81251569D01*
X68951209Y-81242205D01*
X68955285Y-81232801D01*
X68959943Y-81223378D01*
X68957885Y-81193975D01*
X68956416Y-81164544D01*
X68955534Y-81135096D01*
X68955240Y-81105639D01*
X68955534Y-81076182D01*
X68956415Y-81046734D01*
X68957885Y-81017303D01*
X68959942Y-80987899D01*
X68961122Y-80981147D01*
X68962531Y-80974455D01*
X68964167Y-80967826D01*
X68966028Y-80961268D01*
X68968110Y-80954784D01*
X68970411Y-80948381D01*
X68972928Y-80942065D01*
X68975660Y-80935840D01*
X68978603Y-80929713D01*
X68981756Y-80923688D01*
X68985115Y-80917772D01*
X68988678Y-80911969D01*
X68992442Y-80906285D01*
X68996406Y-80900726D01*
X69000566Y-80895298D01*
X69004920Y-80890004D01*
X69008774Y-80885137D01*
X69012770Y-80880399D01*
X69016903Y-80875793D01*
X69021172Y-80871321D01*
X69025571Y-80866987D01*
X69030099Y-80862793D01*
X69034751Y-80858741D01*
X69039524Y-80854835D01*
X69044414Y-80851077D01*
X69049419Y-80847470D01*
X69054534Y-80844017D01*
X69059756Y-80840720D01*
X69065082Y-80837582D01*
X69070509Y-80834606D01*
X69076032Y-80831795D01*
X69081649Y-80829150D01*
X69087821Y-80826106D01*
X69094076Y-80823265D01*
X69100408Y-80820626D01*
X69106813Y-80818192D01*
X69113285Y-80815963D01*
X69119819Y-80813941D01*
X69126410Y-80812127D01*
X69133054Y-80810522D01*
X69139744Y-80809127D01*
X69146477Y-80807943D01*
X69153248Y-80806972D01*
X69160050Y-80806213D01*
X69166880Y-80805670D01*
X69173732Y-80805342D01*
X69180601Y-80805231D01*
X69187483Y-80805337D01*
X69197328Y-80805247D01*
X69207134Y-80805585D01*
X69216888Y-80806349D01*
X69226577Y-80807532D01*
X69236188Y-80809132D01*
X69245708Y-80811144D01*
X69255124Y-80813563D01*
X69264422Y-80816385D01*
X69273589Y-80819606D01*
X69282613Y-80823222D01*
X69291481Y-80827228D01*
X69300178Y-80831620D01*
X69308692Y-80836394D01*
X69317010Y-80841545D01*
X69325119Y-80847069D01*
X69333005Y-80852963D01*
X69340027Y-80859023D01*
X69346798Y-80865327D01*
X69353315Y-80871867D01*
X69359570Y-80878635D01*
X69365560Y-80885623D01*
X69371279Y-80892822D01*
X69376720Y-80900225D01*
X69381881Y-80907824D01*
X69386754Y-80915610D01*
X69391334Y-80923575D01*
X69395617Y-80931711D01*
X69399597Y-80940009D01*
X69403268Y-80948463D01*
X69406625Y-80957063D01*
X69409664Y-80965802D01*
X69412378Y-80974671D01*
X69600231Y-80974670D01*
X69597017Y-80956782D01*
X69593052Y-80939107D01*
X69588349Y-80921665D01*
X69582918Y-80904477D01*
X69576772Y-80887567D01*
X69569922Y-80870954D01*
X69562380Y-80854661D01*
X69554158Y-80838709D01*
X69545267Y-80823119D01*
X69535719Y-80807914D01*
X69525527Y-80793115D01*
X69514700Y-80778744D01*
X69503252Y-80764821D01*
X69491194Y-80751370D01*
X69478538Y-80738410D01*
X69465295Y-80725964D01*
X69450761Y-80713545D01*
X69435706Y-80701891D01*
X69420161Y-80691015D01*
X69404157Y-80680928D01*
X69387724Y-80671640D01*
X69370894Y-80663162D01*
X69353696Y-80655506D01*
X69336163Y-80648684D01*
X69318324Y-80642705D01*
X69300210Y-80637581D01*
X69281852Y-80633324D01*
X69263281Y-80629944D01*
X69244528Y-80627452D01*
X69225623Y-80625861D01*
X69206598Y-80625180D01*
X69187482Y-80625421D01*
X69172152Y-80625117D01*
X69156867Y-80625429D01*
X69141642Y-80626351D01*
X69126497Y-80627878D01*
X69111448Y-80630005D01*
X69096513Y-80632727D01*
X69081710Y-80636039D01*
X69067056Y-80639936D01*
X69052569Y-80644413D01*
X69038266Y-80649465D01*
X69024164Y-80655087D01*
X69010282Y-80661274D01*
X68996637Y-80668020D01*
X68983246Y-80675321D01*
X68970126Y-80683172D01*
X68957296Y-80691568D01*
X68946513Y-80698337D01*
X68935986Y-80705453D01*
X68925723Y-80712909D01*
X68915732Y-80720695D01*
X68906020Y-80728804D01*
X68896594Y-80737228D01*
X68887461Y-80745960D01*
X68878630Y-80754992D01*
X68870107Y-80764315D01*
X68861901Y-80773922D01*
X68854018Y-80783805D01*
X68846465Y-80793957D01*
X68839251Y-80804368D01*
X68832383Y-80815033D01*
X68825867Y-80825941D01*
X68819713Y-80837087D01*
X68815908Y-80843491D01*
X68812273Y-80849983D01*
X68808811Y-80856560D01*
X68805522Y-80863218D01*
X68802408Y-80869955D01*
X68799469Y-80876766D01*
X68796708Y-80883648D01*
X68794124Y-80890598D01*
X68791721Y-80897612D01*
X68789498Y-80904687D01*
X68787457Y-80911818D01*
X68785599Y-80919004D01*
X68783925Y-80926239D01*
X68782438Y-80933521D01*
X68781137Y-80940847D01*
X68780025Y-80948212D01*
X68779229Y-80961100D01*
X68778661Y-80973996D01*
X68778320Y-80986899D01*
X68778206Y-80999805D01*
X68778320Y-81012711D01*
X68778661Y-81025614D01*
X68779229Y-81038512D01*
X68780025Y-81051400D01*
X68780024Y-81223378D01*
X68777977Y-81256424D01*
X68776516Y-81289493D01*
X68775639Y-81322578D01*
X68775347Y-81355670D01*
X68587492Y-81355670D01*
X68587542Y-81347734D01*
X68587335Y-81314651D01*
X68586715Y-81281572D01*
X68585680Y-81248501D01*
X68584232Y-81215441D01*
X68583778Y-81122217D01*
X68583814Y-81081636D01*
X68584563Y-81045116D01*
X68585331Y-81028389D01*
X68586428Y-81012689D01*
X68587906Y-80998020D01*
X68589813Y-80984386D01*
X68592201Y-80971790D01*
X68595120Y-80960237D01*
X68598621Y-80949731D01*
X68602753Y-80940275D01*
X68601617Y-80932838D01*
X68600273Y-80925448D01*
X68598721Y-80918108D01*
X68596963Y-80910821D01*
X68595002Y-80903594D01*
X68592838Y-80896429D01*
X68590473Y-80889330D01*
X68587910Y-80882303D01*
X68585148Y-80875351D01*
X68582190Y-80868479D01*
X68579039Y-80861690D01*
X68575694Y-80854990D01*
X68572158Y-80848381D01*
X68568432Y-80841869D01*
X68564519Y-80835457D01*
X68560419Y-80829150D01*
X68554460Y-80818023D01*
X68548136Y-80807128D01*
X68541455Y-80796476D01*
X68534424Y-80786072D01*
X68527051Y-80775927D01*
X68519343Y-80766047D01*
X68511307Y-80756440D01*
X68502951Y-80747116D01*
X68494283Y-80738081D01*
X68485309Y-80729344D01*
X68476038Y-80720913D01*
X68466477Y-80712797D01*
X68456634Y-80705002D01*
X68446515Y-80697537D01*
X68436128Y-80690410D01*
X68425481Y-80683629D01*
X68398314Y-80668085D01*
X68370372Y-80654613D01*
X68341766Y-80643214D01*
X68312607Y-80633887D01*
X68283005Y-80626633D01*
X68253070Y-80621452D01*
X68222914Y-80618343D01*
X68192648Y-80617307D01*
X68162382Y-80618343D01*
X68132226Y-80621452D01*
X68102291Y-80626633D01*
X68072689Y-80633888D01*
X68043530Y-80643214D01*
X68014924Y-80654614D01*
X67986982Y-80668086D01*
X67959815Y-80683630D01*
X67949248Y-80690656D01*
X67938915Y-80697986D01*
X67928823Y-80705616D01*
X67918978Y-80713539D01*
X67909385Y-80721748D01*
X67900050Y-80730237D01*
X67890980Y-80739000D01*
X67882181Y-80748030D01*
X67873657Y-80757322D01*
X67865416Y-80766869D01*
X67857464Y-80776664D01*
X67849805Y-80786702D01*
X67842447Y-80796976D01*
X67835395Y-80807479D01*
X67828654Y-80818206D01*
X67822232Y-80829150D01*
X67815542Y-80842370D01*
X67809336Y-80855808D01*
X67803619Y-80869452D01*
X67798397Y-80883287D01*
X67793673Y-80897300D01*
X67789453Y-80911478D01*
X67785742Y-80925807D01*
X67782544Y-80940275D01*
X67782544Y-81215443D01*
X67780644Y-81248492D01*
X67779286Y-81281561D01*
X67778471Y-81314644D01*
X67778200Y-81347733D01*
X67533836Y-81347733D01*
X67533836Y-80622774D01*
X67364503Y-80622774D01*
X67033774Y-81390066D01*
X66695107Y-80628066D01*
X66525774Y-80628066D01*
X66525774Y-81805462D01*
X66130045Y-81805462D01*
X66145417Y-81800633D01*
X66162439Y-81794419D01*
X66179109Y-81787459D01*
X66195405Y-81779773D01*
X66211306Y-81771377D01*
X66226788Y-81762292D01*
X66241830Y-81752534D01*
X66256409Y-81742121D01*
X66270504Y-81731073D01*
X66284092Y-81719407D01*
X66297151Y-81707142D01*
X66309659Y-81694295D01*
X66321593Y-81680885D01*
X66332932Y-81666930D01*
X66343653Y-81652449D01*
X66353734Y-81637459D01*
X66363153Y-81621978D01*
X66371887Y-81606026D01*
X66379915Y-81589620D01*
X66387214Y-81572778D01*
X66393763Y-81555518D01*
X66399538Y-81537860D01*
X66404518Y-81519820D01*
X66408680Y-81501417D01*
X66412003Y-81482670D01*
X66224149Y-81482670D01*
X66217338Y-81500353D01*
X66209246Y-81517251D01*
X66199939Y-81533313D01*
X66189486Y-81548492D01*
X66177954Y-81562739D01*
X66165411Y-81576006D01*
X66151925Y-81588244D01*
X66137562Y-81599404D01*
X66122392Y-81609438D01*
X66106481Y-81618297D01*
X66089897Y-81625933D01*
X66072708Y-81632298D01*
X66054981Y-81637342D01*
X66036785Y-81641017D01*
X66018186Y-81643275D01*
X65999253Y-81644066D01*
X65992295Y-81644311D01*
X65985349Y-81644294D01*
X65978424Y-81644018D01*
X65971526Y-81643484D01*
X65964662Y-81642694D01*
X65957839Y-81641650D01*
X65951064Y-81640353D01*
X65944344Y-81638806D01*
X65937687Y-81637009D01*
X65931099Y-81634965D01*
X65924588Y-81632676D01*
X65918159Y-81630143D01*
X65911821Y-81627368D01*
X65905581Y-81624353D01*
X65899445Y-81621099D01*
X65893420Y-81617608D01*
X65887743Y-81615294D01*
X65882163Y-81612787D01*
X65876684Y-81610091D01*
X65871311Y-81607210D01*
X65866047Y-81604146D01*
X65860899Y-81600904D01*
X65855869Y-81597487D01*
X65850963Y-81593898D01*
X65846185Y-81590140D01*
X65841539Y-81586217D01*
X65837030Y-81582133D01*
X65832662Y-81577889D01*
X65828439Y-81573491D01*
X65824367Y-81568941D01*
X65820449Y-81564242D01*
X65816691Y-81559399D01*
X65812415Y-81553870D01*
X65808326Y-81548219D01*
X65804423Y-81542449D01*
X65800710Y-81536566D01*
X65797188Y-81530574D01*
X65793861Y-81524478D01*
X65790729Y-81518283D01*
X65787795Y-81511994D01*
X65785062Y-81505615D01*
X65782530Y-81499151D01*
X65780204Y-81492607D01*
X65778083Y-81485989D01*
X65776172Y-81479299D01*
X65774471Y-81472544D01*
X65772984Y-81465729D01*
X65771711Y-81458857D01*
X65770917Y-81447624D01*
X65770350Y-81436381D01*
X65770010Y-81425132D01*
X65769896Y-81413878D01*
X65770010Y-81402625D01*
X65770350Y-81391375D01*
X65770917Y-81380132D01*
X65771711Y-81368900D01*
X65771712Y-81223378D01*
X65769655Y-81193975D01*
X65768186Y-81164544D01*
X65767304Y-81135096D01*
X65767010Y-81105639D01*
X65767304Y-81076182D01*
X65768185Y-81046734D01*
X65769655Y-81017303D01*
X65771711Y-80987899D01*
X65772892Y-80981147D01*
X65774301Y-80974455D01*
X65775937Y-80967826D01*
X65777798Y-80961268D01*
X65779880Y-80954784D01*
X65782181Y-80948381D01*
X65784699Y-80942065D01*
X65787430Y-80935840D01*
X65790374Y-80929713D01*
X65793526Y-80923688D01*
X65796885Y-80917772D01*
X65800448Y-80911969D01*
X65804213Y-80906285D01*
X65808176Y-80900726D01*
X65812337Y-80895298D01*
X65816691Y-80890004D01*
X65820545Y-80885137D01*
X65824540Y-80880399D01*
X65828674Y-80875793D01*
X65832942Y-80871321D01*
X65837342Y-80866987D01*
X65841869Y-80862793D01*
X65846521Y-80858741D01*
X65851294Y-80854835D01*
X65856184Y-80851077D01*
X65861189Y-80847470D01*
X65866304Y-80844017D01*
X65871526Y-80840720D01*
X65876852Y-80837582D01*
X65882278Y-80834606D01*
X65887802Y-80831795D01*
X65893418Y-80829150D01*
X65899591Y-80826106D01*
X65905846Y-80823265D01*
X65912178Y-80820626D01*
X65918583Y-80818192D01*
X65925055Y-80815963D01*
X65931589Y-80813941D01*
X65938180Y-80812127D01*
X65944824Y-80810522D01*
X65951515Y-80809127D01*
X65958248Y-80807943D01*
X65965018Y-80806972D01*
X65971821Y-80806213D01*
X65978651Y-80805670D01*
X65985503Y-80805342D01*
X65992372Y-80805231D01*
X65999253Y-80805337D01*
X66009098Y-80805247D01*
X66018904Y-80805585D01*
X66028658Y-80806349D01*
X66038347Y-80807532D01*
X66047958Y-80809132D01*
X66057478Y-80811144D01*
X66066893Y-80813563D01*
X66076192Y-80816385D01*
X66085359Y-80819606D01*
X66094383Y-80823222D01*
X66103250Y-80827228D01*
X66111948Y-80831620D01*
X66120462Y-80836394D01*
X66128780Y-80841545D01*
X66136889Y-80847069D01*
X66144775Y-80852963D01*
X66151797Y-80859023D01*
X66158569Y-80865327D01*
X66165085Y-80871867D01*
X66171341Y-80878635D01*
X66177330Y-80885623D01*
X66183049Y-80892822D01*
X66188491Y-80900225D01*
X66193651Y-80907824D01*
X66198524Y-80915610D01*
X66203105Y-80923575D01*
X66207387Y-80931711D01*
X66211367Y-80940009D01*
X66215038Y-80948463D01*
X66218396Y-80957063D01*
X66221434Y-80965802D01*
X66224149Y-80974671D01*
X66412002Y-80974670D01*
X66408787Y-80956782D01*
X66404822Y-80939107D01*
X66400119Y-80921665D01*
X66394688Y-80904477D01*
X66388542Y-80887567D01*
X66381692Y-80870954D01*
X66374150Y-80854661D01*
X66365928Y-80838709D01*
X66357037Y-80823119D01*
X66347489Y-80807914D01*
X66337297Y-80793115D01*
X66326470Y-80778744D01*
X66315022Y-80764821D01*
X66302964Y-80751370D01*
X66290308Y-80738410D01*
X66277064Y-80725964D01*
X66262531Y-80713545D01*
X66247476Y-80701891D01*
X66231931Y-80691015D01*
X66215927Y-80680928D01*
X66199495Y-80671640D01*
X66182664Y-80663162D01*
X66165467Y-80655506D01*
X66147933Y-80648684D01*
X66130094Y-80642705D01*
X66111980Y-80637581D01*
X66093623Y-80633324D01*
X66075052Y-80629944D01*
X66056298Y-80627452D01*
X66037394Y-80625861D01*
X66018368Y-80625180D01*
X65999252Y-80625421D01*
X65983923Y-80625117D01*
X65968637Y-80625429D01*
X65953413Y-80626351D01*
X65938267Y-80627878D01*
X65923219Y-80630005D01*
X65908284Y-80632727D01*
X65893481Y-80636039D01*
X65878827Y-80639936D01*
X65864339Y-80644413D01*
X65850036Y-80649465D01*
X65835934Y-80655087D01*
X65822052Y-80661274D01*
X65808407Y-80668020D01*
X65795015Y-80675321D01*
X65781896Y-80683172D01*
X65769066Y-80691568D01*
X65758283Y-80698337D01*
X65747756Y-80705453D01*
X65737493Y-80712909D01*
X65727502Y-80720695D01*
X65717790Y-80728804D01*
X65708364Y-80737228D01*
X65699232Y-80745960D01*
X65690400Y-80754992D01*
X65681878Y-80764315D01*
X65673671Y-80773922D01*
X65665788Y-80783805D01*
X65658236Y-80793957D01*
X65651022Y-80804368D01*
X65644153Y-80815033D01*
X65637638Y-80825941D01*
X65631483Y-80837087D01*
X65627678Y-80843491D01*
X65624044Y-80849983D01*
X65620582Y-80856560D01*
X65617293Y-80863218D01*
X65614178Y-80869955D01*
X65611240Y-80876766D01*
X65608478Y-80883648D01*
X65605895Y-80890598D01*
X65603491Y-80897612D01*
X65601268Y-80904687D01*
X65599227Y-80911818D01*
X65597369Y-80919004D01*
X65595696Y-80926239D01*
X65594208Y-80933521D01*
X65592908Y-80940847D01*
X65591795Y-80948212D01*
X65591000Y-80961100D01*
X65590431Y-80973996D01*
X65590091Y-80986899D01*
X65589977Y-80999805D01*
X65590091Y-81012711D01*
X65590431Y-81025614D01*
X65591000Y-81038512D01*
X65591795Y-81051400D01*
X65591794Y-81223378D01*
X65589748Y-81256424D01*
X65588286Y-81289493D01*
X65587409Y-81322578D01*
X65587116Y-81355670D01*
X65403139Y-81355670D01*
X65403699Y-81347967D01*
X65405781Y-81312884D01*
X65407398Y-81277776D01*
X65408549Y-81242648D01*
X65409232Y-81207504D01*
X65409232Y-80942920D01*
X65408097Y-80935484D01*
X65406752Y-80928094D01*
X65405200Y-80920753D01*
X65403443Y-80913467D01*
X65401481Y-80906239D01*
X65399318Y-80899074D01*
X65396953Y-80891976D01*
X65394389Y-80884948D01*
X65391627Y-80877996D01*
X65388670Y-80871124D01*
X65385518Y-80864335D01*
X65382173Y-80857634D01*
X65378637Y-80851025D01*
X65374912Y-80844513D01*
X65370998Y-80838101D01*
X65366899Y-80831794D01*
X65360940Y-80820666D01*
X65354616Y-80809772D01*
X65347935Y-80799120D01*
X65340904Y-80788716D01*
X65333530Y-80778571D01*
X65325822Y-80768691D01*
X65317786Y-80759085D01*
X65309431Y-80749760D01*
X65300762Y-80740726D01*
X65291789Y-80731989D01*
X65282518Y-80723558D01*
X65272957Y-80715441D01*
X65263113Y-80707647D01*
X65252994Y-80700182D01*
X65242607Y-80693055D01*
X65231960Y-80686275D01*
X65204794Y-80670730D01*
X65176852Y-80657259D01*
X65148246Y-80645859D01*
X65119086Y-80636533D01*
X65089484Y-80629279D01*
X65059550Y-80624097D01*
X65029394Y-80620988D01*
X64999127Y-80619952D01*
X64968861Y-80620988D01*
X64938705Y-80624097D01*
X64908771Y-80629279D01*
X64879169Y-80636533D01*
X64850009Y-80645859D01*
X64821403Y-80657259D01*
X64793461Y-80670730D01*
X64766295Y-80686275D01*
X64755727Y-80693300D01*
X64745395Y-80700631D01*
X64735303Y-80708261D01*
X64725457Y-80716183D01*
X64715864Y-80724392D01*
X64706530Y-80732881D01*
X64697460Y-80741644D01*
X64688660Y-80750675D01*
X64680137Y-80759966D01*
X64671896Y-80769513D01*
X64663943Y-80779309D01*
X64656285Y-80789346D01*
X64648926Y-80799620D01*
X64641874Y-80810124D01*
X64635134Y-80820851D01*
X64628712Y-80831795D01*
X64622021Y-80845015D01*
X64615815Y-80858453D01*
X64610099Y-80872097D01*
X64604876Y-80885932D01*
X64600153Y-80899945D01*
X64595933Y-80914123D01*
X64592222Y-80928453D01*
X64589024Y-80942920D01*
X64589024Y-81218087D01*
X64587123Y-81251137D01*
X64585765Y-81284206D01*
X64584950Y-81317289D01*
X64584678Y-81350378D01*
X64208329Y-81350378D01*
X64202733Y-81337151D01*
X64197018Y-81324875D01*
X64190941Y-81312783D01*
X64184509Y-81300884D01*
X64177725Y-81289185D01*
X64170595Y-81277694D01*
X64163123Y-81266419D01*
X64155313Y-81255367D01*
X64147171Y-81244547D01*
X64142812Y-81239092D01*
X64138215Y-81233873D01*
X64133392Y-81228896D01*
X64128350Y-81224168D01*
X64123102Y-81219694D01*
X64117657Y-81215480D01*
X64112024Y-81211532D01*
X64106214Y-81207857D01*
X64100237Y-81204461D01*
X64094104Y-81201348D01*
X64087823Y-81198527D01*
X64081405Y-81196001D01*
X64074861Y-81193778D01*
X64068199Y-81191864D01*
X64061431Y-81190264D01*
X64054566Y-81188985D01*
X64059354Y-81186362D01*
X64064083Y-81183643D01*
X64068752Y-81180828D01*
X64073359Y-81177920D01*
X64077904Y-81174918D01*
X64082384Y-81171825D01*
X64086799Y-81168641D01*
X64091147Y-81165367D01*
X64095427Y-81162004D01*
X64099637Y-81158553D01*
X64103776Y-81155016D01*
X64107843Y-81151393D01*
X64111836Y-81147686D01*
X64115754Y-81143895D01*
X64119595Y-81140022D01*
X64123359Y-81136068D01*
X64127458Y-81131495D01*
X64131458Y-81126840D01*
X64135355Y-81122106D01*
X64139150Y-81117293D01*
X64142841Y-81112403D01*
X64146427Y-81107439D01*
X64149907Y-81102401D01*
X64153280Y-81097291D01*
X64156545Y-81092112D01*
X64159701Y-81086865D01*
X64162746Y-81081551D01*
X64165679Y-81076173D01*
X64168500Y-81070732D01*
X64171207Y-81065229D01*
X64173799Y-81059667D01*
X64176275Y-81054047D01*
X64250359Y-80871484D01*
X64268879Y-80829152D01*
X64269829Y-80827368D01*
X64270833Y-80825617D01*
X64271891Y-80823902D01*
X64273001Y-80822223D01*
X64274162Y-80820582D01*
X64275374Y-80818980D01*
X64276636Y-80817418D01*
X64277945Y-80815896D01*
X64279303Y-80814417D01*
X64280706Y-80812981D01*
X64282156Y-80811590D01*
X64283649Y-80810244D01*
X64285186Y-80808945D01*
X64286765Y-80807693D01*
X64288386Y-80806491D01*
X64290047Y-80805338D01*
X64291619Y-80804047D01*
X64293233Y-80802815D01*
X64294885Y-80801641D01*
X64296575Y-80800528D01*
X64298300Y-80799475D01*
X64300059Y-80798483D01*
X64301851Y-80797554D01*
X64303673Y-80796687D01*
X64305524Y-80795884D01*
X64307402Y-80795145D01*
X64309306Y-80794472D01*
X64311234Y-80793865D01*
X64313184Y-80793324D01*
X64315155Y-80792851D01*
X64317144Y-80792446D01*
X64319151Y-80792110D01*
X64403817Y-80792110D01*
X64403817Y-80622776D01*
X64332379Y-80622776D01*
X64319973Y-80622842D01*
X64307589Y-80623364D01*
X64295242Y-80624342D01*
X64282944Y-80625774D01*
X64270706Y-80627658D01*
X64258542Y-80629993D01*
X64246464Y-80632776D01*
X64234485Y-80636006D01*
X64229843Y-80637992D01*
X64225259Y-80640095D01*
X64220735Y-80642313D01*
X64216273Y-80644645D01*
X64211876Y-80647089D01*
X64207545Y-80649644D01*
X64203282Y-80652308D01*
X64199090Y-80655081D01*
X64194971Y-80657960D01*
X64190926Y-80660945D01*
X64186957Y-80664033D01*
X64183068Y-80667224D01*
X64179259Y-80670516D01*
X64175533Y-80673908D01*
X64171893Y-80677398D01*
X64168339Y-80680985D01*
X64161495Y-80688937D01*
X64154898Y-80697086D01*
X64148551Y-80705425D01*
X64142459Y-80713949D01*
X64136625Y-80722652D01*
X64131053Y-80731528D01*
X64125748Y-80740571D01*
X64120713Y-80749775D01*
X64115752Y-80759935D01*
X64110791Y-80770528D01*
X64100869Y-80792770D01*
X64090947Y-80816004D01*
X64081025Y-80839733D01*
X64028109Y-80972025D01*
X64024813Y-80979145D01*
X64021418Y-80986217D01*
X64017925Y-80993240D01*
X64014334Y-81000213D01*
X64010646Y-81007136D01*
X64006861Y-81014006D01*
X64002981Y-81020824D01*
X63999004Y-81027587D01*
X63997403Y-81031073D01*
X63995725Y-81034519D01*
X63993971Y-81037924D01*
X63992141Y-81041286D01*
X63990237Y-81044604D01*
X63988259Y-81047877D01*
X63986208Y-81051103D01*
X63984085Y-81054282D01*
X63981891Y-81057412D01*
X63979627Y-81060493D01*
X63977293Y-81063522D01*
X63974890Y-81066499D01*
X63972419Y-81069422D01*
X63969882Y-81072290D01*
X63967278Y-81075103D01*
X63964608Y-81077858D01*
X63962241Y-81080537D01*
X63959808Y-81083151D01*
X63957311Y-81085698D01*
X63954751Y-81088177D01*
X63952129Y-81090587D01*
X63949447Y-81092928D01*
X63946706Y-81095197D01*
X63943907Y-81097395D01*
X63941053Y-81099520D01*
X63938145Y-81101570D01*
X63935183Y-81103545D01*
X63932170Y-81105444D01*
X63929106Y-81107265D01*
X63925994Y-81109008D01*
X63922834Y-81110671D01*
X63919628Y-81112253D01*
X63915923Y-81114056D01*
X63912166Y-81115731D01*
X63908363Y-81117279D01*
X63904516Y-81118699D01*
X63900629Y-81119990D01*
X63896704Y-81121151D01*
X63892746Y-81122182D01*
X63888756Y-81123081D01*
X63884739Y-81123850D01*
X63880698Y-81124485D01*
X63876637Y-81124988D01*
X63872557Y-81125357D01*
X63868463Y-81125592D01*
X63864358Y-81125692D01*
X63860246Y-81125655D01*
X63856129Y-81125483D01*
X63739712Y-81125483D01*
X63739712Y-80628066D01*
X63559795Y-80628066D01*
X63559795Y-81808108D01*
X57610218Y-81808108D01*
X57609591Y-81805462D01*
X58657066Y-81805462D01*
X58818462Y-81805462D01*
X59331754Y-80950858D01*
X59331754Y-81805462D01*
X59509025Y-81805462D01*
X62583483Y-81805462D01*
X62779275Y-81792232D01*
X62779275Y-81331857D01*
X63043858Y-81331857D01*
X63062770Y-81331829D01*
X63081547Y-81330755D01*
X63100151Y-81328651D01*
X63118541Y-81325535D01*
X63136679Y-81321425D01*
X63154527Y-81316337D01*
X63172045Y-81310287D01*
X63189194Y-81303295D01*
X63205935Y-81295376D01*
X63222230Y-81286547D01*
X63238040Y-81276826D01*
X63253325Y-81266231D01*
X63268046Y-81254777D01*
X63282166Y-81242482D01*
X63295644Y-81229364D01*
X63308442Y-81215439D01*
X63319190Y-81202959D01*
X63329320Y-81190048D01*
X63338821Y-81176731D01*
X63347686Y-81163032D01*
X63355904Y-81148972D01*
X63363467Y-81134577D01*
X63370365Y-81119870D01*
X63376590Y-81104873D01*
X63382133Y-81089611D01*
X63386983Y-81074107D01*
X63391133Y-81058384D01*
X63394572Y-81042466D01*
X63397292Y-81026377D01*
X63399284Y-81010140D01*
X63400538Y-80993778D01*
X63401046Y-80977315D01*
X63401043Y-80966347D01*
X63400725Y-80955399D01*
X63400093Y-80944478D01*
X63399150Y-80933592D01*
X63397895Y-80922745D01*
X63396332Y-80911946D01*
X63394460Y-80901200D01*
X63392283Y-80890514D01*
X63389800Y-80879895D01*
X63387014Y-80869349D01*
X63383925Y-80858883D01*
X63380537Y-80848503D01*
X63376849Y-80838217D01*
X63372863Y-80828030D01*
X63368581Y-80817950D01*
X63364004Y-80807982D01*
X63360262Y-80799693D01*
X63356245Y-80791555D01*
X63351960Y-80783574D01*
X63347411Y-80775755D01*
X63342602Y-80768104D01*
X63337540Y-80760629D01*
X63332229Y-80753335D01*
X63326673Y-80746228D01*
X63320879Y-80739315D01*
X63314851Y-80732601D01*
X63308593Y-80726093D01*
X63302112Y-80719798D01*
X63295412Y-80713720D01*
X63288497Y-80707867D01*
X63281374Y-80702244D01*
X63274046Y-80696858D01*
X63266830Y-80691052D01*
X63259477Y-80685438D01*
X63251992Y-80680016D01*
X63244379Y-80674790D01*
X63236640Y-80669762D01*
X63228781Y-80664932D01*
X63220804Y-80660305D01*
X63212715Y-80655881D01*
X63204516Y-80651662D01*
X63196212Y-80647651D01*
X63187807Y-80643851D01*
X63179305Y-80640262D01*
X63170709Y-80636887D01*
X63162024Y-80633728D01*
X63153253Y-80630787D01*
X63144400Y-80628066D01*
X62583483Y-80628066D01*
X62583483Y-81805462D01*
X59509025Y-81805462D01*
X59509025Y-81800170D01*
X59757733Y-81800170D01*
X59937650Y-81800170D01*
X59937650Y-81271004D01*
X60403317Y-81271004D01*
X60403317Y-81800170D01*
X60583233Y-81800170D01*
X60583233Y-80792109D01*
X60707587Y-80792109D01*
X61030378Y-80797400D01*
X61030378Y-81800171D01*
X61210295Y-81800171D01*
X61210295Y-81800170D01*
X61657441Y-81800170D01*
X62408858Y-81800170D01*
X62408858Y-81630837D01*
X61837358Y-81630837D01*
X61837358Y-81284232D01*
X62318900Y-81284232D01*
X62318900Y-81125483D01*
X61837358Y-81125483D01*
X61837358Y-80797400D01*
X62408858Y-80797400D01*
X62408858Y-80628066D01*
X61657441Y-80628066D01*
X61657441Y-81800170D01*
X61210295Y-81800170D01*
X61210295Y-80792109D01*
X61525149Y-80792109D01*
X61525149Y-80622775D01*
X60707587Y-80622775D01*
X60707587Y-80792109D01*
X60583233Y-80792109D01*
X60583233Y-80622774D01*
X60403317Y-80622774D01*
X60403317Y-81125483D01*
X59937650Y-81125483D01*
X59937650Y-80628066D01*
X59757733Y-80628066D01*
X59757733Y-81800170D01*
X59509025Y-81800170D01*
X59509025Y-80628066D01*
X59344983Y-80628066D01*
X58836983Y-81480025D01*
X58836983Y-80628066D01*
X58657066Y-80628066D01*
X58657066Y-81805462D01*
X57609591Y-81805462D01*
X57585602Y-81704197D01*
X57509010Y-81229862D01*
X57466971Y-80750675D01*
X57459873Y-80268577D01*
X57470716Y-80083024D01*
X58064400Y-80083024D01*
X65054691Y-80083024D01*
X65229316Y-76000504D01*
X65229316Y-76000503D01*
X65224865Y-75959768D01*
X65218628Y-75919613D01*
X65210644Y-75880079D01*
X65200955Y-75841207D01*
X65189602Y-75803036D01*
X65176626Y-75765608D01*
X65162068Y-75728962D01*
X65145969Y-75693140D01*
X65128369Y-75658181D01*
X65109310Y-75624126D01*
X65088833Y-75591016D01*
X65066979Y-75558892D01*
X65043789Y-75527792D01*
X65019303Y-75497759D01*
X64993563Y-75468832D01*
X64966611Y-75441053D01*
X64938485Y-75414460D01*
X64909229Y-75389096D01*
X64878882Y-75365000D01*
X64847486Y-75342213D01*
X64815082Y-75320775D01*
X64781711Y-75300727D01*
X64747413Y-75282109D01*
X64712230Y-75264962D01*
X64676203Y-75249326D01*
X64639372Y-75235242D01*
X64601779Y-75222749D01*
X64563465Y-75211890D01*
X64524471Y-75202704D01*
X64484837Y-75195231D01*
X64444605Y-75189512D01*
X64403815Y-75185587D01*
X64399662Y-75184573D01*
X64395588Y-75183389D01*
X64391596Y-75182040D01*
X64387690Y-75180530D01*
X64383872Y-75178863D01*
X64380147Y-75177044D01*
X64376518Y-75175077D01*
X64372989Y-75172966D01*
X64369562Y-75170716D01*
X64366241Y-75168331D01*
X64359933Y-75163171D01*
X64354092Y-75157523D01*
X64348745Y-75151420D01*
X64343920Y-75144896D01*
X64339645Y-75137986D01*
X64335947Y-75130724D01*
X64334323Y-75126971D01*
X64332854Y-75123144D01*
X64331544Y-75119246D01*
X64330394Y-75115281D01*
X64329410Y-75111255D01*
X64328595Y-75107170D01*
X64327951Y-75103031D01*
X64327483Y-75098844D01*
X64327194Y-75094611D01*
X64327087Y-75090338D01*
X64327254Y-75086033D01*
X64327595Y-75081769D01*
X64328109Y-75077549D01*
X64328793Y-75073376D01*
X64329642Y-75069256D01*
X64330655Y-75065193D01*
X64331827Y-75061189D01*
X64333155Y-75057249D01*
X64334638Y-75053378D01*
X64336270Y-75049579D01*
X64338050Y-75045857D01*
X64339973Y-75042214D01*
X64342037Y-75038656D01*
X64344240Y-75035187D01*
X64346576Y-75031810D01*
X64349044Y-75028529D01*
X64351640Y-75025349D01*
X64354361Y-75022273D01*
X64357204Y-75019306D01*
X64360166Y-75016451D01*
X64363243Y-75013713D01*
X64366433Y-75011096D01*
X64369731Y-75008603D01*
X64373136Y-75006239D01*
X64376644Y-75004007D01*
X64380252Y-75001913D01*
X64383956Y-74999959D01*
X64387754Y-74998150D01*
X64391642Y-74996489D01*
X64395617Y-74994982D01*
X64399676Y-74993631D01*
X64403816Y-74992441D01*
X64443912Y-74988122D01*
X64483452Y-74982065D01*
X64522396Y-74974307D01*
X64560705Y-74964889D01*
X64598340Y-74953850D01*
X64635262Y-74941228D01*
X64671431Y-74927062D01*
X64706808Y-74911392D01*
X64741353Y-74894257D01*
X64775028Y-74875695D01*
X64807793Y-74855746D01*
X64839609Y-74834448D01*
X64870436Y-74811841D01*
X64900236Y-74787964D01*
X64928969Y-74762856D01*
X64956595Y-74736556D01*
X64983075Y-74709102D01*
X65008371Y-74680534D01*
X65032442Y-74650891D01*
X65055250Y-74620212D01*
X65076755Y-74588537D01*
X65096918Y-74555903D01*
X65115699Y-74522350D01*
X65133060Y-74487917D01*
X65148961Y-74452643D01*
X65163363Y-74416568D01*
X65176226Y-74379730D01*
X65187511Y-74342168D01*
X65197179Y-74303921D01*
X65205191Y-74265028D01*
X65211507Y-74225529D01*
X65216087Y-74185462D01*
X65216088Y-74185462D01*
X65217110Y-74181173D01*
X65218307Y-74176965D01*
X65219676Y-74172841D01*
X65221212Y-74168805D01*
X65222911Y-74164860D01*
X65224767Y-74161010D01*
X65226778Y-74157259D01*
X65228938Y-74153610D01*
X65231242Y-74150067D01*
X65233687Y-74146633D01*
X65238980Y-74140109D01*
X65244781Y-74134065D01*
X65251055Y-74128532D01*
X65257766Y-74123537D01*
X65264877Y-74119111D01*
X65272355Y-74115280D01*
X65276220Y-74113598D01*
X65280163Y-74112076D01*
X65284179Y-74110717D01*
X65288265Y-74109525D01*
X65292415Y-74108504D01*
X65296626Y-74107658D01*
X65300893Y-74106989D01*
X65305211Y-74106502D01*
X65309576Y-74106200D01*
X65313983Y-74106087D01*
X65318331Y-74106222D01*
X65322634Y-74106545D01*
X65326890Y-74107053D01*
X65331092Y-74107742D01*
X65335237Y-74108607D01*
X65339320Y-74109647D01*
X65343337Y-74110856D01*
X65347284Y-74112232D01*
X65351155Y-74113770D01*
X65354946Y-74115467D01*
X65358654Y-74117318D01*
X65362273Y-74119322D01*
X65365799Y-74121472D01*
X65369228Y-74123767D01*
X65372555Y-74126202D01*
X65375776Y-74128774D01*
X65378886Y-74131478D01*
X65381881Y-74134311D01*
X65384756Y-74137270D01*
X65387508Y-74140351D01*
X65390131Y-74143549D01*
X65392621Y-74146862D01*
X65394973Y-74150285D01*
X65397184Y-74153816D01*
X65399249Y-74157449D01*
X65401163Y-74161182D01*
X65402922Y-74165011D01*
X65404521Y-74168932D01*
X65405956Y-74172941D01*
X65407223Y-74177035D01*
X65408317Y-74181210D01*
X65409233Y-74185462D01*
X65411880Y-74217212D01*
X65416390Y-74256659D01*
X65422580Y-74295563D01*
X65430412Y-74333888D01*
X65439849Y-74371596D01*
X65450854Y-74408649D01*
X65463390Y-74445009D01*
X65477421Y-74480640D01*
X65492909Y-74515503D01*
X65509817Y-74549561D01*
X65528108Y-74582776D01*
X65547746Y-74615111D01*
X65568692Y-74646527D01*
X65590912Y-74676989D01*
X65614366Y-74706457D01*
X65639019Y-74734894D01*
X65664833Y-74762263D01*
X65691772Y-74788526D01*
X65719798Y-74813646D01*
X65748874Y-74837584D01*
X65778964Y-74860304D01*
X65810030Y-74881767D01*
X65842036Y-74901936D01*
X65874944Y-74920774D01*
X65908718Y-74938243D01*
X65943320Y-74954305D01*
X65978714Y-74968923D01*
X66014863Y-74982058D01*
X66051729Y-74993674D01*
X66089275Y-75003733D01*
X66127465Y-75012198D01*
X66166262Y-75019030D01*
X66205628Y-75024192D01*
X66210663Y-75024323D01*
X66215632Y-75024704D01*
X66220528Y-75025330D01*
X66225346Y-75026194D01*
X66230079Y-75027289D01*
X66234722Y-75028611D01*
X66239267Y-75030152D01*
X66243710Y-75031907D01*
X66248043Y-75033868D01*
X66252261Y-75036032D01*
X66256357Y-75038390D01*
X66260326Y-75040937D01*
X66264161Y-75043667D01*
X66267856Y-75046573D01*
X66271405Y-75049650D01*
X66274802Y-75052891D01*
X66278041Y-75056291D01*
X66281115Y-75059842D01*
X66284018Y-75063540D01*
X66286745Y-75067377D01*
X66289289Y-75071348D01*
X66291644Y-75075446D01*
X66293804Y-75079665D01*
X66295763Y-75084000D01*
X66297514Y-75088444D01*
X66299051Y-75092991D01*
X66300369Y-75097634D01*
X66301461Y-75102368D01*
X66302321Y-75107187D01*
X66302943Y-75112083D01*
X66303321Y-75117052D01*
X66303448Y-75122087D01*
X66303321Y-75127122D01*
X66302943Y-75132091D01*
X66302321Y-75136988D01*
X66301461Y-75141807D01*
X66300369Y-75146541D01*
X66299051Y-75151184D01*
X66297514Y-75155731D01*
X66295763Y-75160175D01*
X66293804Y-75164509D01*
X66291644Y-75168729D01*
X66289289Y-75172827D01*
X66286745Y-75176798D01*
X66284018Y-75180635D01*
X66281115Y-75184333D01*
X66278041Y-75187884D01*
X66274802Y-75191283D01*
X66271405Y-75194525D01*
X66267856Y-75197602D01*
X66264161Y-75200508D01*
X66260326Y-75203238D01*
X66256357Y-75205785D01*
X66252261Y-75208143D01*
X66248043Y-75210306D01*
X66243710Y-75212268D01*
X66239267Y-75214023D01*
X66234722Y-75215564D01*
X66230079Y-75216886D01*
X66225346Y-75217981D01*
X66220528Y-75218845D01*
X66215632Y-75219471D01*
X66210663Y-75219852D01*
X66205628Y-75219983D01*
X66073337Y-75219983D01*
X66023066Y-75233212D01*
X66023066Y-75233213D01*
X66000669Y-75241441D01*
X65978838Y-75250586D01*
X65957590Y-75260619D01*
X65936943Y-75271512D01*
X65916913Y-75283237D01*
X65897517Y-75295767D01*
X65878771Y-75309073D01*
X65860694Y-75323128D01*
X65826610Y-75353373D01*
X65795400Y-75386279D01*
X65767201Y-75421622D01*
X65742146Y-75459181D01*
X65720371Y-75498732D01*
X65702013Y-75540052D01*
X65687205Y-75582919D01*
X65676084Y-75627109D01*
X65671948Y-75649631D01*
X65668784Y-75672401D01*
X65666610Y-75695389D01*
X65665442Y-75718570D01*
X65665297Y-75741914D01*
X65666192Y-75765394D01*
X65668144Y-75788982D01*
X65671169Y-75812650D01*
X65671169Y-80088317D01*
X70081774Y-80088317D01*
X70063349Y-79849908D01*
X70035729Y-79613874D01*
X69999075Y-79380419D01*
X69953549Y-79149745D01*
X69899313Y-78922054D01*
X69836527Y-78697548D01*
X69765353Y-78476428D01*
X69685952Y-78258899D01*
X69598486Y-78045160D01*
X69503117Y-77835415D01*
X69400005Y-77629866D01*
X69289313Y-77428714D01*
X69171200Y-77232163D01*
X69045830Y-77040414D01*
X68913363Y-76853669D01*
X68773960Y-76672130D01*
X68627784Y-76496000D01*
X68474995Y-76325481D01*
X68315755Y-76160775D01*
X68150226Y-76002084D01*
X67978568Y-75849610D01*
X67800943Y-75703555D01*
X67617513Y-75564122D01*
X67428438Y-75431513D01*
X67233881Y-75305929D01*
X67034003Y-75187573D01*
X66828965Y-75076648D01*
X66618928Y-74973354D01*
X66404054Y-74877895D01*
X66184505Y-74790473D01*
X65960442Y-74711289D01*
X65732025Y-74640546D01*
X65710095Y-74616622D01*
X65689264Y-74591869D01*
X65669551Y-74566326D01*
X65650972Y-74540033D01*
X65633546Y-74513028D01*
X65617291Y-74485351D01*
X65602223Y-74457040D01*
X65588362Y-74428135D01*
X65575724Y-74398674D01*
X65564327Y-74368696D01*
X65554189Y-74338241D01*
X65545328Y-74307348D01*
X65537761Y-74276056D01*
X65531506Y-74244402D01*
X65526581Y-74212428D01*
X65523004Y-74180171D01*
X65523004Y-74166942D01*
X65520821Y-74157647D01*
X65518256Y-74148526D01*
X65515318Y-74139587D01*
X65512016Y-74130838D01*
X65508360Y-74122287D01*
X65504361Y-74113942D01*
X65500027Y-74105810D01*
X65495368Y-74097900D01*
X65490394Y-74090219D01*
X65485115Y-74082775D01*
X65479541Y-74075577D01*
X65473680Y-74068631D01*
X65461140Y-74055530D01*
X65447572Y-74043536D01*
X65433054Y-74032711D01*
X65417663Y-74023117D01*
X65409665Y-74018803D01*
X65401478Y-74014820D01*
X65393111Y-74011176D01*
X65384575Y-74007880D01*
X65375879Y-74004939D01*
X65367032Y-74002361D01*
X65358045Y-74000155D01*
X65348927Y-73998327D01*
X65339687Y-73996886D01*
X65330336Y-73995840D01*
X65320883Y-73995196D01*
X65311339Y-73994963D01*
X65301759Y-73995104D01*
X65292270Y-73995664D01*
X65282883Y-73996635D01*
X65273608Y-73998009D01*
X65264453Y-73999777D01*
X65255430Y-74001932D01*
X65246548Y-74004464D01*
X65237817Y-74007367D01*
X65229248Y-74010632D01*
X65220850Y-74014251D01*
X65212633Y-74018215D01*
X65204608Y-74022517D01*
X65196783Y-74027149D01*
X65189171Y-74032101D01*
X65181779Y-74037367D01*
X65174619Y-74042939D01*
X65167700Y-74048807D01*
X65161032Y-74054964D01*
X65154626Y-74061402D01*
X65148490Y-74068112D01*
X65142637Y-74075087D01*
X65137074Y-74082318D01*
X65131813Y-74089797D01*
X65126863Y-74097517D01*
X65122234Y-74105468D01*
X65117937Y-74113644D01*
X65113981Y-74122035D01*
X65110376Y-74130633D01*
X65107133Y-74139432D01*
X65104261Y-74148421D01*
X65101770Y-74157594D01*
X65099670Y-74166942D01*
X65099671Y-74180171D01*
X65097574Y-74199753D01*
X65094995Y-74219256D01*
X65091936Y-74238671D01*
X65088400Y-74257990D01*
X65084389Y-74277203D01*
X65079907Y-74296303D01*
X65074956Y-74315281D01*
X65069538Y-74334127D01*
X65063656Y-74352835D01*
X65057313Y-74371394D01*
X65050511Y-74389796D01*
X65043253Y-74408032D01*
X65035541Y-74426095D01*
X65027379Y-74443974D01*
X65018768Y-74461663D01*
X65009711Y-74479151D01*
X64893373Y-74461997D01*
X64776758Y-74447093D01*
X64659898Y-74434441D01*
X64542828Y-74424045D01*
X64425579Y-74415907D01*
X64308183Y-74410030D01*
X64190675Y-74406415D01*
X64073085Y-74405067D01*
X63775674Y-74412590D01*
X63481866Y-74434355D01*
X63192008Y-74470035D01*
X62906446Y-74519300D01*
X62625528Y-74581824D01*
X62349600Y-74657278D01*
X62079011Y-74745334D01*
X61814107Y-74845664D01*
X61555234Y-74957940D01*
X61302742Y-75081835D01*
X61056975Y-75217019D01*
X60818282Y-75363166D01*
X60587010Y-75519947D01*
X60363505Y-75687033D01*
X60148115Y-75864098D01*
X59941188Y-76050814D01*
X59743069Y-76246851D01*
X59554106Y-76451882D01*
X59374646Y-76665580D01*
X59205037Y-76887615D01*
X59045625Y-77117661D01*
X58896758Y-77355389D01*
X58758783Y-77600471D01*
X58632046Y-77852579D01*
X58516895Y-78111385D01*
X58413677Y-78376562D01*
X58322739Y-78647780D01*
X58244429Y-78924713D01*
X58179092Y-79207032D01*
X58127077Y-79494408D01*
X58088731Y-79786515D01*
X58064400Y-80083024D01*
X57470716Y-80083024D01*
X57488101Y-79785514D01*
X57552042Y-79303428D01*
X57652083Y-78824262D01*
X57788609Y-78349959D01*
X57962009Y-77882464D01*
X58169966Y-77429283D01*
X58408809Y-76997362D01*
X58676891Y-76587801D01*
X58972564Y-76201701D01*
X59294182Y-75840163D01*
X59640095Y-75504288D01*
X60008658Y-75195177D01*
X60398221Y-74913930D01*
X60807139Y-74661648D01*
X61233764Y-74439433D01*
X61676447Y-74248384D01*
X62133542Y-74089603D01*
X62603401Y-73964190D01*
X63084377Y-73873247D01*
X63574821Y-73817874D01*
X64073088Y-73799171D01*
X64401086Y-73807301D01*
X64726858Y-73831539D01*
X65049862Y-73871661D01*
X65369555Y-73927443D01*
X65685395Y-73998660D01*
X65996841Y-74085088D01*
X66303349Y-74186501D01*
X66604379Y-74302676D01*
X66899387Y-74433388D01*
X67187831Y-74578412D01*
X67469170Y-74737524D01*
X67742861Y-74910499D01*
X68008362Y-75097112D01*
X68265131Y-75297139D01*
X68512625Y-75510356D01*
X68750303Y-75736538D01*
X68976485Y-75974216D01*
X69189702Y-76221710D01*
X69389729Y-76478479D01*
X69576343Y-76743980D01*
X69749317Y-77017671D01*
X69908429Y-77299010D01*
X70053453Y-77587455D01*
X70184165Y-77882463D01*
X70300340Y-78183492D01*
X70401754Y-78490001D01*
X70488181Y-78801446D01*
X70559398Y-79117287D01*
X70615180Y-79436980D01*
X70655303Y-79759983D01*
X70679541Y-80085756D01*
X70687670Y-80413754D01*
X70682971Y-80663762D01*
X70668967Y-80912020D01*
X70645796Y-81158323D01*
X70613594Y-81402465D01*
X70572500Y-81644239D01*
X70522651Y-81883440D01*
X70464185Y-82119862D01*
X70397239Y-82353299D01*
X70321950Y-82583545D01*
X70238458Y-82810394D01*
X70146898Y-83033640D01*
X70047409Y-83253077D01*
X69940129Y-83468500D01*
X69825194Y-83679702D01*
X69702743Y-83886477D01*
X69572913Y-84088620D01*
X69435841Y-84285924D01*
X69291666Y-84478184D01*
X69140525Y-84665193D01*
X68982555Y-84846746D01*
X68817894Y-85022637D01*
X68646680Y-85192659D01*
X68469050Y-85356608D01*
X68285143Y-85514277D01*
X68095094Y-85665459D01*
X67899043Y-85809950D01*
X67697126Y-85947543D01*
X67489482Y-86078032D01*
X67276248Y-86201211D01*
X67057561Y-86316875D01*
X66833559Y-86424817D01*
X66604380Y-86524832D01*
X66136885Y-86698232D01*
X65662582Y-86834759D01*
X65183416Y-86934799D01*
X64701330Y-86998740D01*
X64218267Y-87026969D01*
X63736170Y-87019870D01*
X63256982Y-86977832D01*
X62782647Y-86901240D01*
X62315109Y-86790482D01*
X61856310Y-86645943D01*
X61408194Y-86468010D01*
X60972704Y-86257071D01*
X60920130Y-86226650D01*
X65665878Y-86226650D01*
X65671171Y-86226650D01*
X66015902Y-86119659D01*
X66351517Y-85993152D01*
X66677334Y-85847751D01*
X66992671Y-85684082D01*
X67296848Y-85502769D01*
X67589183Y-85304437D01*
X67868996Y-85089710D01*
X68135604Y-84859214D01*
X68388326Y-84613572D01*
X68626481Y-84353410D01*
X68849389Y-84079352D01*
X69056366Y-83792023D01*
X69246734Y-83492046D01*
X69419809Y-83180048D01*
X69574910Y-82856652D01*
X69711357Y-82522483D01*
X65665878Y-82522483D01*
X65665878Y-86226650D01*
X60920130Y-86226650D01*
X60551783Y-86013510D01*
X60147375Y-85737716D01*
G36*
X63039821Y-80807558D02*
G01*
X63048127Y-80808090D01*
X63056391Y-80808955D01*
X63064604Y-80810150D01*
X63072757Y-80811673D01*
X63080838Y-80813522D01*
X63088839Y-80815694D01*
X63096749Y-80818186D01*
X63104558Y-80820996D01*
X63112257Y-80824122D01*
X63119836Y-80827561D01*
X63127285Y-80831311D01*
X63134594Y-80835369D01*
X63141754Y-80839732D01*
X63146132Y-80842393D01*
X63150404Y-80845200D01*
X63154567Y-80848149D01*
X63158618Y-80851238D01*
X63162554Y-80854463D01*
X63166372Y-80857820D01*
X63170068Y-80861307D01*
X63173638Y-80864919D01*
X63177081Y-80868654D01*
X63180392Y-80872508D01*
X63183568Y-80876478D01*
X63186607Y-80880559D01*
X63189504Y-80884750D01*
X63192257Y-80889046D01*
X63194862Y-80893443D01*
X63197316Y-80897940D01*
X63199983Y-80903694D01*
X63202475Y-80909516D01*
X63204791Y-80915401D01*
X63206930Y-80921345D01*
X63208891Y-80927344D01*
X63210674Y-80933395D01*
X63212277Y-80939493D01*
X63213699Y-80945634D01*
X63214941Y-80951814D01*
X63216000Y-80958030D01*
X63216876Y-80964277D01*
X63217569Y-80970550D01*
X63218077Y-80976847D01*
X63218399Y-80983163D01*
X63218535Y-80989494D01*
X63218483Y-80995837D01*
X63218274Y-81004719D01*
X63217675Y-81013554D01*
X63216691Y-81022328D01*
X63215327Y-81031030D01*
X63213586Y-81039648D01*
X63211474Y-81048170D01*
X63208994Y-81056583D01*
X63206150Y-81064877D01*
X63202949Y-81073039D01*
X63199392Y-81081058D01*
X63195486Y-81088920D01*
X63191234Y-81096616D01*
X63186641Y-81104131D01*
X63181711Y-81111456D01*
X63176448Y-81118577D01*
X63170858Y-81125483D01*
X63170857Y-81125483D01*
X63163072Y-81133184D01*
X63154920Y-81140406D01*
X63146422Y-81147141D01*
X63137602Y-81153379D01*
X63128481Y-81159112D01*
X63119083Y-81164331D01*
X63109429Y-81169028D01*
X63099543Y-81173193D01*
X63089446Y-81176818D01*
X63079160Y-81179894D01*
X63068709Y-81182413D01*
X63058115Y-81184365D01*
X63047400Y-81185743D01*
X63036586Y-81186536D01*
X63025697Y-81186737D01*
X63014754Y-81186337D01*
X62750171Y-81186337D01*
X62750171Y-80807983D01*
X63014754Y-80807984D01*
X63023125Y-80807502D01*
X63031483Y-80807361D01*
X63039821Y-80807558D01*
G37*
X63039821Y-80807558D02*
X63048127Y-80808090D01*
X63056391Y-80808955D01*
X63064604Y-80810150D01*
X63072757Y-80811673D01*
X63080838Y-80813522D01*
X63088839Y-80815694D01*
X63096749Y-80818186D01*
X63104558Y-80820996D01*
X63112257Y-80824122D01*
X63119836Y-80827561D01*
X63127285Y-80831311D01*
X63134594Y-80835369D01*
X63141754Y-80839732D01*
X63146132Y-80842393D01*
X63150404Y-80845200D01*
X63154567Y-80848149D01*
X63158618Y-80851238D01*
X63162554Y-80854463D01*
X63166372Y-80857820D01*
X63170068Y-80861307D01*
X63173638Y-80864919D01*
X63177081Y-80868654D01*
X63180392Y-80872508D01*
X63183568Y-80876478D01*
X63186607Y-80880559D01*
X63189504Y-80884750D01*
X63192257Y-80889046D01*
X63194862Y-80893443D01*
X63197316Y-80897940D01*
X63199983Y-80903694D01*
X63202475Y-80909516D01*
X63204791Y-80915401D01*
X63206930Y-80921345D01*
X63208891Y-80927344D01*
X63210674Y-80933395D01*
X63212277Y-80939493D01*
X63213699Y-80945634D01*
X63214941Y-80951814D01*
X63216000Y-80958030D01*
X63216876Y-80964277D01*
X63217569Y-80970550D01*
X63218077Y-80976847D01*
X63218399Y-80983163D01*
X63218535Y-80989494D01*
X63218483Y-80995837D01*
X63218274Y-81004719D01*
X63217675Y-81013554D01*
X63216691Y-81022328D01*
X63215327Y-81031030D01*
X63213586Y-81039648D01*
X63211474Y-81048170D01*
X63208994Y-81056583D01*
X63206150Y-81064877D01*
X63202949Y-81073039D01*
X63199392Y-81081058D01*
X63195486Y-81088920D01*
X63191234Y-81096616D01*
X63186641Y-81104131D01*
X63181711Y-81111456D01*
X63176448Y-81118577D01*
X63170858Y-81125483D01*
X63170857Y-81125483D01*
X63163072Y-81133184D01*
X63154920Y-81140406D01*
X63146422Y-81147141D01*
X63137602Y-81153379D01*
X63128481Y-81159112D01*
X63119083Y-81164331D01*
X63109429Y-81169028D01*
X63099543Y-81173193D01*
X63089446Y-81176818D01*
X63079160Y-81179894D01*
X63068709Y-81182413D01*
X63058115Y-81184365D01*
X63047400Y-81185743D01*
X63036586Y-81186536D01*
X63025697Y-81186737D01*
X63014754Y-81186337D01*
X62750171Y-81186337D01*
X62750171Y-80807983D01*
X63014754Y-80807984D01*
X63023125Y-80807502D01*
X63031483Y-80807361D01*
X63039821Y-80807558D01*
G36*
X64980608Y-80797401D02*
G01*
X64987802Y-80797348D01*
X64994983Y-80797505D01*
X65002148Y-80797871D01*
X65009292Y-80798445D01*
X65016410Y-80799227D01*
X65023497Y-80800214D01*
X65030550Y-80801406D01*
X65037564Y-80802803D01*
X65044535Y-80804403D01*
X65051457Y-80806205D01*
X65058327Y-80808209D01*
X65065140Y-80810413D01*
X65071891Y-80812816D01*
X65078577Y-80815418D01*
X65085192Y-80818217D01*
X65091733Y-80821213D01*
X65096894Y-80824121D01*
X65101972Y-80827157D01*
X65106965Y-80830320D01*
X65111872Y-80833606D01*
X65116689Y-80837016D01*
X65121416Y-80840546D01*
X65126049Y-80844195D01*
X65130586Y-80847961D01*
X65135025Y-80851842D01*
X65139364Y-80855835D01*
X65143601Y-80859940D01*
X65147732Y-80864155D01*
X65151758Y-80868476D01*
X65155674Y-80872904D01*
X65159479Y-80877434D01*
X65163170Y-80882067D01*
X65167769Y-80887264D01*
X65172165Y-80892613D01*
X65176356Y-80898107D01*
X65180338Y-80903740D01*
X65184109Y-80909506D01*
X65187666Y-80915398D01*
X65191006Y-80921412D01*
X65194125Y-80927540D01*
X65197021Y-80933777D01*
X65199691Y-80940116D01*
X65202132Y-80946552D01*
X65204341Y-80953078D01*
X65206314Y-80959688D01*
X65208050Y-80966376D01*
X65209545Y-80973137D01*
X65210795Y-80979963D01*
X65210795Y-80979964D01*
X65209861Y-80991304D01*
X65208720Y-81002623D01*
X65207373Y-81013917D01*
X65205821Y-81025184D01*
X65204063Y-81036420D01*
X65202102Y-81047624D01*
X65199936Y-81058792D01*
X65197566Y-81069921D01*
X65197566Y-81215441D01*
X65199573Y-81244847D01*
X65201006Y-81274277D01*
X65201866Y-81303725D01*
X65202153Y-81333181D01*
X65201866Y-81362636D01*
X65201006Y-81392084D01*
X65199573Y-81421514D01*
X65197566Y-81450919D01*
X65196325Y-81457896D01*
X65194839Y-81464809D01*
X65193111Y-81471651D01*
X65191144Y-81478417D01*
X65188941Y-81485100D01*
X65186505Y-81491695D01*
X65183838Y-81498196D01*
X65180944Y-81504596D01*
X65177825Y-81510890D01*
X65174485Y-81517072D01*
X65170925Y-81523135D01*
X65167149Y-81529073D01*
X65163160Y-81534881D01*
X65158961Y-81540553D01*
X65154554Y-81546082D01*
X65149942Y-81551462D01*
X65141311Y-81561448D01*
X65132178Y-81570869D01*
X65122569Y-81579712D01*
X65112515Y-81587964D01*
X65102043Y-81595612D01*
X65091182Y-81602644D01*
X65079959Y-81609045D01*
X65068404Y-81614803D01*
X65056544Y-81619904D01*
X65044408Y-81624336D01*
X65032024Y-81628085D01*
X65019421Y-81631138D01*
X65006626Y-81633482D01*
X64993669Y-81635104D01*
X64980578Y-81635990D01*
X64967380Y-81636129D01*
X64960272Y-81636303D01*
X64953178Y-81636226D01*
X64946105Y-81635899D01*
X64939058Y-81635325D01*
X64932045Y-81634504D01*
X64925071Y-81633439D01*
X64918142Y-81632131D01*
X64911266Y-81630581D01*
X64904449Y-81628791D01*
X64897696Y-81626763D01*
X64891015Y-81624497D01*
X64884411Y-81621996D01*
X64877891Y-81619262D01*
X64871462Y-81616295D01*
X64865130Y-81613098D01*
X64858900Y-81609671D01*
X64853440Y-81607224D01*
X64848073Y-81604604D01*
X64842804Y-81601815D01*
X64837634Y-81598859D01*
X64832570Y-81595739D01*
X64827613Y-81592459D01*
X64822768Y-81589021D01*
X64818039Y-81585428D01*
X64813429Y-81581683D01*
X64808943Y-81577789D01*
X64804583Y-81573749D01*
X64800353Y-81569566D01*
X64796258Y-81565243D01*
X64792302Y-81560783D01*
X64788486Y-81556188D01*
X64784817Y-81551461D01*
X64780542Y-81545933D01*
X64776452Y-81540281D01*
X64772549Y-81534512D01*
X64768836Y-81528628D01*
X64765315Y-81522636D01*
X64761987Y-81516540D01*
X64758856Y-81510345D01*
X64755922Y-81504056D01*
X64753188Y-81497677D01*
X64750657Y-81491214D01*
X64748331Y-81484670D01*
X64746210Y-81478051D01*
X64744299Y-81471362D01*
X64742599Y-81464607D01*
X64741111Y-81457791D01*
X64739839Y-81450919D01*
X64739044Y-81439687D01*
X64738477Y-81428444D01*
X64738137Y-81417194D01*
X64738023Y-81405941D01*
X64738137Y-81394688D01*
X64738477Y-81383438D01*
X64739044Y-81372195D01*
X64739839Y-81360962D01*
X64739839Y-81215441D01*
X64738977Y-81185911D01*
X64738836Y-81156382D01*
X64739414Y-81126867D01*
X64740710Y-81097379D01*
X64742724Y-81067932D01*
X64745456Y-81038538D01*
X64748904Y-81009210D01*
X64753067Y-80979962D01*
X64754247Y-80973210D01*
X64755657Y-80966517D01*
X64757293Y-80959889D01*
X64759153Y-80953330D01*
X64761235Y-80946847D01*
X64763536Y-80940444D01*
X64766054Y-80934128D01*
X64768786Y-80927903D01*
X64771729Y-80921776D01*
X64774882Y-80915751D01*
X64778241Y-80909835D01*
X64781804Y-80904032D01*
X64785569Y-80898348D01*
X64789532Y-80892790D01*
X64793692Y-80887361D01*
X64798046Y-80882068D01*
X64801820Y-80877321D01*
X64805721Y-80872689D01*
X64809746Y-80868175D01*
X64813893Y-80863781D01*
X64818159Y-80859508D01*
X64822540Y-80855360D01*
X64827036Y-80851338D01*
X64831641Y-80847445D01*
X64836354Y-80843683D01*
X64841173Y-80840055D01*
X64846093Y-80836562D01*
X64851113Y-80833207D01*
X64856229Y-80829992D01*
X64861440Y-80826920D01*
X64866741Y-80823993D01*
X64872130Y-80821213D01*
X64878491Y-80818204D01*
X64884930Y-80815394D01*
X64891441Y-80812782D01*
X64898021Y-80810370D01*
X64904664Y-80808160D01*
X64911366Y-80806151D01*
X64918123Y-80804345D01*
X64924929Y-80802744D01*
X64931780Y-80801347D01*
X64938672Y-80800157D01*
X64945599Y-80799174D01*
X64952557Y-80798399D01*
X64959542Y-80797833D01*
X64966549Y-80797477D01*
X64973572Y-80797333D01*
X64980608Y-80797401D01*
G37*
X64980608Y-80797401D02*
X64987802Y-80797348D01*
X64994983Y-80797505D01*
X65002148Y-80797871D01*
X65009292Y-80798445D01*
X65016410Y-80799227D01*
X65023497Y-80800214D01*
X65030550Y-80801406D01*
X65037564Y-80802803D01*
X65044535Y-80804403D01*
X65051457Y-80806205D01*
X65058327Y-80808209D01*
X65065140Y-80810413D01*
X65071891Y-80812816D01*
X65078577Y-80815418D01*
X65085192Y-80818217D01*
X65091733Y-80821213D01*
X65096894Y-80824121D01*
X65101972Y-80827157D01*
X65106965Y-80830320D01*
X65111872Y-80833606D01*
X65116689Y-80837016D01*
X65121416Y-80840546D01*
X65126049Y-80844195D01*
X65130586Y-80847961D01*
X65135025Y-80851842D01*
X65139364Y-80855835D01*
X65143601Y-80859940D01*
X65147732Y-80864155D01*
X65151758Y-80868476D01*
X65155674Y-80872904D01*
X65159479Y-80877434D01*
X65163170Y-80882067D01*
X65167769Y-80887264D01*
X65172165Y-80892613D01*
X65176356Y-80898107D01*
X65180338Y-80903740D01*
X65184109Y-80909506D01*
X65187666Y-80915398D01*
X65191006Y-80921412D01*
X65194125Y-80927540D01*
X65197021Y-80933777D01*
X65199691Y-80940116D01*
X65202132Y-80946552D01*
X65204341Y-80953078D01*
X65206314Y-80959688D01*
X65208050Y-80966376D01*
X65209545Y-80973137D01*
X65210795Y-80979963D01*
X65210795Y-80979964D01*
X65209861Y-80991304D01*
X65208720Y-81002623D01*
X65207373Y-81013917D01*
X65205821Y-81025184D01*
X65204063Y-81036420D01*
X65202102Y-81047624D01*
X65199936Y-81058792D01*
X65197566Y-81069921D01*
X65197566Y-81215441D01*
X65199573Y-81244847D01*
X65201006Y-81274277D01*
X65201866Y-81303725D01*
X65202153Y-81333181D01*
X65201866Y-81362636D01*
X65201006Y-81392084D01*
X65199573Y-81421514D01*
X65197566Y-81450919D01*
X65196325Y-81457896D01*
X65194839Y-81464809D01*
X65193111Y-81471651D01*
X65191144Y-81478417D01*
X65188941Y-81485100D01*
X65186505Y-81491695D01*
X65183838Y-81498196D01*
X65180944Y-81504596D01*
X65177825Y-81510890D01*
X65174485Y-81517072D01*
X65170925Y-81523135D01*
X65167149Y-81529073D01*
X65163160Y-81534881D01*
X65158961Y-81540553D01*
X65154554Y-81546082D01*
X65149942Y-81551462D01*
X65141311Y-81561448D01*
X65132178Y-81570869D01*
X65122569Y-81579712D01*
X65112515Y-81587964D01*
X65102043Y-81595612D01*
X65091182Y-81602644D01*
X65079959Y-81609045D01*
X65068404Y-81614803D01*
X65056544Y-81619904D01*
X65044408Y-81624336D01*
X65032024Y-81628085D01*
X65019421Y-81631138D01*
X65006626Y-81633482D01*
X64993669Y-81635104D01*
X64980578Y-81635990D01*
X64967380Y-81636129D01*
X64960272Y-81636303D01*
X64953178Y-81636226D01*
X64946105Y-81635899D01*
X64939058Y-81635325D01*
X64932045Y-81634504D01*
X64925071Y-81633439D01*
X64918142Y-81632131D01*
X64911266Y-81630581D01*
X64904449Y-81628791D01*
X64897696Y-81626763D01*
X64891015Y-81624497D01*
X64884411Y-81621996D01*
X64877891Y-81619262D01*
X64871462Y-81616295D01*
X64865130Y-81613098D01*
X64858900Y-81609671D01*
X64853440Y-81607224D01*
X64848073Y-81604604D01*
X64842804Y-81601815D01*
X64837634Y-81598859D01*
X64832570Y-81595739D01*
X64827613Y-81592459D01*
X64822768Y-81589021D01*
X64818039Y-81585428D01*
X64813429Y-81581683D01*
X64808943Y-81577789D01*
X64804583Y-81573749D01*
X64800353Y-81569566D01*
X64796258Y-81565243D01*
X64792302Y-81560783D01*
X64788486Y-81556188D01*
X64784817Y-81551461D01*
X64780542Y-81545933D01*
X64776452Y-81540281D01*
X64772549Y-81534512D01*
X64768836Y-81528628D01*
X64765315Y-81522636D01*
X64761987Y-81516540D01*
X64758856Y-81510345D01*
X64755922Y-81504056D01*
X64753188Y-81497677D01*
X64750657Y-81491214D01*
X64748331Y-81484670D01*
X64746210Y-81478051D01*
X64744299Y-81471362D01*
X64742599Y-81464607D01*
X64741111Y-81457791D01*
X64739839Y-81450919D01*
X64739044Y-81439687D01*
X64738477Y-81428444D01*
X64738137Y-81417194D01*
X64738023Y-81405941D01*
X64738137Y-81394688D01*
X64738477Y-81383438D01*
X64739044Y-81372195D01*
X64739839Y-81360962D01*
X64739839Y-81215441D01*
X64738977Y-81185911D01*
X64738836Y-81156382D01*
X64739414Y-81126867D01*
X64740710Y-81097379D01*
X64742724Y-81067932D01*
X64745456Y-81038538D01*
X64748904Y-81009210D01*
X64753067Y-80979962D01*
X64754247Y-80973210D01*
X64755657Y-80966517D01*
X64757293Y-80959889D01*
X64759153Y-80953330D01*
X64761235Y-80946847D01*
X64763536Y-80940444D01*
X64766054Y-80934128D01*
X64768786Y-80927903D01*
X64771729Y-80921776D01*
X64774882Y-80915751D01*
X64778241Y-80909835D01*
X64781804Y-80904032D01*
X64785569Y-80898348D01*
X64789532Y-80892790D01*
X64793692Y-80887361D01*
X64798046Y-80882068D01*
X64801820Y-80877321D01*
X64805721Y-80872689D01*
X64809746Y-80868175D01*
X64813893Y-80863781D01*
X64818159Y-80859508D01*
X64822540Y-80855360D01*
X64827036Y-80851338D01*
X64831641Y-80847445D01*
X64836354Y-80843683D01*
X64841173Y-80840055D01*
X64846093Y-80836562D01*
X64851113Y-80833207D01*
X64856229Y-80829992D01*
X64861440Y-80826920D01*
X64866741Y-80823993D01*
X64872130Y-80821213D01*
X64878491Y-80818204D01*
X64884930Y-80815394D01*
X64891441Y-80812782D01*
X64898021Y-80810370D01*
X64904664Y-80808160D01*
X64911366Y-80806151D01*
X64918123Y-80804345D01*
X64924929Y-80802744D01*
X64931780Y-80801347D01*
X64938672Y-80800157D01*
X64945599Y-80799174D01*
X64952557Y-80798399D01*
X64959542Y-80797833D01*
X64966549Y-80797477D01*
X64973572Y-80797333D01*
X64980608Y-80797401D01*
D11*
X121666000Y-47752000D02*
X115062000Y-47752000D01*
D12*
G36*
X68174129Y-80797401D02*
G01*
X68181322Y-80797348D01*
X68188504Y-80797505D01*
X68195669Y-80797871D01*
X68202812Y-80798445D01*
X68209930Y-80799227D01*
X68217018Y-80800214D01*
X68224071Y-80801406D01*
X68231085Y-80802803D01*
X68238055Y-80804403D01*
X68244978Y-80806205D01*
X68251847Y-80808209D01*
X68258660Y-80810413D01*
X68265412Y-80812816D01*
X68272098Y-80815418D01*
X68278713Y-80818217D01*
X68285254Y-80821213D01*
X68290414Y-80824121D01*
X68295492Y-80827157D01*
X68300486Y-80830320D01*
X68305392Y-80833606D01*
X68310210Y-80837016D01*
X68314936Y-80840546D01*
X68319569Y-80844195D01*
X68324106Y-80847961D01*
X68328545Y-80851842D01*
X68332884Y-80855835D01*
X68337121Y-80859940D01*
X68341253Y-80864155D01*
X68345278Y-80868476D01*
X68349194Y-80872904D01*
X68352999Y-80877434D01*
X68356690Y-80882067D01*
X68361289Y-80887264D01*
X68365685Y-80892613D01*
X68369876Y-80898107D01*
X68373859Y-80903740D01*
X68377630Y-80909506D01*
X68381187Y-80915398D01*
X68384526Y-80921412D01*
X68387645Y-80927540D01*
X68390542Y-80933777D01*
X68393212Y-80940116D01*
X68395652Y-80946552D01*
X68397861Y-80953078D01*
X68399835Y-80959688D01*
X68401571Y-80966376D01*
X68403065Y-80973137D01*
X68404316Y-80979963D01*
X68405026Y-80991198D01*
X68405533Y-81002441D01*
X68405837Y-81013690D01*
X68405938Y-81024942D01*
X68405837Y-81036193D01*
X68405533Y-81047442D01*
X68405026Y-81058686D01*
X68404316Y-81069921D01*
X68404316Y-81215441D01*
X68406322Y-81244847D01*
X68407756Y-81274277D01*
X68408616Y-81303725D01*
X68408902Y-81333181D01*
X68408616Y-81362636D01*
X68407756Y-81392084D01*
X68406322Y-81421514D01*
X68404316Y-81450919D01*
X68403074Y-81457896D01*
X68401588Y-81464809D01*
X68399860Y-81471651D01*
X68397893Y-81478417D01*
X68395690Y-81485100D01*
X68393254Y-81491695D01*
X68390587Y-81498196D01*
X68387693Y-81504596D01*
X68384574Y-81510890D01*
X68381233Y-81517072D01*
X68377674Y-81523135D01*
X68373898Y-81529073D01*
X68369909Y-81534881D01*
X68365709Y-81540553D01*
X68361302Y-81546082D01*
X68356690Y-81551462D01*
X68348059Y-81561448D01*
X68338926Y-81570869D01*
X68329317Y-81579712D01*
X68319263Y-81587964D01*
X68308791Y-81595612D01*
X68297930Y-81602644D01*
X68286707Y-81609045D01*
X68275152Y-81614803D01*
X68263292Y-81619904D01*
X68251157Y-81624336D01*
X68238773Y-81628085D01*
X68226170Y-81631138D01*
X68213376Y-81633482D01*
X68200419Y-81635104D01*
X68187327Y-81635990D01*
X68174130Y-81636129D01*
X68167022Y-81636303D01*
X68159929Y-81636226D01*
X68152855Y-81635899D01*
X68145809Y-81635325D01*
X68138795Y-81634504D01*
X68131821Y-81633439D01*
X68124893Y-81632131D01*
X68118017Y-81630581D01*
X68111199Y-81628791D01*
X68104446Y-81626763D01*
X68097765Y-81624497D01*
X68091161Y-81621996D01*
X68084641Y-81619262D01*
X68078212Y-81616295D01*
X68071879Y-81613098D01*
X68065650Y-81609671D01*
X68060190Y-81607224D01*
X68054823Y-81604604D01*
X68049553Y-81601815D01*
X68044384Y-81598859D01*
X68039319Y-81595739D01*
X68034363Y-81592459D01*
X68029518Y-81589021D01*
X68024789Y-81585428D01*
X68020179Y-81581683D01*
X68015692Y-81577789D01*
X68011332Y-81573749D01*
X68007103Y-81569566D01*
X68003008Y-81565243D01*
X67999051Y-81560783D01*
X67995236Y-81556188D01*
X67991567Y-81551461D01*
X67987292Y-81545933D01*
X67983202Y-81540281D01*
X67979299Y-81534512D01*
X67975586Y-81528628D01*
X67972065Y-81522636D01*
X67968737Y-81516540D01*
X67965605Y-81510345D01*
X67962671Y-81504056D01*
X67959938Y-81497677D01*
X67957407Y-81491214D01*
X67955080Y-81484670D01*
X67952960Y-81478051D01*
X67951048Y-81471362D01*
X67949348Y-81464607D01*
X67947860Y-81457791D01*
X67946588Y-81450919D01*
X67945793Y-81439687D01*
X67945226Y-81428444D01*
X67944886Y-81417194D01*
X67944772Y-81405941D01*
X67944886Y-81394688D01*
X67945226Y-81383438D01*
X67945793Y-81372195D01*
X67946588Y-81360962D01*
X67946588Y-81215441D01*
X67944080Y-81186052D01*
X67942288Y-81156624D01*
X67941213Y-81127170D01*
X67940855Y-81097702D01*
X67941213Y-81068234D01*
X67942288Y-81038780D01*
X67944080Y-81009351D01*
X67946588Y-80979962D01*
X67947768Y-80973210D01*
X67949177Y-80966517D01*
X67950814Y-80959889D01*
X67952674Y-80953330D01*
X67954756Y-80946847D01*
X67957057Y-80940444D01*
X67959575Y-80934128D01*
X67962307Y-80927903D01*
X67965250Y-80921776D01*
X67968402Y-80915751D01*
X67971762Y-80909835D01*
X67975325Y-80904032D01*
X67979089Y-80898348D01*
X67983053Y-80892790D01*
X67987213Y-80887361D01*
X67991567Y-80882068D01*
X67995340Y-80877321D01*
X67999241Y-80872689D01*
X68003267Y-80868175D01*
X68007413Y-80863781D01*
X68011679Y-80859508D01*
X68016061Y-80855360D01*
X68020556Y-80851338D01*
X68025162Y-80847445D01*
X68029875Y-80843683D01*
X68034693Y-80840055D01*
X68039614Y-80836562D01*
X68044634Y-80833207D01*
X68049750Y-80829992D01*
X68054960Y-80826920D01*
X68060262Y-80823993D01*
X68065651Y-80821213D01*
X68072012Y-80818204D01*
X68078450Y-80815394D01*
X68084962Y-80812782D01*
X68091541Y-80810370D01*
X68098185Y-80808160D01*
X68104887Y-80806151D01*
X68111643Y-80804345D01*
X68118450Y-80802744D01*
X68125301Y-80801347D01*
X68132192Y-80800157D01*
X68139120Y-80799174D01*
X68146078Y-80798399D01*
X68153063Y-80797833D01*
X68160069Y-80797477D01*
X68167093Y-80797333D01*
X68174129Y-80797401D01*
G37*
X68174129Y-80797401D02*
X68181322Y-80797348D01*
X68188504Y-80797505D01*
X68195669Y-80797871D01*
X68202812Y-80798445D01*
X68209930Y-80799227D01*
X68217018Y-80800214D01*
X68224071Y-80801406D01*
X68231085Y-80802803D01*
X68238055Y-80804403D01*
X68244978Y-80806205D01*
X68251847Y-80808209D01*
X68258660Y-80810413D01*
X68265412Y-80812816D01*
X68272098Y-80815418D01*
X68278713Y-80818217D01*
X68285254Y-80821213D01*
X68290414Y-80824121D01*
X68295492Y-80827157D01*
X68300486Y-80830320D01*
X68305392Y-80833606D01*
X68310210Y-80837016D01*
X68314936Y-80840546D01*
X68319569Y-80844195D01*
X68324106Y-80847961D01*
X68328545Y-80851842D01*
X68332884Y-80855835D01*
X68337121Y-80859940D01*
X68341253Y-80864155D01*
X68345278Y-80868476D01*
X68349194Y-80872904D01*
X68352999Y-80877434D01*
X68356690Y-80882067D01*
X68361289Y-80887264D01*
X68365685Y-80892613D01*
X68369876Y-80898107D01*
X68373859Y-80903740D01*
X68377630Y-80909506D01*
X68381187Y-80915398D01*
X68384526Y-80921412D01*
X68387645Y-80927540D01*
X68390542Y-80933777D01*
X68393212Y-80940116D01*
X68395652Y-80946552D01*
X68397861Y-80953078D01*
X68399835Y-80959688D01*
X68401571Y-80966376D01*
X68403065Y-80973137D01*
X68404316Y-80979963D01*
X68405026Y-80991198D01*
X68405533Y-81002441D01*
X68405837Y-81013690D01*
X68405938Y-81024942D01*
X68405837Y-81036193D01*
X68405533Y-81047442D01*
X68405026Y-81058686D01*
X68404316Y-81069921D01*
X68404316Y-81215441D01*
X68406322Y-81244847D01*
X68407756Y-81274277D01*
X68408616Y-81303725D01*
X68408902Y-81333181D01*
X68408616Y-81362636D01*
X68407756Y-81392084D01*
X68406322Y-81421514D01*
X68404316Y-81450919D01*
X68403074Y-81457896D01*
X68401588Y-81464809D01*
X68399860Y-81471651D01*
X68397893Y-81478417D01*
X68395690Y-81485100D01*
X68393254Y-81491695D01*
X68390587Y-81498196D01*
X68387693Y-81504596D01*
X68384574Y-81510890D01*
X68381233Y-81517072D01*
X68377674Y-81523135D01*
X68373898Y-81529073D01*
X68369909Y-81534881D01*
X68365709Y-81540553D01*
X68361302Y-81546082D01*
X68356690Y-81551462D01*
X68348059Y-81561448D01*
X68338926Y-81570869D01*
X68329317Y-81579712D01*
X68319263Y-81587964D01*
X68308791Y-81595612D01*
X68297930Y-81602644D01*
X68286707Y-81609045D01*
X68275152Y-81614803D01*
X68263292Y-81619904D01*
X68251157Y-81624336D01*
X68238773Y-81628085D01*
X68226170Y-81631138D01*
X68213376Y-81633482D01*
X68200419Y-81635104D01*
X68187327Y-81635990D01*
X68174130Y-81636129D01*
X68167022Y-81636303D01*
X68159929Y-81636226D01*
X68152855Y-81635899D01*
X68145809Y-81635325D01*
X68138795Y-81634504D01*
X68131821Y-81633439D01*
X68124893Y-81632131D01*
X68118017Y-81630581D01*
X68111199Y-81628791D01*
X68104446Y-81626763D01*
X68097765Y-81624497D01*
X68091161Y-81621996D01*
X68084641Y-81619262D01*
X68078212Y-81616295D01*
X68071879Y-81613098D01*
X68065650Y-81609671D01*
X68060190Y-81607224D01*
X68054823Y-81604604D01*
X68049553Y-81601815D01*
X68044384Y-81598859D01*
X68039319Y-81595739D01*
X68034363Y-81592459D01*
X68029518Y-81589021D01*
X68024789Y-81585428D01*
X68020179Y-81581683D01*
X68015692Y-81577789D01*
X68011332Y-81573749D01*
X68007103Y-81569566D01*
X68003008Y-81565243D01*
X67999051Y-81560783D01*
X67995236Y-81556188D01*
X67991567Y-81551461D01*
X67987292Y-81545933D01*
X67983202Y-81540281D01*
X67979299Y-81534512D01*
X67975586Y-81528628D01*
X67972065Y-81522636D01*
X67968737Y-81516540D01*
X67965605Y-81510345D01*
X67962671Y-81504056D01*
X67959938Y-81497677D01*
X67957407Y-81491214D01*
X67955080Y-81484670D01*
X67952960Y-81478051D01*
X67951048Y-81471362D01*
X67949348Y-81464607D01*
X67947860Y-81457791D01*
X67946588Y-81450919D01*
X67945793Y-81439687D01*
X67945226Y-81428444D01*
X67944886Y-81417194D01*
X67944772Y-81405941D01*
X67944886Y-81394688D01*
X67945226Y-81383438D01*
X67945793Y-81372195D01*
X67946588Y-81360962D01*
X67946588Y-81215441D01*
X67944080Y-81186052D01*
X67942288Y-81156624D01*
X67941213Y-81127170D01*
X67940855Y-81097702D01*
X67941213Y-81068234D01*
X67942288Y-81038780D01*
X67944080Y-81009351D01*
X67946588Y-80979962D01*
X67947768Y-80973210D01*
X67949177Y-80966517D01*
X67950814Y-80959889D01*
X67952674Y-80953330D01*
X67954756Y-80946847D01*
X67957057Y-80940444D01*
X67959575Y-80934128D01*
X67962307Y-80927903D01*
X67965250Y-80921776D01*
X67968402Y-80915751D01*
X67971762Y-80909835D01*
X67975325Y-80904032D01*
X67979089Y-80898348D01*
X67983053Y-80892790D01*
X67987213Y-80887361D01*
X67991567Y-80882068D01*
X67995340Y-80877321D01*
X67999241Y-80872689D01*
X68003267Y-80868175D01*
X68007413Y-80863781D01*
X68011679Y-80859508D01*
X68016061Y-80855360D01*
X68020556Y-80851338D01*
X68025162Y-80847445D01*
X68029875Y-80843683D01*
X68034693Y-80840055D01*
X68039614Y-80836562D01*
X68044634Y-80833207D01*
X68049750Y-80829992D01*
X68054960Y-80826920D01*
X68060262Y-80823993D01*
X68065651Y-80821213D01*
X68072012Y-80818204D01*
X68078450Y-80815394D01*
X68084962Y-80812782D01*
X68091541Y-80810370D01*
X68098185Y-80808160D01*
X68104887Y-80806151D01*
X68111643Y-80804345D01*
X68118450Y-80802744D01*
X68125301Y-80801347D01*
X68132192Y-80800157D01*
X68139120Y-80799174D01*
X68146078Y-80798399D01*
X68153063Y-80797833D01*
X68160069Y-80797477D01*
X68167093Y-80797333D01*
X68174129Y-80797401D01*
D13*
X22450942Y-37327685D02*
X22379514Y-37256257D01*
X22236657Y-37184828D01*
X22093800Y-37184828D01*
X21950942Y-37256257D01*
X21879514Y-37327685D01*
X21808085Y-37470542D01*
X21808085Y-37613400D01*
X21879514Y-37756257D01*
X21950942Y-37827685D01*
X22093800Y-37899114D01*
X22236657Y-37899114D01*
X22379514Y-37827685D01*
X22450942Y-37756257D01*
X22450942Y-37184828D02*
X22450942Y-37756257D01*
X22522371Y-37827685D01*
X22593800Y-37827685D01*
X22736657Y-37756257D01*
X22808085Y-37613400D01*
X22808085Y-37256257D01*
X22665228Y-37041971D01*
X22450942Y-36899114D01*
X22165228Y-36827685D01*
X21879514Y-36899114D01*
X21665228Y-37041971D01*
X21522371Y-37256257D01*
X21450942Y-37541971D01*
X21522371Y-37827685D01*
X21665228Y-38041971D01*
X21879514Y-38184828D01*
X22165228Y-38256257D01*
X22450942Y-38184828D01*
X22665228Y-38041971D01*
X23450942Y-38041971D02*
X23450942Y-37041971D01*
X23450942Y-37184828D02*
X23522371Y-37113400D01*
X23665228Y-37041971D01*
X23879514Y-37041971D01*
X24022371Y-37113400D01*
X24093800Y-37256257D01*
X24093800Y-38041971D01*
X24093800Y-37256257D02*
X24165228Y-37113400D01*
X24308085Y-37041971D01*
X24522371Y-37041971D01*
X24665228Y-37113400D01*
X24736657Y-37256257D01*
X24736657Y-38041971D01*
X25450942Y-38041971D02*
X25450942Y-37041971D01*
X25450942Y-36541971D02*
X25379514Y-36613400D01*
X25450942Y-36684828D01*
X25522371Y-36613400D01*
X25450942Y-36541971D01*
X25450942Y-36684828D01*
X26165228Y-37041971D02*
X26165228Y-38041971D01*
X26165228Y-37184828D02*
X26236657Y-37113400D01*
X26379514Y-37041971D01*
X26593800Y-37041971D01*
X26736657Y-37113400D01*
X26808085Y-37256257D01*
X26808085Y-38041971D01*
X28165228Y-38041971D02*
X28165228Y-36541971D01*
X28165228Y-37970542D02*
X28022371Y-38041971D01*
X27736657Y-38041971D01*
X27593800Y-37970542D01*
X27522371Y-37899114D01*
X27450942Y-37756257D01*
X27450942Y-37327685D01*
X27522371Y-37184828D01*
X27593800Y-37113400D01*
X27736657Y-37041971D01*
X28022371Y-37041971D01*
X28165228Y-37113400D01*
X29522371Y-37970542D02*
X29379514Y-38041971D01*
X29093800Y-38041971D01*
X28950942Y-37970542D01*
X28879514Y-37899114D01*
X28808085Y-37756257D01*
X28808085Y-37327685D01*
X28879514Y-37184828D01*
X28950942Y-37113400D01*
X29093800Y-37041971D01*
X29379514Y-37041971D01*
X29522371Y-37113400D01*
X30808085Y-38041971D02*
X30808085Y-37256257D01*
X30736657Y-37113400D01*
X30593800Y-37041971D01*
X30308085Y-37041971D01*
X30165228Y-37113400D01*
X30808085Y-37970542D02*
X30665228Y-38041971D01*
X30308085Y-38041971D01*
X30165228Y-37970542D01*
X30093800Y-37827685D01*
X30093800Y-37684828D01*
X30165228Y-37541971D01*
X30308085Y-37470542D01*
X30665228Y-37470542D01*
X30808085Y-37399114D01*
X31308085Y-37041971D02*
X31879514Y-37041971D01*
X31522371Y-36541971D02*
X31522371Y-37827685D01*
X31593800Y-37970542D01*
X31736657Y-38041971D01*
X31879514Y-38041971D01*
D10*
X117110095Y-82129380D02*
X117681523Y-82129380D01*
X117395809Y-83129380D02*
X117395809Y-82129380D01*
X118586285Y-83129380D02*
X118252952Y-82653190D01*
X118014857Y-83129380D02*
X118014857Y-82129380D01*
X118395809Y-82129380D01*
X118491047Y-82177000D01*
X118538666Y-82224619D01*
X118586285Y-82319857D01*
X118586285Y-82462714D01*
X118538666Y-82557952D01*
X118491047Y-82605571D01*
X118395809Y-82653190D01*
X118014857Y-82653190D01*
X119586285Y-83129380D02*
X119252952Y-82653190D01*
X119014857Y-83129380D02*
X119014857Y-82129380D01*
X119395809Y-82129380D01*
X119491047Y-82177000D01*
X119538666Y-82224619D01*
X119586285Y-82319857D01*
X119586285Y-82462714D01*
X119538666Y-82557952D01*
X119491047Y-82605571D01*
X119395809Y-82653190D01*
X119014857Y-82653190D01*
X119967238Y-83081761D02*
X120110095Y-83129380D01*
X120348190Y-83129380D01*
X120443428Y-83081761D01*
X120491047Y-83034142D01*
X120538666Y-82938904D01*
X120538666Y-82843666D01*
X120491047Y-82748428D01*
X120443428Y-82700809D01*
X120348190Y-82653190D01*
X120157714Y-82605571D01*
X120062476Y-82557952D01*
X120014857Y-82510333D01*
X119967238Y-82415095D01*
X119967238Y-82319857D01*
X120014857Y-82224619D01*
X120062476Y-82177000D01*
X120157714Y-82129380D01*
X120395809Y-82129380D01*
X120538666Y-82177000D01*
X116248142Y-45483428D02*
X116248142Y-44883428D01*
X116476714Y-44883428D01*
X116533857Y-44912000D01*
X116562428Y-44940571D01*
X116591000Y-44997714D01*
X116591000Y-45083428D01*
X116562428Y-45140571D01*
X116533857Y-45169142D01*
X116476714Y-45197714D01*
X116248142Y-45197714D01*
X116962428Y-44883428D02*
X117076714Y-44883428D01*
X117133857Y-44912000D01*
X117191000Y-44969142D01*
X117219571Y-45083428D01*
X117219571Y-45283428D01*
X117191000Y-45397714D01*
X117133857Y-45454857D01*
X117076714Y-45483428D01*
X116962428Y-45483428D01*
X116905285Y-45454857D01*
X116848142Y-45397714D01*
X116819571Y-45283428D01*
X116819571Y-45083428D01*
X116848142Y-44969142D01*
X116905285Y-44912000D01*
X116962428Y-44883428D01*
X117419571Y-44883428D02*
X117562428Y-45483428D01*
X117676714Y-45054857D01*
X117791000Y-45483428D01*
X117933857Y-44883428D01*
X118162428Y-45169142D02*
X118362428Y-45169142D01*
X118448142Y-45483428D02*
X118162428Y-45483428D01*
X118162428Y-44883428D01*
X118448142Y-44883428D01*
X119048142Y-45483428D02*
X118848142Y-45197714D01*
X118705285Y-45483428D02*
X118705285Y-44883428D01*
X118933857Y-44883428D01*
X118991000Y-44912000D01*
X119019571Y-44940571D01*
X119048142Y-44997714D01*
X119048142Y-45083428D01*
X119019571Y-45140571D01*
X118991000Y-45169142D01*
X118933857Y-45197714D01*
X118705285Y-45197714D01*
X119733857Y-45454857D02*
X119819571Y-45483428D01*
X119962428Y-45483428D01*
X120019571Y-45454857D01*
X120048142Y-45426285D01*
X120076714Y-45369142D01*
X120076714Y-45312000D01*
X120048142Y-45254857D01*
X120019571Y-45226285D01*
X119962428Y-45197714D01*
X119848142Y-45169142D01*
X119791000Y-45140571D01*
X119762428Y-45112000D01*
X119733857Y-45054857D01*
X119733857Y-44997714D01*
X119762428Y-44940571D01*
X119791000Y-44912000D01*
X119848142Y-44883428D01*
X119991000Y-44883428D01*
X120076714Y-44912000D01*
X120276714Y-44883428D02*
X120419571Y-45483428D01*
X120533857Y-45054857D01*
X120648142Y-45483428D01*
X120791000Y-44883428D01*
D13*
X118915571Y-68221857D02*
X117915571Y-68221857D01*
X118058428Y-68221857D02*
X117987000Y-68150428D01*
X117915571Y-68007571D01*
X117915571Y-67793285D01*
X117987000Y-67650428D01*
X118129857Y-67579000D01*
X118915571Y-67579000D01*
X118129857Y-67579000D02*
X117987000Y-67507571D01*
X117915571Y-67364714D01*
X117915571Y-67150428D01*
X117987000Y-67007571D01*
X118129857Y-66936142D01*
X118915571Y-66936142D01*
X118844142Y-65579000D02*
X118915571Y-65721857D01*
X118915571Y-66007571D01*
X118844142Y-66150428D01*
X118772714Y-66221857D01*
X118629857Y-66293285D01*
X118201285Y-66293285D01*
X118058428Y-66221857D01*
X117987000Y-66150428D01*
X117915571Y-66007571D01*
X117915571Y-65721857D01*
X117987000Y-65579000D01*
X117915571Y-64007571D02*
X117915571Y-63436142D01*
X118915571Y-63793285D02*
X117629857Y-63793285D01*
X117487000Y-63721857D01*
X117415571Y-63579000D01*
X117415571Y-63436142D01*
X118915571Y-62293285D02*
X118129857Y-62293285D01*
X117987000Y-62364714D01*
X117915571Y-62507571D01*
X117915571Y-62793285D01*
X117987000Y-62936142D01*
X118844142Y-62293285D02*
X118915571Y-62436142D01*
X118915571Y-62793285D01*
X118844142Y-62936142D01*
X118701285Y-63007571D01*
X118558428Y-63007571D01*
X118415571Y-62936142D01*
X118344142Y-62793285D01*
X118344142Y-62436142D01*
X118272714Y-62293285D01*
X118844142Y-60936142D02*
X118915571Y-61079000D01*
X118915571Y-61364714D01*
X118844142Y-61507571D01*
X118772714Y-61579000D01*
X118629857Y-61650428D01*
X118201285Y-61650428D01*
X118058428Y-61579000D01*
X117987000Y-61507571D01*
X117915571Y-61364714D01*
X117915571Y-61079000D01*
X117987000Y-60936142D01*
X118844142Y-59721857D02*
X118915571Y-59864714D01*
X118915571Y-60150428D01*
X118844142Y-60293285D01*
X118701285Y-60364714D01*
X118129857Y-60364714D01*
X117987000Y-60293285D01*
X117915571Y-60150428D01*
X117915571Y-59864714D01*
X117987000Y-59721857D01*
X118129857Y-59650428D01*
X118272714Y-59650428D01*
X118415571Y-60364714D01*
X118915571Y-57221857D02*
X117415571Y-57221857D01*
X118844142Y-57221857D02*
X118915571Y-57364714D01*
X118915571Y-57650428D01*
X118844142Y-57793285D01*
X118772714Y-57864714D01*
X118629857Y-57936142D01*
X118201285Y-57936142D01*
X118058428Y-57864714D01*
X117987000Y-57793285D01*
X117915571Y-57650428D01*
X117915571Y-57364714D01*
X117987000Y-57221857D01*
X118915571Y-56293285D02*
X118844142Y-56436142D01*
X118772714Y-56507571D01*
X118629857Y-56579000D01*
X118201285Y-56579000D01*
X118058428Y-56507571D01*
X117987000Y-56436142D01*
X117915571Y-56293285D01*
X117915571Y-56079000D01*
X117987000Y-55936142D01*
X118058428Y-55864714D01*
X118201285Y-55793285D01*
X118629857Y-55793285D01*
X118772714Y-55864714D01*
X118844142Y-55936142D01*
X118915571Y-56079000D01*
X118915571Y-56293285D01*
X117915571Y-55293285D02*
X118915571Y-55007571D01*
X118201285Y-54721857D01*
X118915571Y-54436142D01*
X117915571Y-54150428D01*
X117915571Y-53579000D02*
X118915571Y-53579000D01*
X118058428Y-53579000D02*
X117987000Y-53507571D01*
X117915571Y-53364714D01*
X117915571Y-53150428D01*
X117987000Y-53007571D01*
X118129857Y-52936142D01*
X118915571Y-52936142D01*
D10*
%TO.C,B+*%
X124385428Y-45931142D02*
X124471142Y-45959714D01*
X124499714Y-45988285D01*
X124528285Y-46045428D01*
X124528285Y-46131142D01*
X124499714Y-46188285D01*
X124471142Y-46216857D01*
X124414000Y-46245428D01*
X124185428Y-46245428D01*
X124185428Y-45645428D01*
X124385428Y-45645428D01*
X124442571Y-45674000D01*
X124471142Y-45702571D01*
X124499714Y-45759714D01*
X124499714Y-45816857D01*
X124471142Y-45874000D01*
X124442571Y-45902571D01*
X124385428Y-45931142D01*
X124185428Y-45931142D01*
X124785428Y-46016857D02*
X125242571Y-46016857D01*
X125014000Y-46245428D02*
X125014000Y-45788285D01*
%TO.C,B-*%
X112701428Y-45931142D02*
X112787142Y-45959714D01*
X112815714Y-45988285D01*
X112844285Y-46045428D01*
X112844285Y-46131142D01*
X112815714Y-46188285D01*
X112787142Y-46216857D01*
X112730000Y-46245428D01*
X112501428Y-46245428D01*
X112501428Y-45645428D01*
X112701428Y-45645428D01*
X112758571Y-45674000D01*
X112787142Y-45702571D01*
X112815714Y-45759714D01*
X112815714Y-45816857D01*
X112787142Y-45874000D01*
X112758571Y-45902571D01*
X112701428Y-45931142D01*
X112501428Y-45931142D01*
X113101428Y-46016857D02*
X113558571Y-46016857D01*
%TO.C,RSW1*%
X77795619Y-22550380D02*
X77462285Y-22074190D01*
X77224190Y-22550380D02*
X77224190Y-21550380D01*
X77605142Y-21550380D01*
X77700380Y-21598000D01*
X77748000Y-21645619D01*
X77795619Y-21740857D01*
X77795619Y-21883714D01*
X77748000Y-21978952D01*
X77700380Y-22026571D01*
X77605142Y-22074190D01*
X77224190Y-22074190D01*
X78224190Y-22026571D02*
X78557523Y-22026571D01*
X78700380Y-22550380D02*
X78224190Y-22550380D01*
X78224190Y-21550380D01*
X78700380Y-21550380D01*
X79081333Y-22502761D02*
X79224190Y-22550380D01*
X79462285Y-22550380D01*
X79557523Y-22502761D01*
X79605142Y-22455142D01*
X79652761Y-22359904D01*
X79652761Y-22264666D01*
X79605142Y-22169428D01*
X79557523Y-22121809D01*
X79462285Y-22074190D01*
X79271809Y-22026571D01*
X79176571Y-21978952D01*
X79128952Y-21931333D01*
X79081333Y-21836095D01*
X79081333Y-21740857D01*
X79128952Y-21645619D01*
X79176571Y-21598000D01*
X79271809Y-21550380D01*
X79509904Y-21550380D01*
X79652761Y-21598000D01*
X80081333Y-22026571D02*
X80414666Y-22026571D01*
X80557523Y-22550380D02*
X80081333Y-22550380D01*
X80081333Y-21550380D01*
X80557523Y-21550380D01*
X80843238Y-21550380D02*
X81414666Y-21550380D01*
X81128952Y-22550380D02*
X81128952Y-21550380D01*
%TO.C,U1*%
D14*
X112744333Y-55723285D02*
X112911000Y-56473285D01*
X113077666Y-55723285D01*
X113530047Y-56401857D02*
X113506238Y-56437571D01*
X113434809Y-56473285D01*
X113387190Y-56473285D01*
X113315761Y-56437571D01*
X113268142Y-56366142D01*
X113244333Y-56294714D01*
X113220523Y-56151857D01*
X113220523Y-56044714D01*
X113244333Y-55901857D01*
X113268142Y-55830428D01*
X113315761Y-55759000D01*
X113387190Y-55723285D01*
X113434809Y-55723285D01*
X113506238Y-55759000D01*
X113530047Y-55794714D01*
X114030047Y-56401857D02*
X114006238Y-56437571D01*
X113934809Y-56473285D01*
X113887190Y-56473285D01*
X113815761Y-56437571D01*
X113768142Y-56366142D01*
X113744333Y-56294714D01*
X113720523Y-56151857D01*
X113720523Y-56044714D01*
X113744333Y-55901857D01*
X113768142Y-55830428D01*
X113815761Y-55759000D01*
X113887190Y-55723285D01*
X113934809Y-55723285D01*
X114006238Y-55759000D01*
X114030047Y-55794714D01*
X113065761Y-48853285D02*
X112899095Y-48496142D01*
X112780047Y-48853285D02*
X112780047Y-48103285D01*
X112970523Y-48103285D01*
X113018142Y-48139000D01*
X113041952Y-48174714D01*
X113065761Y-48246142D01*
X113065761Y-48353285D01*
X113041952Y-48424714D01*
X113018142Y-48460428D01*
X112970523Y-48496142D01*
X112780047Y-48496142D01*
X113256238Y-48639000D02*
X113494333Y-48639000D01*
X113208619Y-48853285D02*
X113375285Y-48103285D01*
X113541952Y-48853285D01*
X113661000Y-48103285D02*
X113780047Y-48853285D01*
X113875285Y-48317571D01*
X113970523Y-48853285D01*
X114089571Y-48103285D01*
X113137190Y-53996785D02*
X112970523Y-53639642D01*
X112851476Y-53996785D02*
X112851476Y-53246785D01*
X113041952Y-53246785D01*
X113089571Y-53282500D01*
X113113380Y-53318214D01*
X113137190Y-53389642D01*
X113137190Y-53496785D01*
X113113380Y-53568214D01*
X113089571Y-53603928D01*
X113041952Y-53639642D01*
X112851476Y-53639642D01*
X113327666Y-53961071D02*
X113399095Y-53996785D01*
X113518142Y-53996785D01*
X113565761Y-53961071D01*
X113589571Y-53925357D01*
X113613380Y-53853928D01*
X113613380Y-53782500D01*
X113589571Y-53711071D01*
X113565761Y-53675357D01*
X113518142Y-53639642D01*
X113422904Y-53603928D01*
X113375285Y-53568214D01*
X113351476Y-53532500D01*
X113327666Y-53461071D01*
X113327666Y-53389642D01*
X113351476Y-53318214D01*
X113375285Y-53282500D01*
X113422904Y-53246785D01*
X113541952Y-53246785D01*
X113613380Y-53282500D01*
X113756238Y-53246785D02*
X114041952Y-53246785D01*
X113899095Y-53996785D02*
X113899095Y-53246785D01*
X113030047Y-50679000D02*
X112982428Y-50643285D01*
X112911000Y-50643285D01*
X112839571Y-50679000D01*
X112791952Y-50750428D01*
X112768142Y-50821857D01*
X112744333Y-50964714D01*
X112744333Y-51071857D01*
X112768142Y-51214714D01*
X112791952Y-51286142D01*
X112839571Y-51357571D01*
X112911000Y-51393285D01*
X112958619Y-51393285D01*
X113030047Y-51357571D01*
X113053857Y-51321857D01*
X113053857Y-51071857D01*
X112958619Y-51071857D01*
X113268142Y-51393285D02*
X113268142Y-50643285D01*
X113553857Y-51393285D01*
X113553857Y-50643285D01*
X113791952Y-51393285D02*
X113791952Y-50643285D01*
X113911000Y-50643285D01*
X113982428Y-50679000D01*
X114030047Y-50750428D01*
X114053857Y-50821857D01*
X114077666Y-50964714D01*
X114077666Y-51071857D01*
X114053857Y-51214714D01*
X114030047Y-51286142D01*
X113982428Y-51357571D01*
X113911000Y-51393285D01*
X113791952Y-51393285D01*
D10*
%TO.C,B+*%
X125492000Y-46974000D02*
X127492000Y-46974000D01*
X127492000Y-46974000D02*
X127492000Y-44974000D01*
X125492000Y-44974000D02*
X125492000Y-46974000D01*
X127492000Y-44974000D02*
X125492000Y-44974000D01*
%TO.C,B-*%
X112252000Y-46974000D02*
X112252000Y-44974000D01*
X110252000Y-46974000D02*
X112252000Y-46974000D01*
X112252000Y-44974000D02*
X110252000Y-44974000D01*
X110252000Y-44974000D02*
X110252000Y-46974000D01*
%TO.C,J2*%
X123698000Y-85800000D02*
X111598000Y-85800000D01*
X125698000Y-85550000D02*
X125698000Y-79950000D01*
X123698000Y-79950000D02*
X125698000Y-79950000D01*
X123698000Y-85800000D02*
X123698000Y-79700000D01*
X123698000Y-85550000D02*
X125698000Y-85550000D01*
X111598000Y-85800000D02*
X111598000Y-79700000D01*
X123698000Y-79700000D02*
X111598000Y-79700000D01*
%TO.C,RSW1*%
X76248000Y-23848000D02*
X82248000Y-23848000D01*
X82248000Y-23848000D02*
X82248000Y-23598000D01*
X76248000Y-20348000D02*
X76248000Y-20598000D01*
X76248000Y-20348000D02*
X82248000Y-20348000D01*
X82248000Y-20348000D02*
X82248000Y-20598000D01*
X76248000Y-23848000D02*
X76248000Y-23598000D01*
%TO.C,U1*%
X112268000Y-77724000D02*
X125603000Y-77724000D01*
X112268000Y-47244000D02*
X125603000Y-47244000D01*
X127508000Y-77724000D02*
X125603000Y-77724000D01*
X125603000Y-47244000D02*
X127508000Y-47244000D01*
X125603000Y-77724000D02*
X125603000Y-47244000D01*
X127508000Y-47244000D02*
X127508000Y-77724000D01*
X112268000Y-47244000D02*
X112268000Y-77724000D01*
X112268000Y-77724000D02*
X110363000Y-77724000D01*
X110363000Y-77724000D02*
X110363000Y-47244000D01*
X110363000Y-47244000D02*
X112268000Y-47244000D01*
%TD*%
D15*
%TO.C,B+*%
X126492000Y-45974000D03*
%TD*%
%TO.C,B-*%
X111252000Y-45974000D03*
%TD*%
D16*
%TO.C,RSW1*%
X82498000Y-22098000D03*
X75998000Y-22098000D03*
%TD*%
D17*
%TO.C,U1*%
X126528400Y-48514000D03*
X126528400Y-51054000D03*
X126528400Y-53594000D03*
X126528400Y-56134000D03*
X126528400Y-58674000D03*
X126528400Y-61214000D03*
X126528400Y-63754000D03*
X126528400Y-66294000D03*
X126528400Y-68834000D03*
X126528400Y-71374000D03*
X126528400Y-73914000D03*
X126528400Y-76454000D03*
X111308400Y-76454000D03*
X111308400Y-73914000D03*
X111308400Y-71374000D03*
X111308400Y-68834000D03*
X111308400Y-66294000D03*
X111308400Y-63754000D03*
X111308400Y-61214000D03*
X111308400Y-58674000D03*
X111308400Y-56134000D03*
X111308400Y-53594000D03*
X111308400Y-51054000D03*
X111308400Y-48514000D03*
%TD*%
M02*
