%TF.GenerationSoftware,KiCad,Pcbnew,(6.0.4-0)*%
%TF.CreationDate,2022-12-22T20:07:12-07:00*%
%TF.ProjectId,half-swept,68616c66-2d73-4776-9570-742e6b696361,rev?*%
%TF.SameCoordinates,Original*%
%TF.FileFunction,Soldermask,Bot*%
%TF.FilePolarity,Negative*%
%FSLAX46Y46*%
G04 Gerber Fmt 4.6, Leading zero omitted, Abs format (unit mm)*
G04 Created by KiCad (PCBNEW (6.0.4-0)) date 2022-12-22 20:07:12*
%MOMM*%
%LPD*%
G01*
G04 APERTURE LIST*
%ADD10C,0.002000*%
%ADD11C,1.397000*%
%ADD12C,0.800000*%
%ADD13O,2.000000X1.600000*%
%ADD14C,2.000000*%
%ADD15C,0.990600*%
%ADD16C,1.701800*%
%ADD17C,3.429000*%
%ADD18C,2.032000*%
%ADD19C,1.524000*%
%ADD20C,1.000000*%
%ADD21R,0.900000X0.900000*%
%ADD22R,0.900000X1.250000*%
G04 APERTURE END LIST*
D10*
G36*
X55567873Y-74734369D02*
G01*
X55739193Y-74929784D01*
X55914981Y-75120888D01*
X56095153Y-75307609D01*
X56279623Y-75489876D01*
X56468306Y-75667618D01*
X56661118Y-75840764D01*
X56857973Y-76009244D01*
X57058786Y-76172985D01*
X57263473Y-76331918D01*
X57471948Y-76485970D01*
X57684125Y-76635071D01*
X57899921Y-76779151D01*
X58119250Y-76918137D01*
X58342027Y-77051958D01*
X58568166Y-77180545D01*
X58568167Y-77180545D01*
X58568167Y-77180546D01*
X59004951Y-77415185D01*
X59445657Y-77642127D01*
X59890181Y-77861324D01*
X60338422Y-78072728D01*
X60790278Y-78276294D01*
X61245645Y-78471974D01*
X61704422Y-78659720D01*
X62166506Y-78839485D01*
X62068605Y-78958546D01*
X61958555Y-79099891D01*
X61850986Y-79241981D01*
X61746393Y-79384566D01*
X61695368Y-79455968D01*
X61645273Y-79527400D01*
X61235278Y-79375928D01*
X60830217Y-79212485D01*
X60430349Y-79037197D01*
X60035930Y-78850191D01*
X59647218Y-78651594D01*
X59264471Y-78441534D01*
X58887946Y-78220136D01*
X58517901Y-77987527D01*
X58850892Y-78265335D01*
X59187485Y-78538676D01*
X59527634Y-78807518D01*
X59871295Y-79071826D01*
X60218422Y-79331565D01*
X60568970Y-79586700D01*
X60922893Y-79837199D01*
X61280147Y-80083026D01*
X61246868Y-80138588D01*
X61214332Y-80194150D01*
X61150501Y-80305275D01*
X60669905Y-79981037D01*
X60229710Y-79678874D01*
X59829140Y-79398540D01*
X59467420Y-79139786D01*
X59143776Y-78902363D01*
X58857432Y-78686025D01*
X58607612Y-78490523D01*
X58393542Y-78315609D01*
X58082646Y-78053743D01*
X57707196Y-77724843D01*
X57502531Y-77536321D01*
X57290447Y-77332320D01*
X57073851Y-77113264D01*
X56855652Y-76879582D01*
X56638754Y-76631700D01*
X56426066Y-76370042D01*
X56220493Y-76095037D01*
X56024943Y-75807110D01*
X55842323Y-75506688D01*
X55756769Y-75351925D01*
X55675539Y-75194197D01*
X55598993Y-75033559D01*
X55527498Y-74870063D01*
X55461414Y-74703763D01*
X55401106Y-74534713D01*
X55567873Y-74734369D01*
G37*
X55567873Y-74734369D02*
X55739193Y-74929784D01*
X55914981Y-75120888D01*
X56095153Y-75307609D01*
X56279623Y-75489876D01*
X56468306Y-75667618D01*
X56661118Y-75840764D01*
X56857973Y-76009244D01*
X57058786Y-76172985D01*
X57263473Y-76331918D01*
X57471948Y-76485970D01*
X57684125Y-76635071D01*
X57899921Y-76779151D01*
X58119250Y-76918137D01*
X58342027Y-77051958D01*
X58568166Y-77180545D01*
X58568167Y-77180545D01*
X58568167Y-77180546D01*
X59004951Y-77415185D01*
X59445657Y-77642127D01*
X59890181Y-77861324D01*
X60338422Y-78072728D01*
X60790278Y-78276294D01*
X61245645Y-78471974D01*
X61704422Y-78659720D01*
X62166506Y-78839485D01*
X62068605Y-78958546D01*
X61958555Y-79099891D01*
X61850986Y-79241981D01*
X61746393Y-79384566D01*
X61695368Y-79455968D01*
X61645273Y-79527400D01*
X61235278Y-79375928D01*
X60830217Y-79212485D01*
X60430349Y-79037197D01*
X60035930Y-78850191D01*
X59647218Y-78651594D01*
X59264471Y-78441534D01*
X58887946Y-78220136D01*
X58517901Y-77987527D01*
X58850892Y-78265335D01*
X59187485Y-78538676D01*
X59527634Y-78807518D01*
X59871295Y-79071826D01*
X60218422Y-79331565D01*
X60568970Y-79586700D01*
X60922893Y-79837199D01*
X61280147Y-80083026D01*
X61246868Y-80138588D01*
X61214332Y-80194150D01*
X61150501Y-80305275D01*
X60669905Y-79981037D01*
X60229710Y-79678874D01*
X59829140Y-79398540D01*
X59467420Y-79139786D01*
X59143776Y-78902363D01*
X58857432Y-78686025D01*
X58607612Y-78490523D01*
X58393542Y-78315609D01*
X58082646Y-78053743D01*
X57707196Y-77724843D01*
X57502531Y-77536321D01*
X57290447Y-77332320D01*
X57073851Y-77113264D01*
X56855652Y-76879582D01*
X56638754Y-76631700D01*
X56426066Y-76370042D01*
X56220493Y-76095037D01*
X56024943Y-75807110D01*
X55842323Y-75506688D01*
X55756769Y-75351925D01*
X55675539Y-75194197D01*
X55598993Y-75033559D01*
X55527498Y-74870063D01*
X55461414Y-74703763D01*
X55401106Y-74534713D01*
X55567873Y-74734369D01*
G36*
X61509961Y-80238426D02*
G01*
X61627080Y-80314866D01*
X61680694Y-80348885D01*
X61730805Y-80379896D01*
X61777257Y-80407744D01*
X61819895Y-80432275D01*
X62152878Y-80638330D01*
X62654656Y-80964997D01*
X63943838Y-81826629D01*
X66119374Y-83308296D01*
X66260975Y-83411439D01*
X66427299Y-83541728D01*
X66819156Y-83868550D01*
X67265025Y-84258377D01*
X67734987Y-84680821D01*
X68627501Y-85502022D01*
X69257333Y-86089066D01*
X69275854Y-86300732D01*
X68906207Y-85962854D01*
X68532079Y-85630050D01*
X68153520Y-85302363D01*
X67770584Y-84979838D01*
X67383324Y-84662518D01*
X66991793Y-84350447D01*
X66596042Y-84043668D01*
X66196124Y-83742226D01*
X65824533Y-83465200D01*
X65389381Y-83151246D01*
X64429351Y-82479159D01*
X63517942Y-81859164D01*
X62857063Y-81424462D01*
X62409586Y-81137430D01*
X61997828Y-80868506D01*
X61612860Y-80612976D01*
X61245750Y-80366128D01*
X61269562Y-80331733D01*
X61295856Y-80286134D01*
X61309374Y-80263412D01*
X61323141Y-80240783D01*
X61337156Y-80218278D01*
X61351418Y-80195928D01*
X61365929Y-80173764D01*
X61380688Y-80151817D01*
X61509961Y-80238426D01*
G37*
X61509961Y-80238426D02*
X61627080Y-80314866D01*
X61680694Y-80348885D01*
X61730805Y-80379896D01*
X61777257Y-80407744D01*
X61819895Y-80432275D01*
X62152878Y-80638330D01*
X62654656Y-80964997D01*
X63943838Y-81826629D01*
X66119374Y-83308296D01*
X66260975Y-83411439D01*
X66427299Y-83541728D01*
X66819156Y-83868550D01*
X67265025Y-84258377D01*
X67734987Y-84680821D01*
X68627501Y-85502022D01*
X69257333Y-86089066D01*
X69275854Y-86300732D01*
X68906207Y-85962854D01*
X68532079Y-85630050D01*
X68153520Y-85302363D01*
X67770584Y-84979838D01*
X67383324Y-84662518D01*
X66991793Y-84350447D01*
X66596042Y-84043668D01*
X66196124Y-83742226D01*
X65824533Y-83465200D01*
X65389381Y-83151246D01*
X64429351Y-82479159D01*
X63517942Y-81859164D01*
X62857063Y-81424462D01*
X62409586Y-81137430D01*
X61997828Y-80868506D01*
X61612860Y-80612976D01*
X61245750Y-80366128D01*
X61269562Y-80331733D01*
X61295856Y-80286134D01*
X61309374Y-80263412D01*
X61323141Y-80240783D01*
X61337156Y-80218278D01*
X61351418Y-80195928D01*
X61365929Y-80173764D01*
X61380688Y-80151817D01*
X61509961Y-80238426D01*
G36*
X72368833Y-71420567D02*
G01*
X72718083Y-71420567D01*
X72718083Y-71653400D01*
X72368833Y-71653400D01*
X72368833Y-72002650D01*
X72136000Y-72002650D01*
X72136000Y-71653400D01*
X71789396Y-71653400D01*
X71789396Y-71420567D01*
X72136000Y-71420567D01*
X72136000Y-71071317D01*
X72368833Y-71071317D01*
X72368833Y-71420567D01*
G37*
X72368833Y-71420567D02*
X72718083Y-71420567D01*
X72718083Y-71653400D01*
X72368833Y-71653400D01*
X72368833Y-72002650D01*
X72136000Y-72002650D01*
X72136000Y-71653400D01*
X71789396Y-71653400D01*
X71789396Y-71420567D01*
X72136000Y-71420567D01*
X72136000Y-71071317D01*
X72368833Y-71071317D01*
X72368833Y-71420567D01*
G36*
X62850117Y-79101545D02*
G01*
X63390859Y-79298205D01*
X63906797Y-79476509D01*
X64389000Y-79633233D01*
X65679753Y-80046314D01*
X66527195Y-80335516D01*
X67454198Y-80673707D01*
X68419400Y-81056299D01*
X68903400Y-81262811D01*
X69381439Y-81478702D01*
X69848347Y-81703399D01*
X70298954Y-81936328D01*
X70728090Y-82176915D01*
X71130583Y-82424588D01*
X70955958Y-82490733D01*
X70614488Y-82304909D01*
X70267741Y-82129730D01*
X69915968Y-81965302D01*
X69559421Y-81811728D01*
X69198351Y-81669111D01*
X68833010Y-81537557D01*
X68463649Y-81417167D01*
X68090520Y-81308048D01*
X67686193Y-81191945D01*
X67142899Y-81047473D01*
X65799891Y-80705788D01*
X64382468Y-80347732D01*
X63211605Y-80038045D01*
X62881330Y-79943333D01*
X62527987Y-79835970D01*
X62343828Y-79776692D01*
X62155297Y-79713228D01*
X61962859Y-79645238D01*
X61766980Y-79572379D01*
X62153271Y-79061734D01*
X62293500Y-78889754D01*
X62850117Y-79101545D01*
G37*
X62850117Y-79101545D02*
X63390859Y-79298205D01*
X63906797Y-79476509D01*
X64389000Y-79633233D01*
X65679753Y-80046314D01*
X66527195Y-80335516D01*
X67454198Y-80673707D01*
X68419400Y-81056299D01*
X68903400Y-81262811D01*
X69381439Y-81478702D01*
X69848347Y-81703399D01*
X70298954Y-81936328D01*
X70728090Y-82176915D01*
X71130583Y-82424588D01*
X70955958Y-82490733D01*
X70614488Y-82304909D01*
X70267741Y-82129730D01*
X69915968Y-81965302D01*
X69559421Y-81811728D01*
X69198351Y-81669111D01*
X68833010Y-81537557D01*
X68463649Y-81417167D01*
X68090520Y-81308048D01*
X67686193Y-81191945D01*
X67142899Y-81047473D01*
X65799891Y-80705788D01*
X64382468Y-80347732D01*
X63211605Y-80038045D01*
X62881330Y-79943333D01*
X62527987Y-79835970D01*
X62343828Y-79776692D01*
X62155297Y-79713228D01*
X61962859Y-79645238D01*
X61766980Y-79572379D01*
X62153271Y-79061734D01*
X62293500Y-78889754D01*
X62850117Y-79101545D01*
D11*
%TO.C,B+*%
X126492000Y-45974000D03*
%TD*%
%TO.C,B-*%
X111252000Y-45974000D03*
%TD*%
D12*
%TO.C,J2*%
X122098000Y-82750000D03*
X115098000Y-82750000D03*
D13*
X117498000Y-85050000D03*
X117478000Y-80420000D03*
X120478000Y-80420000D03*
X120498000Y-85050000D03*
X112398000Y-80450000D03*
X112378000Y-85020000D03*
X113498000Y-85050000D03*
X113478000Y-80420000D03*
%TD*%
D14*
%TO.C,RSW1*%
X82498000Y-22098000D03*
X75998000Y-22098000D03*
%TD*%
D15*
%TO.C,SW2*%
X21860000Y-41880000D03*
X32300000Y-41880000D03*
D16*
X21580000Y-46080000D03*
D17*
X27080000Y-46080000D03*
D16*
X32580000Y-46080000D03*
D18*
X27080000Y-51980000D03*
X32080000Y-49880000D03*
X22080000Y-49880000D03*
%TD*%
D16*
%TO.C,SW3*%
X39580000Y-34080000D03*
D15*
X50300000Y-29880000D03*
D16*
X50580000Y-34080000D03*
D15*
X39860000Y-29880000D03*
D17*
X45080000Y-34080000D03*
D18*
X45080000Y-39980000D03*
X50080000Y-37880000D03*
X40080000Y-37880000D03*
%TD*%
D16*
%TO.C,SW4*%
X57580000Y-27080000D03*
D15*
X68300000Y-22880000D03*
D16*
X68580000Y-27080000D03*
D17*
X63080000Y-27080000D03*
D15*
X57860000Y-22880000D03*
D18*
X63080000Y-32980000D03*
X58080000Y-30880000D03*
X68080000Y-30880000D03*
%TD*%
D15*
%TO.C,SW5*%
X75860000Y-28380000D03*
D16*
X75580000Y-32580000D03*
X86580000Y-32580000D03*
D17*
X81080000Y-32580000D03*
D15*
X86300000Y-28380000D03*
D18*
X81080000Y-38480000D03*
X76080000Y-36380000D03*
X86080000Y-36380000D03*
%TD*%
D15*
%TO.C,SW6*%
X104300000Y-30880000D03*
D17*
X99080000Y-35080000D03*
D15*
X93860000Y-30880000D03*
D16*
X93580000Y-35080000D03*
X104580000Y-35080000D03*
D18*
X99080000Y-40980000D03*
X94080000Y-38880000D03*
X104080000Y-38880000D03*
%TD*%
D16*
%TO.C,SW8*%
X32580000Y-63080000D03*
X21580000Y-63080000D03*
D15*
X32300000Y-58880000D03*
D17*
X27080000Y-63080000D03*
D15*
X21860000Y-58880000D03*
D18*
X27080000Y-68980000D03*
X22080000Y-66880000D03*
X32080000Y-66880000D03*
%TD*%
D16*
%TO.C,SW9*%
X39580000Y-51054000D03*
X50580000Y-51054000D03*
D17*
X45080000Y-51054000D03*
D15*
X50300000Y-46854000D03*
X39860000Y-46854000D03*
D18*
X45080000Y-56954000D03*
X40080000Y-54854000D03*
X50080000Y-54854000D03*
%TD*%
D17*
%TO.C,SW10*%
X63080000Y-44196000D03*
D16*
X68580000Y-44196000D03*
X57580000Y-44196000D03*
D15*
X57860000Y-39996000D03*
X68300000Y-39996000D03*
D18*
X63080000Y-50096000D03*
X58080000Y-47996000D03*
X68080000Y-47996000D03*
%TD*%
D15*
%TO.C,SW11*%
X86300000Y-45330000D03*
D17*
X81080000Y-49530000D03*
D16*
X86580000Y-49530000D03*
D15*
X75860000Y-45330000D03*
D16*
X75580000Y-49530000D03*
D18*
X81080000Y-55430000D03*
X76080000Y-53330000D03*
X86080000Y-53330000D03*
%TD*%
D15*
%TO.C,SW12*%
X104280000Y-47870000D03*
D16*
X93560000Y-52070000D03*
D15*
X93840000Y-47870000D03*
D17*
X99060000Y-52070000D03*
D16*
X104560000Y-52070000D03*
D18*
X99060000Y-57970000D03*
X94060000Y-55870000D03*
X104060000Y-55870000D03*
%TD*%
D16*
%TO.C,SW14*%
X21580000Y-80080000D03*
D17*
X27080000Y-80080000D03*
D15*
X21860000Y-75880000D03*
D16*
X32580000Y-80080000D03*
D15*
X32300000Y-75880000D03*
D18*
X27080000Y-85980000D03*
X32080000Y-83880000D03*
X22080000Y-83880000D03*
%TD*%
D16*
%TO.C,SW15*%
X39580000Y-68072000D03*
D17*
X45080000Y-68072000D03*
D15*
X39860000Y-63872000D03*
D16*
X50580000Y-68072000D03*
D15*
X50300000Y-63872000D03*
D18*
X45080000Y-73972000D03*
X50080000Y-71872000D03*
X40080000Y-71872000D03*
%TD*%
D15*
%TO.C,SW16*%
X68300000Y-57014000D03*
D17*
X63080000Y-61214000D03*
D16*
X68580000Y-61214000D03*
D15*
X57860000Y-57014000D03*
D16*
X57580000Y-61214000D03*
D18*
X63080000Y-67114000D03*
X58080000Y-65014000D03*
X68080000Y-65014000D03*
%TD*%
D15*
%TO.C,SW17*%
X75860000Y-62348000D03*
D16*
X75580000Y-66548000D03*
D15*
X86300000Y-62348000D03*
D16*
X86580000Y-66548000D03*
D17*
X81080000Y-66548000D03*
D18*
X81080000Y-72448000D03*
X86080000Y-70348000D03*
X76080000Y-70348000D03*
%TD*%
D15*
%TO.C,SW18*%
X93840000Y-64888000D03*
D16*
X104560000Y-69088000D03*
D17*
X99060000Y-69088000D03*
D15*
X104280000Y-64888000D03*
D16*
X93560000Y-69088000D03*
D18*
X99060000Y-74988000D03*
X94060000Y-72888000D03*
X104060000Y-72888000D03*
%TD*%
D15*
%TO.C,SW20*%
X111776653Y-101027307D03*
D16*
X114119140Y-97530000D03*
D17*
X109356000Y-94780000D03*
D16*
X104592860Y-92030000D03*
D15*
X102735347Y-95807307D03*
D18*
X112306000Y-89670450D03*
X106925873Y-88989103D03*
X115586127Y-93989103D03*
%TD*%
D17*
%TO.C,SW21*%
X90796000Y-87030000D03*
D16*
X85483408Y-85606495D03*
D15*
X94751093Y-92437924D03*
D16*
X96108592Y-88453505D03*
D15*
X84666827Y-89735853D03*
D18*
X92323032Y-81331038D03*
X96609142Y-84653577D03*
X86949883Y-82065387D03*
%TD*%
D19*
%TO.C,U1*%
X126528400Y-48514000D03*
X109982000Y-52324000D03*
X126528400Y-51054000D03*
X126528400Y-53594000D03*
X109982000Y-54864000D03*
X109982000Y-57404000D03*
X126528400Y-56134000D03*
X126528400Y-58674000D03*
X109982000Y-59944000D03*
X126528400Y-61214000D03*
X109982000Y-62484000D03*
X126528400Y-63754000D03*
X109982000Y-65024000D03*
X126528400Y-66294000D03*
X109982000Y-67564000D03*
X109982000Y-70104000D03*
X126528400Y-68834000D03*
X126528400Y-71374000D03*
X109982000Y-72644000D03*
X126528400Y-73914000D03*
X109982000Y-75184000D03*
X109982000Y-77724000D03*
X126528400Y-76454000D03*
X125222000Y-77724000D03*
X111308400Y-76454000D03*
X125222000Y-75184000D03*
X111308400Y-73914000D03*
X125222000Y-72644000D03*
X111308400Y-71374000D03*
X111308400Y-68834000D03*
X125222000Y-70104000D03*
X125222000Y-67564000D03*
X111308400Y-66294000D03*
X111308400Y-63754000D03*
X125222000Y-65024000D03*
X111308400Y-61214000D03*
X125222000Y-62484000D03*
X111308400Y-58674000D03*
X125222000Y-59944000D03*
X125222000Y-57404000D03*
X111308400Y-56134000D03*
X111308400Y-53594000D03*
X125222000Y-54864000D03*
X125222000Y-52324000D03*
X111308400Y-51054000D03*
X111308400Y-48514000D03*
X125222000Y-49784000D03*
X109982000Y-49784000D03*
%TD*%
D20*
%TO.C,POWER SW*%
X116864000Y-46228000D03*
X119864000Y-46228000D03*
D21*
X114664000Y-47328000D03*
X122064000Y-45128000D03*
X122064000Y-47328000D03*
X114664000Y-45128000D03*
D22*
X116114000Y-48303000D03*
X119114000Y-48303000D03*
X120614000Y-48303000D03*
%TD*%
M02*
