%TF.GenerationSoftware,KiCad,Pcbnew,(6.0.4-0)*%
%TF.CreationDate,2022-12-22T20:07:12-07:00*%
%TF.ProjectId,half-swept,68616c66-2d73-4776-9570-742e6b696361,rev?*%
%TF.SameCoordinates,Original*%
%TF.FileFunction,Soldermask,Top*%
%TF.FilePolarity,Negative*%
%FSLAX46Y46*%
G04 Gerber Fmt 4.6, Leading zero omitted, Abs format (unit mm)*
G04 Created by KiCad (PCBNEW (6.0.4-0)) date 2022-12-22 20:07:12*
%MOMM*%
%LPD*%
G01*
G04 APERTURE LIST*
%ADD10C,0.002000*%
%ADD11C,1.397000*%
%ADD12C,0.800000*%
%ADD13O,2.000000X1.600000*%
%ADD14C,2.000000*%
%ADD15C,0.990600*%
%ADD16C,1.701800*%
%ADD17C,3.429000*%
%ADD18C,2.032000*%
%ADD19C,1.524000*%
%ADD20R,0.900000X0.900000*%
%ADD21R,0.900000X1.250000*%
%ADD22C,1.000000*%
G04 APERTURE END LIST*
D10*
G36*
X69183249Y-80624532D02*
G01*
X69202365Y-80624291D01*
X69221390Y-80624972D01*
X69240295Y-80626563D01*
X69259048Y-80629055D01*
X69277619Y-80632435D01*
X69295977Y-80636692D01*
X69314091Y-80641816D01*
X69331930Y-80647795D01*
X69349463Y-80654617D01*
X69366661Y-80662273D01*
X69383491Y-80670751D01*
X69399924Y-80680039D01*
X69415928Y-80690126D01*
X69431473Y-80701002D01*
X69446528Y-80712656D01*
X69461062Y-80725075D01*
X69474305Y-80737521D01*
X69486961Y-80750481D01*
X69499019Y-80763932D01*
X69510467Y-80777855D01*
X69521294Y-80792226D01*
X69531486Y-80807025D01*
X69541034Y-80822230D01*
X69549925Y-80837820D01*
X69558147Y-80853772D01*
X69565689Y-80870065D01*
X69572539Y-80886678D01*
X69578685Y-80903588D01*
X69584116Y-80920776D01*
X69588819Y-80938218D01*
X69592784Y-80955893D01*
X69595998Y-80973781D01*
X69408145Y-80973782D01*
X69405431Y-80964913D01*
X69402392Y-80956174D01*
X69399035Y-80947574D01*
X69395364Y-80939120D01*
X69391384Y-80930822D01*
X69387101Y-80922686D01*
X69382521Y-80914721D01*
X69377648Y-80906935D01*
X69372487Y-80899336D01*
X69367046Y-80891933D01*
X69361327Y-80884734D01*
X69355337Y-80877746D01*
X69349082Y-80870978D01*
X69342565Y-80864438D01*
X69335794Y-80858134D01*
X69328772Y-80852074D01*
X69320886Y-80846180D01*
X69312777Y-80840656D01*
X69304459Y-80835505D01*
X69295945Y-80830731D01*
X69287248Y-80826339D01*
X69278380Y-80822333D01*
X69269356Y-80818717D01*
X69260189Y-80815496D01*
X69250891Y-80812674D01*
X69241475Y-80810255D01*
X69231955Y-80808243D01*
X69222344Y-80806643D01*
X69212655Y-80805460D01*
X69202901Y-80804696D01*
X69193095Y-80804358D01*
X69183250Y-80804448D01*
X69176368Y-80804342D01*
X69169499Y-80804453D01*
X69162647Y-80804781D01*
X69155817Y-80805324D01*
X69149015Y-80806083D01*
X69142244Y-80807054D01*
X69135511Y-80808238D01*
X69128821Y-80809633D01*
X69122177Y-80811238D01*
X69115586Y-80813052D01*
X69109052Y-80815074D01*
X69102580Y-80817303D01*
X69096175Y-80819737D01*
X69089843Y-80822376D01*
X69083588Y-80825217D01*
X69077416Y-80828261D01*
X69071799Y-80830906D01*
X69066276Y-80833717D01*
X69060849Y-80836693D01*
X69055523Y-80839831D01*
X69050301Y-80843128D01*
X69045186Y-80846581D01*
X69040181Y-80850188D01*
X69035291Y-80853946D01*
X69030518Y-80857852D01*
X69025866Y-80861904D01*
X69021338Y-80866098D01*
X69016939Y-80870432D01*
X69012670Y-80874904D01*
X69008537Y-80879510D01*
X69004541Y-80884248D01*
X69000687Y-80889115D01*
X68996333Y-80894409D01*
X68992173Y-80899837D01*
X68988209Y-80905396D01*
X68984445Y-80911080D01*
X68980882Y-80916883D01*
X68977523Y-80922799D01*
X68974370Y-80928824D01*
X68971427Y-80934951D01*
X68968695Y-80941176D01*
X68966178Y-80947492D01*
X68963877Y-80953895D01*
X68961795Y-80960379D01*
X68959934Y-80966937D01*
X68958298Y-80973566D01*
X68956889Y-80980258D01*
X68955709Y-80987010D01*
X68953652Y-81016414D01*
X68952182Y-81045845D01*
X68951301Y-81075293D01*
X68951007Y-81104750D01*
X68951301Y-81134207D01*
X68952183Y-81163655D01*
X68953652Y-81193086D01*
X68955710Y-81222489D01*
X68955709Y-81368011D01*
X68954915Y-81379243D01*
X68954347Y-81390486D01*
X68954007Y-81401736D01*
X68953894Y-81412989D01*
X68954007Y-81424242D01*
X68954347Y-81435492D01*
X68954915Y-81446735D01*
X68955709Y-81457968D01*
X68956981Y-81464840D01*
X68958469Y-81471655D01*
X68960169Y-81478410D01*
X68962080Y-81485100D01*
X68964200Y-81491718D01*
X68966527Y-81498262D01*
X68969058Y-81504726D01*
X68971792Y-81511105D01*
X68974726Y-81517394D01*
X68977857Y-81523589D01*
X68981185Y-81529685D01*
X68984706Y-81535677D01*
X68988420Y-81541560D01*
X68992322Y-81547330D01*
X68996412Y-81552981D01*
X69000687Y-81558510D01*
X69004446Y-81563353D01*
X69008364Y-81568052D01*
X69012436Y-81572602D01*
X69016658Y-81577000D01*
X69021026Y-81581244D01*
X69025535Y-81585328D01*
X69030181Y-81589251D01*
X69034960Y-81593009D01*
X69039866Y-81596598D01*
X69044895Y-81600015D01*
X69050044Y-81603257D01*
X69055307Y-81606321D01*
X69060681Y-81609202D01*
X69066160Y-81611898D01*
X69071740Y-81614405D01*
X69077417Y-81616719D01*
X69083441Y-81620210D01*
X69089577Y-81623464D01*
X69095818Y-81626479D01*
X69102156Y-81629254D01*
X69108584Y-81631787D01*
X69115096Y-81634076D01*
X69121684Y-81636120D01*
X69128341Y-81637917D01*
X69135061Y-81639464D01*
X69141835Y-81640761D01*
X69148658Y-81641805D01*
X69155522Y-81642595D01*
X69162421Y-81643129D01*
X69169346Y-81643405D01*
X69176291Y-81643422D01*
X69183250Y-81643177D01*
X69202183Y-81642386D01*
X69220782Y-81640128D01*
X69238978Y-81636453D01*
X69256705Y-81631409D01*
X69273894Y-81625044D01*
X69290478Y-81617408D01*
X69306389Y-81608549D01*
X69321559Y-81598515D01*
X69335922Y-81587355D01*
X69349408Y-81575117D01*
X69361951Y-81561850D01*
X69373483Y-81547603D01*
X69383936Y-81532424D01*
X69393242Y-81516362D01*
X69401335Y-81499464D01*
X69408145Y-81481781D01*
X69596000Y-81481781D01*
X69592278Y-81500818D01*
X69587692Y-81519477D01*
X69582267Y-81537742D01*
X69576026Y-81555592D01*
X69568994Y-81573011D01*
X69561195Y-81589979D01*
X69552652Y-81606478D01*
X69543389Y-81622490D01*
X69533430Y-81637995D01*
X69522800Y-81652976D01*
X69511521Y-81667414D01*
X69499619Y-81681291D01*
X69487116Y-81694588D01*
X69474038Y-81707286D01*
X69460407Y-81719368D01*
X69446248Y-81730815D01*
X69431584Y-81741608D01*
X69416440Y-81751729D01*
X69400840Y-81761159D01*
X69384807Y-81769881D01*
X69368365Y-81777874D01*
X69351538Y-81785122D01*
X69334351Y-81791606D01*
X69316827Y-81797306D01*
X69298989Y-81802205D01*
X69280863Y-81806284D01*
X69262472Y-81809525D01*
X69243839Y-81811910D01*
X69224989Y-81813419D01*
X69205946Y-81814034D01*
X69186733Y-81813738D01*
X69167375Y-81812511D01*
X69151318Y-81812346D01*
X69135288Y-81811658D01*
X69119297Y-81810449D01*
X69103358Y-81808720D01*
X69087484Y-81806472D01*
X69071687Y-81803708D01*
X69055980Y-81800429D01*
X69040376Y-81796636D01*
X69026682Y-81792111D01*
X69013187Y-81787069D01*
X68999905Y-81781518D01*
X68986850Y-81775465D01*
X68974037Y-81768916D01*
X68961479Y-81761878D01*
X68949191Y-81754359D01*
X68937188Y-81746366D01*
X68926294Y-81739729D01*
X68915668Y-81732724D01*
X68905317Y-81725359D01*
X68895251Y-81717643D01*
X68885477Y-81709585D01*
X68876003Y-81701193D01*
X68866838Y-81692476D01*
X68857990Y-81683443D01*
X68849467Y-81674103D01*
X68841277Y-81664464D01*
X68833430Y-81654534D01*
X68825932Y-81644324D01*
X68818793Y-81633841D01*
X68812019Y-81623093D01*
X68805621Y-81612091D01*
X68799606Y-81600843D01*
X68775792Y-81550573D01*
X68776023Y-81546939D01*
X68776188Y-81543301D01*
X68776286Y-81539662D01*
X68776319Y-81536021D01*
X68776286Y-81532381D01*
X68776188Y-81528742D01*
X68776023Y-81525104D01*
X68775792Y-81521469D01*
X68775792Y-81487073D01*
X68773745Y-81454027D01*
X68772283Y-81420958D01*
X68771406Y-81387873D01*
X68771114Y-81354781D01*
X68771406Y-81321689D01*
X68772283Y-81288604D01*
X68773744Y-81255535D01*
X68775791Y-81222489D01*
X68775792Y-81050511D01*
X68774996Y-81037623D01*
X68774428Y-81024725D01*
X68774087Y-81011822D01*
X68773973Y-80998916D01*
X68774087Y-80986010D01*
X68774428Y-80973107D01*
X68774996Y-80960211D01*
X68775792Y-80947323D01*
X68776904Y-80939958D01*
X68778205Y-80932632D01*
X68779692Y-80925350D01*
X68781366Y-80918115D01*
X68783224Y-80910929D01*
X68785265Y-80903797D01*
X68787488Y-80896723D01*
X68789891Y-80889709D01*
X68792475Y-80882759D01*
X68795236Y-80875877D01*
X68798175Y-80869066D01*
X68801289Y-80862329D01*
X68804578Y-80855671D01*
X68808040Y-80849094D01*
X68811675Y-80842602D01*
X68815480Y-80836198D01*
X68821634Y-80825052D01*
X68828150Y-80814144D01*
X68835018Y-80803479D01*
X68842232Y-80793068D01*
X68849785Y-80782916D01*
X68857668Y-80773033D01*
X68865874Y-80763426D01*
X68874397Y-80754103D01*
X68883228Y-80745071D01*
X68892361Y-80736339D01*
X68901787Y-80727915D01*
X68911499Y-80719806D01*
X68921490Y-80712020D01*
X68931753Y-80704564D01*
X68942280Y-80697448D01*
X68953063Y-80690679D01*
X68965893Y-80682283D01*
X68979013Y-80674432D01*
X68992404Y-80667131D01*
X69006049Y-80660385D01*
X69019931Y-80654198D01*
X69034033Y-80648576D01*
X69048336Y-80643524D01*
X69062823Y-80639047D01*
X69077477Y-80635150D01*
X69092280Y-80631838D01*
X69107215Y-80629116D01*
X69122264Y-80626989D01*
X69137409Y-80625462D01*
X69152634Y-80624540D01*
X69167919Y-80624228D01*
X69183249Y-80624532D01*
G37*
X69183249Y-80624532D02*
X69202365Y-80624291D01*
X69221390Y-80624972D01*
X69240295Y-80626563D01*
X69259048Y-80629055D01*
X69277619Y-80632435D01*
X69295977Y-80636692D01*
X69314091Y-80641816D01*
X69331930Y-80647795D01*
X69349463Y-80654617D01*
X69366661Y-80662273D01*
X69383491Y-80670751D01*
X69399924Y-80680039D01*
X69415928Y-80690126D01*
X69431473Y-80701002D01*
X69446528Y-80712656D01*
X69461062Y-80725075D01*
X69474305Y-80737521D01*
X69486961Y-80750481D01*
X69499019Y-80763932D01*
X69510467Y-80777855D01*
X69521294Y-80792226D01*
X69531486Y-80807025D01*
X69541034Y-80822230D01*
X69549925Y-80837820D01*
X69558147Y-80853772D01*
X69565689Y-80870065D01*
X69572539Y-80886678D01*
X69578685Y-80903588D01*
X69584116Y-80920776D01*
X69588819Y-80938218D01*
X69592784Y-80955893D01*
X69595998Y-80973781D01*
X69408145Y-80973782D01*
X69405431Y-80964913D01*
X69402392Y-80956174D01*
X69399035Y-80947574D01*
X69395364Y-80939120D01*
X69391384Y-80930822D01*
X69387101Y-80922686D01*
X69382521Y-80914721D01*
X69377648Y-80906935D01*
X69372487Y-80899336D01*
X69367046Y-80891933D01*
X69361327Y-80884734D01*
X69355337Y-80877746D01*
X69349082Y-80870978D01*
X69342565Y-80864438D01*
X69335794Y-80858134D01*
X69328772Y-80852074D01*
X69320886Y-80846180D01*
X69312777Y-80840656D01*
X69304459Y-80835505D01*
X69295945Y-80830731D01*
X69287248Y-80826339D01*
X69278380Y-80822333D01*
X69269356Y-80818717D01*
X69260189Y-80815496D01*
X69250891Y-80812674D01*
X69241475Y-80810255D01*
X69231955Y-80808243D01*
X69222344Y-80806643D01*
X69212655Y-80805460D01*
X69202901Y-80804696D01*
X69193095Y-80804358D01*
X69183250Y-80804448D01*
X69176368Y-80804342D01*
X69169499Y-80804453D01*
X69162647Y-80804781D01*
X69155817Y-80805324D01*
X69149015Y-80806083D01*
X69142244Y-80807054D01*
X69135511Y-80808238D01*
X69128821Y-80809633D01*
X69122177Y-80811238D01*
X69115586Y-80813052D01*
X69109052Y-80815074D01*
X69102580Y-80817303D01*
X69096175Y-80819737D01*
X69089843Y-80822376D01*
X69083588Y-80825217D01*
X69077416Y-80828261D01*
X69071799Y-80830906D01*
X69066276Y-80833717D01*
X69060849Y-80836693D01*
X69055523Y-80839831D01*
X69050301Y-80843128D01*
X69045186Y-80846581D01*
X69040181Y-80850188D01*
X69035291Y-80853946D01*
X69030518Y-80857852D01*
X69025866Y-80861904D01*
X69021338Y-80866098D01*
X69016939Y-80870432D01*
X69012670Y-80874904D01*
X69008537Y-80879510D01*
X69004541Y-80884248D01*
X69000687Y-80889115D01*
X68996333Y-80894409D01*
X68992173Y-80899837D01*
X68988209Y-80905396D01*
X68984445Y-80911080D01*
X68980882Y-80916883D01*
X68977523Y-80922799D01*
X68974370Y-80928824D01*
X68971427Y-80934951D01*
X68968695Y-80941176D01*
X68966178Y-80947492D01*
X68963877Y-80953895D01*
X68961795Y-80960379D01*
X68959934Y-80966937D01*
X68958298Y-80973566D01*
X68956889Y-80980258D01*
X68955709Y-80987010D01*
X68953652Y-81016414D01*
X68952182Y-81045845D01*
X68951301Y-81075293D01*
X68951007Y-81104750D01*
X68951301Y-81134207D01*
X68952183Y-81163655D01*
X68953652Y-81193086D01*
X68955710Y-81222489D01*
X68955709Y-81368011D01*
X68954915Y-81379243D01*
X68954347Y-81390486D01*
X68954007Y-81401736D01*
X68953894Y-81412989D01*
X68954007Y-81424242D01*
X68954347Y-81435492D01*
X68954915Y-81446735D01*
X68955709Y-81457968D01*
X68956981Y-81464840D01*
X68958469Y-81471655D01*
X68960169Y-81478410D01*
X68962080Y-81485100D01*
X68964200Y-81491718D01*
X68966527Y-81498262D01*
X68969058Y-81504726D01*
X68971792Y-81511105D01*
X68974726Y-81517394D01*
X68977857Y-81523589D01*
X68981185Y-81529685D01*
X68984706Y-81535677D01*
X68988420Y-81541560D01*
X68992322Y-81547330D01*
X68996412Y-81552981D01*
X69000687Y-81558510D01*
X69004446Y-81563353D01*
X69008364Y-81568052D01*
X69012436Y-81572602D01*
X69016658Y-81577000D01*
X69021026Y-81581244D01*
X69025535Y-81585328D01*
X69030181Y-81589251D01*
X69034960Y-81593009D01*
X69039866Y-81596598D01*
X69044895Y-81600015D01*
X69050044Y-81603257D01*
X69055307Y-81606321D01*
X69060681Y-81609202D01*
X69066160Y-81611898D01*
X69071740Y-81614405D01*
X69077417Y-81616719D01*
X69083441Y-81620210D01*
X69089577Y-81623464D01*
X69095818Y-81626479D01*
X69102156Y-81629254D01*
X69108584Y-81631787D01*
X69115096Y-81634076D01*
X69121684Y-81636120D01*
X69128341Y-81637917D01*
X69135061Y-81639464D01*
X69141835Y-81640761D01*
X69148658Y-81641805D01*
X69155522Y-81642595D01*
X69162421Y-81643129D01*
X69169346Y-81643405D01*
X69176291Y-81643422D01*
X69183250Y-81643177D01*
X69202183Y-81642386D01*
X69220782Y-81640128D01*
X69238978Y-81636453D01*
X69256705Y-81631409D01*
X69273894Y-81625044D01*
X69290478Y-81617408D01*
X69306389Y-81608549D01*
X69321559Y-81598515D01*
X69335922Y-81587355D01*
X69349408Y-81575117D01*
X69361951Y-81561850D01*
X69373483Y-81547603D01*
X69383936Y-81532424D01*
X69393242Y-81516362D01*
X69401335Y-81499464D01*
X69408145Y-81481781D01*
X69596000Y-81481781D01*
X69592278Y-81500818D01*
X69587692Y-81519477D01*
X69582267Y-81537742D01*
X69576026Y-81555592D01*
X69568994Y-81573011D01*
X69561195Y-81589979D01*
X69552652Y-81606478D01*
X69543389Y-81622490D01*
X69533430Y-81637995D01*
X69522800Y-81652976D01*
X69511521Y-81667414D01*
X69499619Y-81681291D01*
X69487116Y-81694588D01*
X69474038Y-81707286D01*
X69460407Y-81719368D01*
X69446248Y-81730815D01*
X69431584Y-81741608D01*
X69416440Y-81751729D01*
X69400840Y-81761159D01*
X69384807Y-81769881D01*
X69368365Y-81777874D01*
X69351538Y-81785122D01*
X69334351Y-81791606D01*
X69316827Y-81797306D01*
X69298989Y-81802205D01*
X69280863Y-81806284D01*
X69262472Y-81809525D01*
X69243839Y-81811910D01*
X69224989Y-81813419D01*
X69205946Y-81814034D01*
X69186733Y-81813738D01*
X69167375Y-81812511D01*
X69151318Y-81812346D01*
X69135288Y-81811658D01*
X69119297Y-81810449D01*
X69103358Y-81808720D01*
X69087484Y-81806472D01*
X69071687Y-81803708D01*
X69055980Y-81800429D01*
X69040376Y-81796636D01*
X69026682Y-81792111D01*
X69013187Y-81787069D01*
X68999905Y-81781518D01*
X68986850Y-81775465D01*
X68974037Y-81768916D01*
X68961479Y-81761878D01*
X68949191Y-81754359D01*
X68937188Y-81746366D01*
X68926294Y-81739729D01*
X68915668Y-81732724D01*
X68905317Y-81725359D01*
X68895251Y-81717643D01*
X68885477Y-81709585D01*
X68876003Y-81701193D01*
X68866838Y-81692476D01*
X68857990Y-81683443D01*
X68849467Y-81674103D01*
X68841277Y-81664464D01*
X68833430Y-81654534D01*
X68825932Y-81644324D01*
X68818793Y-81633841D01*
X68812019Y-81623093D01*
X68805621Y-81612091D01*
X68799606Y-81600843D01*
X68775792Y-81550573D01*
X68776023Y-81546939D01*
X68776188Y-81543301D01*
X68776286Y-81539662D01*
X68776319Y-81536021D01*
X68776286Y-81532381D01*
X68776188Y-81528742D01*
X68776023Y-81525104D01*
X68775792Y-81521469D01*
X68775792Y-81487073D01*
X68773745Y-81454027D01*
X68772283Y-81420958D01*
X68771406Y-81387873D01*
X68771114Y-81354781D01*
X68771406Y-81321689D01*
X68772283Y-81288604D01*
X68773744Y-81255535D01*
X68775791Y-81222489D01*
X68775792Y-81050511D01*
X68774996Y-81037623D01*
X68774428Y-81024725D01*
X68774087Y-81011822D01*
X68773973Y-80998916D01*
X68774087Y-80986010D01*
X68774428Y-80973107D01*
X68774996Y-80960211D01*
X68775792Y-80947323D01*
X68776904Y-80939958D01*
X68778205Y-80932632D01*
X68779692Y-80925350D01*
X68781366Y-80918115D01*
X68783224Y-80910929D01*
X68785265Y-80903797D01*
X68787488Y-80896723D01*
X68789891Y-80889709D01*
X68792475Y-80882759D01*
X68795236Y-80875877D01*
X68798175Y-80869066D01*
X68801289Y-80862329D01*
X68804578Y-80855671D01*
X68808040Y-80849094D01*
X68811675Y-80842602D01*
X68815480Y-80836198D01*
X68821634Y-80825052D01*
X68828150Y-80814144D01*
X68835018Y-80803479D01*
X68842232Y-80793068D01*
X68849785Y-80782916D01*
X68857668Y-80773033D01*
X68865874Y-80763426D01*
X68874397Y-80754103D01*
X68883228Y-80745071D01*
X68892361Y-80736339D01*
X68901787Y-80727915D01*
X68911499Y-80719806D01*
X68921490Y-80712020D01*
X68931753Y-80704564D01*
X68942280Y-80697448D01*
X68953063Y-80690679D01*
X68965893Y-80682283D01*
X68979013Y-80674432D01*
X68992404Y-80667131D01*
X69006049Y-80660385D01*
X69019931Y-80654198D01*
X69034033Y-80648576D01*
X69048336Y-80643524D01*
X69062823Y-80639047D01*
X69077477Y-80635150D01*
X69092280Y-80631838D01*
X69107215Y-80629116D01*
X69122264Y-80626989D01*
X69137409Y-80625462D01*
X69152634Y-80624540D01*
X69167919Y-80624228D01*
X69183249Y-80624532D01*
G36*
X58832750Y-81479136D02*
G01*
X59340750Y-80627177D01*
X59504792Y-80627177D01*
X59504792Y-81804573D01*
X59327521Y-81804573D01*
X59327521Y-80949969D01*
X58814229Y-81804573D01*
X58652834Y-81804573D01*
X58652833Y-80627177D01*
X58832750Y-80627177D01*
X58832750Y-81479136D01*
G37*
X58832750Y-81479136D02*
X59340750Y-80627177D01*
X59504792Y-80627177D01*
X59504792Y-81804573D01*
X59327521Y-81804573D01*
X59327521Y-80949969D01*
X58814229Y-81804573D01*
X58652834Y-81804573D01*
X58652833Y-80627177D01*
X58832750Y-80627177D01*
X58832750Y-81479136D01*
G36*
X55753000Y-71419678D02*
G01*
X56099604Y-71419678D01*
X56099604Y-71652511D01*
X55753000Y-71652511D01*
X55753000Y-72001761D01*
X55520167Y-72001761D01*
X55520167Y-71652511D01*
X55170917Y-71652511D01*
X55170917Y-71419678D01*
X55520167Y-71419678D01*
X55520167Y-71070428D01*
X55753000Y-71070428D01*
X55753000Y-71419678D01*
G37*
X55753000Y-71419678D02*
X56099604Y-71419678D01*
X56099604Y-71652511D01*
X55753000Y-71652511D01*
X55753000Y-72001761D01*
X55520167Y-72001761D01*
X55520167Y-71652511D01*
X55170917Y-71652511D01*
X55170917Y-71419678D01*
X55520167Y-71419678D01*
X55520167Y-71070428D01*
X55753000Y-71070428D01*
X55753000Y-71419678D01*
G36*
X57349534Y-79782392D02*
G01*
X57414780Y-79290471D01*
X57516861Y-78801530D01*
X57656173Y-78317552D01*
X57833110Y-77840520D01*
X58045309Y-77378094D01*
X58289025Y-76937362D01*
X58562576Y-76519446D01*
X58864281Y-76125469D01*
X59192459Y-75756556D01*
X59545429Y-75413830D01*
X59921510Y-75098412D01*
X60319022Y-74811428D01*
X60736281Y-74554000D01*
X61171609Y-74327251D01*
X61623323Y-74132305D01*
X62089743Y-73970284D01*
X62569187Y-73842313D01*
X63059974Y-73749515D01*
X63560424Y-73693012D01*
X64068855Y-73673928D01*
X64068930Y-73673928D01*
X64416145Y-73682975D01*
X64758798Y-73709277D01*
X65096466Y-73752413D01*
X65428725Y-73811957D01*
X65755154Y-73887488D01*
X66075328Y-73978583D01*
X66388825Y-74084817D01*
X66695222Y-74205769D01*
X66994094Y-74341014D01*
X67285019Y-74490129D01*
X67567575Y-74652693D01*
X67841337Y-74828280D01*
X68105883Y-75016468D01*
X68360790Y-75216835D01*
X68605633Y-75428956D01*
X68839992Y-75652408D01*
X69063441Y-75886770D01*
X69275558Y-76131616D01*
X69475920Y-76386524D01*
X69664103Y-76651072D01*
X69839686Y-76924835D01*
X70002243Y-77207391D01*
X70151353Y-77498316D01*
X70286592Y-77797187D01*
X70407537Y-78103582D01*
X70513764Y-78417076D01*
X70604852Y-78737248D01*
X70680376Y-79063673D01*
X70739913Y-79395928D01*
X70783041Y-79733590D01*
X70809335Y-80076237D01*
X70818374Y-80423445D01*
X70813580Y-80678553D01*
X70799291Y-80931876D01*
X70775646Y-81183203D01*
X70742788Y-81432326D01*
X70700856Y-81679032D01*
X70649990Y-81923113D01*
X70590331Y-82164358D01*
X70522019Y-82402557D01*
X70445195Y-82637500D01*
X70359999Y-82868977D01*
X70266571Y-83096778D01*
X70165053Y-83320691D01*
X70055583Y-83540509D01*
X69938304Y-83756019D01*
X69813355Y-83967013D01*
X69680876Y-84173279D01*
X69541008Y-84374608D01*
X69393892Y-84570790D01*
X69239667Y-84761615D01*
X69078474Y-84946872D01*
X68910455Y-85126351D01*
X68735748Y-85299842D01*
X68554494Y-85467136D01*
X68366835Y-85628021D01*
X68172909Y-85782288D01*
X67972859Y-85929726D01*
X67766823Y-86070126D01*
X67554943Y-86203277D01*
X67337358Y-86328969D01*
X67114210Y-86446993D01*
X66885639Y-86557137D01*
X66651784Y-86659192D01*
X66174752Y-86836129D01*
X65690775Y-86975441D01*
X65201834Y-87077522D01*
X64709913Y-87142768D01*
X64216995Y-87171572D01*
X63725063Y-87164329D01*
X63236100Y-87121433D01*
X62752089Y-87043279D01*
X62275013Y-86930261D01*
X61806855Y-86782774D01*
X61349597Y-86601211D01*
X60905223Y-86385969D01*
X60475716Y-86137440D01*
X60063058Y-85856019D01*
X59669233Y-85542102D01*
X59296224Y-85196081D01*
X58950203Y-84823072D01*
X58636285Y-84429247D01*
X58354864Y-84016590D01*
X58106335Y-83587082D01*
X57891092Y-83142708D01*
X57709530Y-82685451D01*
X57562042Y-82217292D01*
X57449024Y-81740216D01*
X57370870Y-81256205D01*
X57327974Y-80767242D01*
X57322931Y-80424773D01*
X57434237Y-80424773D01*
X57448195Y-80850887D01*
X57490068Y-81275580D01*
X57559856Y-81697430D01*
X57657559Y-82115016D01*
X57783178Y-82526917D01*
X57936711Y-82931711D01*
X58118160Y-83327976D01*
X58327524Y-83714293D01*
X58562416Y-84085641D01*
X58819622Y-84437486D01*
X59097902Y-84769135D01*
X59396014Y-85079894D01*
X59712720Y-85369068D01*
X60046777Y-85635964D01*
X60396947Y-85879887D01*
X60761988Y-86100143D01*
X61140661Y-86296039D01*
X61531725Y-86466880D01*
X61933939Y-86611972D01*
X62346063Y-86730621D01*
X62766857Y-86822133D01*
X63195081Y-86885814D01*
X63629493Y-86920970D01*
X64068855Y-86926907D01*
X64074147Y-86937490D01*
X64383610Y-86930510D01*
X64689619Y-86909197D01*
X64991827Y-86873859D01*
X65289888Y-86824810D01*
X65583453Y-86762358D01*
X65872176Y-86686815D01*
X66155711Y-86598492D01*
X66433708Y-86497699D01*
X66705823Y-86384748D01*
X66971706Y-86259949D01*
X67231012Y-86123613D01*
X67483394Y-85976051D01*
X67728503Y-85817574D01*
X67965993Y-85648492D01*
X68195517Y-85469116D01*
X68416727Y-85279757D01*
X68629277Y-85080726D01*
X68832820Y-84872334D01*
X69027008Y-84654891D01*
X69211494Y-84428709D01*
X69385931Y-84194097D01*
X69549973Y-83951368D01*
X69703271Y-83700831D01*
X69845478Y-83442798D01*
X69976249Y-83177579D01*
X70095235Y-82905486D01*
X70202089Y-82626828D01*
X70296464Y-82341917D01*
X70378014Y-82051064D01*
X70446391Y-81754579D01*
X70501247Y-81452774D01*
X70542237Y-81145958D01*
X70568774Y-80837556D01*
X70580688Y-80531037D01*
X70578250Y-80226780D01*
X70561730Y-79925162D01*
X70531401Y-79626564D01*
X70487534Y-79331363D01*
X70430401Y-79039938D01*
X70360272Y-78752668D01*
X70277420Y-78469932D01*
X70182115Y-78192109D01*
X70074630Y-77919576D01*
X69955235Y-77652713D01*
X69824202Y-77391899D01*
X69681803Y-77137512D01*
X69528308Y-76889931D01*
X69363990Y-76649535D01*
X69189120Y-76416702D01*
X69003968Y-76191810D01*
X68808808Y-75975240D01*
X68603909Y-75767369D01*
X68389545Y-75568576D01*
X68165985Y-75379240D01*
X67933501Y-75199740D01*
X67692365Y-75030454D01*
X67442849Y-74871761D01*
X67185223Y-74724039D01*
X66919760Y-74587668D01*
X66646730Y-74463026D01*
X66366405Y-74350492D01*
X66079056Y-74250445D01*
X65784956Y-74163262D01*
X65484374Y-74089324D01*
X65488222Y-74094488D01*
X65491917Y-74099752D01*
X65495457Y-74105112D01*
X65498842Y-74110564D01*
X65502069Y-74116106D01*
X65505136Y-74121732D01*
X65508043Y-74127441D01*
X65510788Y-74133227D01*
X65513368Y-74139089D01*
X65515783Y-74145023D01*
X65518031Y-74151024D01*
X65520110Y-74157090D01*
X65522019Y-74163216D01*
X65523756Y-74169401D01*
X65525320Y-74175639D01*
X65526708Y-74181928D01*
X65530622Y-74213843D01*
X65535807Y-74245482D01*
X65542249Y-74276810D01*
X65549932Y-74307791D01*
X65558839Y-74338390D01*
X65568955Y-74368571D01*
X65580263Y-74398300D01*
X65592749Y-74427541D01*
X65606395Y-74456258D01*
X65621186Y-74484417D01*
X65637106Y-74511981D01*
X65654139Y-74538916D01*
X65672269Y-74565187D01*
X65691480Y-74590757D01*
X65711756Y-74615592D01*
X65733082Y-74639657D01*
X65733085Y-74639657D01*
X66182826Y-74789125D01*
X66614743Y-74971147D01*
X67027564Y-75184141D01*
X67420016Y-75426521D01*
X67790828Y-75696703D01*
X68138726Y-75993101D01*
X68462438Y-76314132D01*
X68760692Y-76658210D01*
X69032216Y-77023752D01*
X69275736Y-77409171D01*
X69489981Y-77812884D01*
X69673679Y-78233305D01*
X69825556Y-78668851D01*
X69944341Y-79117936D01*
X70028761Y-79578976D01*
X70077544Y-80050387D01*
X70077524Y-80051174D01*
X70077466Y-80051956D01*
X70077370Y-80052731D01*
X70077236Y-80053498D01*
X70077065Y-80054256D01*
X70076857Y-80055004D01*
X70076614Y-80055739D01*
X70076335Y-80056462D01*
X70076021Y-80057170D01*
X70075673Y-80057862D01*
X70075291Y-80058537D01*
X70074876Y-80059194D01*
X70074428Y-80059831D01*
X70073948Y-80060448D01*
X70073436Y-80061042D01*
X70072894Y-80061612D01*
X70072323Y-80062155D01*
X70071729Y-80062667D01*
X70071113Y-80063147D01*
X70070476Y-80063595D01*
X70069819Y-80064010D01*
X70069143Y-80064392D01*
X70068451Y-80064740D01*
X70067743Y-80065053D01*
X70067020Y-80065332D01*
X70066285Y-80065575D01*
X70065537Y-80065782D01*
X70064779Y-80065953D01*
X70064012Y-80066087D01*
X70063236Y-80066183D01*
X70062454Y-80066241D01*
X70061667Y-80066260D01*
X68847229Y-80066260D01*
X68846296Y-80066759D01*
X68845338Y-80067191D01*
X68844361Y-80067557D01*
X68843367Y-80067856D01*
X68842360Y-80068088D01*
X68841343Y-80068255D01*
X68840319Y-80068354D01*
X68839292Y-80068388D01*
X68838265Y-80068354D01*
X68837241Y-80068255D01*
X68836223Y-80068088D01*
X68835216Y-80067856D01*
X68834222Y-80067557D01*
X68833245Y-80067191D01*
X68832288Y-80066759D01*
X68831354Y-80066260D01*
X68815932Y-79889038D01*
X68794096Y-79713459D01*
X68765947Y-79539661D01*
X68731588Y-79367779D01*
X68691123Y-79197949D01*
X68644655Y-79030308D01*
X68592287Y-78864992D01*
X68534121Y-78702137D01*
X68470261Y-78541878D01*
X68400811Y-78384353D01*
X68325872Y-78229697D01*
X68245548Y-78078047D01*
X68159943Y-77929538D01*
X68069158Y-77784307D01*
X67973298Y-77642490D01*
X67872465Y-77504223D01*
X67766762Y-77369642D01*
X67656293Y-77238883D01*
X67541160Y-77112083D01*
X67421467Y-76989377D01*
X67297316Y-76870902D01*
X67168811Y-76756794D01*
X67036054Y-76647189D01*
X66899149Y-76542223D01*
X66758199Y-76442033D01*
X66613306Y-76346754D01*
X66464575Y-76256522D01*
X66312107Y-76171474D01*
X66156006Y-76091746D01*
X65996376Y-76017475D01*
X65833318Y-75948795D01*
X65666936Y-75885843D01*
X65666650Y-75885040D01*
X65666402Y-75884227D01*
X65666192Y-75883406D01*
X65666020Y-75882579D01*
X65665887Y-75881746D01*
X65665791Y-75880909D01*
X65665734Y-75880070D01*
X65665715Y-75879229D01*
X65665734Y-75878388D01*
X65665791Y-75877549D01*
X65665887Y-75876712D01*
X65666020Y-75875880D01*
X65666192Y-75875052D01*
X65666402Y-75874231D01*
X65666650Y-75873418D01*
X65666936Y-75872614D01*
X65666936Y-75772073D01*
X65663911Y-75748405D01*
X65661959Y-75724817D01*
X65661064Y-75701337D01*
X65661209Y-75677993D01*
X65662377Y-75654812D01*
X65664551Y-75631824D01*
X65667715Y-75609054D01*
X65671851Y-75586533D01*
X65676942Y-75564286D01*
X65682972Y-75542342D01*
X65689924Y-75520729D01*
X65697780Y-75499475D01*
X65706524Y-75478608D01*
X65716138Y-75458155D01*
X65726607Y-75438145D01*
X65737913Y-75418604D01*
X65750039Y-75399562D01*
X65762968Y-75381045D01*
X65776683Y-75363083D01*
X65791167Y-75345702D01*
X65806404Y-75328930D01*
X65822377Y-75312796D01*
X65839068Y-75297327D01*
X65856461Y-75282551D01*
X65874538Y-75268496D01*
X65893284Y-75255190D01*
X65912680Y-75242660D01*
X65932710Y-75230935D01*
X65953357Y-75220042D01*
X65974605Y-75210009D01*
X65996436Y-75200864D01*
X66018833Y-75192636D01*
X66069104Y-75179406D01*
X66201395Y-75179406D01*
X66206430Y-75179275D01*
X66211399Y-75178894D01*
X66216295Y-75178268D01*
X66221113Y-75177404D01*
X66225846Y-75176309D01*
X66230489Y-75174987D01*
X66235034Y-75173446D01*
X66239477Y-75171692D01*
X66243810Y-75169730D01*
X66248028Y-75167567D01*
X66252124Y-75165208D01*
X66256093Y-75162661D01*
X66259928Y-75159931D01*
X66263623Y-75157025D01*
X66267172Y-75153948D01*
X66270569Y-75150707D01*
X66273808Y-75147307D01*
X66276882Y-75143756D01*
X66279785Y-75140058D01*
X66282512Y-75136221D01*
X66285056Y-75132250D01*
X66287411Y-75128152D01*
X66289571Y-75123933D01*
X66291530Y-75119598D01*
X66293281Y-75115154D01*
X66294818Y-75110607D01*
X66296136Y-75105964D01*
X66297228Y-75101230D01*
X66298088Y-75096411D01*
X66298710Y-75091515D01*
X66299088Y-75086546D01*
X66299215Y-75081511D01*
X66299088Y-75076476D01*
X66298710Y-75071507D01*
X66298088Y-75066610D01*
X66297228Y-75061791D01*
X66296136Y-75057057D01*
X66294818Y-75052414D01*
X66293281Y-75047867D01*
X66291530Y-75043423D01*
X66289571Y-75039089D01*
X66287411Y-75034869D01*
X66285056Y-75030771D01*
X66282512Y-75026800D01*
X66279785Y-75022963D01*
X66276882Y-75019265D01*
X66273808Y-75015714D01*
X66270569Y-75012314D01*
X66267172Y-75009073D01*
X66263623Y-75005996D01*
X66259928Y-75003090D01*
X66256093Y-75000360D01*
X66252124Y-74997813D01*
X66248028Y-74995455D01*
X66243810Y-74993292D01*
X66239477Y-74991330D01*
X66235034Y-74989575D01*
X66230489Y-74988034D01*
X66225846Y-74986713D01*
X66221113Y-74985617D01*
X66216295Y-74984753D01*
X66211399Y-74984127D01*
X66206430Y-74983746D01*
X66201395Y-74983615D01*
X66177964Y-74980943D01*
X66154645Y-74977639D01*
X66131450Y-74973705D01*
X66108392Y-74969147D01*
X66085483Y-74963969D01*
X66062735Y-74958173D01*
X66040161Y-74951765D01*
X66017773Y-74944749D01*
X65995584Y-74937128D01*
X65973605Y-74928907D01*
X65951850Y-74920089D01*
X65930330Y-74910679D01*
X65909058Y-74900681D01*
X65888046Y-74890099D01*
X65867308Y-74878937D01*
X65846854Y-74867198D01*
X65801875Y-74838094D01*
X65759542Y-74808990D01*
X65725146Y-74779886D01*
X65680167Y-74740199D01*
X65679090Y-74738650D01*
X65677977Y-74737128D01*
X65676830Y-74735635D01*
X65675648Y-74734170D01*
X65674433Y-74732734D01*
X65673184Y-74731328D01*
X65671903Y-74729953D01*
X65670590Y-74728608D01*
X65669245Y-74727295D01*
X65667870Y-74726014D01*
X65666464Y-74724766D01*
X65665028Y-74723550D01*
X65663564Y-74722369D01*
X65662070Y-74721221D01*
X65660549Y-74720109D01*
X65659000Y-74719032D01*
X65611374Y-74663469D01*
X65591289Y-74637760D01*
X65572213Y-74611390D01*
X65554161Y-74584389D01*
X65537144Y-74556788D01*
X65521175Y-74528617D01*
X65506266Y-74499907D01*
X65492430Y-74470688D01*
X65479678Y-74440991D01*
X65468025Y-74410846D01*
X65457482Y-74380285D01*
X65448061Y-74349337D01*
X65439775Y-74318032D01*
X65432636Y-74286402D01*
X65426657Y-74254478D01*
X65421850Y-74222288D01*
X65418229Y-74189865D01*
X65417312Y-74185613D01*
X65416218Y-74181438D01*
X65414952Y-74177344D01*
X65413517Y-74173335D01*
X65411917Y-74169414D01*
X65410159Y-74165585D01*
X65408245Y-74161852D01*
X65406180Y-74158219D01*
X65403969Y-74154688D01*
X65401617Y-74151265D01*
X65399127Y-74147952D01*
X65396504Y-74144753D01*
X65393752Y-74141673D01*
X65390877Y-74138714D01*
X65387882Y-74135881D01*
X65384772Y-74133176D01*
X65381551Y-74130605D01*
X65378224Y-74128170D01*
X65374795Y-74125875D01*
X65371269Y-74123724D01*
X65367649Y-74121721D01*
X65363942Y-74119869D01*
X65360150Y-74118173D01*
X65356279Y-74116635D01*
X65352333Y-74115259D01*
X65348316Y-74114050D01*
X65344233Y-74113010D01*
X65340088Y-74112144D01*
X65335885Y-74111455D01*
X65331630Y-74110948D01*
X65327326Y-74110625D01*
X65322978Y-74110490D01*
X65318571Y-74110603D01*
X65314206Y-74110905D01*
X65309888Y-74111392D01*
X65305622Y-74112060D01*
X65301411Y-74112907D01*
X65297260Y-74113928D01*
X65293175Y-74115119D01*
X65289158Y-74116478D01*
X65285215Y-74118001D01*
X65281350Y-74119683D01*
X65277568Y-74121522D01*
X65273873Y-74123513D01*
X65270269Y-74125654D01*
X65266761Y-74127940D01*
X65263353Y-74130368D01*
X65260050Y-74132935D01*
X65256857Y-74135636D01*
X65253777Y-74138468D01*
X65250815Y-74141428D01*
X65247975Y-74144511D01*
X65245263Y-74147715D01*
X65242682Y-74151036D01*
X65240237Y-74154470D01*
X65237933Y-74158013D01*
X65235773Y-74161662D01*
X65233762Y-74165413D01*
X65231906Y-74169263D01*
X65230207Y-74173208D01*
X65228671Y-74177244D01*
X65227302Y-74181368D01*
X65226104Y-74185576D01*
X65225083Y-74189865D01*
X65222956Y-74218491D01*
X65219888Y-74246975D01*
X65215885Y-74275296D01*
X65210956Y-74303430D01*
X65205107Y-74331357D01*
X65198347Y-74359054D01*
X65190682Y-74386498D01*
X65182119Y-74413669D01*
X65172667Y-74440542D01*
X65162333Y-74467097D01*
X65151123Y-74493311D01*
X65139046Y-74519161D01*
X65126109Y-74544627D01*
X65112318Y-74569685D01*
X65097683Y-74594313D01*
X65082209Y-74618490D01*
X65074970Y-74629267D01*
X65067527Y-74639900D01*
X65059882Y-74650386D01*
X65052037Y-74660723D01*
X65043996Y-74670906D01*
X65035759Y-74680934D01*
X65027329Y-74690803D01*
X65018709Y-74700511D01*
X64994896Y-74726970D01*
X64989063Y-74734000D01*
X64983097Y-74740915D01*
X64977001Y-74747713D01*
X64970776Y-74754392D01*
X64964424Y-74760951D01*
X64957947Y-74767388D01*
X64951347Y-74773700D01*
X64944625Y-74779886D01*
X64910229Y-74808990D01*
X64859959Y-74848678D01*
X64817625Y-74875136D01*
X64783229Y-74898949D01*
X64762070Y-74910619D01*
X64740631Y-74921700D01*
X64718924Y-74932187D01*
X64696963Y-74942076D01*
X64674759Y-74951364D01*
X64652326Y-74960047D01*
X64629675Y-74968120D01*
X64606820Y-74975580D01*
X64583772Y-74982423D01*
X64560544Y-74988645D01*
X64537150Y-74994243D01*
X64513600Y-74999211D01*
X64489908Y-75003547D01*
X64466087Y-75007246D01*
X64442148Y-75010305D01*
X64418105Y-75012719D01*
X64413965Y-75013909D01*
X64409905Y-75015260D01*
X64405930Y-75016767D01*
X64402042Y-75018428D01*
X64394540Y-75022191D01*
X64387424Y-75026517D01*
X64380720Y-75031374D01*
X64374454Y-75036729D01*
X64368649Y-75042551D01*
X64363332Y-75048807D01*
X64358527Y-75055465D01*
X64354261Y-75062492D01*
X64350558Y-75069857D01*
X64347443Y-75077527D01*
X64344942Y-75085470D01*
X64343080Y-75093654D01*
X64342397Y-75097826D01*
X64341883Y-75102046D01*
X64341541Y-75106311D01*
X64341375Y-75110615D01*
X64341482Y-75114888D01*
X64341771Y-75119121D01*
X64342239Y-75123309D01*
X64342883Y-75127447D01*
X64343698Y-75131532D01*
X64344682Y-75135559D01*
X64345832Y-75139524D01*
X64347143Y-75143422D01*
X64348612Y-75147249D01*
X64350235Y-75151002D01*
X64352010Y-75154674D01*
X64353933Y-75158264D01*
X64356000Y-75161765D01*
X64358209Y-75165174D01*
X64360554Y-75168486D01*
X64363034Y-75171698D01*
X64365644Y-75174804D01*
X64368381Y-75177801D01*
X64371241Y-75180684D01*
X64374222Y-75183450D01*
X64377320Y-75186093D01*
X64380531Y-75188609D01*
X64383851Y-75190994D01*
X64387278Y-75193245D01*
X64390808Y-75195356D01*
X64394437Y-75197323D01*
X64398162Y-75199142D01*
X64401980Y-75200808D01*
X64405886Y-75202318D01*
X64409878Y-75203667D01*
X64413953Y-75204851D01*
X64418106Y-75205865D01*
X64468476Y-75211784D01*
X64518140Y-75220505D01*
X64566997Y-75231968D01*
X64614944Y-75246111D01*
X64661879Y-75262874D01*
X64707700Y-75282196D01*
X64752306Y-75304016D01*
X64795593Y-75328273D01*
X64837461Y-75354905D01*
X64877806Y-75383853D01*
X64916528Y-75415055D01*
X64953524Y-75448450D01*
X64988692Y-75483976D01*
X65021930Y-75521574D01*
X65053136Y-75561183D01*
X65082208Y-75602740D01*
X65082495Y-75605711D01*
X65082700Y-75608686D01*
X65082822Y-75611665D01*
X65082863Y-75614646D01*
X65082822Y-75617627D01*
X65082700Y-75620606D01*
X65082495Y-75623582D01*
X65082208Y-75626553D01*
X65086991Y-75632649D01*
X65091548Y-75638905D01*
X65095877Y-75645317D01*
X65099974Y-75651876D01*
X65103834Y-75658578D01*
X65107454Y-75665415D01*
X65110830Y-75672381D01*
X65113958Y-75679470D01*
X65117784Y-75685814D01*
X65121464Y-75692241D01*
X65124997Y-75698747D01*
X65128382Y-75705331D01*
X65131618Y-75711989D01*
X65134703Y-75718719D01*
X65137636Y-75725519D01*
X65140416Y-75732386D01*
X65156290Y-75766782D01*
X65156291Y-75766782D01*
X65167226Y-75796575D01*
X65177129Y-75826697D01*
X65185992Y-75857123D01*
X65193810Y-75887823D01*
X65200576Y-75918773D01*
X65206284Y-75949944D01*
X65210927Y-75981311D01*
X65214500Y-76012845D01*
X65039875Y-80095366D01*
X64428688Y-80095366D01*
X64787198Y-77529899D01*
X65026644Y-75756199D01*
X64906322Y-75732273D01*
X64785481Y-75711484D01*
X64664183Y-75693840D01*
X64542489Y-75679347D01*
X64420460Y-75668011D01*
X64298157Y-75659839D01*
X64175643Y-75654837D01*
X64052977Y-75653012D01*
X63819770Y-75659007D01*
X63589324Y-75676039D01*
X63361908Y-75703859D01*
X63137790Y-75742218D01*
X62917238Y-75790866D01*
X62700520Y-75849554D01*
X62487905Y-75918031D01*
X62279662Y-75996050D01*
X62076057Y-76083360D01*
X61877360Y-76179711D01*
X61683838Y-76284855D01*
X61495760Y-76398542D01*
X61313394Y-76520522D01*
X61137008Y-76650547D01*
X60966871Y-76788366D01*
X60803251Y-76933730D01*
X60646416Y-77086390D01*
X60496634Y-77246096D01*
X60354173Y-77412598D01*
X60219302Y-77585648D01*
X60092289Y-77764996D01*
X59973402Y-77950393D01*
X59862909Y-78141588D01*
X59761079Y-78338332D01*
X59668180Y-78540377D01*
X59584479Y-78747472D01*
X59510247Y-78959369D01*
X59445749Y-79175817D01*
X59391255Y-79396567D01*
X59347034Y-79621370D01*
X59313352Y-79849976D01*
X59290479Y-80082136D01*
X58073396Y-80082136D01*
X58072679Y-80081998D01*
X58071974Y-80081829D01*
X58071283Y-80081630D01*
X58070606Y-80081401D01*
X58069945Y-80081143D01*
X58069299Y-80080858D01*
X58068669Y-80080546D01*
X58068056Y-80080207D01*
X58067461Y-80079843D01*
X58066884Y-80079454D01*
X58066326Y-80079041D01*
X58065788Y-80078605D01*
X58065270Y-80078147D01*
X58064773Y-80077667D01*
X58064298Y-80077166D01*
X58063845Y-80076646D01*
X58063415Y-80076106D01*
X58063008Y-80075549D01*
X58062626Y-80074973D01*
X58062269Y-80074381D01*
X58061937Y-80073773D01*
X58061631Y-80073150D01*
X58061353Y-80072512D01*
X58061102Y-80071861D01*
X58060879Y-80071197D01*
X58060685Y-80070522D01*
X58060521Y-80069835D01*
X58060387Y-80069137D01*
X58060284Y-80068431D01*
X58060213Y-80067715D01*
X58060173Y-80066991D01*
X58060167Y-80066260D01*
X58084920Y-79769487D01*
X58123711Y-79477146D01*
X58176189Y-79189566D01*
X58242006Y-78907076D01*
X58320813Y-78630004D01*
X58412263Y-78358678D01*
X58516005Y-78093426D01*
X58631691Y-77834577D01*
X58758973Y-77582458D01*
X58897502Y-77337397D01*
X59046928Y-77099724D01*
X59206904Y-76869766D01*
X59377081Y-76647852D01*
X59557109Y-76434309D01*
X59746640Y-76229466D01*
X59945326Y-76033651D01*
X60152817Y-75847192D01*
X60368766Y-75670417D01*
X60592822Y-75503656D01*
X60824638Y-75347235D01*
X61063865Y-75201483D01*
X61310154Y-75066729D01*
X61563156Y-74943300D01*
X61822522Y-74831525D01*
X62087904Y-74731731D01*
X62358954Y-74644248D01*
X62635321Y-74569403D01*
X62916659Y-74507525D01*
X63202617Y-74458941D01*
X63492847Y-74423980D01*
X63787001Y-74402971D01*
X64084730Y-74396240D01*
X64201001Y-74397591D01*
X64317192Y-74401206D01*
X64433267Y-74407084D01*
X64549195Y-74415223D01*
X64664942Y-74425618D01*
X64780476Y-74438269D01*
X64895763Y-74453171D01*
X65010770Y-74470323D01*
X65019616Y-74453315D01*
X65028023Y-74436108D01*
X65035987Y-74418713D01*
X65043506Y-74401137D01*
X65050577Y-74383389D01*
X65057199Y-74365477D01*
X65063368Y-74347411D01*
X65069081Y-74329199D01*
X65074336Y-74310849D01*
X65079131Y-74292371D01*
X65083463Y-74273772D01*
X65087329Y-74255063D01*
X65090726Y-74236250D01*
X65093653Y-74217343D01*
X65096106Y-74198351D01*
X65098083Y-74179282D01*
X65098083Y-74166052D01*
X65100740Y-74154886D01*
X65103967Y-74143930D01*
X65107749Y-74133203D01*
X65112073Y-74122725D01*
X65116925Y-74112512D01*
X65122292Y-74102586D01*
X65128160Y-74092964D01*
X65134515Y-74083665D01*
X65141344Y-74074709D01*
X65148633Y-74066113D01*
X65156369Y-74057897D01*
X65164537Y-74050080D01*
X65173125Y-74042681D01*
X65182118Y-74035718D01*
X65191504Y-74029210D01*
X65201268Y-74023177D01*
X65060880Y-73999590D01*
X64920055Y-73979142D01*
X64778844Y-73961837D01*
X64637300Y-73947682D01*
X64495476Y-73936679D01*
X64353425Y-73928834D01*
X64211199Y-73924151D01*
X64068850Y-73922636D01*
X63848628Y-73921909D01*
X63629489Y-73928573D01*
X63411586Y-73942542D01*
X63195076Y-73963729D01*
X62980113Y-73992047D01*
X62766853Y-74027410D01*
X62555450Y-74069731D01*
X62346059Y-74118922D01*
X62138836Y-74174898D01*
X61933935Y-74237572D01*
X61731511Y-74306856D01*
X61531721Y-74382664D01*
X61334718Y-74464909D01*
X61140657Y-74553505D01*
X60949695Y-74648364D01*
X60761985Y-74749400D01*
X60577683Y-74856527D01*
X60396944Y-74969657D01*
X60219923Y-75088704D01*
X60046774Y-75213580D01*
X59877654Y-75344200D01*
X59712717Y-75480476D01*
X59552118Y-75622322D01*
X59396012Y-75769650D01*
X59244554Y-75922375D01*
X59097899Y-76080409D01*
X58956203Y-76243666D01*
X58819620Y-76412059D01*
X58688306Y-76585500D01*
X58562415Y-76763904D01*
X58442102Y-76947184D01*
X58327523Y-77135253D01*
X58118159Y-77521569D01*
X57936710Y-77917835D01*
X57783177Y-78322629D01*
X57657558Y-78734530D01*
X57559855Y-79152116D01*
X57490067Y-79573966D01*
X57448195Y-79998659D01*
X57434237Y-80424773D01*
X57322931Y-80424773D01*
X57320731Y-80275310D01*
X57349534Y-79782392D01*
G37*
X57349534Y-79782392D02*
X57414780Y-79290471D01*
X57516861Y-78801530D01*
X57656173Y-78317552D01*
X57833110Y-77840520D01*
X58045309Y-77378094D01*
X58289025Y-76937362D01*
X58562576Y-76519446D01*
X58864281Y-76125469D01*
X59192459Y-75756556D01*
X59545429Y-75413830D01*
X59921510Y-75098412D01*
X60319022Y-74811428D01*
X60736281Y-74554000D01*
X61171609Y-74327251D01*
X61623323Y-74132305D01*
X62089743Y-73970284D01*
X62569187Y-73842313D01*
X63059974Y-73749515D01*
X63560424Y-73693012D01*
X64068855Y-73673928D01*
X64068930Y-73673928D01*
X64416145Y-73682975D01*
X64758798Y-73709277D01*
X65096466Y-73752413D01*
X65428725Y-73811957D01*
X65755154Y-73887488D01*
X66075328Y-73978583D01*
X66388825Y-74084817D01*
X66695222Y-74205769D01*
X66994094Y-74341014D01*
X67285019Y-74490129D01*
X67567575Y-74652693D01*
X67841337Y-74828280D01*
X68105883Y-75016468D01*
X68360790Y-75216835D01*
X68605633Y-75428956D01*
X68839992Y-75652408D01*
X69063441Y-75886770D01*
X69275558Y-76131616D01*
X69475920Y-76386524D01*
X69664103Y-76651072D01*
X69839686Y-76924835D01*
X70002243Y-77207391D01*
X70151353Y-77498316D01*
X70286592Y-77797187D01*
X70407537Y-78103582D01*
X70513764Y-78417076D01*
X70604852Y-78737248D01*
X70680376Y-79063673D01*
X70739913Y-79395928D01*
X70783041Y-79733590D01*
X70809335Y-80076237D01*
X70818374Y-80423445D01*
X70813580Y-80678553D01*
X70799291Y-80931876D01*
X70775646Y-81183203D01*
X70742788Y-81432326D01*
X70700856Y-81679032D01*
X70649990Y-81923113D01*
X70590331Y-82164358D01*
X70522019Y-82402557D01*
X70445195Y-82637500D01*
X70359999Y-82868977D01*
X70266571Y-83096778D01*
X70165053Y-83320691D01*
X70055583Y-83540509D01*
X69938304Y-83756019D01*
X69813355Y-83967013D01*
X69680876Y-84173279D01*
X69541008Y-84374608D01*
X69393892Y-84570790D01*
X69239667Y-84761615D01*
X69078474Y-84946872D01*
X68910455Y-85126351D01*
X68735748Y-85299842D01*
X68554494Y-85467136D01*
X68366835Y-85628021D01*
X68172909Y-85782288D01*
X67972859Y-85929726D01*
X67766823Y-86070126D01*
X67554943Y-86203277D01*
X67337358Y-86328969D01*
X67114210Y-86446993D01*
X66885639Y-86557137D01*
X66651784Y-86659192D01*
X66174752Y-86836129D01*
X65690775Y-86975441D01*
X65201834Y-87077522D01*
X64709913Y-87142768D01*
X64216995Y-87171572D01*
X63725063Y-87164329D01*
X63236100Y-87121433D01*
X62752089Y-87043279D01*
X62275013Y-86930261D01*
X61806855Y-86782774D01*
X61349597Y-86601211D01*
X60905223Y-86385969D01*
X60475716Y-86137440D01*
X60063058Y-85856019D01*
X59669233Y-85542102D01*
X59296224Y-85196081D01*
X58950203Y-84823072D01*
X58636285Y-84429247D01*
X58354864Y-84016590D01*
X58106335Y-83587082D01*
X57891092Y-83142708D01*
X57709530Y-82685451D01*
X57562042Y-82217292D01*
X57449024Y-81740216D01*
X57370870Y-81256205D01*
X57327974Y-80767242D01*
X57322931Y-80424773D01*
X57434237Y-80424773D01*
X57448195Y-80850887D01*
X57490068Y-81275580D01*
X57559856Y-81697430D01*
X57657559Y-82115016D01*
X57783178Y-82526917D01*
X57936711Y-82931711D01*
X58118160Y-83327976D01*
X58327524Y-83714293D01*
X58562416Y-84085641D01*
X58819622Y-84437486D01*
X59097902Y-84769135D01*
X59396014Y-85079894D01*
X59712720Y-85369068D01*
X60046777Y-85635964D01*
X60396947Y-85879887D01*
X60761988Y-86100143D01*
X61140661Y-86296039D01*
X61531725Y-86466880D01*
X61933939Y-86611972D01*
X62346063Y-86730621D01*
X62766857Y-86822133D01*
X63195081Y-86885814D01*
X63629493Y-86920970D01*
X64068855Y-86926907D01*
X64074147Y-86937490D01*
X64383610Y-86930510D01*
X64689619Y-86909197D01*
X64991827Y-86873859D01*
X65289888Y-86824810D01*
X65583453Y-86762358D01*
X65872176Y-86686815D01*
X66155711Y-86598492D01*
X66433708Y-86497699D01*
X66705823Y-86384748D01*
X66971706Y-86259949D01*
X67231012Y-86123613D01*
X67483394Y-85976051D01*
X67728503Y-85817574D01*
X67965993Y-85648492D01*
X68195517Y-85469116D01*
X68416727Y-85279757D01*
X68629277Y-85080726D01*
X68832820Y-84872334D01*
X69027008Y-84654891D01*
X69211494Y-84428709D01*
X69385931Y-84194097D01*
X69549973Y-83951368D01*
X69703271Y-83700831D01*
X69845478Y-83442798D01*
X69976249Y-83177579D01*
X70095235Y-82905486D01*
X70202089Y-82626828D01*
X70296464Y-82341917D01*
X70378014Y-82051064D01*
X70446391Y-81754579D01*
X70501247Y-81452774D01*
X70542237Y-81145958D01*
X70568774Y-80837556D01*
X70580688Y-80531037D01*
X70578250Y-80226780D01*
X70561730Y-79925162D01*
X70531401Y-79626564D01*
X70487534Y-79331363D01*
X70430401Y-79039938D01*
X70360272Y-78752668D01*
X70277420Y-78469932D01*
X70182115Y-78192109D01*
X70074630Y-77919576D01*
X69955235Y-77652713D01*
X69824202Y-77391899D01*
X69681803Y-77137512D01*
X69528308Y-76889931D01*
X69363990Y-76649535D01*
X69189120Y-76416702D01*
X69003968Y-76191810D01*
X68808808Y-75975240D01*
X68603909Y-75767369D01*
X68389545Y-75568576D01*
X68165985Y-75379240D01*
X67933501Y-75199740D01*
X67692365Y-75030454D01*
X67442849Y-74871761D01*
X67185223Y-74724039D01*
X66919760Y-74587668D01*
X66646730Y-74463026D01*
X66366405Y-74350492D01*
X66079056Y-74250445D01*
X65784956Y-74163262D01*
X65484374Y-74089324D01*
X65488222Y-74094488D01*
X65491917Y-74099752D01*
X65495457Y-74105112D01*
X65498842Y-74110564D01*
X65502069Y-74116106D01*
X65505136Y-74121732D01*
X65508043Y-74127441D01*
X65510788Y-74133227D01*
X65513368Y-74139089D01*
X65515783Y-74145023D01*
X65518031Y-74151024D01*
X65520110Y-74157090D01*
X65522019Y-74163216D01*
X65523756Y-74169401D01*
X65525320Y-74175639D01*
X65526708Y-74181928D01*
X65530622Y-74213843D01*
X65535807Y-74245482D01*
X65542249Y-74276810D01*
X65549932Y-74307791D01*
X65558839Y-74338390D01*
X65568955Y-74368571D01*
X65580263Y-74398300D01*
X65592749Y-74427541D01*
X65606395Y-74456258D01*
X65621186Y-74484417D01*
X65637106Y-74511981D01*
X65654139Y-74538916D01*
X65672269Y-74565187D01*
X65691480Y-74590757D01*
X65711756Y-74615592D01*
X65733082Y-74639657D01*
X65733085Y-74639657D01*
X66182826Y-74789125D01*
X66614743Y-74971147D01*
X67027564Y-75184141D01*
X67420016Y-75426521D01*
X67790828Y-75696703D01*
X68138726Y-75993101D01*
X68462438Y-76314132D01*
X68760692Y-76658210D01*
X69032216Y-77023752D01*
X69275736Y-77409171D01*
X69489981Y-77812884D01*
X69673679Y-78233305D01*
X69825556Y-78668851D01*
X69944341Y-79117936D01*
X70028761Y-79578976D01*
X70077544Y-80050387D01*
X70077524Y-80051174D01*
X70077466Y-80051956D01*
X70077370Y-80052731D01*
X70077236Y-80053498D01*
X70077065Y-80054256D01*
X70076857Y-80055004D01*
X70076614Y-80055739D01*
X70076335Y-80056462D01*
X70076021Y-80057170D01*
X70075673Y-80057862D01*
X70075291Y-80058537D01*
X70074876Y-80059194D01*
X70074428Y-80059831D01*
X70073948Y-80060448D01*
X70073436Y-80061042D01*
X70072894Y-80061612D01*
X70072323Y-80062155D01*
X70071729Y-80062667D01*
X70071113Y-80063147D01*
X70070476Y-80063595D01*
X70069819Y-80064010D01*
X70069143Y-80064392D01*
X70068451Y-80064740D01*
X70067743Y-80065053D01*
X70067020Y-80065332D01*
X70066285Y-80065575D01*
X70065537Y-80065782D01*
X70064779Y-80065953D01*
X70064012Y-80066087D01*
X70063236Y-80066183D01*
X70062454Y-80066241D01*
X70061667Y-80066260D01*
X68847229Y-80066260D01*
X68846296Y-80066759D01*
X68845338Y-80067191D01*
X68844361Y-80067557D01*
X68843367Y-80067856D01*
X68842360Y-80068088D01*
X68841343Y-80068255D01*
X68840319Y-80068354D01*
X68839292Y-80068388D01*
X68838265Y-80068354D01*
X68837241Y-80068255D01*
X68836223Y-80068088D01*
X68835216Y-80067856D01*
X68834222Y-80067557D01*
X68833245Y-80067191D01*
X68832288Y-80066759D01*
X68831354Y-80066260D01*
X68815932Y-79889038D01*
X68794096Y-79713459D01*
X68765947Y-79539661D01*
X68731588Y-79367779D01*
X68691123Y-79197949D01*
X68644655Y-79030308D01*
X68592287Y-78864992D01*
X68534121Y-78702137D01*
X68470261Y-78541878D01*
X68400811Y-78384353D01*
X68325872Y-78229697D01*
X68245548Y-78078047D01*
X68159943Y-77929538D01*
X68069158Y-77784307D01*
X67973298Y-77642490D01*
X67872465Y-77504223D01*
X67766762Y-77369642D01*
X67656293Y-77238883D01*
X67541160Y-77112083D01*
X67421467Y-76989377D01*
X67297316Y-76870902D01*
X67168811Y-76756794D01*
X67036054Y-76647189D01*
X66899149Y-76542223D01*
X66758199Y-76442033D01*
X66613306Y-76346754D01*
X66464575Y-76256522D01*
X66312107Y-76171474D01*
X66156006Y-76091746D01*
X65996376Y-76017475D01*
X65833318Y-75948795D01*
X65666936Y-75885843D01*
X65666650Y-75885040D01*
X65666402Y-75884227D01*
X65666192Y-75883406D01*
X65666020Y-75882579D01*
X65665887Y-75881746D01*
X65665791Y-75880909D01*
X65665734Y-75880070D01*
X65665715Y-75879229D01*
X65665734Y-75878388D01*
X65665791Y-75877549D01*
X65665887Y-75876712D01*
X65666020Y-75875880D01*
X65666192Y-75875052D01*
X65666402Y-75874231D01*
X65666650Y-75873418D01*
X65666936Y-75872614D01*
X65666936Y-75772073D01*
X65663911Y-75748405D01*
X65661959Y-75724817D01*
X65661064Y-75701337D01*
X65661209Y-75677993D01*
X65662377Y-75654812D01*
X65664551Y-75631824D01*
X65667715Y-75609054D01*
X65671851Y-75586533D01*
X65676942Y-75564286D01*
X65682972Y-75542342D01*
X65689924Y-75520729D01*
X65697780Y-75499475D01*
X65706524Y-75478608D01*
X65716138Y-75458155D01*
X65726607Y-75438145D01*
X65737913Y-75418604D01*
X65750039Y-75399562D01*
X65762968Y-75381045D01*
X65776683Y-75363083D01*
X65791167Y-75345702D01*
X65806404Y-75328930D01*
X65822377Y-75312796D01*
X65839068Y-75297327D01*
X65856461Y-75282551D01*
X65874538Y-75268496D01*
X65893284Y-75255190D01*
X65912680Y-75242660D01*
X65932710Y-75230935D01*
X65953357Y-75220042D01*
X65974605Y-75210009D01*
X65996436Y-75200864D01*
X66018833Y-75192636D01*
X66069104Y-75179406D01*
X66201395Y-75179406D01*
X66206430Y-75179275D01*
X66211399Y-75178894D01*
X66216295Y-75178268D01*
X66221113Y-75177404D01*
X66225846Y-75176309D01*
X66230489Y-75174987D01*
X66235034Y-75173446D01*
X66239477Y-75171692D01*
X66243810Y-75169730D01*
X66248028Y-75167567D01*
X66252124Y-75165208D01*
X66256093Y-75162661D01*
X66259928Y-75159931D01*
X66263623Y-75157025D01*
X66267172Y-75153948D01*
X66270569Y-75150707D01*
X66273808Y-75147307D01*
X66276882Y-75143756D01*
X66279785Y-75140058D01*
X66282512Y-75136221D01*
X66285056Y-75132250D01*
X66287411Y-75128152D01*
X66289571Y-75123933D01*
X66291530Y-75119598D01*
X66293281Y-75115154D01*
X66294818Y-75110607D01*
X66296136Y-75105964D01*
X66297228Y-75101230D01*
X66298088Y-75096411D01*
X66298710Y-75091515D01*
X66299088Y-75086546D01*
X66299215Y-75081511D01*
X66299088Y-75076476D01*
X66298710Y-75071507D01*
X66298088Y-75066610D01*
X66297228Y-75061791D01*
X66296136Y-75057057D01*
X66294818Y-75052414D01*
X66293281Y-75047867D01*
X66291530Y-75043423D01*
X66289571Y-75039089D01*
X66287411Y-75034869D01*
X66285056Y-75030771D01*
X66282512Y-75026800D01*
X66279785Y-75022963D01*
X66276882Y-75019265D01*
X66273808Y-75015714D01*
X66270569Y-75012314D01*
X66267172Y-75009073D01*
X66263623Y-75005996D01*
X66259928Y-75003090D01*
X66256093Y-75000360D01*
X66252124Y-74997813D01*
X66248028Y-74995455D01*
X66243810Y-74993292D01*
X66239477Y-74991330D01*
X66235034Y-74989575D01*
X66230489Y-74988034D01*
X66225846Y-74986713D01*
X66221113Y-74985617D01*
X66216295Y-74984753D01*
X66211399Y-74984127D01*
X66206430Y-74983746D01*
X66201395Y-74983615D01*
X66177964Y-74980943D01*
X66154645Y-74977639D01*
X66131450Y-74973705D01*
X66108392Y-74969147D01*
X66085483Y-74963969D01*
X66062735Y-74958173D01*
X66040161Y-74951765D01*
X66017773Y-74944749D01*
X65995584Y-74937128D01*
X65973605Y-74928907D01*
X65951850Y-74920089D01*
X65930330Y-74910679D01*
X65909058Y-74900681D01*
X65888046Y-74890099D01*
X65867308Y-74878937D01*
X65846854Y-74867198D01*
X65801875Y-74838094D01*
X65759542Y-74808990D01*
X65725146Y-74779886D01*
X65680167Y-74740199D01*
X65679090Y-74738650D01*
X65677977Y-74737128D01*
X65676830Y-74735635D01*
X65675648Y-74734170D01*
X65674433Y-74732734D01*
X65673184Y-74731328D01*
X65671903Y-74729953D01*
X65670590Y-74728608D01*
X65669245Y-74727295D01*
X65667870Y-74726014D01*
X65666464Y-74724766D01*
X65665028Y-74723550D01*
X65663564Y-74722369D01*
X65662070Y-74721221D01*
X65660549Y-74720109D01*
X65659000Y-74719032D01*
X65611374Y-74663469D01*
X65591289Y-74637760D01*
X65572213Y-74611390D01*
X65554161Y-74584389D01*
X65537144Y-74556788D01*
X65521175Y-74528617D01*
X65506266Y-74499907D01*
X65492430Y-74470688D01*
X65479678Y-74440991D01*
X65468025Y-74410846D01*
X65457482Y-74380285D01*
X65448061Y-74349337D01*
X65439775Y-74318032D01*
X65432636Y-74286402D01*
X65426657Y-74254478D01*
X65421850Y-74222288D01*
X65418229Y-74189865D01*
X65417312Y-74185613D01*
X65416218Y-74181438D01*
X65414952Y-74177344D01*
X65413517Y-74173335D01*
X65411917Y-74169414D01*
X65410159Y-74165585D01*
X65408245Y-74161852D01*
X65406180Y-74158219D01*
X65403969Y-74154688D01*
X65401617Y-74151265D01*
X65399127Y-74147952D01*
X65396504Y-74144753D01*
X65393752Y-74141673D01*
X65390877Y-74138714D01*
X65387882Y-74135881D01*
X65384772Y-74133176D01*
X65381551Y-74130605D01*
X65378224Y-74128170D01*
X65374795Y-74125875D01*
X65371269Y-74123724D01*
X65367649Y-74121721D01*
X65363942Y-74119869D01*
X65360150Y-74118173D01*
X65356279Y-74116635D01*
X65352333Y-74115259D01*
X65348316Y-74114050D01*
X65344233Y-74113010D01*
X65340088Y-74112144D01*
X65335885Y-74111455D01*
X65331630Y-74110948D01*
X65327326Y-74110625D01*
X65322978Y-74110490D01*
X65318571Y-74110603D01*
X65314206Y-74110905D01*
X65309888Y-74111392D01*
X65305622Y-74112060D01*
X65301411Y-74112907D01*
X65297260Y-74113928D01*
X65293175Y-74115119D01*
X65289158Y-74116478D01*
X65285215Y-74118001D01*
X65281350Y-74119683D01*
X65277568Y-74121522D01*
X65273873Y-74123513D01*
X65270269Y-74125654D01*
X65266761Y-74127940D01*
X65263353Y-74130368D01*
X65260050Y-74132935D01*
X65256857Y-74135636D01*
X65253777Y-74138468D01*
X65250815Y-74141428D01*
X65247975Y-74144511D01*
X65245263Y-74147715D01*
X65242682Y-74151036D01*
X65240237Y-74154470D01*
X65237933Y-74158013D01*
X65235773Y-74161662D01*
X65233762Y-74165413D01*
X65231906Y-74169263D01*
X65230207Y-74173208D01*
X65228671Y-74177244D01*
X65227302Y-74181368D01*
X65226104Y-74185576D01*
X65225083Y-74189865D01*
X65222956Y-74218491D01*
X65219888Y-74246975D01*
X65215885Y-74275296D01*
X65210956Y-74303430D01*
X65205107Y-74331357D01*
X65198347Y-74359054D01*
X65190682Y-74386498D01*
X65182119Y-74413669D01*
X65172667Y-74440542D01*
X65162333Y-74467097D01*
X65151123Y-74493311D01*
X65139046Y-74519161D01*
X65126109Y-74544627D01*
X65112318Y-74569685D01*
X65097683Y-74594313D01*
X65082209Y-74618490D01*
X65074970Y-74629267D01*
X65067527Y-74639900D01*
X65059882Y-74650386D01*
X65052037Y-74660723D01*
X65043996Y-74670906D01*
X65035759Y-74680934D01*
X65027329Y-74690803D01*
X65018709Y-74700511D01*
X64994896Y-74726970D01*
X64989063Y-74734000D01*
X64983097Y-74740915D01*
X64977001Y-74747713D01*
X64970776Y-74754392D01*
X64964424Y-74760951D01*
X64957947Y-74767388D01*
X64951347Y-74773700D01*
X64944625Y-74779886D01*
X64910229Y-74808990D01*
X64859959Y-74848678D01*
X64817625Y-74875136D01*
X64783229Y-74898949D01*
X64762070Y-74910619D01*
X64740631Y-74921700D01*
X64718924Y-74932187D01*
X64696963Y-74942076D01*
X64674759Y-74951364D01*
X64652326Y-74960047D01*
X64629675Y-74968120D01*
X64606820Y-74975580D01*
X64583772Y-74982423D01*
X64560544Y-74988645D01*
X64537150Y-74994243D01*
X64513600Y-74999211D01*
X64489908Y-75003547D01*
X64466087Y-75007246D01*
X64442148Y-75010305D01*
X64418105Y-75012719D01*
X64413965Y-75013909D01*
X64409905Y-75015260D01*
X64405930Y-75016767D01*
X64402042Y-75018428D01*
X64394540Y-75022191D01*
X64387424Y-75026517D01*
X64380720Y-75031374D01*
X64374454Y-75036729D01*
X64368649Y-75042551D01*
X64363332Y-75048807D01*
X64358527Y-75055465D01*
X64354261Y-75062492D01*
X64350558Y-75069857D01*
X64347443Y-75077527D01*
X64344942Y-75085470D01*
X64343080Y-75093654D01*
X64342397Y-75097826D01*
X64341883Y-75102046D01*
X64341541Y-75106311D01*
X64341375Y-75110615D01*
X64341482Y-75114888D01*
X64341771Y-75119121D01*
X64342239Y-75123309D01*
X64342883Y-75127447D01*
X64343698Y-75131532D01*
X64344682Y-75135559D01*
X64345832Y-75139524D01*
X64347143Y-75143422D01*
X64348612Y-75147249D01*
X64350235Y-75151002D01*
X64352010Y-75154674D01*
X64353933Y-75158264D01*
X64356000Y-75161765D01*
X64358209Y-75165174D01*
X64360554Y-75168486D01*
X64363034Y-75171698D01*
X64365644Y-75174804D01*
X64368381Y-75177801D01*
X64371241Y-75180684D01*
X64374222Y-75183450D01*
X64377320Y-75186093D01*
X64380531Y-75188609D01*
X64383851Y-75190994D01*
X64387278Y-75193245D01*
X64390808Y-75195356D01*
X64394437Y-75197323D01*
X64398162Y-75199142D01*
X64401980Y-75200808D01*
X64405886Y-75202318D01*
X64409878Y-75203667D01*
X64413953Y-75204851D01*
X64418106Y-75205865D01*
X64468476Y-75211784D01*
X64518140Y-75220505D01*
X64566997Y-75231968D01*
X64614944Y-75246111D01*
X64661879Y-75262874D01*
X64707700Y-75282196D01*
X64752306Y-75304016D01*
X64795593Y-75328273D01*
X64837461Y-75354905D01*
X64877806Y-75383853D01*
X64916528Y-75415055D01*
X64953524Y-75448450D01*
X64988692Y-75483976D01*
X65021930Y-75521574D01*
X65053136Y-75561183D01*
X65082208Y-75602740D01*
X65082495Y-75605711D01*
X65082700Y-75608686D01*
X65082822Y-75611665D01*
X65082863Y-75614646D01*
X65082822Y-75617627D01*
X65082700Y-75620606D01*
X65082495Y-75623582D01*
X65082208Y-75626553D01*
X65086991Y-75632649D01*
X65091548Y-75638905D01*
X65095877Y-75645317D01*
X65099974Y-75651876D01*
X65103834Y-75658578D01*
X65107454Y-75665415D01*
X65110830Y-75672381D01*
X65113958Y-75679470D01*
X65117784Y-75685814D01*
X65121464Y-75692241D01*
X65124997Y-75698747D01*
X65128382Y-75705331D01*
X65131618Y-75711989D01*
X65134703Y-75718719D01*
X65137636Y-75725519D01*
X65140416Y-75732386D01*
X65156290Y-75766782D01*
X65156291Y-75766782D01*
X65167226Y-75796575D01*
X65177129Y-75826697D01*
X65185992Y-75857123D01*
X65193810Y-75887823D01*
X65200576Y-75918773D01*
X65206284Y-75949944D01*
X65210927Y-75981311D01*
X65214500Y-76012845D01*
X65039875Y-80095366D01*
X64428688Y-80095366D01*
X64787198Y-77529899D01*
X65026644Y-75756199D01*
X64906322Y-75732273D01*
X64785481Y-75711484D01*
X64664183Y-75693840D01*
X64542489Y-75679347D01*
X64420460Y-75668011D01*
X64298157Y-75659839D01*
X64175643Y-75654837D01*
X64052977Y-75653012D01*
X63819770Y-75659007D01*
X63589324Y-75676039D01*
X63361908Y-75703859D01*
X63137790Y-75742218D01*
X62917238Y-75790866D01*
X62700520Y-75849554D01*
X62487905Y-75918031D01*
X62279662Y-75996050D01*
X62076057Y-76083360D01*
X61877360Y-76179711D01*
X61683838Y-76284855D01*
X61495760Y-76398542D01*
X61313394Y-76520522D01*
X61137008Y-76650547D01*
X60966871Y-76788366D01*
X60803251Y-76933730D01*
X60646416Y-77086390D01*
X60496634Y-77246096D01*
X60354173Y-77412598D01*
X60219302Y-77585648D01*
X60092289Y-77764996D01*
X59973402Y-77950393D01*
X59862909Y-78141588D01*
X59761079Y-78338332D01*
X59668180Y-78540377D01*
X59584479Y-78747472D01*
X59510247Y-78959369D01*
X59445749Y-79175817D01*
X59391255Y-79396567D01*
X59347034Y-79621370D01*
X59313352Y-79849976D01*
X59290479Y-80082136D01*
X58073396Y-80082136D01*
X58072679Y-80081998D01*
X58071974Y-80081829D01*
X58071283Y-80081630D01*
X58070606Y-80081401D01*
X58069945Y-80081143D01*
X58069299Y-80080858D01*
X58068669Y-80080546D01*
X58068056Y-80080207D01*
X58067461Y-80079843D01*
X58066884Y-80079454D01*
X58066326Y-80079041D01*
X58065788Y-80078605D01*
X58065270Y-80078147D01*
X58064773Y-80077667D01*
X58064298Y-80077166D01*
X58063845Y-80076646D01*
X58063415Y-80076106D01*
X58063008Y-80075549D01*
X58062626Y-80074973D01*
X58062269Y-80074381D01*
X58061937Y-80073773D01*
X58061631Y-80073150D01*
X58061353Y-80072512D01*
X58061102Y-80071861D01*
X58060879Y-80071197D01*
X58060685Y-80070522D01*
X58060521Y-80069835D01*
X58060387Y-80069137D01*
X58060284Y-80068431D01*
X58060213Y-80067715D01*
X58060173Y-80066991D01*
X58060167Y-80066260D01*
X58084920Y-79769487D01*
X58123711Y-79477146D01*
X58176189Y-79189566D01*
X58242006Y-78907076D01*
X58320813Y-78630004D01*
X58412263Y-78358678D01*
X58516005Y-78093426D01*
X58631691Y-77834577D01*
X58758973Y-77582458D01*
X58897502Y-77337397D01*
X59046928Y-77099724D01*
X59206904Y-76869766D01*
X59377081Y-76647852D01*
X59557109Y-76434309D01*
X59746640Y-76229466D01*
X59945326Y-76033651D01*
X60152817Y-75847192D01*
X60368766Y-75670417D01*
X60592822Y-75503656D01*
X60824638Y-75347235D01*
X61063865Y-75201483D01*
X61310154Y-75066729D01*
X61563156Y-74943300D01*
X61822522Y-74831525D01*
X62087904Y-74731731D01*
X62358954Y-74644248D01*
X62635321Y-74569403D01*
X62916659Y-74507525D01*
X63202617Y-74458941D01*
X63492847Y-74423980D01*
X63787001Y-74402971D01*
X64084730Y-74396240D01*
X64201001Y-74397591D01*
X64317192Y-74401206D01*
X64433267Y-74407084D01*
X64549195Y-74415223D01*
X64664942Y-74425618D01*
X64780476Y-74438269D01*
X64895763Y-74453171D01*
X65010770Y-74470323D01*
X65019616Y-74453315D01*
X65028023Y-74436108D01*
X65035987Y-74418713D01*
X65043506Y-74401137D01*
X65050577Y-74383389D01*
X65057199Y-74365477D01*
X65063368Y-74347411D01*
X65069081Y-74329199D01*
X65074336Y-74310849D01*
X65079131Y-74292371D01*
X65083463Y-74273772D01*
X65087329Y-74255063D01*
X65090726Y-74236250D01*
X65093653Y-74217343D01*
X65096106Y-74198351D01*
X65098083Y-74179282D01*
X65098083Y-74166052D01*
X65100740Y-74154886D01*
X65103967Y-74143930D01*
X65107749Y-74133203D01*
X65112073Y-74122725D01*
X65116925Y-74112512D01*
X65122292Y-74102586D01*
X65128160Y-74092964D01*
X65134515Y-74083665D01*
X65141344Y-74074709D01*
X65148633Y-74066113D01*
X65156369Y-74057897D01*
X65164537Y-74050080D01*
X65173125Y-74042681D01*
X65182118Y-74035718D01*
X65191504Y-74029210D01*
X65201268Y-74023177D01*
X65060880Y-73999590D01*
X64920055Y-73979142D01*
X64778844Y-73961837D01*
X64637300Y-73947682D01*
X64495476Y-73936679D01*
X64353425Y-73928834D01*
X64211199Y-73924151D01*
X64068850Y-73922636D01*
X63848628Y-73921909D01*
X63629489Y-73928573D01*
X63411586Y-73942542D01*
X63195076Y-73963729D01*
X62980113Y-73992047D01*
X62766853Y-74027410D01*
X62555450Y-74069731D01*
X62346059Y-74118922D01*
X62138836Y-74174898D01*
X61933935Y-74237572D01*
X61731511Y-74306856D01*
X61531721Y-74382664D01*
X61334718Y-74464909D01*
X61140657Y-74553505D01*
X60949695Y-74648364D01*
X60761985Y-74749400D01*
X60577683Y-74856527D01*
X60396944Y-74969657D01*
X60219923Y-75088704D01*
X60046774Y-75213580D01*
X59877654Y-75344200D01*
X59712717Y-75480476D01*
X59552118Y-75622322D01*
X59396012Y-75769650D01*
X59244554Y-75922375D01*
X59097899Y-76080409D01*
X58956203Y-76243666D01*
X58819620Y-76412059D01*
X58688306Y-76585500D01*
X58562415Y-76763904D01*
X58442102Y-76947184D01*
X58327523Y-77135253D01*
X58118159Y-77521569D01*
X57936710Y-77917835D01*
X57783177Y-78322629D01*
X57657558Y-78734530D01*
X57559855Y-79152116D01*
X57490067Y-79573966D01*
X57448195Y-79998659D01*
X57434237Y-80424773D01*
X57322931Y-80424773D01*
X57320731Y-80275310D01*
X57349534Y-79782392D01*
G36*
X64931395Y-82524242D02*
G01*
X64912254Y-82907308D01*
X64893361Y-83237293D01*
X64878933Y-83505762D01*
X64874711Y-83614293D01*
X64873187Y-83704283D01*
X64841609Y-83928190D01*
X64773855Y-84163407D01*
X64670211Y-84402577D01*
X64530965Y-84638344D01*
X64356404Y-84863353D01*
X64255969Y-84969523D01*
X64146813Y-85070246D01*
X64028972Y-85164600D01*
X63902480Y-85251667D01*
X63767376Y-85330528D01*
X63623693Y-85400262D01*
X63471468Y-85459950D01*
X63310736Y-85508672D01*
X63141534Y-85545510D01*
X62963898Y-85569543D01*
X62777863Y-85579852D01*
X62583465Y-85575518D01*
X62380740Y-85555621D01*
X62169724Y-85519241D01*
X61950453Y-85465460D01*
X61722962Y-85393356D01*
X61487288Y-85302012D01*
X61243466Y-85190507D01*
X60991532Y-85057922D01*
X60731521Y-84903337D01*
X60463471Y-84725833D01*
X60187417Y-84524490D01*
X60121699Y-84476017D01*
X60057035Y-84423572D01*
X59993468Y-84367461D01*
X59931045Y-84307992D01*
X59809806Y-84180203D01*
X59693679Y-84042659D01*
X59583025Y-83897813D01*
X59478204Y-83748119D01*
X59379577Y-83596029D01*
X59287503Y-83443998D01*
X59202343Y-83294478D01*
X59124458Y-83149923D01*
X58991955Y-82885521D01*
X58892876Y-82670418D01*
X58830104Y-82524241D01*
X59724397Y-82524242D01*
X59742758Y-82573879D01*
X59762152Y-82623077D01*
X59782569Y-82671822D01*
X59804001Y-82720096D01*
X59826438Y-82767886D01*
X59849872Y-82815174D01*
X59874295Y-82861947D01*
X59899698Y-82908189D01*
X59926071Y-82953883D01*
X59953407Y-82999016D01*
X59981697Y-83043570D01*
X60010932Y-83087532D01*
X60041103Y-83130884D01*
X60072201Y-83173613D01*
X60104218Y-83215702D01*
X60137146Y-83257136D01*
X60214919Y-83349696D01*
X60303361Y-83442792D01*
X60401697Y-83535630D01*
X60509154Y-83627413D01*
X60624960Y-83717346D01*
X60748341Y-83804632D01*
X60878524Y-83888475D01*
X61014736Y-83968080D01*
X61156203Y-84042650D01*
X61302152Y-84111389D01*
X61451811Y-84173502D01*
X61604405Y-84228193D01*
X61759162Y-84274665D01*
X61915309Y-84312123D01*
X62072071Y-84339770D01*
X62228677Y-84356810D01*
X62384353Y-84362449D01*
X62538325Y-84355888D01*
X62689820Y-84336334D01*
X62838066Y-84302989D01*
X62982289Y-84255058D01*
X63121716Y-84191745D01*
X63255573Y-84112253D01*
X63383087Y-84015787D01*
X63503486Y-83901551D01*
X63615995Y-83768749D01*
X63719843Y-83616584D01*
X63814255Y-83444261D01*
X63898458Y-83250984D01*
X63971679Y-83035957D01*
X64033145Y-82798384D01*
X64082083Y-82537469D01*
X64082083Y-82524241D01*
X64931395Y-82524242D01*
G37*
X64931395Y-82524242D02*
X64912254Y-82907308D01*
X64893361Y-83237293D01*
X64878933Y-83505762D01*
X64874711Y-83614293D01*
X64873187Y-83704283D01*
X64841609Y-83928190D01*
X64773855Y-84163407D01*
X64670211Y-84402577D01*
X64530965Y-84638344D01*
X64356404Y-84863353D01*
X64255969Y-84969523D01*
X64146813Y-85070246D01*
X64028972Y-85164600D01*
X63902480Y-85251667D01*
X63767376Y-85330528D01*
X63623693Y-85400262D01*
X63471468Y-85459950D01*
X63310736Y-85508672D01*
X63141534Y-85545510D01*
X62963898Y-85569543D01*
X62777863Y-85579852D01*
X62583465Y-85575518D01*
X62380740Y-85555621D01*
X62169724Y-85519241D01*
X61950453Y-85465460D01*
X61722962Y-85393356D01*
X61487288Y-85302012D01*
X61243466Y-85190507D01*
X60991532Y-85057922D01*
X60731521Y-84903337D01*
X60463471Y-84725833D01*
X60187417Y-84524490D01*
X60121699Y-84476017D01*
X60057035Y-84423572D01*
X59993468Y-84367461D01*
X59931045Y-84307992D01*
X59809806Y-84180203D01*
X59693679Y-84042659D01*
X59583025Y-83897813D01*
X59478204Y-83748119D01*
X59379577Y-83596029D01*
X59287503Y-83443998D01*
X59202343Y-83294478D01*
X59124458Y-83149923D01*
X58991955Y-82885521D01*
X58892876Y-82670418D01*
X58830104Y-82524241D01*
X59724397Y-82524242D01*
X59742758Y-82573879D01*
X59762152Y-82623077D01*
X59782569Y-82671822D01*
X59804001Y-82720096D01*
X59826438Y-82767886D01*
X59849872Y-82815174D01*
X59874295Y-82861947D01*
X59899698Y-82908189D01*
X59926071Y-82953883D01*
X59953407Y-82999016D01*
X59981697Y-83043570D01*
X60010932Y-83087532D01*
X60041103Y-83130884D01*
X60072201Y-83173613D01*
X60104218Y-83215702D01*
X60137146Y-83257136D01*
X60214919Y-83349696D01*
X60303361Y-83442792D01*
X60401697Y-83535630D01*
X60509154Y-83627413D01*
X60624960Y-83717346D01*
X60748341Y-83804632D01*
X60878524Y-83888475D01*
X61014736Y-83968080D01*
X61156203Y-84042650D01*
X61302152Y-84111389D01*
X61451811Y-84173502D01*
X61604405Y-84228193D01*
X61759162Y-84274665D01*
X61915309Y-84312123D01*
X62072071Y-84339770D01*
X62228677Y-84356810D01*
X62384353Y-84362449D01*
X62538325Y-84355888D01*
X62689820Y-84336334D01*
X62838066Y-84302989D01*
X62982289Y-84255058D01*
X63121716Y-84191745D01*
X63255573Y-84112253D01*
X63383087Y-84015787D01*
X63503486Y-83901551D01*
X63615995Y-83768749D01*
X63719843Y-83616584D01*
X63814255Y-83444261D01*
X63898458Y-83250984D01*
X63971679Y-83035957D01*
X64033145Y-82798384D01*
X64082083Y-82537469D01*
X64082083Y-82524241D01*
X64931395Y-82524242D01*
G36*
X64399584Y-80791221D02*
G01*
X64314918Y-80791221D01*
X64312911Y-80791557D01*
X64310922Y-80791962D01*
X64308951Y-80792435D01*
X64307001Y-80792976D01*
X64305073Y-80793583D01*
X64303169Y-80794256D01*
X64301291Y-80794995D01*
X64299440Y-80795798D01*
X64297618Y-80796665D01*
X64295826Y-80797594D01*
X64294067Y-80798586D01*
X64292342Y-80799639D01*
X64290652Y-80800752D01*
X64289000Y-80801926D01*
X64287386Y-80803158D01*
X64285814Y-80804449D01*
X64284153Y-80805602D01*
X64282532Y-80806804D01*
X64280953Y-80808056D01*
X64279416Y-80809355D01*
X64277923Y-80810701D01*
X64276473Y-80812092D01*
X64275070Y-80813528D01*
X64273712Y-80815007D01*
X64272403Y-80816529D01*
X64271141Y-80818091D01*
X64269929Y-80819693D01*
X64268768Y-80821334D01*
X64267658Y-80823013D01*
X64266600Y-80824728D01*
X64265596Y-80826479D01*
X64264646Y-80828263D01*
X64246126Y-80870595D01*
X64172042Y-81053158D01*
X64169737Y-81058869D01*
X64167290Y-81064514D01*
X64164704Y-81070089D01*
X64161980Y-81075594D01*
X64159120Y-81081024D01*
X64156125Y-81086378D01*
X64152997Y-81091654D01*
X64149738Y-81096848D01*
X64146350Y-81101958D01*
X64142833Y-81106982D01*
X64139189Y-81111918D01*
X64135420Y-81116762D01*
X64131528Y-81121513D01*
X64127514Y-81126167D01*
X64123380Y-81130724D01*
X64119127Y-81135179D01*
X64115363Y-81139133D01*
X64111521Y-81143006D01*
X64107603Y-81146797D01*
X64103610Y-81150504D01*
X64099543Y-81154127D01*
X64095404Y-81157664D01*
X64091194Y-81161115D01*
X64086914Y-81164478D01*
X64082566Y-81167752D01*
X64078151Y-81170936D01*
X64073671Y-81174029D01*
X64069126Y-81177031D01*
X64064519Y-81179939D01*
X64059850Y-81182754D01*
X64055121Y-81185473D01*
X64050333Y-81188096D01*
X64057198Y-81189375D01*
X64063966Y-81190975D01*
X64070628Y-81192889D01*
X64077172Y-81195112D01*
X64083590Y-81197638D01*
X64089871Y-81200459D01*
X64096004Y-81203572D01*
X64101981Y-81206968D01*
X64107791Y-81210643D01*
X64113424Y-81214591D01*
X64118869Y-81218805D01*
X64124117Y-81223279D01*
X64129159Y-81228007D01*
X64133982Y-81232984D01*
X64138579Y-81238203D01*
X64142938Y-81243658D01*
X64151080Y-81254478D01*
X64158890Y-81265530D01*
X64166362Y-81276805D01*
X64173492Y-81288296D01*
X64180276Y-81299995D01*
X64186708Y-81311894D01*
X64192785Y-81323986D01*
X64198500Y-81336262D01*
X64285814Y-81542636D01*
X64287494Y-81547714D01*
X64289262Y-81552761D01*
X64291117Y-81557776D01*
X64293059Y-81562757D01*
X64295088Y-81567703D01*
X64297203Y-81572614D01*
X64299403Y-81577488D01*
X64301689Y-81582324D01*
X64322856Y-81608782D01*
X64324402Y-81610213D01*
X64325991Y-81611589D01*
X64327622Y-81612910D01*
X64329294Y-81614174D01*
X64331004Y-81615382D01*
X64332752Y-81616531D01*
X64334536Y-81617622D01*
X64336354Y-81618653D01*
X64338206Y-81619623D01*
X64340088Y-81620533D01*
X64342001Y-81621380D01*
X64343942Y-81622165D01*
X64345910Y-81622885D01*
X64347904Y-81623542D01*
X64349921Y-81624133D01*
X64351961Y-81624658D01*
X64449856Y-81624658D01*
X64449856Y-81793990D01*
X64359898Y-81793990D01*
X64352592Y-81794069D01*
X64345295Y-81793959D01*
X64338011Y-81793658D01*
X64330743Y-81793169D01*
X64323496Y-81792492D01*
X64316272Y-81791628D01*
X64309075Y-81790576D01*
X64301909Y-81789339D01*
X64294777Y-81787916D01*
X64287684Y-81786309D01*
X64280632Y-81784518D01*
X64273626Y-81782543D01*
X64266669Y-81780385D01*
X64259764Y-81778046D01*
X64252915Y-81775525D01*
X64246127Y-81772823D01*
X64240205Y-81770220D01*
X64234389Y-81767417D01*
X64228686Y-81764418D01*
X64223098Y-81761229D01*
X64217631Y-81757851D01*
X64212289Y-81754288D01*
X64207077Y-81750545D01*
X64201999Y-81746625D01*
X64197060Y-81742531D01*
X64192264Y-81738268D01*
X64187616Y-81733838D01*
X64183120Y-81729246D01*
X64178782Y-81724494D01*
X64174605Y-81719588D01*
X64170594Y-81714529D01*
X64166753Y-81709323D01*
X64161746Y-81701610D01*
X64156845Y-81693831D01*
X64152052Y-81685986D01*
X64147366Y-81678077D01*
X64142788Y-81670106D01*
X64138319Y-81662072D01*
X64133960Y-81653977D01*
X64129711Y-81645823D01*
X64129657Y-81643590D01*
X64129500Y-81641358D01*
X64128894Y-81636898D01*
X64127932Y-81632446D01*
X64126651Y-81628005D01*
X64125092Y-81623579D01*
X64123292Y-81619173D01*
X64121291Y-81614790D01*
X64119127Y-81610435D01*
X64100606Y-81577031D01*
X64023875Y-81389177D01*
X64022327Y-81385364D01*
X64020694Y-81381591D01*
X64018979Y-81377857D01*
X64017181Y-81374166D01*
X64015302Y-81370518D01*
X64013342Y-81366914D01*
X64011301Y-81363356D01*
X64009182Y-81359845D01*
X64006984Y-81356383D01*
X64004709Y-81352970D01*
X64002358Y-81349609D01*
X63999930Y-81346300D01*
X63997427Y-81343045D01*
X63994851Y-81339845D01*
X63992200Y-81336701D01*
X63989478Y-81333615D01*
X63987191Y-81331056D01*
X63984852Y-81328548D01*
X63982462Y-81326092D01*
X63980022Y-81323689D01*
X63977532Y-81321339D01*
X63974994Y-81319043D01*
X63972409Y-81316801D01*
X63969776Y-81314616D01*
X63967098Y-81312487D01*
X63964375Y-81310414D01*
X63961608Y-81308400D01*
X63958798Y-81306444D01*
X63955946Y-81304547D01*
X63953053Y-81302710D01*
X63950119Y-81300934D01*
X63947146Y-81299219D01*
X63902167Y-81293927D01*
X63735479Y-81293927D01*
X63735479Y-81807219D01*
X63555562Y-81807219D01*
X63552917Y-80627177D01*
X63732833Y-80627177D01*
X63732833Y-81124594D01*
X63851896Y-81124594D01*
X63856013Y-81124766D01*
X63860125Y-81124803D01*
X63864230Y-81124703D01*
X63868324Y-81124468D01*
X63872404Y-81124099D01*
X63876465Y-81123596D01*
X63880506Y-81122961D01*
X63884523Y-81122192D01*
X63888512Y-81121293D01*
X63892471Y-81120262D01*
X63896396Y-81119101D01*
X63900283Y-81117810D01*
X63904130Y-81116390D01*
X63907933Y-81114842D01*
X63911690Y-81113167D01*
X63915395Y-81111364D01*
X63918601Y-81109782D01*
X63921761Y-81108119D01*
X63924873Y-81106376D01*
X63927937Y-81104555D01*
X63930950Y-81102656D01*
X63933912Y-81100681D01*
X63936820Y-81098631D01*
X63939674Y-81096506D01*
X63942473Y-81094308D01*
X63945214Y-81092039D01*
X63947896Y-81089698D01*
X63950518Y-81087288D01*
X63953078Y-81084809D01*
X63955575Y-81082262D01*
X63958008Y-81079648D01*
X63960375Y-81076969D01*
X63963045Y-81074214D01*
X63965649Y-81071401D01*
X63968186Y-81068533D01*
X63970657Y-81065610D01*
X63973060Y-81062633D01*
X63975394Y-81059604D01*
X63977658Y-81056523D01*
X63979852Y-81053393D01*
X63981975Y-81050214D01*
X63984026Y-81046988D01*
X63986004Y-81043715D01*
X63987908Y-81040397D01*
X63989738Y-81037035D01*
X63991492Y-81033630D01*
X63993170Y-81030184D01*
X63994771Y-81026698D01*
X63998748Y-81019935D01*
X64002628Y-81013117D01*
X64006413Y-81006247D01*
X64010101Y-80999324D01*
X64013692Y-80992351D01*
X64017185Y-80985328D01*
X64020580Y-80978256D01*
X64023876Y-80971136D01*
X64076792Y-80838844D01*
X64086714Y-80815115D01*
X64096636Y-80791881D01*
X64106558Y-80769639D01*
X64111519Y-80759046D01*
X64116480Y-80748886D01*
X64121515Y-80739682D01*
X64126820Y-80730639D01*
X64132392Y-80721763D01*
X64138226Y-80713060D01*
X64144318Y-80704536D01*
X64150665Y-80696197D01*
X64157262Y-80688048D01*
X64164106Y-80680096D01*
X64167660Y-80676509D01*
X64171300Y-80673019D01*
X64175026Y-80669627D01*
X64178835Y-80666335D01*
X64182724Y-80663144D01*
X64186693Y-80660056D01*
X64190738Y-80657071D01*
X64194857Y-80654192D01*
X64199049Y-80651419D01*
X64203312Y-80648755D01*
X64207643Y-80646200D01*
X64212040Y-80643756D01*
X64216502Y-80641424D01*
X64221026Y-80639206D01*
X64225610Y-80637103D01*
X64230252Y-80635117D01*
X64242231Y-80631887D01*
X64254309Y-80629104D01*
X64266473Y-80626769D01*
X64278711Y-80624885D01*
X64291009Y-80623453D01*
X64303356Y-80622475D01*
X64315740Y-80621953D01*
X64328146Y-80621887D01*
X64399584Y-80621887D01*
X64399584Y-80791221D01*
G37*
X64399584Y-80791221D02*
X64314918Y-80791221D01*
X64312911Y-80791557D01*
X64310922Y-80791962D01*
X64308951Y-80792435D01*
X64307001Y-80792976D01*
X64305073Y-80793583D01*
X64303169Y-80794256D01*
X64301291Y-80794995D01*
X64299440Y-80795798D01*
X64297618Y-80796665D01*
X64295826Y-80797594D01*
X64294067Y-80798586D01*
X64292342Y-80799639D01*
X64290652Y-80800752D01*
X64289000Y-80801926D01*
X64287386Y-80803158D01*
X64285814Y-80804449D01*
X64284153Y-80805602D01*
X64282532Y-80806804D01*
X64280953Y-80808056D01*
X64279416Y-80809355D01*
X64277923Y-80810701D01*
X64276473Y-80812092D01*
X64275070Y-80813528D01*
X64273712Y-80815007D01*
X64272403Y-80816529D01*
X64271141Y-80818091D01*
X64269929Y-80819693D01*
X64268768Y-80821334D01*
X64267658Y-80823013D01*
X64266600Y-80824728D01*
X64265596Y-80826479D01*
X64264646Y-80828263D01*
X64246126Y-80870595D01*
X64172042Y-81053158D01*
X64169737Y-81058869D01*
X64167290Y-81064514D01*
X64164704Y-81070089D01*
X64161980Y-81075594D01*
X64159120Y-81081024D01*
X64156125Y-81086378D01*
X64152997Y-81091654D01*
X64149738Y-81096848D01*
X64146350Y-81101958D01*
X64142833Y-81106982D01*
X64139189Y-81111918D01*
X64135420Y-81116762D01*
X64131528Y-81121513D01*
X64127514Y-81126167D01*
X64123380Y-81130724D01*
X64119127Y-81135179D01*
X64115363Y-81139133D01*
X64111521Y-81143006D01*
X64107603Y-81146797D01*
X64103610Y-81150504D01*
X64099543Y-81154127D01*
X64095404Y-81157664D01*
X64091194Y-81161115D01*
X64086914Y-81164478D01*
X64082566Y-81167752D01*
X64078151Y-81170936D01*
X64073671Y-81174029D01*
X64069126Y-81177031D01*
X64064519Y-81179939D01*
X64059850Y-81182754D01*
X64055121Y-81185473D01*
X64050333Y-81188096D01*
X64057198Y-81189375D01*
X64063966Y-81190975D01*
X64070628Y-81192889D01*
X64077172Y-81195112D01*
X64083590Y-81197638D01*
X64089871Y-81200459D01*
X64096004Y-81203572D01*
X64101981Y-81206968D01*
X64107791Y-81210643D01*
X64113424Y-81214591D01*
X64118869Y-81218805D01*
X64124117Y-81223279D01*
X64129159Y-81228007D01*
X64133982Y-81232984D01*
X64138579Y-81238203D01*
X64142938Y-81243658D01*
X64151080Y-81254478D01*
X64158890Y-81265530D01*
X64166362Y-81276805D01*
X64173492Y-81288296D01*
X64180276Y-81299995D01*
X64186708Y-81311894D01*
X64192785Y-81323986D01*
X64198500Y-81336262D01*
X64285814Y-81542636D01*
X64287494Y-81547714D01*
X64289262Y-81552761D01*
X64291117Y-81557776D01*
X64293059Y-81562757D01*
X64295088Y-81567703D01*
X64297203Y-81572614D01*
X64299403Y-81577488D01*
X64301689Y-81582324D01*
X64322856Y-81608782D01*
X64324402Y-81610213D01*
X64325991Y-81611589D01*
X64327622Y-81612910D01*
X64329294Y-81614174D01*
X64331004Y-81615382D01*
X64332752Y-81616531D01*
X64334536Y-81617622D01*
X64336354Y-81618653D01*
X64338206Y-81619623D01*
X64340088Y-81620533D01*
X64342001Y-81621380D01*
X64343942Y-81622165D01*
X64345910Y-81622885D01*
X64347904Y-81623542D01*
X64349921Y-81624133D01*
X64351961Y-81624658D01*
X64449856Y-81624658D01*
X64449856Y-81793990D01*
X64359898Y-81793990D01*
X64352592Y-81794069D01*
X64345295Y-81793959D01*
X64338011Y-81793658D01*
X64330743Y-81793169D01*
X64323496Y-81792492D01*
X64316272Y-81791628D01*
X64309075Y-81790576D01*
X64301909Y-81789339D01*
X64294777Y-81787916D01*
X64287684Y-81786309D01*
X64280632Y-81784518D01*
X64273626Y-81782543D01*
X64266669Y-81780385D01*
X64259764Y-81778046D01*
X64252915Y-81775525D01*
X64246127Y-81772823D01*
X64240205Y-81770220D01*
X64234389Y-81767417D01*
X64228686Y-81764418D01*
X64223098Y-81761229D01*
X64217631Y-81757851D01*
X64212289Y-81754288D01*
X64207077Y-81750545D01*
X64201999Y-81746625D01*
X64197060Y-81742531D01*
X64192264Y-81738268D01*
X64187616Y-81733838D01*
X64183120Y-81729246D01*
X64178782Y-81724494D01*
X64174605Y-81719588D01*
X64170594Y-81714529D01*
X64166753Y-81709323D01*
X64161746Y-81701610D01*
X64156845Y-81693831D01*
X64152052Y-81685986D01*
X64147366Y-81678077D01*
X64142788Y-81670106D01*
X64138319Y-81662072D01*
X64133960Y-81653977D01*
X64129711Y-81645823D01*
X64129657Y-81643590D01*
X64129500Y-81641358D01*
X64128894Y-81636898D01*
X64127932Y-81632446D01*
X64126651Y-81628005D01*
X64125092Y-81623579D01*
X64123292Y-81619173D01*
X64121291Y-81614790D01*
X64119127Y-81610435D01*
X64100606Y-81577031D01*
X64023875Y-81389177D01*
X64022327Y-81385364D01*
X64020694Y-81381591D01*
X64018979Y-81377857D01*
X64017181Y-81374166D01*
X64015302Y-81370518D01*
X64013342Y-81366914D01*
X64011301Y-81363356D01*
X64009182Y-81359845D01*
X64006984Y-81356383D01*
X64004709Y-81352970D01*
X64002358Y-81349609D01*
X63999930Y-81346300D01*
X63997427Y-81343045D01*
X63994851Y-81339845D01*
X63992200Y-81336701D01*
X63989478Y-81333615D01*
X63987191Y-81331056D01*
X63984852Y-81328548D01*
X63982462Y-81326092D01*
X63980022Y-81323689D01*
X63977532Y-81321339D01*
X63974994Y-81319043D01*
X63972409Y-81316801D01*
X63969776Y-81314616D01*
X63967098Y-81312487D01*
X63964375Y-81310414D01*
X63961608Y-81308400D01*
X63958798Y-81306444D01*
X63955946Y-81304547D01*
X63953053Y-81302710D01*
X63950119Y-81300934D01*
X63947146Y-81299219D01*
X63902167Y-81293927D01*
X63735479Y-81293927D01*
X63735479Y-81807219D01*
X63555562Y-81807219D01*
X63552917Y-80627177D01*
X63732833Y-80627177D01*
X63732833Y-81124594D01*
X63851896Y-81124594D01*
X63856013Y-81124766D01*
X63860125Y-81124803D01*
X63864230Y-81124703D01*
X63868324Y-81124468D01*
X63872404Y-81124099D01*
X63876465Y-81123596D01*
X63880506Y-81122961D01*
X63884523Y-81122192D01*
X63888512Y-81121293D01*
X63892471Y-81120262D01*
X63896396Y-81119101D01*
X63900283Y-81117810D01*
X63904130Y-81116390D01*
X63907933Y-81114842D01*
X63911690Y-81113167D01*
X63915395Y-81111364D01*
X63918601Y-81109782D01*
X63921761Y-81108119D01*
X63924873Y-81106376D01*
X63927937Y-81104555D01*
X63930950Y-81102656D01*
X63933912Y-81100681D01*
X63936820Y-81098631D01*
X63939674Y-81096506D01*
X63942473Y-81094308D01*
X63945214Y-81092039D01*
X63947896Y-81089698D01*
X63950518Y-81087288D01*
X63953078Y-81084809D01*
X63955575Y-81082262D01*
X63958008Y-81079648D01*
X63960375Y-81076969D01*
X63963045Y-81074214D01*
X63965649Y-81071401D01*
X63968186Y-81068533D01*
X63970657Y-81065610D01*
X63973060Y-81062633D01*
X63975394Y-81059604D01*
X63977658Y-81056523D01*
X63979852Y-81053393D01*
X63981975Y-81050214D01*
X63984026Y-81046988D01*
X63986004Y-81043715D01*
X63987908Y-81040397D01*
X63989738Y-81037035D01*
X63991492Y-81033630D01*
X63993170Y-81030184D01*
X63994771Y-81026698D01*
X63998748Y-81019935D01*
X64002628Y-81013117D01*
X64006413Y-81006247D01*
X64010101Y-80999324D01*
X64013692Y-80992351D01*
X64017185Y-80985328D01*
X64020580Y-80978256D01*
X64023876Y-80971136D01*
X64076792Y-80838844D01*
X64086714Y-80815115D01*
X64096636Y-80791881D01*
X64106558Y-80769639D01*
X64111519Y-80759046D01*
X64116480Y-80748886D01*
X64121515Y-80739682D01*
X64126820Y-80730639D01*
X64132392Y-80721763D01*
X64138226Y-80713060D01*
X64144318Y-80704536D01*
X64150665Y-80696197D01*
X64157262Y-80688048D01*
X64164106Y-80680096D01*
X64167660Y-80676509D01*
X64171300Y-80673019D01*
X64175026Y-80669627D01*
X64178835Y-80666335D01*
X64182724Y-80663144D01*
X64186693Y-80660056D01*
X64190738Y-80657071D01*
X64194857Y-80654192D01*
X64199049Y-80651419D01*
X64203312Y-80648755D01*
X64207643Y-80646200D01*
X64212040Y-80643756D01*
X64216502Y-80641424D01*
X64221026Y-80639206D01*
X64225610Y-80637103D01*
X64230252Y-80635117D01*
X64242231Y-80631887D01*
X64254309Y-80629104D01*
X64266473Y-80626769D01*
X64278711Y-80624885D01*
X64291009Y-80623453D01*
X64303356Y-80622475D01*
X64315740Y-80621953D01*
X64328146Y-80621887D01*
X64399584Y-80621887D01*
X64399584Y-80791221D01*
G36*
X61520916Y-80796511D02*
G01*
X61206062Y-80796511D01*
X61206062Y-81804573D01*
X61026145Y-81804573D01*
X61026145Y-80796511D01*
X60703354Y-80796511D01*
X60703354Y-80627177D01*
X61520916Y-80627177D01*
X61520916Y-80796511D01*
G37*
X61520916Y-80796511D02*
X61206062Y-80796511D01*
X61206062Y-81804573D01*
X61026145Y-81804573D01*
X61026145Y-80796511D01*
X60703354Y-80796511D01*
X60703354Y-80627177D01*
X61520916Y-80627177D01*
X61520916Y-80796511D01*
G36*
X60579000Y-81799281D02*
G01*
X60399084Y-81799281D01*
X60399084Y-81270115D01*
X59933417Y-81270115D01*
X59933417Y-81799281D01*
X59753500Y-81799281D01*
X59753500Y-80627177D01*
X59933417Y-80627177D01*
X59933417Y-81124594D01*
X60399084Y-81124594D01*
X60399084Y-80621885D01*
X60579000Y-80621885D01*
X60579000Y-81799281D01*
G37*
X60579000Y-81799281D02*
X60399084Y-81799281D01*
X60399084Y-81270115D01*
X59933417Y-81270115D01*
X59933417Y-81799281D01*
X59753500Y-81799281D01*
X59753500Y-80627177D01*
X59933417Y-80627177D01*
X59933417Y-81124594D01*
X60399084Y-81124594D01*
X60399084Y-80621885D01*
X60579000Y-80621885D01*
X60579000Y-81799281D01*
G36*
X63140167Y-80627177D02*
G01*
X63149020Y-80629898D01*
X63157791Y-80632839D01*
X63166476Y-80635998D01*
X63175072Y-80639373D01*
X63183574Y-80642962D01*
X63191979Y-80646762D01*
X63200283Y-80650773D01*
X63208482Y-80654992D01*
X63216571Y-80659416D01*
X63224548Y-80664043D01*
X63232407Y-80668873D01*
X63240146Y-80673901D01*
X63247759Y-80679127D01*
X63255244Y-80684549D01*
X63262597Y-80690163D01*
X63269813Y-80695969D01*
X63277141Y-80701355D01*
X63284264Y-80706978D01*
X63291179Y-80712831D01*
X63297879Y-80718909D01*
X63304360Y-80725204D01*
X63310618Y-80731712D01*
X63316646Y-80738426D01*
X63322440Y-80745339D01*
X63327996Y-80752446D01*
X63333307Y-80759740D01*
X63338369Y-80767215D01*
X63343178Y-80774866D01*
X63347727Y-80782685D01*
X63352012Y-80790666D01*
X63356029Y-80798804D01*
X63359771Y-80807093D01*
X63364348Y-80817061D01*
X63368630Y-80827141D01*
X63372616Y-80837328D01*
X63376304Y-80847614D01*
X63379692Y-80857994D01*
X63382781Y-80868460D01*
X63385567Y-80879006D01*
X63388050Y-80889625D01*
X63390227Y-80900311D01*
X63392099Y-80911057D01*
X63393662Y-80921856D01*
X63394917Y-80932703D01*
X63395860Y-80943589D01*
X63396492Y-80954510D01*
X63396810Y-80965458D01*
X63396813Y-80976426D01*
X63396305Y-80992889D01*
X63395051Y-81009251D01*
X63393059Y-81025488D01*
X63390339Y-81041577D01*
X63386900Y-81057495D01*
X63382750Y-81073218D01*
X63377900Y-81088722D01*
X63372357Y-81103984D01*
X63366132Y-81118981D01*
X63359234Y-81133688D01*
X63351671Y-81148083D01*
X63343453Y-81162143D01*
X63334588Y-81175842D01*
X63325087Y-81189159D01*
X63314957Y-81202070D01*
X63304209Y-81214550D01*
X63291411Y-81228475D01*
X63277933Y-81241593D01*
X63263813Y-81253888D01*
X63249092Y-81265342D01*
X63233807Y-81275937D01*
X63217997Y-81285658D01*
X63201702Y-81294487D01*
X63184961Y-81302406D01*
X63167812Y-81309398D01*
X63150294Y-81315448D01*
X63132446Y-81320536D01*
X63114308Y-81324646D01*
X63095918Y-81327762D01*
X63077314Y-81329866D01*
X63058537Y-81330940D01*
X63039625Y-81330968D01*
X62775042Y-81330968D01*
X62775042Y-81791343D01*
X62579250Y-81791343D01*
X62579250Y-81174865D01*
X62751230Y-81174865D01*
X63021104Y-81174865D01*
X63031703Y-81174992D01*
X63042240Y-81174557D01*
X63052695Y-81173567D01*
X63063048Y-81172032D01*
X63073278Y-81169959D01*
X63083365Y-81167357D01*
X63093289Y-81164233D01*
X63103030Y-81160597D01*
X63112567Y-81156455D01*
X63121880Y-81151816D01*
X63130949Y-81146689D01*
X63139753Y-81141082D01*
X63148272Y-81135002D01*
X63156485Y-81128458D01*
X63164374Y-81121458D01*
X63171916Y-81114011D01*
X63177507Y-81107105D01*
X63182770Y-81099984D01*
X63187700Y-81092659D01*
X63192293Y-81085143D01*
X63196545Y-81077448D01*
X63200451Y-81069585D01*
X63204008Y-81061567D01*
X63207209Y-81053405D01*
X63210053Y-81045111D01*
X63212533Y-81036697D01*
X63214645Y-81028175D01*
X63216386Y-81019558D01*
X63217750Y-81010856D01*
X63218734Y-81002082D01*
X63219333Y-80993247D01*
X63219542Y-80984365D01*
X63219593Y-80978022D01*
X63219458Y-80971691D01*
X63219135Y-80965375D01*
X63218627Y-80959078D01*
X63217935Y-80952804D01*
X63217059Y-80946558D01*
X63215999Y-80940342D01*
X63214758Y-80934162D01*
X63213335Y-80928021D01*
X63211732Y-80921923D01*
X63209950Y-80915872D01*
X63207989Y-80909873D01*
X63205850Y-80903929D01*
X63203534Y-80898044D01*
X63201042Y-80892222D01*
X63198375Y-80886468D01*
X63195921Y-80881971D01*
X63193316Y-80877574D01*
X63190563Y-80873278D01*
X63187665Y-80869087D01*
X63184627Y-80865006D01*
X63181451Y-80861036D01*
X63178140Y-80857182D01*
X63174697Y-80853448D01*
X63171126Y-80849835D01*
X63167431Y-80846349D01*
X63163613Y-80842991D01*
X63159677Y-80839766D01*
X63155626Y-80836677D01*
X63151463Y-80833728D01*
X63147190Y-80830921D01*
X63142813Y-80828261D01*
X63135653Y-80823897D01*
X63128344Y-80819839D01*
X63120895Y-80816089D01*
X63113316Y-80812650D01*
X63105617Y-80809524D01*
X63097808Y-80806714D01*
X63089898Y-80804222D01*
X63081897Y-80802050D01*
X63073816Y-80800201D01*
X63065663Y-80798678D01*
X63057450Y-80797483D01*
X63049185Y-80796618D01*
X63040880Y-80796086D01*
X63032542Y-80795889D01*
X63024183Y-80796030D01*
X63015813Y-80796512D01*
X62751230Y-80796511D01*
X62751230Y-81174865D01*
X62579250Y-81174865D01*
X62579250Y-80627177D01*
X63140167Y-80627177D01*
G37*
X63140167Y-80627177D02*
X63149020Y-80629898D01*
X63157791Y-80632839D01*
X63166476Y-80635998D01*
X63175072Y-80639373D01*
X63183574Y-80642962D01*
X63191979Y-80646762D01*
X63200283Y-80650773D01*
X63208482Y-80654992D01*
X63216571Y-80659416D01*
X63224548Y-80664043D01*
X63232407Y-80668873D01*
X63240146Y-80673901D01*
X63247759Y-80679127D01*
X63255244Y-80684549D01*
X63262597Y-80690163D01*
X63269813Y-80695969D01*
X63277141Y-80701355D01*
X63284264Y-80706978D01*
X63291179Y-80712831D01*
X63297879Y-80718909D01*
X63304360Y-80725204D01*
X63310618Y-80731712D01*
X63316646Y-80738426D01*
X63322440Y-80745339D01*
X63327996Y-80752446D01*
X63333307Y-80759740D01*
X63338369Y-80767215D01*
X63343178Y-80774866D01*
X63347727Y-80782685D01*
X63352012Y-80790666D01*
X63356029Y-80798804D01*
X63359771Y-80807093D01*
X63364348Y-80817061D01*
X63368630Y-80827141D01*
X63372616Y-80837328D01*
X63376304Y-80847614D01*
X63379692Y-80857994D01*
X63382781Y-80868460D01*
X63385567Y-80879006D01*
X63388050Y-80889625D01*
X63390227Y-80900311D01*
X63392099Y-80911057D01*
X63393662Y-80921856D01*
X63394917Y-80932703D01*
X63395860Y-80943589D01*
X63396492Y-80954510D01*
X63396810Y-80965458D01*
X63396813Y-80976426D01*
X63396305Y-80992889D01*
X63395051Y-81009251D01*
X63393059Y-81025488D01*
X63390339Y-81041577D01*
X63386900Y-81057495D01*
X63382750Y-81073218D01*
X63377900Y-81088722D01*
X63372357Y-81103984D01*
X63366132Y-81118981D01*
X63359234Y-81133688D01*
X63351671Y-81148083D01*
X63343453Y-81162143D01*
X63334588Y-81175842D01*
X63325087Y-81189159D01*
X63314957Y-81202070D01*
X63304209Y-81214550D01*
X63291411Y-81228475D01*
X63277933Y-81241593D01*
X63263813Y-81253888D01*
X63249092Y-81265342D01*
X63233807Y-81275937D01*
X63217997Y-81285658D01*
X63201702Y-81294487D01*
X63184961Y-81302406D01*
X63167812Y-81309398D01*
X63150294Y-81315448D01*
X63132446Y-81320536D01*
X63114308Y-81324646D01*
X63095918Y-81327762D01*
X63077314Y-81329866D01*
X63058537Y-81330940D01*
X63039625Y-81330968D01*
X62775042Y-81330968D01*
X62775042Y-81791343D01*
X62579250Y-81791343D01*
X62579250Y-81174865D01*
X62751230Y-81174865D01*
X63021104Y-81174865D01*
X63031703Y-81174992D01*
X63042240Y-81174557D01*
X63052695Y-81173567D01*
X63063048Y-81172032D01*
X63073278Y-81169959D01*
X63083365Y-81167357D01*
X63093289Y-81164233D01*
X63103030Y-81160597D01*
X63112567Y-81156455D01*
X63121880Y-81151816D01*
X63130949Y-81146689D01*
X63139753Y-81141082D01*
X63148272Y-81135002D01*
X63156485Y-81128458D01*
X63164374Y-81121458D01*
X63171916Y-81114011D01*
X63177507Y-81107105D01*
X63182770Y-81099984D01*
X63187700Y-81092659D01*
X63192293Y-81085143D01*
X63196545Y-81077448D01*
X63200451Y-81069585D01*
X63204008Y-81061567D01*
X63207209Y-81053405D01*
X63210053Y-81045111D01*
X63212533Y-81036697D01*
X63214645Y-81028175D01*
X63216386Y-81019558D01*
X63217750Y-81010856D01*
X63218734Y-81002082D01*
X63219333Y-80993247D01*
X63219542Y-80984365D01*
X63219593Y-80978022D01*
X63219458Y-80971691D01*
X63219135Y-80965375D01*
X63218627Y-80959078D01*
X63217935Y-80952804D01*
X63217059Y-80946558D01*
X63215999Y-80940342D01*
X63214758Y-80934162D01*
X63213335Y-80928021D01*
X63211732Y-80921923D01*
X63209950Y-80915872D01*
X63207989Y-80909873D01*
X63205850Y-80903929D01*
X63203534Y-80898044D01*
X63201042Y-80892222D01*
X63198375Y-80886468D01*
X63195921Y-80881971D01*
X63193316Y-80877574D01*
X63190563Y-80873278D01*
X63187665Y-80869087D01*
X63184627Y-80865006D01*
X63181451Y-80861036D01*
X63178140Y-80857182D01*
X63174697Y-80853448D01*
X63171126Y-80849835D01*
X63167431Y-80846349D01*
X63163613Y-80842991D01*
X63159677Y-80839766D01*
X63155626Y-80836677D01*
X63151463Y-80833728D01*
X63147190Y-80830921D01*
X63142813Y-80828261D01*
X63135653Y-80823897D01*
X63128344Y-80819839D01*
X63120895Y-80816089D01*
X63113316Y-80812650D01*
X63105617Y-80809524D01*
X63097808Y-80806714D01*
X63089898Y-80804222D01*
X63081897Y-80802050D01*
X63073816Y-80800201D01*
X63065663Y-80798678D01*
X63057450Y-80797483D01*
X63049185Y-80796618D01*
X63040880Y-80796086D01*
X63032542Y-80795889D01*
X63024183Y-80796030D01*
X63015813Y-80796512D01*
X62751230Y-80796511D01*
X62751230Y-81174865D01*
X62579250Y-81174865D01*
X62579250Y-80627177D01*
X63140167Y-80627177D01*
G36*
X67529603Y-81799281D02*
G01*
X67341750Y-81799281D01*
X67341750Y-81069032D01*
X67095687Y-81635240D01*
X66947520Y-81635240D01*
X66701457Y-81069032D01*
X66701457Y-81804573D01*
X66521541Y-81804573D01*
X66524188Y-80627177D01*
X66693520Y-80627177D01*
X67029541Y-81389177D01*
X67360270Y-80621885D01*
X67529603Y-80621885D01*
X67529603Y-81799281D01*
G37*
X67529603Y-81799281D02*
X67341750Y-81799281D01*
X67341750Y-81069032D01*
X67095687Y-81635240D01*
X66947520Y-81635240D01*
X66701457Y-81069032D01*
X66701457Y-81804573D01*
X66521541Y-81804573D01*
X66524188Y-80627177D01*
X66693520Y-80627177D01*
X67029541Y-81389177D01*
X67360270Y-80621885D01*
X67529603Y-80621885D01*
X67529603Y-81799281D01*
G36*
X62404625Y-80796511D02*
G01*
X61833125Y-80796511D01*
X61833125Y-81124594D01*
X62314667Y-81124594D01*
X62314667Y-81283343D01*
X61833125Y-81283343D01*
X61833125Y-81629948D01*
X62404625Y-81629948D01*
X62404625Y-81799281D01*
X61653208Y-81799281D01*
X61653208Y-80627177D01*
X62404625Y-80627177D01*
X62404625Y-80796511D01*
G37*
X62404625Y-80796511D02*
X61833125Y-80796511D01*
X61833125Y-81124594D01*
X62314667Y-81124594D01*
X62314667Y-81283343D01*
X61833125Y-81283343D01*
X61833125Y-81629948D01*
X62404625Y-81629948D01*
X62404625Y-81799281D01*
X61653208Y-81799281D01*
X61653208Y-80627177D01*
X62404625Y-80627177D01*
X62404625Y-80796511D01*
G36*
X69570804Y-82855854D02*
G01*
X69415805Y-83179334D01*
X69242812Y-83491409D01*
X69052505Y-83791453D01*
X68845569Y-84078840D01*
X68622686Y-84352945D01*
X68384538Y-84613141D01*
X68131808Y-84858803D01*
X67865179Y-85089305D01*
X67585333Y-85304021D01*
X67292953Y-85502325D01*
X66988722Y-85683591D01*
X66673322Y-85847194D01*
X66347436Y-85992507D01*
X66011747Y-86118905D01*
X65666936Y-86225762D01*
X65666936Y-84926657D01*
X65884775Y-84842694D01*
X66097392Y-84748657D01*
X66304486Y-84644812D01*
X66505758Y-84531429D01*
X66700909Y-84408774D01*
X66889637Y-84277116D01*
X67071644Y-84136722D01*
X67246630Y-83987860D01*
X67414293Y-83830797D01*
X67574336Y-83665802D01*
X67726457Y-83493142D01*
X67870358Y-83313085D01*
X68005737Y-83125898D01*
X68132295Y-82931850D01*
X68249733Y-82731208D01*
X68357749Y-82524241D01*
X69707125Y-82521595D01*
X69570804Y-82855854D01*
G37*
X69570804Y-82855854D02*
X69415805Y-83179334D01*
X69242812Y-83491409D01*
X69052505Y-83791453D01*
X68845569Y-84078840D01*
X68622686Y-84352945D01*
X68384538Y-84613141D01*
X68131808Y-84858803D01*
X67865179Y-85089305D01*
X67585333Y-85304021D01*
X67292953Y-85502325D01*
X66988722Y-85683591D01*
X66673322Y-85847194D01*
X66347436Y-85992507D01*
X66011747Y-86118905D01*
X65666936Y-86225762D01*
X65666936Y-84926657D01*
X65884775Y-84842694D01*
X66097392Y-84748657D01*
X66304486Y-84644812D01*
X66505758Y-84531429D01*
X66700909Y-84408774D01*
X66889637Y-84277116D01*
X67071644Y-84136722D01*
X67246630Y-83987860D01*
X67414293Y-83830797D01*
X67574336Y-83665802D01*
X67726457Y-83493142D01*
X67870358Y-83313085D01*
X68005737Y-83125898D01*
X68132295Y-82931850D01*
X68249733Y-82731208D01*
X68357749Y-82524241D01*
X69707125Y-82521595D01*
X69570804Y-82855854D01*
G36*
X67770926Y-80932856D02*
G01*
X67774637Y-80918526D01*
X67778857Y-80904348D01*
X67783580Y-80890335D01*
X67788803Y-80876499D01*
X67794519Y-80862856D01*
X67800725Y-80849418D01*
X67807415Y-80836198D01*
X67813838Y-80825254D01*
X67820578Y-80814527D01*
X67827630Y-80804024D01*
X67834988Y-80793750D01*
X67842647Y-80783712D01*
X67850600Y-80773917D01*
X67858841Y-80764370D01*
X67867364Y-80755078D01*
X67876163Y-80746048D01*
X67885233Y-80737285D01*
X67894568Y-80728796D01*
X67904161Y-80720587D01*
X67914006Y-80712664D01*
X67924098Y-80705035D01*
X67934431Y-80697704D01*
X67944998Y-80690679D01*
X67972165Y-80675134D01*
X68000107Y-80661662D01*
X68028713Y-80650263D01*
X68057872Y-80640936D01*
X68087475Y-80633682D01*
X68117409Y-80628500D01*
X68147565Y-80625391D01*
X68177831Y-80624355D01*
X68208098Y-80625391D01*
X68238254Y-80628500D01*
X68268188Y-80633682D01*
X68297790Y-80640936D01*
X68326950Y-80650262D01*
X68355556Y-80661662D01*
X68383498Y-80675133D01*
X68410665Y-80690678D01*
X68421312Y-80697458D01*
X68431699Y-80704585D01*
X68441818Y-80712050D01*
X68451661Y-80719845D01*
X68461222Y-80727962D01*
X68470493Y-80736393D01*
X68479467Y-80745130D01*
X68488135Y-80754164D01*
X68496491Y-80763489D01*
X68504527Y-80773095D01*
X68512235Y-80782975D01*
X68519608Y-80793120D01*
X68526639Y-80803523D01*
X68533320Y-80814176D01*
X68539643Y-80825070D01*
X68545602Y-80836198D01*
X68549702Y-80842505D01*
X68553616Y-80848917D01*
X68557341Y-80855429D01*
X68560877Y-80862038D01*
X68564222Y-80868738D01*
X68567374Y-80875527D01*
X68570332Y-80882400D01*
X68573093Y-80889351D01*
X68575657Y-80896379D01*
X68578022Y-80903477D01*
X68580185Y-80910642D01*
X68582147Y-80917870D01*
X68583904Y-80925156D01*
X68585456Y-80932496D01*
X68586800Y-80939887D01*
X68587936Y-80947323D01*
X68587936Y-81211907D01*
X68589384Y-81244966D01*
X68590418Y-81278037D01*
X68591039Y-81311116D01*
X68591245Y-81344199D01*
X68591039Y-81377281D01*
X68590418Y-81410360D01*
X68589384Y-81443430D01*
X68587936Y-81476489D01*
X68586869Y-81484098D01*
X68585585Y-81491661D01*
X68584083Y-81499174D01*
X68582367Y-81506633D01*
X68580437Y-81514033D01*
X68578295Y-81521370D01*
X68575943Y-81528639D01*
X68573383Y-81535835D01*
X68570616Y-81542955D01*
X68567645Y-81549993D01*
X68564470Y-81556945D01*
X68561093Y-81563807D01*
X68557516Y-81570574D01*
X68553741Y-81577242D01*
X68549770Y-81583805D01*
X68545603Y-81590261D01*
X68539481Y-81601268D01*
X68533020Y-81612054D01*
X68526227Y-81622611D01*
X68519108Y-81632932D01*
X68511669Y-81643009D01*
X68503919Y-81652836D01*
X68495862Y-81662406D01*
X68487506Y-81671711D01*
X68478858Y-81680744D01*
X68469922Y-81689499D01*
X68460708Y-81697968D01*
X68451220Y-81706145D01*
X68441465Y-81714021D01*
X68431450Y-81721591D01*
X68421182Y-81728846D01*
X68410667Y-81735781D01*
X68398481Y-81743446D01*
X68386072Y-81750725D01*
X68373451Y-81757614D01*
X68360627Y-81764109D01*
X68347608Y-81770204D01*
X68334404Y-81775897D01*
X68321025Y-81781181D01*
X68307478Y-81786053D01*
X68289468Y-81791813D01*
X68271272Y-81796880D01*
X68252910Y-81801249D01*
X68234402Y-81804918D01*
X68215768Y-81807881D01*
X68197028Y-81810137D01*
X68178203Y-81811682D01*
X68159312Y-81812511D01*
X68143246Y-81812461D01*
X68127205Y-81811856D01*
X68111206Y-81810695D01*
X68095260Y-81808982D01*
X68079384Y-81806717D01*
X68063591Y-81803904D01*
X68047895Y-81800542D01*
X68032311Y-81796635D01*
X68018376Y-81791940D01*
X68004621Y-81786781D01*
X67991055Y-81781162D01*
X67977691Y-81775089D01*
X67964540Y-81768567D01*
X67951613Y-81761602D01*
X67938922Y-81754200D01*
X67926479Y-81746365D01*
X67915809Y-81739459D01*
X67905384Y-81732230D01*
X67895212Y-81724682D01*
X67885297Y-81716824D01*
X67875648Y-81708662D01*
X67866270Y-81700203D01*
X67857171Y-81691455D01*
X67848356Y-81682424D01*
X67839833Y-81673117D01*
X67831609Y-81663542D01*
X67823689Y-81653705D01*
X67816081Y-81643614D01*
X67808790Y-81633275D01*
X67801825Y-81622695D01*
X67795190Y-81611882D01*
X67788894Y-81600843D01*
X67767728Y-81550573D01*
X67767239Y-81546950D01*
X67766890Y-81543314D01*
X67766680Y-81539670D01*
X67766610Y-81536021D01*
X67766680Y-81532373D01*
X67766890Y-81528729D01*
X67767239Y-81525093D01*
X67767728Y-81521469D01*
X67767728Y-81487073D01*
X67765827Y-81454023D01*
X67764469Y-81420954D01*
X67763655Y-81387871D01*
X67763383Y-81354781D01*
X67763655Y-81321692D01*
X67764469Y-81288609D01*
X67765827Y-81255540D01*
X67767728Y-81222490D01*
X67767728Y-81096813D01*
X67926038Y-81096813D01*
X67926397Y-81126281D01*
X67927472Y-81155735D01*
X67929263Y-81185163D01*
X67931772Y-81214552D01*
X67931772Y-81360073D01*
X67930978Y-81371306D01*
X67930410Y-81382549D01*
X67930070Y-81393799D01*
X67929956Y-81405052D01*
X67930070Y-81416305D01*
X67930410Y-81427555D01*
X67930978Y-81438798D01*
X67931772Y-81450030D01*
X67933044Y-81456902D01*
X67934531Y-81463718D01*
X67936232Y-81470473D01*
X67938143Y-81477162D01*
X67940263Y-81483781D01*
X67942590Y-81490325D01*
X67945121Y-81496788D01*
X67947855Y-81503167D01*
X67950788Y-81509456D01*
X67953920Y-81515651D01*
X67957248Y-81521747D01*
X67960769Y-81527739D01*
X67964482Y-81533623D01*
X67968385Y-81539392D01*
X67972475Y-81545044D01*
X67976750Y-81550573D01*
X67980419Y-81555299D01*
X67984234Y-81559894D01*
X67988191Y-81564354D01*
X67992286Y-81568677D01*
X67996515Y-81572860D01*
X68000875Y-81576900D01*
X68005362Y-81580794D01*
X68009972Y-81584539D01*
X68014701Y-81588132D01*
X68019546Y-81591570D01*
X68024502Y-81594850D01*
X68029567Y-81597970D01*
X68034736Y-81600926D01*
X68040006Y-81603715D01*
X68045373Y-81606335D01*
X68050833Y-81608782D01*
X68057063Y-81612209D01*
X68063395Y-81615406D01*
X68069825Y-81618373D01*
X68076345Y-81621107D01*
X68082948Y-81623608D01*
X68089630Y-81625874D01*
X68096383Y-81627902D01*
X68103200Y-81629692D01*
X68110076Y-81631242D01*
X68117005Y-81632550D01*
X68123979Y-81633615D01*
X68130992Y-81634436D01*
X68138039Y-81635010D01*
X68145112Y-81635337D01*
X68152206Y-81635414D01*
X68159313Y-81635240D01*
X68166570Y-81635355D01*
X68173814Y-81635229D01*
X68181038Y-81634861D01*
X68188235Y-81634253D01*
X68195401Y-81633408D01*
X68202528Y-81632325D01*
X68209612Y-81631007D01*
X68216647Y-81629456D01*
X68223626Y-81627671D01*
X68230543Y-81625655D01*
X68237394Y-81623409D01*
X68244172Y-81620935D01*
X68250871Y-81618234D01*
X68257485Y-81615307D01*
X68264009Y-81612156D01*
X68270437Y-81608782D01*
X68275673Y-81606201D01*
X68280821Y-81603467D01*
X68285878Y-81600583D01*
X68290839Y-81597552D01*
X68295703Y-81594375D01*
X68300466Y-81591056D01*
X68305125Y-81587597D01*
X68309677Y-81584000D01*
X68314119Y-81580269D01*
X68318448Y-81576404D01*
X68322661Y-81572410D01*
X68326754Y-81568288D01*
X68330725Y-81564041D01*
X68334571Y-81559671D01*
X68338288Y-81555181D01*
X68341874Y-81550573D01*
X68346486Y-81545193D01*
X68350893Y-81539664D01*
X68355092Y-81533992D01*
X68359082Y-81528184D01*
X68362857Y-81522246D01*
X68366417Y-81516183D01*
X68369758Y-81510001D01*
X68372877Y-81503707D01*
X68375771Y-81497307D01*
X68378438Y-81490806D01*
X68380874Y-81484211D01*
X68383077Y-81477528D01*
X68385044Y-81470762D01*
X68386772Y-81463920D01*
X68388258Y-81457007D01*
X68389499Y-81450030D01*
X68391506Y-81420625D01*
X68392939Y-81391195D01*
X68393799Y-81361747D01*
X68394086Y-81332292D01*
X68393799Y-81302836D01*
X68392939Y-81273388D01*
X68391506Y-81243958D01*
X68389499Y-81214552D01*
X68389499Y-81069032D01*
X68390209Y-81057797D01*
X68390716Y-81046553D01*
X68391020Y-81035304D01*
X68391121Y-81024053D01*
X68391020Y-81012801D01*
X68390716Y-81001552D01*
X68390209Y-80990309D01*
X68389499Y-80979074D01*
X68388249Y-80972248D01*
X68386754Y-80965487D01*
X68385018Y-80958799D01*
X68383045Y-80952189D01*
X68380836Y-80945663D01*
X68378395Y-80939227D01*
X68375725Y-80932888D01*
X68372829Y-80926651D01*
X68369710Y-80920523D01*
X68366370Y-80914509D01*
X68362813Y-80908617D01*
X68359042Y-80902851D01*
X68355060Y-80897218D01*
X68350869Y-80891724D01*
X68346473Y-80886375D01*
X68341875Y-80881178D01*
X68338183Y-80876545D01*
X68334378Y-80872015D01*
X68330462Y-80867587D01*
X68326437Y-80863266D01*
X68322305Y-80859051D01*
X68318068Y-80854946D01*
X68313729Y-80850952D01*
X68309290Y-80847072D01*
X68304753Y-80843306D01*
X68300120Y-80839657D01*
X68295393Y-80836127D01*
X68290576Y-80832717D01*
X68285669Y-80829431D01*
X68280675Y-80826268D01*
X68275597Y-80823232D01*
X68270437Y-80820324D01*
X68263896Y-80817328D01*
X68257281Y-80814529D01*
X68250595Y-80811927D01*
X68243844Y-80809524D01*
X68237031Y-80807320D01*
X68230161Y-80805316D01*
X68223238Y-80803514D01*
X68216268Y-80801914D01*
X68209254Y-80800517D01*
X68202201Y-80799325D01*
X68195113Y-80798338D01*
X68187995Y-80797556D01*
X68180852Y-80796982D01*
X68173687Y-80796616D01*
X68166506Y-80796459D01*
X68159312Y-80796512D01*
X68152276Y-80796444D01*
X68145252Y-80796588D01*
X68138246Y-80796944D01*
X68131261Y-80797510D01*
X68124303Y-80798285D01*
X68117376Y-80799268D01*
X68110484Y-80800458D01*
X68103633Y-80801855D01*
X68096827Y-80803456D01*
X68090070Y-80805262D01*
X68083368Y-80807271D01*
X68076725Y-80809481D01*
X68070145Y-80811893D01*
X68063633Y-80814505D01*
X68057195Y-80817315D01*
X68050834Y-80820324D01*
X68045445Y-80823104D01*
X68040143Y-80826031D01*
X68034933Y-80829103D01*
X68029817Y-80832318D01*
X68024797Y-80835673D01*
X68019877Y-80839166D01*
X68015058Y-80842794D01*
X68010345Y-80846556D01*
X68005740Y-80850449D01*
X68001245Y-80854471D01*
X67996863Y-80858619D01*
X67992597Y-80862892D01*
X67988450Y-80867286D01*
X67984425Y-80871800D01*
X67980524Y-80876432D01*
X67976750Y-80881179D01*
X67972396Y-80886472D01*
X67968236Y-80891901D01*
X67964273Y-80897459D01*
X67960508Y-80903143D01*
X67956945Y-80908946D01*
X67953586Y-80914862D01*
X67950434Y-80920887D01*
X67947490Y-80927014D01*
X67944758Y-80933239D01*
X67942241Y-80939555D01*
X67939940Y-80945958D01*
X67937858Y-80952441D01*
X67935997Y-80959000D01*
X67934361Y-80965628D01*
X67932952Y-80972321D01*
X67931772Y-80979073D01*
X67929263Y-81008462D01*
X67927472Y-81037891D01*
X67926397Y-81067345D01*
X67926038Y-81096813D01*
X67767728Y-81096813D01*
X67767728Y-80947323D01*
X67770926Y-80932856D01*
G37*
X67770926Y-80932856D02*
X67774637Y-80918526D01*
X67778857Y-80904348D01*
X67783580Y-80890335D01*
X67788803Y-80876499D01*
X67794519Y-80862856D01*
X67800725Y-80849418D01*
X67807415Y-80836198D01*
X67813838Y-80825254D01*
X67820578Y-80814527D01*
X67827630Y-80804024D01*
X67834988Y-80793750D01*
X67842647Y-80783712D01*
X67850600Y-80773917D01*
X67858841Y-80764370D01*
X67867364Y-80755078D01*
X67876163Y-80746048D01*
X67885233Y-80737285D01*
X67894568Y-80728796D01*
X67904161Y-80720587D01*
X67914006Y-80712664D01*
X67924098Y-80705035D01*
X67934431Y-80697704D01*
X67944998Y-80690679D01*
X67972165Y-80675134D01*
X68000107Y-80661662D01*
X68028713Y-80650263D01*
X68057872Y-80640936D01*
X68087475Y-80633682D01*
X68117409Y-80628500D01*
X68147565Y-80625391D01*
X68177831Y-80624355D01*
X68208098Y-80625391D01*
X68238254Y-80628500D01*
X68268188Y-80633682D01*
X68297790Y-80640936D01*
X68326950Y-80650262D01*
X68355556Y-80661662D01*
X68383498Y-80675133D01*
X68410665Y-80690678D01*
X68421312Y-80697458D01*
X68431699Y-80704585D01*
X68441818Y-80712050D01*
X68451661Y-80719845D01*
X68461222Y-80727962D01*
X68470493Y-80736393D01*
X68479467Y-80745130D01*
X68488135Y-80754164D01*
X68496491Y-80763489D01*
X68504527Y-80773095D01*
X68512235Y-80782975D01*
X68519608Y-80793120D01*
X68526639Y-80803523D01*
X68533320Y-80814176D01*
X68539643Y-80825070D01*
X68545602Y-80836198D01*
X68549702Y-80842505D01*
X68553616Y-80848917D01*
X68557341Y-80855429D01*
X68560877Y-80862038D01*
X68564222Y-80868738D01*
X68567374Y-80875527D01*
X68570332Y-80882400D01*
X68573093Y-80889351D01*
X68575657Y-80896379D01*
X68578022Y-80903477D01*
X68580185Y-80910642D01*
X68582147Y-80917870D01*
X68583904Y-80925156D01*
X68585456Y-80932496D01*
X68586800Y-80939887D01*
X68587936Y-80947323D01*
X68587936Y-81211907D01*
X68589384Y-81244966D01*
X68590418Y-81278037D01*
X68591039Y-81311116D01*
X68591245Y-81344199D01*
X68591039Y-81377281D01*
X68590418Y-81410360D01*
X68589384Y-81443430D01*
X68587936Y-81476489D01*
X68586869Y-81484098D01*
X68585585Y-81491661D01*
X68584083Y-81499174D01*
X68582367Y-81506633D01*
X68580437Y-81514033D01*
X68578295Y-81521370D01*
X68575943Y-81528639D01*
X68573383Y-81535835D01*
X68570616Y-81542955D01*
X68567645Y-81549993D01*
X68564470Y-81556945D01*
X68561093Y-81563807D01*
X68557516Y-81570574D01*
X68553741Y-81577242D01*
X68549770Y-81583805D01*
X68545603Y-81590261D01*
X68539481Y-81601268D01*
X68533020Y-81612054D01*
X68526227Y-81622611D01*
X68519108Y-81632932D01*
X68511669Y-81643009D01*
X68503919Y-81652836D01*
X68495862Y-81662406D01*
X68487506Y-81671711D01*
X68478858Y-81680744D01*
X68469922Y-81689499D01*
X68460708Y-81697968D01*
X68451220Y-81706145D01*
X68441465Y-81714021D01*
X68431450Y-81721591D01*
X68421182Y-81728846D01*
X68410667Y-81735781D01*
X68398481Y-81743446D01*
X68386072Y-81750725D01*
X68373451Y-81757614D01*
X68360627Y-81764109D01*
X68347608Y-81770204D01*
X68334404Y-81775897D01*
X68321025Y-81781181D01*
X68307478Y-81786053D01*
X68289468Y-81791813D01*
X68271272Y-81796880D01*
X68252910Y-81801249D01*
X68234402Y-81804918D01*
X68215768Y-81807881D01*
X68197028Y-81810137D01*
X68178203Y-81811682D01*
X68159312Y-81812511D01*
X68143246Y-81812461D01*
X68127205Y-81811856D01*
X68111206Y-81810695D01*
X68095260Y-81808982D01*
X68079384Y-81806717D01*
X68063591Y-81803904D01*
X68047895Y-81800542D01*
X68032311Y-81796635D01*
X68018376Y-81791940D01*
X68004621Y-81786781D01*
X67991055Y-81781162D01*
X67977691Y-81775089D01*
X67964540Y-81768567D01*
X67951613Y-81761602D01*
X67938922Y-81754200D01*
X67926479Y-81746365D01*
X67915809Y-81739459D01*
X67905384Y-81732230D01*
X67895212Y-81724682D01*
X67885297Y-81716824D01*
X67875648Y-81708662D01*
X67866270Y-81700203D01*
X67857171Y-81691455D01*
X67848356Y-81682424D01*
X67839833Y-81673117D01*
X67831609Y-81663542D01*
X67823689Y-81653705D01*
X67816081Y-81643614D01*
X67808790Y-81633275D01*
X67801825Y-81622695D01*
X67795190Y-81611882D01*
X67788894Y-81600843D01*
X67767728Y-81550573D01*
X67767239Y-81546950D01*
X67766890Y-81543314D01*
X67766680Y-81539670D01*
X67766610Y-81536021D01*
X67766680Y-81532373D01*
X67766890Y-81528729D01*
X67767239Y-81525093D01*
X67767728Y-81521469D01*
X67767728Y-81487073D01*
X67765827Y-81454023D01*
X67764469Y-81420954D01*
X67763655Y-81387871D01*
X67763383Y-81354781D01*
X67763655Y-81321692D01*
X67764469Y-81288609D01*
X67765827Y-81255540D01*
X67767728Y-81222490D01*
X67767728Y-81096813D01*
X67926038Y-81096813D01*
X67926397Y-81126281D01*
X67927472Y-81155735D01*
X67929263Y-81185163D01*
X67931772Y-81214552D01*
X67931772Y-81360073D01*
X67930978Y-81371306D01*
X67930410Y-81382549D01*
X67930070Y-81393799D01*
X67929956Y-81405052D01*
X67930070Y-81416305D01*
X67930410Y-81427555D01*
X67930978Y-81438798D01*
X67931772Y-81450030D01*
X67933044Y-81456902D01*
X67934531Y-81463718D01*
X67936232Y-81470473D01*
X67938143Y-81477162D01*
X67940263Y-81483781D01*
X67942590Y-81490325D01*
X67945121Y-81496788D01*
X67947855Y-81503167D01*
X67950788Y-81509456D01*
X67953920Y-81515651D01*
X67957248Y-81521747D01*
X67960769Y-81527739D01*
X67964482Y-81533623D01*
X67968385Y-81539392D01*
X67972475Y-81545044D01*
X67976750Y-81550573D01*
X67980419Y-81555299D01*
X67984234Y-81559894D01*
X67988191Y-81564354D01*
X67992286Y-81568677D01*
X67996515Y-81572860D01*
X68000875Y-81576900D01*
X68005362Y-81580794D01*
X68009972Y-81584539D01*
X68014701Y-81588132D01*
X68019546Y-81591570D01*
X68024502Y-81594850D01*
X68029567Y-81597970D01*
X68034736Y-81600926D01*
X68040006Y-81603715D01*
X68045373Y-81606335D01*
X68050833Y-81608782D01*
X68057063Y-81612209D01*
X68063395Y-81615406D01*
X68069825Y-81618373D01*
X68076345Y-81621107D01*
X68082948Y-81623608D01*
X68089630Y-81625874D01*
X68096383Y-81627902D01*
X68103200Y-81629692D01*
X68110076Y-81631242D01*
X68117005Y-81632550D01*
X68123979Y-81633615D01*
X68130992Y-81634436D01*
X68138039Y-81635010D01*
X68145112Y-81635337D01*
X68152206Y-81635414D01*
X68159313Y-81635240D01*
X68166570Y-81635355D01*
X68173814Y-81635229D01*
X68181038Y-81634861D01*
X68188235Y-81634253D01*
X68195401Y-81633408D01*
X68202528Y-81632325D01*
X68209612Y-81631007D01*
X68216647Y-81629456D01*
X68223626Y-81627671D01*
X68230543Y-81625655D01*
X68237394Y-81623409D01*
X68244172Y-81620935D01*
X68250871Y-81618234D01*
X68257485Y-81615307D01*
X68264009Y-81612156D01*
X68270437Y-81608782D01*
X68275673Y-81606201D01*
X68280821Y-81603467D01*
X68285878Y-81600583D01*
X68290839Y-81597552D01*
X68295703Y-81594375D01*
X68300466Y-81591056D01*
X68305125Y-81587597D01*
X68309677Y-81584000D01*
X68314119Y-81580269D01*
X68318448Y-81576404D01*
X68322661Y-81572410D01*
X68326754Y-81568288D01*
X68330725Y-81564041D01*
X68334571Y-81559671D01*
X68338288Y-81555181D01*
X68341874Y-81550573D01*
X68346486Y-81545193D01*
X68350893Y-81539664D01*
X68355092Y-81533992D01*
X68359082Y-81528184D01*
X68362857Y-81522246D01*
X68366417Y-81516183D01*
X68369758Y-81510001D01*
X68372877Y-81503707D01*
X68375771Y-81497307D01*
X68378438Y-81490806D01*
X68380874Y-81484211D01*
X68383077Y-81477528D01*
X68385044Y-81470762D01*
X68386772Y-81463920D01*
X68388258Y-81457007D01*
X68389499Y-81450030D01*
X68391506Y-81420625D01*
X68392939Y-81391195D01*
X68393799Y-81361747D01*
X68394086Y-81332292D01*
X68393799Y-81302836D01*
X68392939Y-81273388D01*
X68391506Y-81243958D01*
X68389499Y-81214552D01*
X68389499Y-81069032D01*
X68390209Y-81057797D01*
X68390716Y-81046553D01*
X68391020Y-81035304D01*
X68391121Y-81024053D01*
X68391020Y-81012801D01*
X68390716Y-81001552D01*
X68390209Y-80990309D01*
X68389499Y-80979074D01*
X68388249Y-80972248D01*
X68386754Y-80965487D01*
X68385018Y-80958799D01*
X68383045Y-80952189D01*
X68380836Y-80945663D01*
X68378395Y-80939227D01*
X68375725Y-80932888D01*
X68372829Y-80926651D01*
X68369710Y-80920523D01*
X68366370Y-80914509D01*
X68362813Y-80908617D01*
X68359042Y-80902851D01*
X68355060Y-80897218D01*
X68350869Y-80891724D01*
X68346473Y-80886375D01*
X68341875Y-80881178D01*
X68338183Y-80876545D01*
X68334378Y-80872015D01*
X68330462Y-80867587D01*
X68326437Y-80863266D01*
X68322305Y-80859051D01*
X68318068Y-80854946D01*
X68313729Y-80850952D01*
X68309290Y-80847072D01*
X68304753Y-80843306D01*
X68300120Y-80839657D01*
X68295393Y-80836127D01*
X68290576Y-80832717D01*
X68285669Y-80829431D01*
X68280675Y-80826268D01*
X68275597Y-80823232D01*
X68270437Y-80820324D01*
X68263896Y-80817328D01*
X68257281Y-80814529D01*
X68250595Y-80811927D01*
X68243844Y-80809524D01*
X68237031Y-80807320D01*
X68230161Y-80805316D01*
X68223238Y-80803514D01*
X68216268Y-80801914D01*
X68209254Y-80800517D01*
X68202201Y-80799325D01*
X68195113Y-80798338D01*
X68187995Y-80797556D01*
X68180852Y-80796982D01*
X68173687Y-80796616D01*
X68166506Y-80796459D01*
X68159312Y-80796512D01*
X68152276Y-80796444D01*
X68145252Y-80796588D01*
X68138246Y-80796944D01*
X68131261Y-80797510D01*
X68124303Y-80798285D01*
X68117376Y-80799268D01*
X68110484Y-80800458D01*
X68103633Y-80801855D01*
X68096827Y-80803456D01*
X68090070Y-80805262D01*
X68083368Y-80807271D01*
X68076725Y-80809481D01*
X68070145Y-80811893D01*
X68063633Y-80814505D01*
X68057195Y-80817315D01*
X68050834Y-80820324D01*
X68045445Y-80823104D01*
X68040143Y-80826031D01*
X68034933Y-80829103D01*
X68029817Y-80832318D01*
X68024797Y-80835673D01*
X68019877Y-80839166D01*
X68015058Y-80842794D01*
X68010345Y-80846556D01*
X68005740Y-80850449D01*
X68001245Y-80854471D01*
X67996863Y-80858619D01*
X67992597Y-80862892D01*
X67988450Y-80867286D01*
X67984425Y-80871800D01*
X67980524Y-80876432D01*
X67976750Y-80881179D01*
X67972396Y-80886472D01*
X67968236Y-80891901D01*
X67964273Y-80897459D01*
X67960508Y-80903143D01*
X67956945Y-80908946D01*
X67953586Y-80914862D01*
X67950434Y-80920887D01*
X67947490Y-80927014D01*
X67944758Y-80933239D01*
X67942241Y-80939555D01*
X67939940Y-80945958D01*
X67937858Y-80952441D01*
X67935997Y-80959000D01*
X67934361Y-80965628D01*
X67932952Y-80972321D01*
X67931772Y-80979073D01*
X67929263Y-81008462D01*
X67927472Y-81037891D01*
X67926397Y-81067345D01*
X67926038Y-81096813D01*
X67767728Y-81096813D01*
X67767728Y-80947323D01*
X67770926Y-80932856D01*
G36*
X66000312Y-80624532D02*
G01*
X66019428Y-80624291D01*
X66038454Y-80624972D01*
X66057358Y-80626563D01*
X66076112Y-80629055D01*
X66094682Y-80632435D01*
X66113040Y-80636692D01*
X66131154Y-80641816D01*
X66148993Y-80647795D01*
X66166527Y-80654617D01*
X66183724Y-80662273D01*
X66200554Y-80670751D01*
X66216987Y-80680039D01*
X66232991Y-80690126D01*
X66248536Y-80701002D01*
X66263591Y-80712656D01*
X66278124Y-80725075D01*
X66291367Y-80737521D01*
X66304024Y-80750481D01*
X66316082Y-80763932D01*
X66327530Y-80777855D01*
X66338357Y-80792226D01*
X66348549Y-80807025D01*
X66358097Y-80822230D01*
X66366988Y-80837820D01*
X66375210Y-80853772D01*
X66382752Y-80870065D01*
X66389602Y-80886678D01*
X66395748Y-80903588D01*
X66401179Y-80920776D01*
X66405882Y-80938218D01*
X66409847Y-80955893D01*
X66413062Y-80973781D01*
X66225208Y-80973782D01*
X66222493Y-80964913D01*
X66219454Y-80956174D01*
X66216097Y-80947574D01*
X66212425Y-80939120D01*
X66208446Y-80930822D01*
X66204163Y-80922686D01*
X66199582Y-80914721D01*
X66194709Y-80906935D01*
X66189549Y-80899336D01*
X66184107Y-80891933D01*
X66178388Y-80884734D01*
X66172398Y-80877746D01*
X66166143Y-80870978D01*
X66159626Y-80864438D01*
X66152854Y-80858134D01*
X66145833Y-80852074D01*
X66137947Y-80846180D01*
X66129838Y-80840656D01*
X66121520Y-80835505D01*
X66113006Y-80830731D01*
X66104309Y-80826339D01*
X66095442Y-80822333D01*
X66086419Y-80818717D01*
X66077251Y-80815496D01*
X66067953Y-80812674D01*
X66058537Y-80810255D01*
X66049018Y-80808243D01*
X66039407Y-80806643D01*
X66029718Y-80805460D01*
X66019964Y-80804696D01*
X66010158Y-80804358D01*
X66000313Y-80804448D01*
X65993431Y-80804342D01*
X65986562Y-80804453D01*
X65979710Y-80804781D01*
X65972880Y-80805324D01*
X65966077Y-80806083D01*
X65959307Y-80807054D01*
X65952574Y-80808238D01*
X65945883Y-80809633D01*
X65939240Y-80811238D01*
X65932648Y-80813052D01*
X65926114Y-80815074D01*
X65919643Y-80817303D01*
X65913238Y-80819737D01*
X65906906Y-80822376D01*
X65900651Y-80825217D01*
X65894478Y-80828261D01*
X65888861Y-80830906D01*
X65883338Y-80833717D01*
X65877911Y-80836693D01*
X65872585Y-80839831D01*
X65867363Y-80843128D01*
X65862248Y-80846581D01*
X65857243Y-80850188D01*
X65852353Y-80853946D01*
X65847580Y-80857852D01*
X65842928Y-80861904D01*
X65838401Y-80866098D01*
X65834001Y-80870432D01*
X65829733Y-80874904D01*
X65825599Y-80879510D01*
X65821603Y-80884248D01*
X65817749Y-80889115D01*
X65813395Y-80894409D01*
X65809235Y-80899837D01*
X65805272Y-80905396D01*
X65801507Y-80911080D01*
X65797944Y-80916883D01*
X65794585Y-80922799D01*
X65791432Y-80928824D01*
X65788489Y-80934951D01*
X65785757Y-80941176D01*
X65783239Y-80947492D01*
X65780938Y-80953895D01*
X65778856Y-80960379D01*
X65776996Y-80966937D01*
X65775360Y-80973566D01*
X65773950Y-80980258D01*
X65772770Y-80987010D01*
X65770713Y-81016414D01*
X65769244Y-81045845D01*
X65768362Y-81075293D01*
X65768068Y-81104750D01*
X65768362Y-81134207D01*
X65769244Y-81163655D01*
X65770713Y-81193086D01*
X65772770Y-81222489D01*
X65772770Y-81368011D01*
X65771976Y-81379243D01*
X65771409Y-81390486D01*
X65771069Y-81401736D01*
X65770955Y-81412989D01*
X65771069Y-81424242D01*
X65771409Y-81435492D01*
X65771976Y-81446735D01*
X65772770Y-81457968D01*
X65774043Y-81464840D01*
X65775530Y-81471655D01*
X65777231Y-81478410D01*
X65779142Y-81485100D01*
X65781262Y-81491718D01*
X65783589Y-81498262D01*
X65786121Y-81504726D01*
X65788854Y-81511105D01*
X65791788Y-81517394D01*
X65794920Y-81523589D01*
X65798247Y-81529685D01*
X65801769Y-81535677D01*
X65805482Y-81541560D01*
X65809384Y-81547330D01*
X65813474Y-81552981D01*
X65817749Y-81558510D01*
X65821508Y-81563353D01*
X65825426Y-81568052D01*
X65829498Y-81572602D01*
X65833720Y-81577000D01*
X65838088Y-81581244D01*
X65842597Y-81585328D01*
X65847243Y-81589251D01*
X65852022Y-81593009D01*
X65856928Y-81596598D01*
X65861957Y-81600015D01*
X65867106Y-81603257D01*
X65872369Y-81606321D01*
X65877742Y-81609202D01*
X65883221Y-81611898D01*
X65888801Y-81614405D01*
X65894478Y-81616719D01*
X65900503Y-81620210D01*
X65906639Y-81623464D01*
X65912879Y-81626479D01*
X65919217Y-81629254D01*
X65925646Y-81631787D01*
X65932158Y-81634076D01*
X65938746Y-81636120D01*
X65945403Y-81637917D01*
X65952123Y-81639464D01*
X65958897Y-81640761D01*
X65965720Y-81641805D01*
X65972585Y-81642595D01*
X65979483Y-81643129D01*
X65986408Y-81643405D01*
X65993354Y-81643422D01*
X66000312Y-81643177D01*
X66019245Y-81642386D01*
X66037844Y-81640128D01*
X66056040Y-81636453D01*
X66073767Y-81631409D01*
X66090956Y-81625044D01*
X66107540Y-81617408D01*
X66123451Y-81608549D01*
X66138621Y-81598515D01*
X66152983Y-81587355D01*
X66166470Y-81575117D01*
X66179013Y-81561850D01*
X66190545Y-81547603D01*
X66200998Y-81532424D01*
X66210305Y-81516362D01*
X66218397Y-81499464D01*
X66225208Y-81481781D01*
X66413062Y-81481781D01*
X66409739Y-81500528D01*
X66405577Y-81518931D01*
X66400597Y-81536971D01*
X66394822Y-81554629D01*
X66388274Y-81571889D01*
X66380975Y-81588731D01*
X66372947Y-81605137D01*
X66364212Y-81621089D01*
X66354794Y-81636570D01*
X66344713Y-81651560D01*
X66333992Y-81666041D01*
X66322653Y-81679996D01*
X66310719Y-81693406D01*
X66298211Y-81706253D01*
X66285152Y-81718518D01*
X66271564Y-81730184D01*
X66257469Y-81741232D01*
X66242890Y-81751645D01*
X66227848Y-81761403D01*
X66212365Y-81770488D01*
X66196465Y-81778884D01*
X66180169Y-81786570D01*
X66163499Y-81793530D01*
X66146477Y-81799744D01*
X66129126Y-81805195D01*
X66111468Y-81809864D01*
X66093525Y-81813734D01*
X66075319Y-81816785D01*
X66056872Y-81819000D01*
X66038208Y-81820361D01*
X66019346Y-81820850D01*
X66000311Y-81820447D01*
X65984437Y-81812511D01*
X65968380Y-81812346D01*
X65952349Y-81811658D01*
X65936358Y-81810449D01*
X65920419Y-81808720D01*
X65904545Y-81806472D01*
X65888748Y-81803708D01*
X65873041Y-81800429D01*
X65857438Y-81796636D01*
X65843744Y-81792111D01*
X65830249Y-81787069D01*
X65816967Y-81781518D01*
X65803912Y-81775465D01*
X65791099Y-81768916D01*
X65778541Y-81761878D01*
X65766253Y-81754359D01*
X65754250Y-81746366D01*
X65743356Y-81739729D01*
X65732730Y-81732724D01*
X65722379Y-81725359D01*
X65712312Y-81717643D01*
X65702538Y-81709585D01*
X65693064Y-81701193D01*
X65683899Y-81692476D01*
X65675050Y-81683443D01*
X65666527Y-81674103D01*
X65658338Y-81664464D01*
X65650490Y-81654534D01*
X65642993Y-81644324D01*
X65635853Y-81633841D01*
X65629080Y-81623093D01*
X65622682Y-81612091D01*
X65616666Y-81600843D01*
X65592854Y-81550573D01*
X65593085Y-81546939D01*
X65593249Y-81543301D01*
X65593348Y-81539662D01*
X65593381Y-81536021D01*
X65593348Y-81532381D01*
X65593249Y-81528742D01*
X65593085Y-81525104D01*
X65592854Y-81521469D01*
X65592854Y-81487073D01*
X65590807Y-81454027D01*
X65589346Y-81420958D01*
X65588469Y-81387873D01*
X65588176Y-81354781D01*
X65588469Y-81321689D01*
X65589346Y-81288604D01*
X65590807Y-81255535D01*
X65592854Y-81222489D01*
X65592854Y-81050511D01*
X65592059Y-81037623D01*
X65591490Y-81024725D01*
X65591149Y-81011822D01*
X65591036Y-80998916D01*
X65591149Y-80986010D01*
X65591490Y-80973107D01*
X65592059Y-80960211D01*
X65592854Y-80947323D01*
X65593966Y-80939958D01*
X65595267Y-80932632D01*
X65596755Y-80925350D01*
X65598428Y-80918115D01*
X65600286Y-80910929D01*
X65602327Y-80903797D01*
X65604550Y-80896723D01*
X65606953Y-80889709D01*
X65609537Y-80882759D01*
X65612298Y-80875877D01*
X65615237Y-80869066D01*
X65618351Y-80862329D01*
X65621640Y-80855671D01*
X65625102Y-80849094D01*
X65628737Y-80842602D01*
X65632542Y-80836198D01*
X65638697Y-80825052D01*
X65645212Y-80814144D01*
X65652081Y-80803479D01*
X65659295Y-80793068D01*
X65666847Y-80782916D01*
X65674730Y-80773033D01*
X65682937Y-80763426D01*
X65691460Y-80754103D01*
X65700291Y-80745071D01*
X65709423Y-80736339D01*
X65718850Y-80727915D01*
X65728562Y-80719806D01*
X65738553Y-80712020D01*
X65748816Y-80704564D01*
X65759343Y-80697448D01*
X65770126Y-80690679D01*
X65782956Y-80682283D01*
X65796075Y-80674432D01*
X65809466Y-80667131D01*
X65823112Y-80660385D01*
X65836994Y-80654198D01*
X65851096Y-80648576D01*
X65865399Y-80643524D01*
X65879886Y-80639047D01*
X65894541Y-80635150D01*
X65909344Y-80631838D01*
X65924278Y-80629116D01*
X65939327Y-80626989D01*
X65954473Y-80625462D01*
X65969697Y-80624540D01*
X65984983Y-80624228D01*
X66000312Y-80624532D01*
G37*
X66000312Y-80624532D02*
X66019428Y-80624291D01*
X66038454Y-80624972D01*
X66057358Y-80626563D01*
X66076112Y-80629055D01*
X66094682Y-80632435D01*
X66113040Y-80636692D01*
X66131154Y-80641816D01*
X66148993Y-80647795D01*
X66166527Y-80654617D01*
X66183724Y-80662273D01*
X66200554Y-80670751D01*
X66216987Y-80680039D01*
X66232991Y-80690126D01*
X66248536Y-80701002D01*
X66263591Y-80712656D01*
X66278124Y-80725075D01*
X66291367Y-80737521D01*
X66304024Y-80750481D01*
X66316082Y-80763932D01*
X66327530Y-80777855D01*
X66338357Y-80792226D01*
X66348549Y-80807025D01*
X66358097Y-80822230D01*
X66366988Y-80837820D01*
X66375210Y-80853772D01*
X66382752Y-80870065D01*
X66389602Y-80886678D01*
X66395748Y-80903588D01*
X66401179Y-80920776D01*
X66405882Y-80938218D01*
X66409847Y-80955893D01*
X66413062Y-80973781D01*
X66225208Y-80973782D01*
X66222493Y-80964913D01*
X66219454Y-80956174D01*
X66216097Y-80947574D01*
X66212425Y-80939120D01*
X66208446Y-80930822D01*
X66204163Y-80922686D01*
X66199582Y-80914721D01*
X66194709Y-80906935D01*
X66189549Y-80899336D01*
X66184107Y-80891933D01*
X66178388Y-80884734D01*
X66172398Y-80877746D01*
X66166143Y-80870978D01*
X66159626Y-80864438D01*
X66152854Y-80858134D01*
X66145833Y-80852074D01*
X66137947Y-80846180D01*
X66129838Y-80840656D01*
X66121520Y-80835505D01*
X66113006Y-80830731D01*
X66104309Y-80826339D01*
X66095442Y-80822333D01*
X66086419Y-80818717D01*
X66077251Y-80815496D01*
X66067953Y-80812674D01*
X66058537Y-80810255D01*
X66049018Y-80808243D01*
X66039407Y-80806643D01*
X66029718Y-80805460D01*
X66019964Y-80804696D01*
X66010158Y-80804358D01*
X66000313Y-80804448D01*
X65993431Y-80804342D01*
X65986562Y-80804453D01*
X65979710Y-80804781D01*
X65972880Y-80805324D01*
X65966077Y-80806083D01*
X65959307Y-80807054D01*
X65952574Y-80808238D01*
X65945883Y-80809633D01*
X65939240Y-80811238D01*
X65932648Y-80813052D01*
X65926114Y-80815074D01*
X65919643Y-80817303D01*
X65913238Y-80819737D01*
X65906906Y-80822376D01*
X65900651Y-80825217D01*
X65894478Y-80828261D01*
X65888861Y-80830906D01*
X65883338Y-80833717D01*
X65877911Y-80836693D01*
X65872585Y-80839831D01*
X65867363Y-80843128D01*
X65862248Y-80846581D01*
X65857243Y-80850188D01*
X65852353Y-80853946D01*
X65847580Y-80857852D01*
X65842928Y-80861904D01*
X65838401Y-80866098D01*
X65834001Y-80870432D01*
X65829733Y-80874904D01*
X65825599Y-80879510D01*
X65821603Y-80884248D01*
X65817749Y-80889115D01*
X65813395Y-80894409D01*
X65809235Y-80899837D01*
X65805272Y-80905396D01*
X65801507Y-80911080D01*
X65797944Y-80916883D01*
X65794585Y-80922799D01*
X65791432Y-80928824D01*
X65788489Y-80934951D01*
X65785757Y-80941176D01*
X65783239Y-80947492D01*
X65780938Y-80953895D01*
X65778856Y-80960379D01*
X65776996Y-80966937D01*
X65775360Y-80973566D01*
X65773950Y-80980258D01*
X65772770Y-80987010D01*
X65770713Y-81016414D01*
X65769244Y-81045845D01*
X65768362Y-81075293D01*
X65768068Y-81104750D01*
X65768362Y-81134207D01*
X65769244Y-81163655D01*
X65770713Y-81193086D01*
X65772770Y-81222489D01*
X65772770Y-81368011D01*
X65771976Y-81379243D01*
X65771409Y-81390486D01*
X65771069Y-81401736D01*
X65770955Y-81412989D01*
X65771069Y-81424242D01*
X65771409Y-81435492D01*
X65771976Y-81446735D01*
X65772770Y-81457968D01*
X65774043Y-81464840D01*
X65775530Y-81471655D01*
X65777231Y-81478410D01*
X65779142Y-81485100D01*
X65781262Y-81491718D01*
X65783589Y-81498262D01*
X65786121Y-81504726D01*
X65788854Y-81511105D01*
X65791788Y-81517394D01*
X65794920Y-81523589D01*
X65798247Y-81529685D01*
X65801769Y-81535677D01*
X65805482Y-81541560D01*
X65809384Y-81547330D01*
X65813474Y-81552981D01*
X65817749Y-81558510D01*
X65821508Y-81563353D01*
X65825426Y-81568052D01*
X65829498Y-81572602D01*
X65833720Y-81577000D01*
X65838088Y-81581244D01*
X65842597Y-81585328D01*
X65847243Y-81589251D01*
X65852022Y-81593009D01*
X65856928Y-81596598D01*
X65861957Y-81600015D01*
X65867106Y-81603257D01*
X65872369Y-81606321D01*
X65877742Y-81609202D01*
X65883221Y-81611898D01*
X65888801Y-81614405D01*
X65894478Y-81616719D01*
X65900503Y-81620210D01*
X65906639Y-81623464D01*
X65912879Y-81626479D01*
X65919217Y-81629254D01*
X65925646Y-81631787D01*
X65932158Y-81634076D01*
X65938746Y-81636120D01*
X65945403Y-81637917D01*
X65952123Y-81639464D01*
X65958897Y-81640761D01*
X65965720Y-81641805D01*
X65972585Y-81642595D01*
X65979483Y-81643129D01*
X65986408Y-81643405D01*
X65993354Y-81643422D01*
X66000312Y-81643177D01*
X66019245Y-81642386D01*
X66037844Y-81640128D01*
X66056040Y-81636453D01*
X66073767Y-81631409D01*
X66090956Y-81625044D01*
X66107540Y-81617408D01*
X66123451Y-81608549D01*
X66138621Y-81598515D01*
X66152983Y-81587355D01*
X66166470Y-81575117D01*
X66179013Y-81561850D01*
X66190545Y-81547603D01*
X66200998Y-81532424D01*
X66210305Y-81516362D01*
X66218397Y-81499464D01*
X66225208Y-81481781D01*
X66413062Y-81481781D01*
X66409739Y-81500528D01*
X66405577Y-81518931D01*
X66400597Y-81536971D01*
X66394822Y-81554629D01*
X66388274Y-81571889D01*
X66380975Y-81588731D01*
X66372947Y-81605137D01*
X66364212Y-81621089D01*
X66354794Y-81636570D01*
X66344713Y-81651560D01*
X66333992Y-81666041D01*
X66322653Y-81679996D01*
X66310719Y-81693406D01*
X66298211Y-81706253D01*
X66285152Y-81718518D01*
X66271564Y-81730184D01*
X66257469Y-81741232D01*
X66242890Y-81751645D01*
X66227848Y-81761403D01*
X66212365Y-81770488D01*
X66196465Y-81778884D01*
X66180169Y-81786570D01*
X66163499Y-81793530D01*
X66146477Y-81799744D01*
X66129126Y-81805195D01*
X66111468Y-81809864D01*
X66093525Y-81813734D01*
X66075319Y-81816785D01*
X66056872Y-81819000D01*
X66038208Y-81820361D01*
X66019346Y-81820850D01*
X66000311Y-81820447D01*
X65984437Y-81812511D01*
X65968380Y-81812346D01*
X65952349Y-81811658D01*
X65936358Y-81810449D01*
X65920419Y-81808720D01*
X65904545Y-81806472D01*
X65888748Y-81803708D01*
X65873041Y-81800429D01*
X65857438Y-81796636D01*
X65843744Y-81792111D01*
X65830249Y-81787069D01*
X65816967Y-81781518D01*
X65803912Y-81775465D01*
X65791099Y-81768916D01*
X65778541Y-81761878D01*
X65766253Y-81754359D01*
X65754250Y-81746366D01*
X65743356Y-81739729D01*
X65732730Y-81732724D01*
X65722379Y-81725359D01*
X65712312Y-81717643D01*
X65702538Y-81709585D01*
X65693064Y-81701193D01*
X65683899Y-81692476D01*
X65675050Y-81683443D01*
X65666527Y-81674103D01*
X65658338Y-81664464D01*
X65650490Y-81654534D01*
X65642993Y-81644324D01*
X65635853Y-81633841D01*
X65629080Y-81623093D01*
X65622682Y-81612091D01*
X65616666Y-81600843D01*
X65592854Y-81550573D01*
X65593085Y-81546939D01*
X65593249Y-81543301D01*
X65593348Y-81539662D01*
X65593381Y-81536021D01*
X65593348Y-81532381D01*
X65593249Y-81528742D01*
X65593085Y-81525104D01*
X65592854Y-81521469D01*
X65592854Y-81487073D01*
X65590807Y-81454027D01*
X65589346Y-81420958D01*
X65588469Y-81387873D01*
X65588176Y-81354781D01*
X65588469Y-81321689D01*
X65589346Y-81288604D01*
X65590807Y-81255535D01*
X65592854Y-81222489D01*
X65592854Y-81050511D01*
X65592059Y-81037623D01*
X65591490Y-81024725D01*
X65591149Y-81011822D01*
X65591036Y-80998916D01*
X65591149Y-80986010D01*
X65591490Y-80973107D01*
X65592059Y-80960211D01*
X65592854Y-80947323D01*
X65593966Y-80939958D01*
X65595267Y-80932632D01*
X65596755Y-80925350D01*
X65598428Y-80918115D01*
X65600286Y-80910929D01*
X65602327Y-80903797D01*
X65604550Y-80896723D01*
X65606953Y-80889709D01*
X65609537Y-80882759D01*
X65612298Y-80875877D01*
X65615237Y-80869066D01*
X65618351Y-80862329D01*
X65621640Y-80855671D01*
X65625102Y-80849094D01*
X65628737Y-80842602D01*
X65632542Y-80836198D01*
X65638697Y-80825052D01*
X65645212Y-80814144D01*
X65652081Y-80803479D01*
X65659295Y-80793068D01*
X65666847Y-80782916D01*
X65674730Y-80773033D01*
X65682937Y-80763426D01*
X65691460Y-80754103D01*
X65700291Y-80745071D01*
X65709423Y-80736339D01*
X65718850Y-80727915D01*
X65728562Y-80719806D01*
X65738553Y-80712020D01*
X65748816Y-80704564D01*
X65759343Y-80697448D01*
X65770126Y-80690679D01*
X65782956Y-80682283D01*
X65796075Y-80674432D01*
X65809466Y-80667131D01*
X65823112Y-80660385D01*
X65836994Y-80654198D01*
X65851096Y-80648576D01*
X65865399Y-80643524D01*
X65879886Y-80639047D01*
X65894541Y-80635150D01*
X65909344Y-80631838D01*
X65924278Y-80629116D01*
X65939327Y-80626989D01*
X65954473Y-80625462D01*
X65969697Y-80624540D01*
X65984983Y-80624228D01*
X66000312Y-80624532D01*
G36*
X64580445Y-81354781D02*
G01*
X64580717Y-81321692D01*
X64581532Y-81288609D01*
X64582890Y-81255540D01*
X64584791Y-81222490D01*
X64584791Y-80947323D01*
X64587989Y-80932856D01*
X64591700Y-80918526D01*
X64595920Y-80904348D01*
X64600643Y-80890335D01*
X64605866Y-80876499D01*
X64611582Y-80862856D01*
X64617788Y-80849418D01*
X64624479Y-80836198D01*
X64630901Y-80825254D01*
X64637641Y-80814527D01*
X64644693Y-80804024D01*
X64652052Y-80793750D01*
X64659710Y-80783712D01*
X64667663Y-80773917D01*
X64675904Y-80764370D01*
X64684427Y-80755078D01*
X64693227Y-80746048D01*
X64702297Y-80737285D01*
X64711631Y-80728796D01*
X64721224Y-80720587D01*
X64731070Y-80712664D01*
X64741162Y-80705035D01*
X64751494Y-80697704D01*
X64762062Y-80690679D01*
X64789228Y-80675134D01*
X64817170Y-80661662D01*
X64845776Y-80650263D01*
X64874936Y-80640936D01*
X64904538Y-80633682D01*
X64934472Y-80628500D01*
X64964628Y-80625391D01*
X64994894Y-80624355D01*
X65025161Y-80625391D01*
X65055317Y-80628500D01*
X65085251Y-80633682D01*
X65114853Y-80640936D01*
X65144013Y-80650262D01*
X65172619Y-80661662D01*
X65200561Y-80675133D01*
X65227727Y-80690678D01*
X65238374Y-80697458D01*
X65248761Y-80704585D01*
X65258880Y-80712050D01*
X65268724Y-80719845D01*
X65278285Y-80727962D01*
X65287556Y-80736393D01*
X65296529Y-80745130D01*
X65305198Y-80754164D01*
X65313553Y-80763489D01*
X65321589Y-80773095D01*
X65329297Y-80782975D01*
X65336671Y-80793120D01*
X65343702Y-80803523D01*
X65350383Y-80814176D01*
X65356707Y-80825070D01*
X65362666Y-80836198D01*
X65366765Y-80842505D01*
X65370679Y-80848917D01*
X65374404Y-80855429D01*
X65377940Y-80862038D01*
X65381285Y-80868738D01*
X65384437Y-80875527D01*
X65387394Y-80882400D01*
X65390156Y-80889351D01*
X65392720Y-80896379D01*
X65395085Y-80903477D01*
X65397248Y-80910642D01*
X65399210Y-80917870D01*
X65400967Y-80925156D01*
X65402519Y-80932496D01*
X65403864Y-80939887D01*
X65404999Y-80947323D01*
X65404999Y-81211907D01*
X65406447Y-81244966D01*
X65407481Y-81278037D01*
X65408102Y-81311116D01*
X65408309Y-81344199D01*
X65408102Y-81377281D01*
X65407481Y-81410360D01*
X65406447Y-81443430D01*
X65404999Y-81476489D01*
X65403933Y-81484098D01*
X65402648Y-81491661D01*
X65401146Y-81499174D01*
X65399430Y-81506633D01*
X65397500Y-81514033D01*
X65395358Y-81521370D01*
X65393006Y-81528639D01*
X65390446Y-81535835D01*
X65387679Y-81542955D01*
X65384708Y-81549993D01*
X65381533Y-81556945D01*
X65378156Y-81563807D01*
X65374579Y-81570574D01*
X65370804Y-81577242D01*
X65366833Y-81583805D01*
X65362667Y-81590261D01*
X65356544Y-81601268D01*
X65350083Y-81612054D01*
X65343290Y-81622611D01*
X65336171Y-81632932D01*
X65328733Y-81643009D01*
X65320982Y-81652836D01*
X65312926Y-81662406D01*
X65304570Y-81671711D01*
X65295921Y-81680744D01*
X65286986Y-81689499D01*
X65277771Y-81697968D01*
X65268282Y-81706145D01*
X65258528Y-81714021D01*
X65248513Y-81721591D01*
X65238245Y-81728846D01*
X65227729Y-81735781D01*
X65215543Y-81743446D01*
X65203135Y-81750725D01*
X65190515Y-81757614D01*
X65177690Y-81764109D01*
X65164671Y-81770204D01*
X65151467Y-81775897D01*
X65138087Y-81781181D01*
X65124541Y-81786053D01*
X65106531Y-81791813D01*
X65088335Y-81796880D01*
X65069973Y-81801249D01*
X65051465Y-81804918D01*
X65032831Y-81807881D01*
X65014091Y-81810137D01*
X64995266Y-81811682D01*
X64976375Y-81812511D01*
X64960309Y-81812461D01*
X64944269Y-81811856D01*
X64928269Y-81810695D01*
X64912323Y-81808982D01*
X64896447Y-81806717D01*
X64880653Y-81803904D01*
X64864958Y-81800542D01*
X64849374Y-81796635D01*
X64835439Y-81791940D01*
X64821683Y-81786781D01*
X64808118Y-81781162D01*
X64794754Y-81775089D01*
X64781603Y-81768567D01*
X64768676Y-81761602D01*
X64755985Y-81754200D01*
X64743541Y-81746365D01*
X64732871Y-81739459D01*
X64722447Y-81732230D01*
X64712274Y-81724682D01*
X64702360Y-81716824D01*
X64692710Y-81708662D01*
X64683333Y-81700203D01*
X64674234Y-81691455D01*
X64665419Y-81682424D01*
X64656896Y-81673117D01*
X64648672Y-81663542D01*
X64640752Y-81653705D01*
X64633144Y-81643614D01*
X64625854Y-81633275D01*
X64618888Y-81622695D01*
X64612254Y-81611882D01*
X64605957Y-81600843D01*
X64584791Y-81550573D01*
X64584302Y-81546950D01*
X64583952Y-81543314D01*
X64583743Y-81539670D01*
X64583673Y-81536021D01*
X64583743Y-81532373D01*
X64583952Y-81528729D01*
X64584302Y-81525093D01*
X64584791Y-81521469D01*
X64584791Y-81487073D01*
X64582890Y-81454023D01*
X64581532Y-81420954D01*
X64581140Y-81405052D01*
X64733790Y-81405052D01*
X64733904Y-81416305D01*
X64734244Y-81427555D01*
X64734811Y-81438798D01*
X64735606Y-81450030D01*
X64736878Y-81456902D01*
X64738366Y-81463718D01*
X64740066Y-81470473D01*
X64741977Y-81477162D01*
X64744098Y-81483781D01*
X64746424Y-81490325D01*
X64748955Y-81496788D01*
X64751689Y-81503167D01*
X64754623Y-81509456D01*
X64757754Y-81515651D01*
X64761082Y-81521747D01*
X64764603Y-81527739D01*
X64768316Y-81533623D01*
X64772219Y-81539392D01*
X64776309Y-81545044D01*
X64780584Y-81550573D01*
X64784253Y-81555299D01*
X64788069Y-81559894D01*
X64792025Y-81564354D01*
X64796120Y-81568677D01*
X64800350Y-81572860D01*
X64804710Y-81576900D01*
X64809196Y-81580794D01*
X64813806Y-81584539D01*
X64818535Y-81588132D01*
X64823380Y-81591570D01*
X64828337Y-81594850D01*
X64833401Y-81597970D01*
X64838571Y-81600926D01*
X64843840Y-81603715D01*
X64849207Y-81606335D01*
X64854667Y-81608782D01*
X64861624Y-81612666D01*
X64868710Y-81616261D01*
X64875916Y-81619567D01*
X64883232Y-81622580D01*
X64890649Y-81625299D01*
X64898159Y-81627722D01*
X64905753Y-81629847D01*
X64913421Y-81631672D01*
X64921155Y-81633195D01*
X64928946Y-81634414D01*
X64936784Y-81635328D01*
X64944661Y-81635933D01*
X64952567Y-81636229D01*
X64960494Y-81636214D01*
X64968433Y-81635885D01*
X64976375Y-81635240D01*
X64989573Y-81635101D01*
X65002665Y-81634215D01*
X65015622Y-81632593D01*
X65028416Y-81630249D01*
X65041019Y-81627196D01*
X65053403Y-81623447D01*
X65065539Y-81619015D01*
X65077399Y-81613914D01*
X65088954Y-81608156D01*
X65100176Y-81601755D01*
X65111038Y-81594723D01*
X65121510Y-81587075D01*
X65131564Y-81578823D01*
X65141172Y-81569980D01*
X65150306Y-81560559D01*
X65158937Y-81550573D01*
X65163549Y-81545193D01*
X65167956Y-81539664D01*
X65172155Y-81533992D01*
X65176144Y-81528184D01*
X65179920Y-81522246D01*
X65183480Y-81516183D01*
X65186821Y-81510001D01*
X65189939Y-81503707D01*
X65192834Y-81497307D01*
X65195500Y-81490806D01*
X65197937Y-81484211D01*
X65200140Y-81477528D01*
X65202107Y-81470762D01*
X65203835Y-81463920D01*
X65205321Y-81457007D01*
X65206562Y-81450030D01*
X65208569Y-81420625D01*
X65210002Y-81391195D01*
X65210862Y-81361747D01*
X65211149Y-81332292D01*
X65210862Y-81302836D01*
X65210002Y-81273388D01*
X65208569Y-81243958D01*
X65206562Y-81214552D01*
X65206562Y-81069032D01*
X65207272Y-81057797D01*
X65207779Y-81046553D01*
X65208083Y-81035304D01*
X65208185Y-81024053D01*
X65208083Y-81012801D01*
X65207779Y-81001552D01*
X65207272Y-80990309D01*
X65206562Y-80979074D01*
X65205312Y-80972248D01*
X65203817Y-80965487D01*
X65202081Y-80958799D01*
X65200108Y-80952189D01*
X65197899Y-80945663D01*
X65195458Y-80939227D01*
X65192788Y-80932888D01*
X65189892Y-80926651D01*
X65186773Y-80920523D01*
X65183433Y-80914509D01*
X65179876Y-80908617D01*
X65176105Y-80902851D01*
X65172123Y-80897218D01*
X65167932Y-80891724D01*
X65163536Y-80886375D01*
X65158937Y-80881178D01*
X65155246Y-80876545D01*
X65151441Y-80872015D01*
X65147525Y-80867587D01*
X65143499Y-80863266D01*
X65139367Y-80859051D01*
X65135131Y-80854946D01*
X65130792Y-80850952D01*
X65126353Y-80847072D01*
X65121816Y-80843306D01*
X65117183Y-80839657D01*
X65112456Y-80836127D01*
X65107639Y-80832717D01*
X65102732Y-80829431D01*
X65097739Y-80826268D01*
X65092661Y-80823232D01*
X65087500Y-80820324D01*
X65080960Y-80817328D01*
X65074344Y-80814529D01*
X65067658Y-80811927D01*
X65060907Y-80809524D01*
X65054094Y-80807320D01*
X65047224Y-80805316D01*
X65040302Y-80803514D01*
X65033331Y-80801914D01*
X65026317Y-80800517D01*
X65019264Y-80799325D01*
X65012177Y-80798338D01*
X65005059Y-80797556D01*
X64997915Y-80796982D01*
X64990750Y-80796616D01*
X64983569Y-80796459D01*
X64976375Y-80796512D01*
X64969339Y-80796444D01*
X64962316Y-80796588D01*
X64955309Y-80796944D01*
X64948324Y-80797510D01*
X64941366Y-80798285D01*
X64934439Y-80799268D01*
X64927547Y-80800458D01*
X64920696Y-80801855D01*
X64913890Y-80803456D01*
X64907133Y-80805262D01*
X64900431Y-80807271D01*
X64893788Y-80809481D01*
X64887208Y-80811893D01*
X64880697Y-80814505D01*
X64874258Y-80817315D01*
X64867897Y-80820324D01*
X64862508Y-80823104D01*
X64857207Y-80826031D01*
X64851996Y-80829103D01*
X64846880Y-80832318D01*
X64841860Y-80835673D01*
X64836940Y-80839166D01*
X64832121Y-80842794D01*
X64827408Y-80846556D01*
X64822803Y-80850449D01*
X64818307Y-80854471D01*
X64813926Y-80858619D01*
X64809660Y-80862892D01*
X64805513Y-80867286D01*
X64801488Y-80871800D01*
X64797587Y-80876432D01*
X64793813Y-80881179D01*
X64789459Y-80886472D01*
X64785299Y-80891901D01*
X64781336Y-80897459D01*
X64777571Y-80903143D01*
X64774008Y-80908946D01*
X64770649Y-80914862D01*
X64767496Y-80920887D01*
X64764553Y-80927014D01*
X64761821Y-80933239D01*
X64759303Y-80939555D01*
X64757002Y-80945958D01*
X64754920Y-80952441D01*
X64753060Y-80959000D01*
X64751424Y-80965628D01*
X64750014Y-80972321D01*
X64748834Y-80979073D01*
X64744671Y-81008321D01*
X64741223Y-81037649D01*
X64738491Y-81067043D01*
X64736477Y-81096490D01*
X64735181Y-81125978D01*
X64734603Y-81155493D01*
X64734744Y-81185022D01*
X64735606Y-81214552D01*
X64735606Y-81360073D01*
X64734811Y-81371306D01*
X64734244Y-81382549D01*
X64733904Y-81393799D01*
X64733790Y-81405052D01*
X64581140Y-81405052D01*
X64580717Y-81387871D01*
X64580445Y-81354781D01*
G37*
X64580445Y-81354781D02*
X64580717Y-81321692D01*
X64581532Y-81288609D01*
X64582890Y-81255540D01*
X64584791Y-81222490D01*
X64584791Y-80947323D01*
X64587989Y-80932856D01*
X64591700Y-80918526D01*
X64595920Y-80904348D01*
X64600643Y-80890335D01*
X64605866Y-80876499D01*
X64611582Y-80862856D01*
X64617788Y-80849418D01*
X64624479Y-80836198D01*
X64630901Y-80825254D01*
X64637641Y-80814527D01*
X64644693Y-80804024D01*
X64652052Y-80793750D01*
X64659710Y-80783712D01*
X64667663Y-80773917D01*
X64675904Y-80764370D01*
X64684427Y-80755078D01*
X64693227Y-80746048D01*
X64702297Y-80737285D01*
X64711631Y-80728796D01*
X64721224Y-80720587D01*
X64731070Y-80712664D01*
X64741162Y-80705035D01*
X64751494Y-80697704D01*
X64762062Y-80690679D01*
X64789228Y-80675134D01*
X64817170Y-80661662D01*
X64845776Y-80650263D01*
X64874936Y-80640936D01*
X64904538Y-80633682D01*
X64934472Y-80628500D01*
X64964628Y-80625391D01*
X64994894Y-80624355D01*
X65025161Y-80625391D01*
X65055317Y-80628500D01*
X65085251Y-80633682D01*
X65114853Y-80640936D01*
X65144013Y-80650262D01*
X65172619Y-80661662D01*
X65200561Y-80675133D01*
X65227727Y-80690678D01*
X65238374Y-80697458D01*
X65248761Y-80704585D01*
X65258880Y-80712050D01*
X65268724Y-80719845D01*
X65278285Y-80727962D01*
X65287556Y-80736393D01*
X65296529Y-80745130D01*
X65305198Y-80754164D01*
X65313553Y-80763489D01*
X65321589Y-80773095D01*
X65329297Y-80782975D01*
X65336671Y-80793120D01*
X65343702Y-80803523D01*
X65350383Y-80814176D01*
X65356707Y-80825070D01*
X65362666Y-80836198D01*
X65366765Y-80842505D01*
X65370679Y-80848917D01*
X65374404Y-80855429D01*
X65377940Y-80862038D01*
X65381285Y-80868738D01*
X65384437Y-80875527D01*
X65387394Y-80882400D01*
X65390156Y-80889351D01*
X65392720Y-80896379D01*
X65395085Y-80903477D01*
X65397248Y-80910642D01*
X65399210Y-80917870D01*
X65400967Y-80925156D01*
X65402519Y-80932496D01*
X65403864Y-80939887D01*
X65404999Y-80947323D01*
X65404999Y-81211907D01*
X65406447Y-81244966D01*
X65407481Y-81278037D01*
X65408102Y-81311116D01*
X65408309Y-81344199D01*
X65408102Y-81377281D01*
X65407481Y-81410360D01*
X65406447Y-81443430D01*
X65404999Y-81476489D01*
X65403933Y-81484098D01*
X65402648Y-81491661D01*
X65401146Y-81499174D01*
X65399430Y-81506633D01*
X65397500Y-81514033D01*
X65395358Y-81521370D01*
X65393006Y-81528639D01*
X65390446Y-81535835D01*
X65387679Y-81542955D01*
X65384708Y-81549993D01*
X65381533Y-81556945D01*
X65378156Y-81563807D01*
X65374579Y-81570574D01*
X65370804Y-81577242D01*
X65366833Y-81583805D01*
X65362667Y-81590261D01*
X65356544Y-81601268D01*
X65350083Y-81612054D01*
X65343290Y-81622611D01*
X65336171Y-81632932D01*
X65328733Y-81643009D01*
X65320982Y-81652836D01*
X65312926Y-81662406D01*
X65304570Y-81671711D01*
X65295921Y-81680744D01*
X65286986Y-81689499D01*
X65277771Y-81697968D01*
X65268282Y-81706145D01*
X65258528Y-81714021D01*
X65248513Y-81721591D01*
X65238245Y-81728846D01*
X65227729Y-81735781D01*
X65215543Y-81743446D01*
X65203135Y-81750725D01*
X65190515Y-81757614D01*
X65177690Y-81764109D01*
X65164671Y-81770204D01*
X65151467Y-81775897D01*
X65138087Y-81781181D01*
X65124541Y-81786053D01*
X65106531Y-81791813D01*
X65088335Y-81796880D01*
X65069973Y-81801249D01*
X65051465Y-81804918D01*
X65032831Y-81807881D01*
X65014091Y-81810137D01*
X64995266Y-81811682D01*
X64976375Y-81812511D01*
X64960309Y-81812461D01*
X64944269Y-81811856D01*
X64928269Y-81810695D01*
X64912323Y-81808982D01*
X64896447Y-81806717D01*
X64880653Y-81803904D01*
X64864958Y-81800542D01*
X64849374Y-81796635D01*
X64835439Y-81791940D01*
X64821683Y-81786781D01*
X64808118Y-81781162D01*
X64794754Y-81775089D01*
X64781603Y-81768567D01*
X64768676Y-81761602D01*
X64755985Y-81754200D01*
X64743541Y-81746365D01*
X64732871Y-81739459D01*
X64722447Y-81732230D01*
X64712274Y-81724682D01*
X64702360Y-81716824D01*
X64692710Y-81708662D01*
X64683333Y-81700203D01*
X64674234Y-81691455D01*
X64665419Y-81682424D01*
X64656896Y-81673117D01*
X64648672Y-81663542D01*
X64640752Y-81653705D01*
X64633144Y-81643614D01*
X64625854Y-81633275D01*
X64618888Y-81622695D01*
X64612254Y-81611882D01*
X64605957Y-81600843D01*
X64584791Y-81550573D01*
X64584302Y-81546950D01*
X64583952Y-81543314D01*
X64583743Y-81539670D01*
X64583673Y-81536021D01*
X64583743Y-81532373D01*
X64583952Y-81528729D01*
X64584302Y-81525093D01*
X64584791Y-81521469D01*
X64584791Y-81487073D01*
X64582890Y-81454023D01*
X64581532Y-81420954D01*
X64581140Y-81405052D01*
X64733790Y-81405052D01*
X64733904Y-81416305D01*
X64734244Y-81427555D01*
X64734811Y-81438798D01*
X64735606Y-81450030D01*
X64736878Y-81456902D01*
X64738366Y-81463718D01*
X64740066Y-81470473D01*
X64741977Y-81477162D01*
X64744098Y-81483781D01*
X64746424Y-81490325D01*
X64748955Y-81496788D01*
X64751689Y-81503167D01*
X64754623Y-81509456D01*
X64757754Y-81515651D01*
X64761082Y-81521747D01*
X64764603Y-81527739D01*
X64768316Y-81533623D01*
X64772219Y-81539392D01*
X64776309Y-81545044D01*
X64780584Y-81550573D01*
X64784253Y-81555299D01*
X64788069Y-81559894D01*
X64792025Y-81564354D01*
X64796120Y-81568677D01*
X64800350Y-81572860D01*
X64804710Y-81576900D01*
X64809196Y-81580794D01*
X64813806Y-81584539D01*
X64818535Y-81588132D01*
X64823380Y-81591570D01*
X64828337Y-81594850D01*
X64833401Y-81597970D01*
X64838571Y-81600926D01*
X64843840Y-81603715D01*
X64849207Y-81606335D01*
X64854667Y-81608782D01*
X64861624Y-81612666D01*
X64868710Y-81616261D01*
X64875916Y-81619567D01*
X64883232Y-81622580D01*
X64890649Y-81625299D01*
X64898159Y-81627722D01*
X64905753Y-81629847D01*
X64913421Y-81631672D01*
X64921155Y-81633195D01*
X64928946Y-81634414D01*
X64936784Y-81635328D01*
X64944661Y-81635933D01*
X64952567Y-81636229D01*
X64960494Y-81636214D01*
X64968433Y-81635885D01*
X64976375Y-81635240D01*
X64989573Y-81635101D01*
X65002665Y-81634215D01*
X65015622Y-81632593D01*
X65028416Y-81630249D01*
X65041019Y-81627196D01*
X65053403Y-81623447D01*
X65065539Y-81619015D01*
X65077399Y-81613914D01*
X65088954Y-81608156D01*
X65100176Y-81601755D01*
X65111038Y-81594723D01*
X65121510Y-81587075D01*
X65131564Y-81578823D01*
X65141172Y-81569980D01*
X65150306Y-81560559D01*
X65158937Y-81550573D01*
X65163549Y-81545193D01*
X65167956Y-81539664D01*
X65172155Y-81533992D01*
X65176144Y-81528184D01*
X65179920Y-81522246D01*
X65183480Y-81516183D01*
X65186821Y-81510001D01*
X65189939Y-81503707D01*
X65192834Y-81497307D01*
X65195500Y-81490806D01*
X65197937Y-81484211D01*
X65200140Y-81477528D01*
X65202107Y-81470762D01*
X65203835Y-81463920D01*
X65205321Y-81457007D01*
X65206562Y-81450030D01*
X65208569Y-81420625D01*
X65210002Y-81391195D01*
X65210862Y-81361747D01*
X65211149Y-81332292D01*
X65210862Y-81302836D01*
X65210002Y-81273388D01*
X65208569Y-81243958D01*
X65206562Y-81214552D01*
X65206562Y-81069032D01*
X65207272Y-81057797D01*
X65207779Y-81046553D01*
X65208083Y-81035304D01*
X65208185Y-81024053D01*
X65208083Y-81012801D01*
X65207779Y-81001552D01*
X65207272Y-80990309D01*
X65206562Y-80979074D01*
X65205312Y-80972248D01*
X65203817Y-80965487D01*
X65202081Y-80958799D01*
X65200108Y-80952189D01*
X65197899Y-80945663D01*
X65195458Y-80939227D01*
X65192788Y-80932888D01*
X65189892Y-80926651D01*
X65186773Y-80920523D01*
X65183433Y-80914509D01*
X65179876Y-80908617D01*
X65176105Y-80902851D01*
X65172123Y-80897218D01*
X65167932Y-80891724D01*
X65163536Y-80886375D01*
X65158937Y-80881178D01*
X65155246Y-80876545D01*
X65151441Y-80872015D01*
X65147525Y-80867587D01*
X65143499Y-80863266D01*
X65139367Y-80859051D01*
X65135131Y-80854946D01*
X65130792Y-80850952D01*
X65126353Y-80847072D01*
X65121816Y-80843306D01*
X65117183Y-80839657D01*
X65112456Y-80836127D01*
X65107639Y-80832717D01*
X65102732Y-80829431D01*
X65097739Y-80826268D01*
X65092661Y-80823232D01*
X65087500Y-80820324D01*
X65080960Y-80817328D01*
X65074344Y-80814529D01*
X65067658Y-80811927D01*
X65060907Y-80809524D01*
X65054094Y-80807320D01*
X65047224Y-80805316D01*
X65040302Y-80803514D01*
X65033331Y-80801914D01*
X65026317Y-80800517D01*
X65019264Y-80799325D01*
X65012177Y-80798338D01*
X65005059Y-80797556D01*
X64997915Y-80796982D01*
X64990750Y-80796616D01*
X64983569Y-80796459D01*
X64976375Y-80796512D01*
X64969339Y-80796444D01*
X64962316Y-80796588D01*
X64955309Y-80796944D01*
X64948324Y-80797510D01*
X64941366Y-80798285D01*
X64934439Y-80799268D01*
X64927547Y-80800458D01*
X64920696Y-80801855D01*
X64913890Y-80803456D01*
X64907133Y-80805262D01*
X64900431Y-80807271D01*
X64893788Y-80809481D01*
X64887208Y-80811893D01*
X64880697Y-80814505D01*
X64874258Y-80817315D01*
X64867897Y-80820324D01*
X64862508Y-80823104D01*
X64857207Y-80826031D01*
X64851996Y-80829103D01*
X64846880Y-80832318D01*
X64841860Y-80835673D01*
X64836940Y-80839166D01*
X64832121Y-80842794D01*
X64827408Y-80846556D01*
X64822803Y-80850449D01*
X64818307Y-80854471D01*
X64813926Y-80858619D01*
X64809660Y-80862892D01*
X64805513Y-80867286D01*
X64801488Y-80871800D01*
X64797587Y-80876432D01*
X64793813Y-80881179D01*
X64789459Y-80886472D01*
X64785299Y-80891901D01*
X64781336Y-80897459D01*
X64777571Y-80903143D01*
X64774008Y-80908946D01*
X64770649Y-80914862D01*
X64767496Y-80920887D01*
X64764553Y-80927014D01*
X64761821Y-80933239D01*
X64759303Y-80939555D01*
X64757002Y-80945958D01*
X64754920Y-80952441D01*
X64753060Y-80959000D01*
X64751424Y-80965628D01*
X64750014Y-80972321D01*
X64748834Y-80979073D01*
X64744671Y-81008321D01*
X64741223Y-81037649D01*
X64738491Y-81067043D01*
X64736477Y-81096490D01*
X64735181Y-81125978D01*
X64734603Y-81155493D01*
X64734744Y-81185022D01*
X64735606Y-81214552D01*
X64735606Y-81360073D01*
X64734811Y-81371306D01*
X64734244Y-81382549D01*
X64733904Y-81393799D01*
X64733790Y-81405052D01*
X64581140Y-81405052D01*
X64580717Y-81387871D01*
X64580445Y-81354781D01*
D11*
%TO.C,B+*%
X126492000Y-45974000D03*
%TD*%
%TO.C,B-*%
X111252000Y-45974000D03*
%TD*%
D12*
%TO.C,J2*%
X122098000Y-82750000D03*
X115098000Y-82750000D03*
D13*
X117498000Y-85050000D03*
X117478000Y-80420000D03*
X120478000Y-80420000D03*
X120498000Y-85050000D03*
X112398000Y-80450000D03*
X112378000Y-85020000D03*
X113498000Y-85050000D03*
X113478000Y-80420000D03*
%TD*%
D14*
%TO.C,RSW1*%
X82498000Y-22098000D03*
X75998000Y-22098000D03*
%TD*%
D15*
%TO.C,SW2*%
X21860000Y-41880000D03*
X32300000Y-41880000D03*
D16*
X21580000Y-46080000D03*
D17*
X27080000Y-46080000D03*
D16*
X32580000Y-46080000D03*
D18*
X27080000Y-51980000D03*
X32080000Y-49880000D03*
X22080000Y-49880000D03*
%TD*%
D16*
%TO.C,SW3*%
X39580000Y-34080000D03*
D15*
X50300000Y-29880000D03*
D16*
X50580000Y-34080000D03*
D15*
X39860000Y-29880000D03*
D17*
X45080000Y-34080000D03*
D18*
X45080000Y-39980000D03*
X50080000Y-37880000D03*
X40080000Y-37880000D03*
%TD*%
D16*
%TO.C,SW4*%
X57580000Y-27080000D03*
D15*
X68300000Y-22880000D03*
D16*
X68580000Y-27080000D03*
D17*
X63080000Y-27080000D03*
D15*
X57860000Y-22880000D03*
D18*
X63080000Y-32980000D03*
X58080000Y-30880000D03*
X68080000Y-30880000D03*
%TD*%
D15*
%TO.C,SW5*%
X75860000Y-28380000D03*
D16*
X75580000Y-32580000D03*
X86580000Y-32580000D03*
D17*
X81080000Y-32580000D03*
D15*
X86300000Y-28380000D03*
D18*
X81080000Y-38480000D03*
X76080000Y-36380000D03*
X86080000Y-36380000D03*
%TD*%
D15*
%TO.C,SW6*%
X104300000Y-30880000D03*
D17*
X99080000Y-35080000D03*
D15*
X93860000Y-30880000D03*
D16*
X93580000Y-35080000D03*
X104580000Y-35080000D03*
D18*
X99080000Y-40980000D03*
X94080000Y-38880000D03*
X104080000Y-38880000D03*
%TD*%
D16*
%TO.C,SW8*%
X32580000Y-63080000D03*
X21580000Y-63080000D03*
D15*
X32300000Y-58880000D03*
D17*
X27080000Y-63080000D03*
D15*
X21860000Y-58880000D03*
D18*
X27080000Y-68980000D03*
X22080000Y-66880000D03*
X32080000Y-66880000D03*
%TD*%
D16*
%TO.C,SW9*%
X39580000Y-51054000D03*
X50580000Y-51054000D03*
D17*
X45080000Y-51054000D03*
D15*
X50300000Y-46854000D03*
X39860000Y-46854000D03*
D18*
X45080000Y-56954000D03*
X40080000Y-54854000D03*
X50080000Y-54854000D03*
%TD*%
D17*
%TO.C,SW10*%
X63080000Y-44196000D03*
D16*
X68580000Y-44196000D03*
X57580000Y-44196000D03*
D15*
X57860000Y-39996000D03*
X68300000Y-39996000D03*
D18*
X63080000Y-50096000D03*
X58080000Y-47996000D03*
X68080000Y-47996000D03*
%TD*%
D15*
%TO.C,SW11*%
X86300000Y-45330000D03*
D17*
X81080000Y-49530000D03*
D16*
X86580000Y-49530000D03*
D15*
X75860000Y-45330000D03*
D16*
X75580000Y-49530000D03*
D18*
X81080000Y-55430000D03*
X76080000Y-53330000D03*
X86080000Y-53330000D03*
%TD*%
D15*
%TO.C,SW12*%
X104280000Y-47870000D03*
D16*
X93560000Y-52070000D03*
D15*
X93840000Y-47870000D03*
D17*
X99060000Y-52070000D03*
D16*
X104560000Y-52070000D03*
D18*
X99060000Y-57970000D03*
X94060000Y-55870000D03*
X104060000Y-55870000D03*
%TD*%
D16*
%TO.C,SW14*%
X21580000Y-80080000D03*
D17*
X27080000Y-80080000D03*
D15*
X21860000Y-75880000D03*
D16*
X32580000Y-80080000D03*
D15*
X32300000Y-75880000D03*
D18*
X27080000Y-85980000D03*
X32080000Y-83880000D03*
X22080000Y-83880000D03*
%TD*%
D16*
%TO.C,SW15*%
X39580000Y-68072000D03*
D17*
X45080000Y-68072000D03*
D15*
X39860000Y-63872000D03*
D16*
X50580000Y-68072000D03*
D15*
X50300000Y-63872000D03*
D18*
X45080000Y-73972000D03*
X50080000Y-71872000D03*
X40080000Y-71872000D03*
%TD*%
D15*
%TO.C,SW16*%
X68300000Y-57014000D03*
D17*
X63080000Y-61214000D03*
D16*
X68580000Y-61214000D03*
D15*
X57860000Y-57014000D03*
D16*
X57580000Y-61214000D03*
D18*
X63080000Y-67114000D03*
X58080000Y-65014000D03*
X68080000Y-65014000D03*
%TD*%
D15*
%TO.C,SW17*%
X75860000Y-62348000D03*
D16*
X75580000Y-66548000D03*
D15*
X86300000Y-62348000D03*
D16*
X86580000Y-66548000D03*
D17*
X81080000Y-66548000D03*
D18*
X81080000Y-72448000D03*
X86080000Y-70348000D03*
X76080000Y-70348000D03*
%TD*%
D15*
%TO.C,SW18*%
X93840000Y-64888000D03*
D16*
X104560000Y-69088000D03*
D17*
X99060000Y-69088000D03*
D15*
X104280000Y-64888000D03*
D16*
X93560000Y-69088000D03*
D18*
X99060000Y-74988000D03*
X94060000Y-72888000D03*
X104060000Y-72888000D03*
%TD*%
D15*
%TO.C,SW20*%
X111776653Y-101027307D03*
D16*
X114119140Y-97530000D03*
D17*
X109356000Y-94780000D03*
D16*
X104592860Y-92030000D03*
D15*
X102735347Y-95807307D03*
D18*
X112306000Y-89670450D03*
X106925873Y-88989103D03*
X115586127Y-93989103D03*
%TD*%
D17*
%TO.C,SW21*%
X90796000Y-87030000D03*
D16*
X85483408Y-85606495D03*
D15*
X94751093Y-92437924D03*
D16*
X96108592Y-88453505D03*
D15*
X84666827Y-89735853D03*
D18*
X92323032Y-81331038D03*
X96609142Y-84653577D03*
X86949883Y-82065387D03*
%TD*%
D19*
%TO.C,U1*%
X126528400Y-48514000D03*
X109982000Y-52324000D03*
X126528400Y-51054000D03*
X126528400Y-53594000D03*
X109982000Y-54864000D03*
X109982000Y-57404000D03*
X126528400Y-56134000D03*
X126528400Y-58674000D03*
X109982000Y-59944000D03*
X126528400Y-61214000D03*
X109982000Y-62484000D03*
X126528400Y-63754000D03*
X109982000Y-65024000D03*
X126528400Y-66294000D03*
X109982000Y-67564000D03*
X109982000Y-70104000D03*
X126528400Y-68834000D03*
X126528400Y-71374000D03*
X109982000Y-72644000D03*
X126528400Y-73914000D03*
X109982000Y-75184000D03*
X109982000Y-77724000D03*
X126528400Y-76454000D03*
X125222000Y-77724000D03*
X111308400Y-76454000D03*
X125222000Y-75184000D03*
X111308400Y-73914000D03*
X125222000Y-72644000D03*
X111308400Y-71374000D03*
X111308400Y-68834000D03*
X125222000Y-70104000D03*
X125222000Y-67564000D03*
X111308400Y-66294000D03*
X111308400Y-63754000D03*
X125222000Y-65024000D03*
X111308400Y-61214000D03*
X125222000Y-62484000D03*
X111308400Y-58674000D03*
X125222000Y-59944000D03*
X125222000Y-57404000D03*
X111308400Y-56134000D03*
X111308400Y-53594000D03*
X125222000Y-54864000D03*
X125222000Y-52324000D03*
X111308400Y-51054000D03*
X111308400Y-48514000D03*
X125222000Y-49784000D03*
X109982000Y-49784000D03*
%TD*%
D20*
%TO.C,SW2*%
X114664000Y-45128000D03*
X122064000Y-47328000D03*
X122064000Y-45128000D03*
X114664000Y-47328000D03*
D21*
X120614000Y-48303000D03*
X117614000Y-48303000D03*
X116114000Y-48303000D03*
%TD*%
D22*
%TO.C,POWER SW*%
X116864000Y-46228000D03*
X119864000Y-46228000D03*
%TD*%
M02*
