%TF.GenerationSoftware,KiCad,Pcbnew,(6.0.4-0)*%
%TF.CreationDate,2022-12-22T20:07:12-07:00*%
%TF.ProjectId,half-swept,68616c66-2d73-4776-9570-742e6b696361,rev?*%
%TF.SameCoordinates,Original*%
%TF.FileFunction,Profile,NP*%
%FSLAX46Y46*%
G04 Gerber Fmt 4.6, Leading zero omitted, Abs format (unit mm)*
G04 Created by KiCad (PCBNEW (6.0.4-0)) date 2022-12-22 20:07:12*
%MOMM*%
%LPD*%
G01*
G04 APERTURE LIST*
%TA.AperFunction,Profile*%
%ADD10C,0.050000*%
%TD*%
G04 APERTURE END LIST*
D10*
X127635000Y-45362000D02*
G75*
G03*
X126885000Y-44612000I-750000J0D01*
G01*
X18690055Y-36976702D02*
X18730254Y-86245024D01*
X112727492Y-105833823D02*
G75*
G03*
X89409134Y-95561946I-46183492J-73238277D01*
G01*
X107222002Y-42683999D02*
G75*
G03*
X109257002Y-44614917I1999998J69999D01*
G01*
X112727505Y-105833792D02*
G75*
G03*
X115386889Y-105012601I812995J2083892D01*
G01*
X89409134Y-95561946D02*
G75*
G03*
X20768000Y-88081119I-69219164J-316475414D01*
G01*
X18730252Y-86245024D02*
G75*
G03*
X20768000Y-88081119I1977998J146414D01*
G01*
X127635000Y-45362000D02*
X127635000Y-62484000D01*
X107222001Y-42683999D02*
X107222045Y-27137419D01*
X109257002Y-44614917D02*
X126885000Y-44612000D01*
X127635000Y-62484000D02*
X127647000Y-69850000D01*
X127647000Y-69850000D02*
X127635000Y-75987850D01*
X115386889Y-105012601D02*
X124129800Y-89458800D01*
X72419700Y-18343145D02*
G75*
G03*
X70789800Y-16713200I-1629900J45D01*
G01*
X37748745Y-24786055D02*
X52000000Y-24786055D01*
X36118800Y-33716812D02*
X36118800Y-26416000D01*
X55259890Y-16713205D02*
G75*
G03*
X53629945Y-18343145I0J-1629945D01*
G01*
X127177800Y-79502000D02*
X124445061Y-82431250D01*
X20320000Y-35346757D02*
X34500000Y-35346757D01*
X124282200Y-88214200D02*
X124282200Y-82804000D01*
X20320000Y-35346755D02*
G75*
G03*
X18690055Y-36976702I0J-1629945D01*
G01*
X34500000Y-35346745D02*
G75*
G03*
X36129945Y-33716812I0J1629945D01*
G01*
X105592100Y-25527000D02*
X91931290Y-25527000D01*
X90301310Y-21603035D02*
G75*
G03*
X88671400Y-19973090I-1629910J35D01*
G01*
X74049690Y-19973090D02*
X88671400Y-19973090D01*
X53629945Y-23156110D02*
X53629945Y-18343145D01*
X124445061Y-82431250D02*
G75*
G03*
X124282200Y-82804000I345139J-372750D01*
G01*
X90301345Y-21603035D02*
X90301345Y-23897055D01*
X52000000Y-24786045D02*
G75*
G03*
X53629945Y-23156110I0J1629945D01*
G01*
X124131322Y-89453717D02*
G75*
G03*
X124282200Y-88214200I-3944822J1109117D01*
G01*
X90301400Y-23897055D02*
G75*
G03*
X91931290Y-25527000I1629900J-45D01*
G01*
X55259890Y-16713200D02*
X70789800Y-16713200D01*
X127635000Y-75987850D02*
X127635000Y-78232000D01*
X127177808Y-79502008D02*
G75*
G03*
X127635000Y-78232000I-1319508J1192308D01*
G01*
X37748745Y-24786100D02*
G75*
G03*
X36118800Y-26416000I-45J-1629900D01*
G01*
X72419710Y-18343145D02*
G75*
G03*
X74049690Y-19973090I1629990J45D01*
G01*
X107222026Y-27137419D02*
G75*
G03*
X105592100Y-25507474I-1629926J19D01*
G01*
M02*
