M48
; DRILL file {KiCad (6.0.4-0)} date Thursday, December 22, 2022 at 08:07:04 PM
; FORMAT={-:-/ absolute / inch / decimal}
; #@! TF.CreationDate,2022-12-22T20:07:04-07:00
; #@! TF.GenerationSoftware,Kicad,Pcbnew,(6.0.4-0)
; #@! TF.FileFunction,Plated,1,2,PTH
FMAT,2
INCH
; #@! TA.AperFunction,Plated,PTH,ViaDrill
T1C0.0157
; #@! TA.AperFunction,Plated,PTH,ComponentDrill
T2C0.0320
; #@! TA.AperFunction,Plated,PTH,ComponentDrill
T3C0.0354
; #@! TA.AperFunction,Plated,PTH,ComponentDrill
T4C0.0500
; #@! TA.AperFunction,Plated,PTH,ComponentDrill
T5C0.0512
%
G90
G05
T1
X4.13Y-1.93
X4.26Y-2.13
X4.27Y-1.92
X4.47Y-2.95
X4.48Y-2.61
X4.48Y-2.76
X4.49Y-3.04
X4.5Y-2.37
X4.5Y-2.68
X4.51Y-2.29
X4.51Y-2.51
X4.53Y-1.94
X4.61Y-2.54
X4.66Y-1.83
X4.68Y-2.41
X4.71Y-2.31
X4.72Y-2.61
X4.74Y-3.05
X4.76Y-1.84
X4.83Y-2.84
T2
X4.33Y-1.96
X4.33Y-2.06
X4.33Y-2.16
X4.33Y-2.26
X4.33Y-2.36
X4.33Y-2.46
X4.33Y-2.56
X4.33Y-2.66
X4.33Y-2.76
X4.33Y-2.86
X4.33Y-2.96
X4.33Y-3.06
X4.38Y-1.81
X4.3822Y-1.91
X4.3822Y-2.01
X4.3822Y-2.11
X4.3822Y-2.21
X4.3822Y-2.31
X4.3822Y-2.41
X4.3822Y-2.51
X4.3822Y-2.61
X4.3822Y-2.71
X4.3822Y-2.81
X4.3822Y-2.91
X4.3822Y-3.01
X4.93Y-1.96
X4.93Y-2.06
X4.93Y-2.16
X4.93Y-2.26
X4.93Y-2.36
X4.93Y-2.46
X4.93Y-2.56
X4.93Y-2.66
X4.93Y-2.76
X4.93Y-2.86
X4.93Y-2.96
X4.93Y-3.06
X4.98Y-1.81
X4.9814Y-1.91
X4.9814Y-2.01
X4.9814Y-2.11
X4.9814Y-2.21
X4.9814Y-2.31
X4.9814Y-2.41
X4.9814Y-2.51
X4.9814Y-2.61
X4.9814Y-2.71
X4.9814Y-2.81
X4.9814Y-2.91
X4.9814Y-3.01
T4
X0.8693Y-1.9638
X0.8693Y-2.6331
X0.8693Y-3.3024
X1.0661Y-2.0465
X1.0661Y-2.7157
X1.0661Y-3.385
X1.263Y-1.9638
X1.263Y-2.6331
X1.263Y-3.3024
X1.578Y-1.4913
X1.578Y-2.1596
X1.578Y-2.8296
X1.7748Y-1.574
X1.7748Y-2.2423
X1.7748Y-2.9123
X1.9717Y-1.4913
X1.9717Y-2.1596
X1.9717Y-2.8296
X2.2866Y-1.2157
X2.2866Y-1.8896
X2.2866Y-2.5596
X2.4835Y-1.2984
X2.4835Y-1.9723
X2.4835Y-2.6423
X2.6803Y-1.2157
X2.6803Y-1.8896
X2.6803Y-2.5596
X2.9953Y-1.4323
X2.9953Y-2.0996
X2.9953Y-2.7696
X3.1921Y-1.515
X3.1921Y-2.1823
X3.1921Y-2.8523
X3.389Y-1.4323
X3.389Y-2.0996
X3.389Y-2.7696
X3.4232Y-3.2309
X3.6348Y-3.202
X3.7031Y-2.1996
X3.7031Y-2.8696
X3.7039Y-1.5307
X3.8035Y-3.3328
X3.9Y-2.2823
X3.9Y-2.9523
X3.9008Y-1.6134
X4.0969Y-2.1996
X4.0969Y-2.8696
X4.0976Y-1.5307
X4.2097Y-3.5035
X4.4215Y-3.5303
X4.5506Y-3.7004
T5
X2.992Y-0.87
X3.248Y-0.87
T3
G00X4.4165Y-3.3472
M15
G01X4.4322Y-3.3472
M16
G05
G00X4.433Y-3.1673
M15
G01X4.4172Y-3.1673
M16
G05
G00X4.4598Y-3.1661
M15
G01X4.4755Y-3.1661
M16
G05
G00X4.4763Y-3.3484
M15
G01X4.4606Y-3.3484
M16
G05
G00X4.6172Y-3.1661
M15
G01X4.633Y-3.1661
M16
G05
G00X4.6338Y-3.3484
M15
G01X4.618Y-3.3484
M16
G05
G00X4.7354Y-3.1661
M15
G01X4.7511Y-3.1661
M16
G05
G00X4.7519Y-3.3484
M15
G01X4.7361Y-3.3484
M16
G05
T0
M30
